<svg xmlns="http://www.w3.org/2000/svg" width="18" height="18" style=""><rect id="backgroundrect" width="100%" height="100%" x="0" y="0" fill="none" stroke="none" class="" style=""/>
    <defs>
        <style>
            .cls-1{fill:none;stroke:#8090b5;stroke-linecap:round;stroke-linejoin:round;stroke-dasharray:2 4}
        </style>
    </defs>
    
    
<g class="currentLayer" style=""><title>Layer 1</title><g id="send" transform="rotate(90.09749603271484 8.999997138977053,9.000001907348631) " class="">
        <g id="Group_86" data-name="Group 86">
            <path id="Path_512" d="M16.56411119842528,9.704759134411816 a1.6190000000000002,1.6190000000000002 0 0 1 -0.7510000000000018,0.7510000000000018 L3.5991111984253052,16.36875913441181 a1.6190000000000002,1.6190000000000002 0 0 1 -2.208,-2.061 L3.515111198425302,8.998759134411813 L1.3911111984253068,3.689759134411812 A1.6190000000000002,1.6190000000000002 0 0 1 3.5991111984253052,1.6307591344118109 l12.214,5.912 a1.6190000000000002,1.6190000000000002 0 0 1 0.7510000000000018,2.162 zM3.1301111984252827,2.60375913441181 a0.54,0.54 0 0 0 -0.7360000000000018,0.6860000000000024 l2.068,5.17 h10.77 zM4.4611111984253,9.538759134411812 l-2.067,5.17 a0.539,0.539 0 0 0 0.7360000000000018,0.6850000000000024 l12.1,-5.854 z" data-name="Path 512" style="fill:#8090b5"/>
        </g>
    </g></g></svg>