<svg xmlns="http://www.w3.org/2000/svg" id="prefix__chat" width="38.965" height="35.007" viewBox="0 0 38.965 35.007">
    <defs>
        <style>
            .prefix__cls-1{fill:#8090b5}
        </style>
    </defs>
    <path id="prefix__Path_2027" d="M246.761 100a.761.761 0 1 0 .761.761.761.761 0 0 0-.761-.761zm0 0" class="prefix__cls-1" data-name="Path 2027" transform="translate(-227.279 -92.39)"/>
    <path id="prefix__Path_2028" d="M80.761 261.522a.761.761 0 1 0-.761-.761.761.761 0 0 0 .761.761zm0 0" class="prefix__cls-1" data-name="Path 2028" transform="translate(-73.912 -240.213)"/>
    <path id="prefix__Path_2029" d="M25.571 0C18.719 0 13.1 4.724 12.661 10.674 6.136 11 0 15.706 0 22.07a10.634 10.634 0 0 0 2.968 7.278 4.628 4.628 0 0 1-1.223 4.36.761.761 0 0 0 .538 1.3A8.4 8.4 0 0 0 8.1 32.657a17.343 17.343 0 0 0 5.295.829c6.85 0 12.473-4.723 12.909-10.671A17.113 17.113 0 0 0 30.865 22a8.4 8.4 0 0 0 5.816 2.351.761.761 0 0 0 .538-1.3A4.628 4.628 0 0 1 36 18.693a10.634 10.634 0 0 0 2.968-7.278C38.965 4.8 32.356 0 25.571 0zM13.394 31.963a15.385 15.385 0 0 1-5.214-.9.761.761 0 0 0-.843.193 6.867 6.867 0 0 1-3.415 2.027 6.155 6.155 0 0 0 .464-4.53.759.759 0 0 0-.186-.322 9.145 9.145 0 0 1-2.678-6.361c0-5.363 5.437-9.893 11.872-9.893 6.077 0 11.415 4.226 11.415 9.893.001 5.455-5.12 9.893-11.415 9.893zM34.765 17.78a.763.763 0 0 0-.186.322 6.155 6.155 0 0 0 .464 4.53 6.865 6.865 0 0 1-3.415-2.032.762.762 0 0 0-.843-.193 14.992 14.992 0 0 1-4.484.879 10.893 10.893 0 0 0-4.112-7.586h9.927a.761.761 0 0 0 0-1.522H19.851a14.194 14.194 0 0 0-5.664-1.5c.437-5.111 5.376-9.155 11.384-9.155 6.435 0 11.872 4.531 11.872 9.893a9.145 9.145 0 0 1-2.678 6.364zm0 0" class="prefix__cls-1" data-name="Path 2029"/>
    <path id="prefix__Path_2030" d="M130.35 260h-9.589a.761.761 0 1 0 0 1.522h9.589a.761.761 0 1 0 0-1.522zm0 0" class="prefix__cls-1" data-name="Path 2030" transform="translate(-110.868 -240.213)"/>
    <path id="prefix__Path_2031" d="M93.394 320H80.761a.761.761 0 1 0 0 1.522h12.633a.761.761 0 1 0 0-1.522zm0 0" class="prefix__cls-1" data-name="Path 2031" transform="translate(-73.912 -295.647)"/>
    <path id="prefix__Path_2032" d="M296.35 100h-9.589a.761.761 0 1 0 0 1.522h9.589a.761.761 0 1 0 0-1.522zm0 0" class="prefix__cls-1" data-name="Path 2032" transform="translate(-264.234 -92.39)"/>
</svg>
