<svg xmlns="http://www.w3.org/2000/svg" id="prefix__ic_copy" width="16.786" height="18.312" viewBox="0 0 16.786 18.312">
    <defs>
        <style>
            .prefix__cls-1{fill:#fff}
        </style>
    </defs>
    <path id="prefix__Path_2137" d="M11.635 121.165H2.1a2.1 2.1 0 0 1-2.1-2.1v-10.3a2.1 2.1 0 0 1 2.1-2.1h.38a.572.572 0 0 1 0 1.144H2.1a.955.955 0 0 0-.954.954v10.3a.955.955 0 0 0 .954.954h9.537a.955.955 0 0 0 .954-.954v-.381a.572.572 0 1 1 1.144 0v.381a2.1 2.1 0 0 1-2.1 2.102zm0 0" class="prefix__cls-1" data-name="Path 2137" transform="translate(0 -102.853)"/>
    <path id="prefix__Path_2138" d="M138.11 13.734h-8.01a2.1 2.1 0 0 1-2.1-2.1V2.1a2.1 2.1 0 0 1 2.1-2.1h8.011a2.1 2.1 0 0 1 2.1 2.1v9.537a2.1 2.1 0 0 1-2.101 2.097zm-8.01-12.59a.955.955 0 0 0-.954.954v9.537a.955.955 0 0 0 .954.954h8.011a.955.955 0 0 0 .954-.954V2.1a.955.955 0 0 0-.954-.954zm0 0" class="prefix__cls-1" data-name="Path 2138" transform="translate(-123.422)"/>
</svg>
