<svg xmlns="http://www.w3.org/2000/svg" width="14.593" height="16.283" viewBox="0 0 14.593 16.283">
    <defs>
        <style>
            .prefix__cls-1{fill:#fa7c50}
        </style>
    </defs>
    <g id="prefix__document" transform="translate(-26.57)">
        <g id="prefix__Group_1174" data-name="Group 1174" transform="translate(26.57)">
            <g id="prefix__Group_1173" data-name="Group 1173">
                <path id="prefix__Path_1841" d="M114.282 200.636a.636.636 0 0 0-.636-.636H107.1a.636.636 0 1 0 0 1.272h6.551a.636.636 0 0 0 .631-.636z" class="prefix__cls-1" data-name="Path 1841" transform="translate(-103.918 -193.64)"/>
                <path id="prefix__Path_1842" d="M107.1 280a.636.636 0 1 0 0 1.272h3.979a.636.636 0 1 0 0-1.272z" class="prefix__cls-1" data-name="Path 1842" transform="translate(-103.918 -271.095)"/>
                <path id="prefix__Path_1843" d="M31.241 15.011h-2.127a1.274 1.274 0 0 1-1.272-1.272V2.544a1.274 1.274 0 0 1 1.272-1.272h7.82a1.274 1.274 0 0 1 1.272 1.272v3.912a.636.636 0 0 0 1.272 0V2.544A2.547 2.547 0 0 0 36.934 0h-7.82a2.547 2.547 0 0 0-2.544 2.544v11.194a2.547 2.547 0 0 0 2.544 2.544h2.127a.636.636 0 0 0 0-1.272z" class="prefix__cls-1" data-name="Path 1843" transform="translate(-26.57)"/>
                <path id="prefix__Path_1844" d="M250.594 272.582a1.91 1.91 0 0 0-2.7 0l-3.492 3.484a.636.636 0 0 0-.159.265l-.76 2.5a.636.636 0 0 0 .778.8l2.567-.711a.636.636 0 0 0 .28-.163l3.485-3.478a1.91 1.91 0 0 0 .001-2.697zm-4.265 5.158l-1.292.358.378-1.244 2.356-2.351.9.9zm3.366-3.359l-.123.123-.9-.9.123-.123a.636.636 0 0 1 .9.9z" class="prefix__cls-1" data-name="Path 1844" transform="translate(-236.56 -263.373)"/>
                <path id="prefix__Path_1845" d="M113.646 120H107.1a.636.636 0 1 0 0 1.272h6.551a.636.636 0 0 0 0-1.272z" class="prefix__cls-1" data-name="Path 1845" transform="translate(-103.918 -116.184)"/>
            </g>
        </g>
    </g>
</svg>
