<svg xmlns="http://www.w3.org/2000/svg" width="26.066" height="28.279" viewBox="0 0 26.066 28.279">
    <defs>
        <style>
            .prefix__cls-1{fill:#5b5b76}
        </style>
    </defs>
    <g id="prefix__filter" transform="translate(-.5)">
        <path id="prefix__Path_2079" d="M279.858 316.012a3.424 3.424 0 1 0 3.424 3.424 3.428 3.428 0 0 0-3.424-3.424zm0 5.744a2.32 2.32 0 1 1 2.32-2.32 2.322 2.322 0 0 1-2.32 2.32zm0 0" class="prefix__cls-1" data-name="Path 2079" transform="translate(-260.693 -298.557)"/>
        <path id="prefix__Path_2080" d="M26.014 62.526h-.652a6.389 6.389 0 0 0-.545-1.314l.459-.459a.552.552 0 0 0 0-.781l-1.761-1.76a.552.552 0 0 0-.781 0l-.458.458a6.378 6.378 0 0 0-1.314-.544v-.648a.55.55 0 0 0-.055-.239l1.749-1.784a.552.552 0 0 0 .158-.387v-2.893a.552.552 0 0 0-.552-.552H14.5v-1.944a1.878 1.878 0 1 0-1.1-.039v1.983H6.911a2.381 2.381 0 1 0-4.63 0H1.052a.552.552 0 0 0-.552.552v2.894a.552.552 0 0 0 .158.387l2.137 2.18a.552.552 0 1 0 .789-.773L1.6 54.844v-2.117h20.1v2.116l-2.041 2.083H17.92a.552.552 0 0 0-.552.552v.648a6.373 6.373 0 0 0-1.314.544l-.458-.458a.552.552 0 0 0-.781 0l-1.761 1.76a.552.552 0 0 0 0 .781l.459.458a6.4 6.4 0 0 0-.545 1.314h-.65a.552.552 0 0 0-.552.552v2.49a.553.553 0 0 0 .552.553h.652a6.389 6.389 0 0 0 .545 1.314l-.461.462a.549.549 0 0 0-.154.3l-3.458 2.017v-7.148a.553.553 0 0 0-.158-.387l-2.222-2.266a.552.552 0 1 0-.789.773l2.064 2.105v7.885a.552.552 0 0 0 .831.477l4.33-2.528 1.313 1.314a.552.552 0 0 0 .781 0l.462-.462a6.374 6.374 0 0 0 1.314.545v.655a.552.552 0 0 0 .552.552h2.49a.552.552 0 0 0 .552-.552v-.656a6.379 6.379 0 0 0 1.314-.545l.462.462a.552.552 0 0 0 .781 0l1.76-1.761a.552.552 0 0 0 0-.781l-.462-.461a6.384 6.384 0 0 0 .545-1.314h.652a.552.552 0 0 0 .552-.552v-2.49a.552.552 0 0 0-.552-.552zm-12-15.433a.773.773 0 1 1-.773.773.774.774 0 0 1 .77-.773zM3.321 51.065a1.276 1.276 0 0 1 2.552 0 1.264 1.264 0 0 1-.129.558H3.45a1.264 1.264 0 0 1-.129-.558zm22.141 13.951h-.53a.552.552 0 0 0-.54.436 5.3 5.3 0 0 1-.733 1.769.552.552 0 0 0 .073.69l.375.375-.979.98-.376-.376a.553.553 0 0 0-.69-.073 5.3 5.3 0 0 1-1.769.733.553.553 0 0 0-.436.54v.533h-1.384v-.533a.552.552 0 0 0-.436-.54 5.3 5.3 0 0 1-1.769-.733.552.552 0 0 0-.69.073l-.376.376-.979-.98.375-.375a.552.552 0 0 0 .073-.69 5.3 5.3 0 0 1-.733-1.769.552.552 0 0 0-.54-.436h-.529v-1.385h.531a.552.552 0 0 0 .54-.436 5.3 5.3 0 0 1 .733-1.769.552.552 0 0 0-.073-.69l-.372-.372.98-.979.372.372a.552.552 0 0 0 .69.073 5.3 5.3 0 0 1 1.769-.733.552.552 0 0 0 .436-.54v-.526h1.385v.526a.552.552 0 0 0 .436.54 5.3 5.3 0 0 1 1.769.733.552.552 0 0 0 .69-.073l.372-.372.98.979-.372.372a.552.552 0 0 0-.073.69 5.3 5.3 0 0 1 .733 1.769.552.552 0 0 0 .54.436h.53zm0 0" class="prefix__cls-1" data-name="Path 2080" transform="translate(0 -43.448)"/>
        <path id="prefix__Path_2081" d="M114.437 4.124V6.2a.552.552 0 0 0 1.1 0V4.124a2.1 2.1 0 1 0-1.1 0zm.552-3.019A.994.994 0 1 1 114 2.1a1 1 0 0 1 .989-1zm0 0" class="prefix__cls-1" data-name="Path 2081" transform="translate(-106.183)"/>
        <path id="prefix__Path_2082" d="M304.879 4.124v2.338a.552.552 0 1 0 1.1 0V4.124a2.1 2.1 0 1 0-1.1 0zm.552-3.019a.994.994 0 1 1-.994.994 1 1 0 0 1 .994-.999zm0 0" class="prefix__cls-1" data-name="Path 2082" transform="translate(-286.106)"/>
        <path id="prefix__Path_2083" d="M71.228 272a.552.552 0 1 0 .391.162.557.557 0 0 0-.391-.162zm0 0" class="prefix__cls-1" data-name="Path 2083" transform="translate(-66.3 -256.977)"/>
    </g>
</svg>
