<svg xmlns="http://www.w3.org/2000/svg" id="prefix__pdf_1_" width="18.949" height="21" data-name="pdf (1)" viewBox="0 0 18.949 21">
    <defs>
        <style>
            .prefix__cls-1{fill:#fff}
        </style>
    </defs>
    <path id="prefix__Path_1901" d="M18.949 7.383h-1.435v-2.1L12.231 0H1.436v7.383H0v10.5h1.436V21h16.078v-3.117h1.436zM12.592 2.1l2.821 2.821h-2.821zm-9.926-.87h8.7v4.922h4.922v1.23H2.666zm13.617 18.54H2.666v-1.887h13.617zm1.436-3.117H1.23v-8.04h16.489zm0 0" class="prefix__cls-1" data-name="Path 1901"/>
    <path id="prefix__Path_1902" d="M74.23 245.732h.595a1.866 1.866 0 0 0 0-3.732H73v5.578h1.23zm0-2.5h.595a.636.636 0 0 1 0 1.271h-.595zm0 0" class="prefix__cls-1" data-name="Path 1902" transform="translate(-70.006 -232.074)"/>
    <path id="prefix__Path_1903" d="M196.691 245.117v-.656A2.464 2.464 0 0 0 194.23 242H193v5.578h1.23a2.464 2.464 0 0 0 2.461-2.461zm-2.461-1.887a1.232 1.232 0 0 1 1.23 1.23v.656a1.232 1.232 0 0 1-1.23 1.23zm0 0" class="prefix__cls-1" data-name="Path 1903" transform="translate(-185.084 -232.074)"/>
    <path id="prefix__Path_1904" d="M316.23 245.876h1.23v-1.23h-1.23v-1.416h1.846V242H315v5.578h1.23zm0 0" class="prefix__cls-1" data-name="Path 1904" transform="translate(-302.08 -232.074)"/>
</svg>
