<svg xmlns="http://www.w3.org/2000/svg" width="46.323" height="46.44" viewBox="0 0 46.323 46.44">
    <defs>
        <style>
            .prefix__cls-1{fill:#fa7c50}
        </style>
    </defs>
    <g id="prefix__flight" transform="translate(-.644)">
        <g id="prefix__Group_1139" data-name="Group 1139" transform="translate(27.742)">
            <g id="prefix__Group_1138" data-name="Group 1138">
                <path id="prefix__Path_1833" d="M315.212 9.739l-2.183.294-2.876-1.959 5.39-6.358L313 0l-7.2 5.106-2.48-1.688a2.518 2.518 0 1 0-2.809 4.182L303 9.251l-2.025 8.594 2.549 1.716 3.869-7.4 2.822 1.872.548 2.133 2.667 1.8 1.121-3.853 3.333-2.573zm-2.2-8.069l.488.33-4.492 5.3-2-1.365zm-9.993 15.9l-.489-.329 1.691-7.176 2.022 1.341zm10.34-4.265l-.72 2.477-.674-.454-.549-2.138-10.142-6.734a1.144 1.144 0 0 1 1.275-1.9l10.142 6.909 2.187-.295.665.448z" class="prefix__cls-1" data-name="Path 1833" transform="translate(-299.395)"/>
            </g>
        </g>
        <g id="prefix__Group_1141" data-name="Group 1141" transform="translate(1.788 30.059)">
            <g id="prefix__Group_1140" data-name="Group 1140">
                <path id="prefix__Path_1834" d="M14.557 331.4l-1.305.427c.146.447.309.9.482 1.333l1.276-.507c-.163-.41-.315-.831-.453-1.253z" class="prefix__cls-1" data-name="Path 1834" transform="translate(-13.252 -331.401)"/>
            </g>
        </g>
        <g id="prefix__Group_1143" data-name="Group 1143" transform="translate(.785 19.31)">
            <g id="prefix__Group_1142" data-name="Group 1142">
                <path id="prefix__Path_1835" d="M2.394 212.891c-.08.462-.146.934-.2 1.4l1.365.151c.049-.439.111-.883.186-1.317z" class="prefix__cls-1" data-name="Path 1835" transform="translate(-2.196 -212.891)"/>
            </g>
        </g>
        <g id="prefix__Group_1145" data-name="Group 1145" transform="translate(3.229 11.401)">
            <g id="prefix__Group_1144" data-name="Group 1144">
                <path id="prefix__Path_1836" d="M29.832 125.693c-.241.4-.473.818-.688 1.234l1.219.632c.2-.391.421-.782.648-1.161z" class="prefix__cls-1" data-name="Path 1836" transform="translate(-29.144 -125.693)"/>
            </g>
        </g>
        <g id="prefix__Group_1147" data-name="Group 1147" transform="translate(2.086 13.909)">
            <g id="prefix__Group_1146" data-name="Group 1146">
                <path id="prefix__Path_1837" d="M17.071 153.343c-.19.428-.369.869-.532 1.308l1.287.478c.154-.414.322-.827.5-1.23z" class="prefix__cls-1" data-name="Path 1837" transform="translate(-16.539 -153.343)"/>
            </g>
        </g>
        <g id="prefix__Group_1149" data-name="Group 1149" transform="translate(1.266 16.558)">
            <g id="prefix__Group_1148" data-name="Group 1148">
                <path id="prefix__Path_1838" d="M7.872 182.55c-.136.449-.26.909-.368 1.366l1.336.316c.1-.43.218-.862.346-1.284z" class="prefix__cls-1" data-name="Path 1838" transform="translate(-7.504 -182.55)"/>
            </g>
        </g>
        <g id="prefix__Group_1151" data-name="Group 1151" transform="translate(4.68 9.069)">
            <g id="prefix__Group_1150" data-name="Group 1150">
                <path id="prefix__Path_1839" d="M45.975 99.984c-.288.371-.569.755-.834 1.142l1.133.776c.249-.364.513-.725.784-1.074z" class="prefix__cls-1" data-name="Path 1839" transform="translate(-45.141 -99.984)"/>
            </g>
        </g>
        <g id="prefix__Group_1153" data-name="Group 1153" transform="translate(.703 24.849)">
            <g id="prefix__Group_1152" data-name="Group 1152">
                <path id="prefix__Path_1840" d="M2.666 273.958l-1.37.1c.033.468.081.942.143 1.407l1.361-.18c-.058-.441-.1-.885-.134-1.327z" class="prefix__cls-1" data-name="Path 1840" transform="translate(-1.296 -273.958)"/>
            </g>
        </g>
        <g id="prefix__Group_1155" data-name="Group 1155" transform="translate(.644 22.12)">
            <g id="prefix__Group_1154" data-name="Group 1154">
                <path id="prefix__Path_1841" d="M2.044 243.939l-1.371-.068c-.019.384-.029.773-.029 1.159v.255l1.373-.015v-.24c0-.363.009-.73.027-1.091z" class="prefix__cls-1" data-name="Path 1841" transform="translate(-.644 -243.871)"/>
            </g>
        </g>
        <g id="prefix__Group_1157" data-name="Group 1157" transform="translate(1.075 27.486)">
            <g id="prefix__Group_1156" data-name="Group 1156">
                <path id="prefix__Path_1842" d="M6.747 303.027l-1.348.264c.09.461.2.925.314 1.379l1.329-.346c-.111-.424-.21-.863-.295-1.297z" class="prefix__cls-1" data-name="Path 1842" transform="translate(-5.399 -303.027)"/>
            </g>
        </g>
        <g id="prefix__Group_1159" data-name="Group 1159" transform="translate(23.94 .117)">
            <g id="prefix__Group_1158" data-name="Group 1158">
                <path id="prefix__Path_1843" d="M257.488 1.294l-.008 1.373c.442 0 .889.019 1.33.049l.092-1.37c-.468-.032-.944-.046-1.414-.052z" class="prefix__cls-1" data-name="Path 1843" transform="translate(-257.48 -1.294)"/>
            </g>
        </g>
        <g id="prefix__Group_1161" data-name="Group 1161" transform="translate(15.636 1.14)">
            <g id="prefix__Group_1160" data-name="Group 1160">
                <path id="prefix__Path_1844" d="M167.275 12.569c-.45.139-.9.293-1.341.459l.484 1.285c.414-.156.838-.3 1.261-.431z" class="prefix__cls-1" data-name="Path 1844" transform="translate(-165.934 -12.569)"/>
            </g>
        </g>
        <g id="prefix__Group_1163" data-name="Group 1163" transform="translate(21.126 .151)">
            <g id="prefix__Group_1162" data-name="Group 1162">
                <path id="prefix__Path_1845" d="M227.863 1.666c-.47.025-.944.065-1.409.119l.157 1.364c.438-.05.884-.088 1.326-.112z" class="prefix__cls-1" data-name="Path 1845" transform="translate(-226.454 -1.666)"/>
            </g>
        </g>
        <g id="prefix__Group_1165" data-name="Group 1165" transform="translate(2.833 32.535)">
            <g id="prefix__Group_1164" data-name="Group 1164">
                <path id="prefix__Path_1846" d="M26.018 358.7l-1.243.584c.2.425.416.85.641 1.263l1.2-.659c-.207-.388-.41-.788-.598-1.188z" class="prefix__cls-1" data-name="Path 1846" transform="translate(-24.775 -358.699)"/>
            </g>
        </g>
        <g id="prefix__Group_1167" data-name="Group 1167" transform="translate(18.342 .475)">
            <g id="prefix__Group_1166" data-name="Group 1166">
                <path id="prefix__Path_1847" d="M197.146 5.237c-.462.082-.928.18-1.385.29l.323 1.335c.43-.1.868-.2 1.3-.273z" class="prefix__cls-1" data-name="Path 1847" transform="translate(-195.761 -5.237)"/>
            </g>
        </g>
        <g id="prefix__Group_1169" data-name="Group 1169" transform="translate(45.292 19.416)">
            <g id="prefix__Group_1168" data-name="Group 1168">
                <path id="prefix__Path_1848" d="M494.239 214.062l-1.354.227c.073.435.134.879.18 1.319l1.366-.144c-.049-.464-.114-.939-.192-1.402z" class="prefix__cls-1" data-name="Path 1848" transform="translate(-492.885 -214.062)"/>
            </g>
        </g>
        <g id="prefix__Group_1171" data-name="Group 1171" transform="translate(8.409 5.067)">
            <g id="prefix__Group_1170" data-name="Group 1170">
                <path id="prefix__Path_1849" d="M87.339 55.858c-.369.29-.734.6-1.085.908l.913 1.026c.33-.294.673-.581 1.021-.855z" class="prefix__cls-1" data-name="Path 1849" transform="translate(-86.254 -55.858)"/>
            </g>
        </g>
        <g id="prefix__Group_1173" data-name="Group 1173" transform="translate(44.691 16.66)">
            <g id="prefix__Group_1172" data-name="Group 1172">
                <path id="prefix__Path_1850" d="M487.575 183.677l-1.316.392c.126.423.241.856.34 1.287l1.338-.31c-.106-.458-.228-.919-.362-1.369z" class="prefix__cls-1" data-name="Path 1850" transform="translate(-486.259 -183.677)"/>
            </g>
        </g>
        <g id="prefix__Group_1175" data-name="Group 1175" transform="translate(10.632 3.455)">
            <g id="prefix__Group_1174" data-name="Group 1174">
                <path id="prefix__Path_1851" d="M111.951 38.1c-.4.243-.8.5-1.188.77l.782 1.13c.364-.252.74-.5 1.117-.725z" class="prefix__cls-1" data-name="Path 1851" transform="translate(-110.763 -38.096)"/>
            </g>
        </g>
        <g id="prefix__Group_1177" data-name="Group 1177" transform="translate(6.415 6.947)">
            <g id="prefix__Group_1176" data-name="Group 1176">
                <path id="prefix__Path_1852" d="M65.24 76.592c-.331.333-.656.68-.966 1.032l1.031.907c.292-.332.6-.658.909-.972z" class="prefix__cls-1" data-name="Path 1852" transform="translate(-64.274 -76.592)"/>
            </g>
        </g>
        <g id="prefix__Group_1179" data-name="Group 1179" transform="translate(13.053 2.139)">
            <g id="prefix__Group_1178" data-name="Group 1178">
                <path id="prefix__Path_1853" d="M138.724 23.586c-.429.193-.857.4-1.274.62l.638 1.216c.392-.206.795-.4 1.2-.583z" class="prefix__cls-1" data-name="Path 1853" transform="translate(-137.45 -23.586)"/>
            </g>
        </g>
        <g id="prefix__Group_1181" data-name="Group 1181" transform="translate(37.847 39.051)">
            <g id="prefix__Group_1180" data-name="Group 1180">
                <path id="prefix__Path_1854" d="M411.795 430.534c-.32.3-.653.6-.991.889l.885 1.05c.359-.3.713-.621 1.053-.945z" class="prefix__cls-1" data-name="Path 1854" transform="translate(-410.804 -430.534)"/>
            </g>
        </g>
        <g id="prefix__Group_1183" data-name="Group 1183" transform="translate(41.462 34.948)">
            <g id="prefix__Group_1182" data-name="Group 1182">
                <path id="prefix__Path_1855" d="M451.4 385.3c-.237.373-.488.743-.747 1.1l1.112.806c.275-.38.542-.773.794-1.169z" class="prefix__cls-1" data-name="Path 1855" transform="translate(-450.656 -385.302)"/>
            </g>
        </g>
        <g id="prefix__Group_1185" data-name="Group 1185" transform="translate(39.773 37.102)">
            <g id="prefix__Group_1184" data-name="Group 1184">
                <path id="prefix__Path_1856" d="M432.915 409.043c-.28.341-.575.678-.876 1l1.006.935c.32-.344.633-.7.931-1.065z" class="prefix__cls-1" data-name="Path 1856" transform="translate(-432.039 -409.043)"/>
            </g>
        </g>
        <g id="prefix__Group_1187" data-name="Group 1187" transform="translate(30.94 43.398)">
            <g id="prefix__Group_1186" data-name="Group 1186">
                <path id="prefix__Path_1857" d="M335.9 478.456c-.408.17-.827.33-1.245.475l.449 1.3c.444-.154.89-.324 1.324-.5z" class="prefix__cls-1" data-name="Path 1857" transform="translate(-334.655 -478.456)"/>
            </g>
        </g>
        <g id="prefix__Group_1189" data-name="Group 1189" transform="translate(33.398 42.224)">
            <g id="prefix__Group_1188" data-name="Group 1188">
                <path id="prefix__Path_1858" d="M362.936 465.513c-.384.219-.78.429-1.177.623l.605 1.233c.422-.207.843-.43 1.251-.663z" class="prefix__cls-1" data-name="Path 1858" transform="translate(-361.759 -465.513)"/>
            </g>
        </g>
        <g id="prefix__Group_1191" data-name="Group 1191" transform="translate(35.712 40.767)">
            <g id="prefix__Group_1190" data-name="Group 1190">
                <path id="prefix__Path_1859" d="M388.357 449.453c-.355.264-.722.521-1.092.762l.751 1.149c.393-.257.783-.529 1.16-.81z" class="prefix__cls-1" data-name="Path 1859" transform="translate(-387.265 -449.453)"/>
            </g>
        </g>
        <g id="prefix__Group_1193" data-name="Group 1193" transform="translate(45.572 22.229)">
            <g id="prefix__Group_1192" data-name="Group 1192">
                <path id="prefix__Path_1860" d="M497.345 245.074l-1.372.061c.015.328.022.66.022.988v.344l1.373.021v-.365c0-.348-.008-.701-.023-1.049z" class="prefix__cls-1" data-name="Path 1860" transform="translate(-495.973 -245.074)"/>
            </g>
        </g>
        <g id="prefix__Group_1195" data-name="Group 1195" transform="translate(45.39 24.952)">
            <g id="prefix__Group_1194" data-name="Group 1194">
                <path id="prefix__Path_1861" d="M494.105 275.1c-.033.441-.081.886-.141 1.323l1.36.187c.064-.465.114-.938.15-1.406z" class="prefix__cls-1" data-name="Path 1861" transform="translate(-493.964 -275.095)"/>
            </g>
        </g>
        <g id="prefix__Group_1197" data-name="Group 1197" transform="translate(44.028 30.157)">
            <g id="prefix__Group_1196" data-name="Group 1196">
                <path id="prefix__Path_1862" d="M479.406 332.484c-.139.419-.293.839-.458 1.249l1.274.513c.175-.436.339-.883.487-1.328z" class="prefix__cls-1" data-name="Path 1862" transform="translate(-478.948 -332.484)"/>
            </g>
        </g>
        <g id="prefix__Group_1199" data-name="Group 1199" transform="translate(42.887 32.623)">
            <g id="prefix__Group_1198" data-name="Group 1198">
                <path id="prefix__Path_1863" d="M466.982 359.666c-.189.4-.393.8-.607 1.182l1.2.664c.227-.411.444-.834.646-1.257z" class="prefix__cls-1" data-name="Path 1863" transform="translate(-466.375 -359.666)"/>
            </g>
        </g>
        <g id="prefix__Group_1201" data-name="Group 1201" transform="translate(44.867 27.587)">
            <g id="prefix__Group_1200" data-name="Group 1200">
                <path id="prefix__Path_1864" d="M488.5 304.145c-.087.433-.188.869-.3 1.3l1.327.352c.12-.454.228-.917.321-1.378z" class="prefix__cls-1" data-name="Path 1864" transform="translate(-488.198 -304.145)"/>
            </g>
        </g>
        <g id="prefix__Group_1203" data-name="Group 1203" transform="translate(4.192 34.871)">
            <g id="prefix__Group_1202" data-name="Group 1202">
                <path id="prefix__Path_1865" d="M40.918 384.45l-1.162.732c.25.4.516.792.79 1.174l1.115-.8c-.261-.356-.508-.732-.743-1.106z" class="prefix__cls-1" data-name="Path 1865" transform="translate(-39.756 -384.45)"/>
            </g>
        </g>
        <g id="prefix__Group_1205" data-name="Group 1205" transform="translate(12.27 42.178)">
            <g id="prefix__Group_1204" data-name="Group 1204">
                <path id="prefix__Path_1866" d="M129.509 465.005l-.685 1.19c.407.234.826.458 1.246.667l.611-1.23c-.395-.196-.79-.407-1.172-.627z" class="prefix__cls-1" data-name="Path 1866" transform="translate(-128.824 -465.005)"/>
            </g>
        </g>
        <g id="prefix__Group_1207" data-name="Group 1207" transform="translate(9.912 40.714)">
            <g id="prefix__Group_1206" data-name="Group 1206">
                <path id="prefix__Path_1867" d="M103.643 448.865l-.825 1.1c.375.282.764.556 1.156.814l.756-1.146c-.369-.245-.73-.503-1.087-.768z" class="prefix__cls-1" data-name="Path 1867" transform="translate(-102.818 -448.865)"/>
            </g>
        </g>
        <g id="prefix__Group_1209" data-name="Group 1209" transform="translate(7.758 38.99)">
            <g id="prefix__Group_1208" data-name="Group 1208">
                <path id="prefix__Path_1868" d="M80.031 429.863l-.952.99c.338.325.691.644 1.049.948l.89-1.046c-.337-.286-.669-.586-.987-.892z" class="prefix__cls-1" data-name="Path 1868" transform="translate(-79.079 -429.863)"/>
            </g>
        </g>
        <g id="prefix__Group_1211" data-name="Group 1211" transform="translate(5.842 37.033)">
            <g id="prefix__Group_1210" data-name="Group 1210">
                <path id="prefix__Path_1869" d="M59.017 408.287l-1.064.867c.3.364.608.723.927 1.069l1.01-.931c-.3-.324-.59-.663-.873-1.005z" class="prefix__cls-1" data-name="Path 1869" transform="translate(-57.953 -408.287)"/>
            </g>
        </g>
        <g id="prefix__Group_1213" data-name="Group 1213" transform="translate(14.8 43.359)">
            <g id="prefix__Group_1212" data-name="Group 1212">
                <path id="prefix__Path_1870" d="M157.248 478.031l-.534 1.265c.432.182.875.354 1.317.509l.456-1.3c-.416-.141-.833-.305-1.239-.474z" class="prefix__cls-1" data-name="Path 1870" transform="translate(-156.714 -478.031)"/>
            </g>
        </g>
        <g id="prefix__Group_1215" data-name="Group 1215" transform="translate(20.229 44.808)">
            <g id="prefix__Group_1214" data-name="Group 1214">
                <path id="prefix__Path_1871" d="M216.773 494.01l-.211 1.357c.464.072.936.13 1.4.174l.127-1.367c-.436-.041-.88-.096-1.316-.164z" class="prefix__cls-1" data-name="Path 1871" transform="translate(-216.562 -494.01)"/>
            </g>
        </g>
        <g id="prefix__Group_1217" data-name="Group 1217" transform="translate(17.466 44.241)">
            <g id="prefix__Group_1216" data-name="Group 1216">
                <path id="prefix__Path_1872" d="M186.478 487.749l-.375 1.321c.452.128.913.244 1.372.344l.293-1.342c-.431-.093-.868-.202-1.29-.323z" class="prefix__cls-1" data-name="Path 1872" transform="translate(-186.103 -487.749)"/>
            </g>
        </g>
        <g id="prefix__Group_1219" data-name="Group 1219" transform="translate(23.043 45.055)">
            <g id="prefix__Group_1218" data-name="Group 1218">
                <path id="prefix__Path_1873" d="M248.971 496.736c-.439.012-.889.011-1.332 0l-.044 1.373c.253.008.509.012.762.012.217 0 .436 0 .652-.009z" class="prefix__cls-1" data-name="Path 1873" transform="translate(-247.595 -496.733)"/>
            </g>
        </g>
        <g id="prefix__Group_1221" data-name="Group 1221" transform="translate(25.748 44.824)">
            <g id="prefix__Group_1220" data-name="Group 1220">
                <path id="prefix__Path_1874" d="M278.736 494.184c-.436.066-.881.118-1.321.157l.121 1.368c.468-.041.941-.1 1.4-.167z" class="prefix__cls-1" data-name="Path 1874" transform="translate(-277.415 -494.184)"/>
            </g>
        </g>
        <g id="prefix__Group_1223" data-name="Group 1223" transform="translate(28.378 44.269)">
            <g id="prefix__Group_1222" data-name="Group 1222">
                <path id="prefix__Path_1875" d="M307.7 488.061c-.425.118-.86.225-1.292.318l.287 1.343c.46-.1.922-.212 1.374-.338z" class="prefix__cls-1" data-name="Path 1875" transform="translate(-306.412 -488.061)"/>
            </g>
        </g>
        <g id="prefix__Group_1225" data-name="Group 1225" transform="translate(7.602 7.075)">
            <g id="prefix__Group_1224" data-name="Group 1224">
                <path id="prefix__Path_1876" d="M107.091 85.183l-1.139.767a14.787 14.787 0 0 1 2.509 7.609H94.288V86.51h2.243v-1.373h-2.243v-5.751a14.928 14.928 0 0 1 2.464.318l.29-1.342a16.261 16.261 0 0 0-19.69 15.884 16.157 16.157 0 0 0 2.884 9.23v.062h.043a16.251 16.251 0 0 0 12.263 6.922 5.26 5.26 0 0 0 2.376-.018 16.252 16.252 0 0 0 12.173-25.259zM89.45 79.959a12.038 12.038 0 0 0-2.25 3.054 18.063 18.063 0 0 0-.959 2.123h-4.393a14.924 14.924 0 0 1 7.602-5.177zM80.9 86.51h4.875a26.914 26.914 0 0 0-1.089 7.049h-5.944A14.779 14.779 0 0 1 80.9 86.51zm-2.158 8.422h5.941a27 27 0 0 0 1.092 7.232h-4.761a14.779 14.779 0 0 1-2.272-7.232zm3.252 8.605h4.247a18.037 18.037 0 0 0 .959 2.123 12.433 12.433 0 0 0 1.986 2.792 14.925 14.925 0 0 1-7.193-4.914zm10.922 5.568l-.163-.008c-1.611-.4-3.126-1.813-4.342-4.085-.25-.467-.481-.96-.694-1.475h5.2v5.568zm0-6.941h-5.7a25.29 25.29 0 0 1-1.157-7.232h6.859zm0-8.605H86.06a25.193 25.193 0 0 1 1.153-7.049h5.7zm0-8.422h-5.2a16.289 16.289 0 0 1 .694-1.475c1.257-2.348 2.833-3.78 4.5-4.121v5.6zm1.373 9.8h7.042a25.287 25.287 0 0 1-1.157 7.232h-5.886v-7.237zm.4 14.15q-.2.015-.4.024v-5.568h5.381a16.287 16.287 0 0 1-.694 1.475c-1.201 2.239-2.694 3.647-4.284 4.064zm3.591-.715a12.561 12.561 0 0 0 1.9-2.706 18.058 18.058 0 0 0 .959-2.123h4.064a14.932 14.932 0 0 1-6.92 4.824zm3.329-6.2a27 27 0 0 0 1.092-7.232h5.758a14.778 14.778 0 0 1-2.272 7.232z" class="prefix__cls-1" data-name="Path 1876" transform="translate(-77.352 -77.996)"/>
            </g>
        </g>
    </g>
</svg>
