<svg xmlns="http://www.w3.org/2000/svg" width="26" height="17.334" viewBox="0 0 26 17.334">
    <defs>
        <style>
            .prefix__cls-1{fill:#5b5b76}
        </style>
    </defs>
    <g id="prefix__dashboard" transform="translate(0 -85.333)">
        <g id="prefix__Group_1387" data-name="Group 1387" transform="translate(0 85.333)">
            <g id="prefix__Group_1386" data-name="Group 1386">
                <path id="prefix__Path_2303" d="M241.351 213.474l-6.341 5.575-.024.023a1.083 1.083 0 0 0 .765 1.85 1.1 1.1 0 0 0 .79-.343l5.575-6.341a.542.542 0 0 0-.765-.764z" class="prefix__cls-1" data-name="Path 2303" transform="translate(-222.75 -206.839)"/>
                <path id="prefix__Path_2304" d="M13 85.333A13 13 0 0 0 .618 102.29a.542.542 0 0 0 .516.377h23.732a.542.542 0 0 0 .516-.377A13 13 0 0 0 13 85.333zm10.292 13.542h1.588a11.864 11.864 0 0 1-.415 2.708H1.536a11.865 11.865 0 0 1-.415-2.708h1.587a.542.542 0 1 0 0-1.083h-1.6a11.824 11.824 0 0 1 1.318-4.936l1.388.8a.542.542 0 0 0 .542-.938l-1.384-.8a12 12 0 0 1 3.613-3.613l.8 1.385a.541.541 0 1 0 .937-.542l-.8-1.388a11.824 11.824 0 0 1 4.937-1.318v1.6a.542.542 0 1 0 1.083 0v-1.6a11.824 11.824 0 0 1 4.937 1.318l-.8 1.388a.541.541 0 1 0 .937.542l.8-1.385a12 12 0 0 1 3.613 3.613l-1.384.8a.542.542 0 0 0 .542.938l1.388-.8a11.824 11.824 0 0 1 1.318 4.936h-1.6a.542.542 0 1 0 0 1.083z" class="prefix__cls-1" data-name="Path 2304" transform="translate(0 -85.333)"/>
            </g>
        </g>
    </g>
</svg>
