<svg xmlns="http://www.w3.org/2000/svg" width="23" height="23.383" viewBox="0 0 23 23.383">
    <defs>
        <style>
            .prefix__cls-1{fill:#5b5b76}
        </style>
    </defs>
    <g id="prefix__man_1_" data-name="man (1)" transform="translate(-4)">
        <g id="prefix__Group_1389" data-name="Group 1389" transform="translate(4 3.45)">
            <g id="prefix__Group_1388" data-name="Group 1388">
                <path id="prefix__Path_2306" d="M25.39 76.631a2.682 2.682 0 1 0-3.3.3 1.916 1.916 0 0 0-.841 1.585V81.2h-1.532v-1.917a2.686 2.686 0 0 0-2.365-2.663 2.683 2.683 0 1 0-3.7 0 2.686 2.686 0 0 0-2.365 2.663V81.2H9.75v-2.683a1.916 1.916 0 0 0-.841-1.585 2.685 2.685 0 1 0-3.3-.3A1.915 1.915 0 0 0 4 78.517v5.75a1.92 1.92 0 0 0 1.533 1.878v5.789H6.3v-5.75h3.45v5.366a.383.383 0 0 0 .383.383h2.3a.383.383 0 0 0 .383-.383v-6.133h2.3v5.75h-1.533v.767h3.833v-.767h-1.533v-5.75h2.3v6.133a.383.383 0 0 0 .383.383h2.3a.383.383 0 0 0 .383-.383v-5.367H24.7v5.75h.767v-5.788A1.92 1.92 0 0 0 27 84.267v-5.75a1.915 1.915 0 0 0-1.61-1.886zm-3.757-1.948A1.917 1.917 0 1 1 23.55 76.6a1.919 1.919 0 0 1-1.917-1.917zm-8.05 0A1.917 1.917 0 1 1 15.5 76.6a1.919 1.919 0 0 1-1.917-1.917zm2.517 2.684l-.6 1.592-.6-1.592zm-4.05 1.916a1.919 1.919 0 0 1 1.917-1.917h.118l1.057 2.818a.383.383 0 0 0 .718 0l1.056-2.818h.118a1.919 1.919 0 0 1 1.917 1.917V81.2h-1.534a.383.383 0 0 0-.383.383v1.533h-3.067v-1.533a.383.383 0 0 0-.383-.383H12.05zm-6.517-4.6A1.917 1.917 0 1 1 7.45 76.6a1.919 1.919 0 0 1-1.917-1.917zm6.517 16.484h-1.533V85.8a.383.383 0 0 0-.383-.383H5.917a1.151 1.151 0 0 1-1.15-1.15v-5.75a1.151 1.151 0 0 1 1.15-1.15h1.916a1.151 1.151 0 0 1 1.15 1.15v3.067a.383.383 0 0 0 .383.383H13.2v1.15H7.833v-3.45h-.766V83.5a.383.383 0 0 0 .383.383h3.45a1.151 1.151 0 0 1 1.15 1.15zm6.176-6.517h-5.452a1.914 1.914 0 0 0-.341-.767h6.135a1.914 1.914 0 0 0-.342.767zm8.007-.383a1.151 1.151 0 0 1-1.15 1.15h-4.216a.383.383 0 0 0-.383.383v5.367H18.95v-6.134a1.151 1.151 0 0 1 1.15-1.15h3.45a.383.383 0 0 0 .383-.383v-3.833h-.767v3.45H17.8v-1.15h3.833a.383.383 0 0 0 .383-.383v-3.067a1.151 1.151 0 0 1 1.15-1.15h1.917a1.151 1.151 0 0 1 1.15 1.15z" class="prefix__cls-1" data-name="Path 2306" transform="translate(-4 -72)"/>
            </g>
        </g>
        <g id="prefix__Group_1391" data-name="Group 1391" transform="translate(14.939 12.813)">
            <g id="prefix__Group_1390" data-name="Group 1390">
                <path id="prefix__Rectangle_486" d="M0 0H2V1H0z" class="prefix__cls-1" data-name="Rectangle 486" transform="translate(-.439 -.121)"/>
            </g>
        </g>
        <g id="prefix__Group_1393" data-name="Group 1393" transform="translate(7.833)">
            <g id="prefix__Group_1392" data-name="Group 1392">
                <path id="prefix__Path_2307" d="M89.75 0h-5.367A.383.383 0 0 0 84 .383V2.3a.383.383 0 0 0 .383.383h1.533v.767a.383.383 0 0 0 .613.307l1.431-1.073h1.79a.383.383 0 0 0 .383-.383V.383A.383.383 0 0 0 89.75 0zm-.383 1.917h-1.534a.383.383 0 0 0-.23.077l-.92.69V2.3a.383.383 0 0 0-.383-.383h-1.533V.767h4.6z" class="prefix__cls-1" data-name="Path 2307" transform="translate(-84)"/>
            </g>
        </g>
        <g id="prefix__Group_1395" data-name="Group 1395" transform="translate(17.182 1.039)">
            <g id="prefix__Group_1394" data-name="Group 1394">
                <path id="prefix__Rectangle_487" d="M0 0H1V1H0z" class="prefix__cls-1" data-name="Rectangle 487" transform="translate(.318 -.348)"/>
            </g>
        </g>
        <g id="prefix__Group_1397" data-name="Group 1397" transform="translate(18.864 1.039)">
            <g id="prefix__Group_1396" data-name="Group 1396">
                <path id="prefix__Rectangle_488" d="M0 0H1V1H0z" class="prefix__cls-1" data-name="Rectangle 488" transform="translate(-.364 -.348)"/>
            </g>
        </g>
        <g id="prefix__Group_1399" data-name="Group 1399" transform="translate(20.546 1.039)">
            <g id="prefix__Group_1398" data-name="Group 1398">
                <path id="prefix__Rectangle_489" d="M0 0H1V1H0z" class="prefix__cls-1" data-name="Rectangle 489" transform="translate(-.046 -.348)"/>
            </g>
        </g>
    </g>
</svg>
