<svg xmlns="http://www.w3.org/2000/svg" width="28.614" height="28.614" viewBox="0 0 28.614 28.614">
    <defs>
        <style>
            .prefix__cls-1{fill:#8090b5}
        </style>
    </defs>
    <g id="prefix__logout" transform="translate(0 -.008)">
        <path id="prefix__Path_2033" d="M289.552 209.8h-11.326a.894.894 0 0 1 0-1.788h11.326a.894.894 0 0 1 0 1.788zm0 0" class="prefix__cls-1" data-name="Path 2033" transform="translate(-261.833 -196.376)"/>
        <path id="prefix__Path_2034" d="M400.9 138.7a.895.895 0 0 1-.632-1.527l3.839-3.839-3.839-3.839a.894.894 0 0 1 1.265-1.265L406 132.7a.894.894 0 0 1 0 1.265l-4.471 4.471a.888.888 0 0 1-.629.264zm0 0" class="prefix__cls-1" data-name="Path 2034" transform="translate(-377.649 -120.811)"/>
        <path id="prefix__Path_2035" d="M9.538 28.621a2.457 2.457 0 0 1-.738-.111l-7.176-2.39A2.406 2.406 0 0 1 0 23.853V2.392A2.387 2.387 0 0 1 2.385.008a2.459 2.459 0 0 1 .739.111l7.176 2.39a2.406 2.406 0 0 1 1.624 2.268v21.46a2.387 2.387 0 0 1-2.386 2.384zM2.385 1.8a.6.6 0 0 0-.6.6v21.46a.62.62 0 0 0 .414.575l7.141 2.38a.648.648 0 0 0 .195.026.6.6 0 0 0 .6-.6V4.777A.62.62 0 0 0 9.72 4.2L2.579 1.822a.647.647 0 0 0-.194-.022zm0 0" class="prefix__cls-1" data-name="Path 2035"/>
        <path id="prefix__Path_2036" d="M43.359 9.546a.894.894 0 0 1-.894-.894V3.287a1.492 1.492 0 0 0-1.49-1.49H27.562a.894.894 0 0 1 0-1.788h13.413a3.281 3.281 0 0 1 3.278 3.279v5.364a.894.894 0 0 1-.894.894zm0 0" class="prefix__cls-1" data-name="Path 2036" transform="translate(-25.178)"/>
        <path id="prefix__Path_2037" d="M187 286.878h-4.769a.894.894 0 1 1 0-1.788H187a1.492 1.492 0 0 0 1.49-1.49v-5.365a.894.894 0 0 1 1.788 0v5.365a3.281 3.281 0 0 1-3.278 3.278zm0 0" class="prefix__cls-1" data-name="Path 2037" transform="translate(-171.198 -261.833)"/>
    </g>
</svg>
