<svg xmlns:dc="http://purl.org/dc/elements/1.1/" xmlns:cc="http://creativecommons.org/ns#" xmlns:rdf="http://www.w3.org/1999/02/22-rdf-syntax-ns#" xmlns:svg="http://www.w3.org/2000/svg" xmlns="http://www.w3.org/2000/svg" xmlns:sodipodi="http://sodipodi.sourceforge.net/DTD/sodipodi-0.dtd" xmlns:inkscape="http://www.inkscape.org/namespaces/inkscape" viewBox="0 0 100 125" version="1.1" x="0px" y="0px"><title>Content Moderation</title><g transform="translate(0,-952.36216)"><path style="opacity:1;fill:#fa7c50;fill-opacity:1;fill-rule:evenodd;stroke:none;stroke-width:1;stroke-linecap:butt;stroke-linejoin:miter;stroke-miterlimit:4;stroke-dasharray:none;stroke-dashoffset:12;stroke-opacity:1" d="m 50,957.36216 a 45,45 0 0 0 -45,45.00004 45,45 0 0 0 10.761719,29.123 L 79.152344,968.09458 A 45,45 0 0 0 50,957.36216 Z m -14.591797,8.54297 c 1.74474,0 3.150391,1.40067 3.150391,3.14062 l 0,4.60938 c 0,1.51651 -0.364264,2.99601 -1.613282,3.35156 -0.621499,0.008 -0.936979,0.0248 -1.146484,0.0586 -0.932155,0.15086 -1.625993,0.44929 -2.035156,0.875 -0.337128,0.35071 -0.363281,0.46211 -0.363281,1.55468 l 0,0.92774 c 0.230077,1.48309 -0.107589,1.49558 -1.03711,2.45117 -0.673743,0.69264 -0.74465,2.27164 -0.232422,3.48437 0.335066,0.75862 -0.708426,1.41703 -1.08789,2.34961 -0.221326,0.54395 -0.06462,2.37404 0.318359,2.71875 1.419778,1.27792 0.696548,1.70835 0.38086,2.3086 -0.05889,0.50487 -0.283286,1.66502 0.08203,2.27929 0.970193,2.16233 -1.840892,2.06193 -3.806641,1.66797 -5.513024,-1.10501 -5.365621,-2.38146 -5.394531,-14.72851 0,-1.75831 -0.121262,-3.42869 1.126953,-4.1836 2.867127,-1.73401 6.816114,-3.18491 8.572266,-10.37695 0.001,0.006 0.0011,0.0106 0.002,0.0176 0.29338,-1.43286 1.557965,-2.50586 3.083984,-2.50586 z m 48.830078,7.33398 -63.390625,63.39059 A 45,45 0 0 0 50,1047.3622 a 45,45 0 0 0 45,-45 45,45 0 0 0 -10.761719,-29.12309 z m -47,4.29883 5.482422,0 c 1.673712,0 3.021485,0.57133 3.021485,1.28125 l 0,1.44922 c 0,0.70993 -1.347773,1.28125 -3.021485,1.28125 l -5.482422,0 c -1.673712,0 -3.021484,-0.57132 -3.021484,-1.28125 l 0,-1.44922 c 0,-0.70992 1.347772,-1.28125 3.021484,-1.28125 z m -0.61914,4.67578 6.447265,0 c 1.968451,0 3.552735,0.67213 3.552735,1.50782 l 0,1.70703 c 0,0.83568 -1.584284,1.50781 -3.552735,1.50781 l -6.447265,0 c -1.968451,0 -3.552735,-0.67213 -3.552735,-1.50781 l 0,-1.70703 c 0,-0.83569 1.584284,-1.50782 3.552735,-1.50782 z m -0.748047,5.39258 6.412109,0 c 1.957726,0 3.533203,0.64888 3.533203,1.45313 l 0,1.64062 c 0,0.80424 -1.575477,1.45313 -3.533203,1.45313 l -6.412109,0 c -1.957726,0 -3.533203,-0.64889 -3.533203,-1.45313 l 0,-1.64062 c 0,-0.80425 1.575477,-1.45313 3.533203,-1.45313 z m 0.01172,5.35156 5.078126,0 c 1.550176,0 2.796874,0.52998 2.796874,1.1875 l 0,1.3418 c 0,0.65753 -1.246698,1.1875 -2.796874,1.1875 l -5.078126,0 c -1.550176,0 -2.796874,-0.52997 -2.796874,-1.1875 l 0,-1.3418 c 0,-0.65752 1.246698,-1.1875 2.796874,-1.1875 z m 33.775391,13.86914 c 0.730925,-0.039 1.587063,0.067 2.324219,0.2148 5.51303,1.105 5.365621,2.3815 5.394531,14.7286 0,1.7583 0.121257,3.4287 -1.126953,4.1836 -2.86713,1.734 -6.816106,3.1849 -8.572266,10.3769 -0.001,-0.01 -9.53e-4,-0.01 -0.002,-0.016 -0.29338,1.4328 -1.557964,2.5058 -3.083984,2.5058 l 0,-0 c -1.74474,0 -3.150391,-1.4007 -3.150391,-3.1406 l 0,-4.6094 c 0,-1.5165 0.364261,-2.996 1.613282,-3.3516 0.621499,-0.01 0.936984,-0.026 1.146484,-0.059 0.93216,-0.1509 1.625986,-0.4493 2.035156,-0.875 0.33713,-0.3508 0.363281,-0.4622 0.363281,-1.5547 l 0,-0.9277 c -0.23008,-1.4831 0.10759,-1.4956 1.03711,-2.4512 0.67374,-0.6927 0.744652,-2.2716 0.232422,-3.4843 -0.33507,-0.7586 0.70843,-1.417 1.08789,-2.3496 0.22133,-0.544 0.0646,-2.3741 -0.318359,-2.7188 -1.41978,-1.2779 -0.696549,-1.7083 -0.38086,-2.3086 0.0589,-0.5048 0.283259,-1.665 -0.08203,-2.2793 -0.606369,-1.3514 0.264215,-1.8184 1.482422,-1.8828 z m -10.619141,1.2227 5.078126,0 c 1.55017,0 2.796874,0.53 2.796874,1.1875 l 0,1.3418 c 0,0.6575 -1.246705,1.1875 -2.796874,1.1875 l -5.078126,0 c -1.550179,0 -2.796874,-0.53 -2.796874,-1.1875 l 0,-1.3418 c 0,-0.6575 1.246694,-1.1875 2.796874,-1.1875 z m -1.322265,4.5214 6.412109,0 c 1.95772,0 3.533203,0.6489 3.533203,1.4532 l 0,1.6406 c 0,0.8043 -1.575483,1.4531 -3.533203,1.4531 l -6.412109,0 c -1.95773,0 -3.533203,-0.6488 -3.533203,-1.4531 l 0,-1.6406 c 0,-0.8043 1.575473,-1.4532 3.533203,-1.4532 z m -0.783203,5.2168 6.447265,0 c 1.96845,0 3.552735,0.6722 3.552735,1.5079 l 0,1.707 c 0,0.8357 -1.584285,1.5078 -3.552735,1.5078 l -6.447265,0 c -1.96845,0 -3.552735,-0.6721 -3.552735,-1.5078 l 0,-1.707 c 0,-0.8357 1.584285,-1.5079 3.552735,-1.5079 z m 0.345703,5.3868 5.482422,0 c 1.67371,0 3.021484,0.5713 3.021484,1.2812 l 0,1.4492 c 0,0.71 -1.347774,1.2813 -3.021484,1.2813 l -5.482422,0 c -1.67372,0 -3.021484,-0.5713 -3.021485,-1.2813 l 0,-1.4492 c 0,-0.7099 1.347765,-1.2812 3.021485,-1.2812 z"/></g></svg>