<svg xmlns="http://www.w3.org/2000/svg" enable-background="new 0 0 515.555 515.555" height="515" width="200">
 <rect id="backgroundrect" width="100%" height="100%" x="0" y="0" fill="none" stroke="none" class="" style=""/>
  <g class="currentLayer" style=""><title>Layer 1</title><g class="">
   <path fill="#fff" d="m145.56901538085935,18.5980281829834 c25.167,25.167 25.167,65.971 0,91.138 s-65.971,25.167 -91.138,0 s-25.167,-65.971 0,-91.138 c25.166,-25.167 65.97,-25.167 91.138,0 " id="svg_1" class=""/>
   <path fill="#fff" d="m145.56901538085935,211.9320281829834 c25.167,25.167 25.167,65.971 0,91.138 s-65.971,25.167 -91.138,0 s-25.167,-65.971 0,-91.138 c25.166,-25.167 65.97,-25.167 91.138,0 " id="svg_2" class=""/>
   <path fill="#fff" d="m145.56901538085935,405.2640281829834 c25.167,25.167 25.167,65.971 0,91.138 s-65.971,25.167 -91.138,0 s-25.167,-65.971 0,-91.138 c25.166,-25.167 65.97,-25.167 91.138,0 " id="svg_3" class=""/></g></g></svg>