<svg xmlns="http://www.w3.org/2000/svg" id="prefix__clipboard" width="26.27" height="26.27" viewBox="0 0 26.27 26.27">
    <defs>
        <style>
            .prefix__cls-1{fill:#72709b}
        </style>
    </defs>
    <g id="prefix__Group_1227" data-name="Group 1227" transform="translate(8.821 17.143)">
        <g id="prefix__Group_1226" data-name="Group 1226">
            <path id="prefix__Path_1877" d="M172.805 334.271a.512.512 0 1 0 .151.363.516.516 0 0 0-.151-.363z" class="prefix__cls-1" data-name="Path 1877" transform="translate(-171.93 -334.121)"/>
        </g>
    </g>
    <g id="prefix__Group_1229" data-name="Group 1229" transform="translate(9.821 5.028)">
        <g id="prefix__Group_1228" data-name="Group 1228">
            <path id="prefix__Path_1878" d="M191.929 98h-.007a.513.513 0 1 0 0 1.026h.007a.513.513 0 0 0 0-1.026z" class="prefix__cls-1" data-name="Path 1878" transform="translate(-191.409 -98.001)"/>
        </g>
    </g>
    <g id="prefix__Group_1231" data-name="Group 1231" transform="translate(16.569 8.378)">
        <g id="prefix__Group_1230" data-name="Group 1230">
            <path id="prefix__Path_1879" d="M330.192 165.918a.513.513 0 0 0-.414-.349l-1.893-.275-.847-1.715a.513.513 0 0 0-.46-.286.513.513 0 0 0-.46.286l-.846 1.716-1.893.276a.513.513 0 0 0-.284.875l1.37 1.335-.323 1.886a.513.513 0 0 0 .745.541l1.693-.891 1.694.89a.513.513 0 0 0 .744-.541l-.324-1.886 1.37-1.336a.513.513 0 0 0 .128-.526zm-2.409 1.316a.513.513 0 0 0-.147.454l.194 1.127-1.012-.532a.513.513 0 0 0-.478 0l-1.012.532.193-1.127a.513.513 0 0 0-.148-.454l-.819-.8 1.132-.165a.513.513 0 0 0 .386-.281l.506-1.025.506 1.025a.513.513 0 0 0 .386.281l1.132.164z" class="prefix__cls-1" data-name="Path 1879" transform="translate(-322.938 -163.293)"/>
        </g>
    </g>
    <g id="prefix__Group_1233" data-name="Group 1233">
        <g id="prefix__Group_1232" data-name="Group 1232">
            <path id="prefix__Path_1880" d="M20.728 5.833v-.5a2.568 2.568 0 0 0-2.565-2.565h-1.6a1.542 1.542 0 0 0-1.483-1.13h-2.623a2.155 2.155 0 0 0-4.186 0H5.644a1.542 1.542 0 0 0-1.483 1.133h-1.6A2.568 2.568 0 0 0 0 5.336V23.7a2.568 2.568 0 0 0 2.565 2.57h15.6a2.568 2.568 0 0 0 2.563-2.57v-1.274-.05l1.831 1.413a.513.513 0 0 0 .826-.406v-6.36a6.053 6.053 0 0 0-2.657-11.19zM19.7 22.426V23.7a1.541 1.541 0 0 1-1.539 1.539H2.565A1.541 1.541 0 0 1 1.026 23.7V5.336A1.541 1.541 0 0 1 2.565 3.8H4.1v1.741a.513.513 0 0 0 .513.513H8.4a.513.513 0 0 0 0-1.026H5.131V3.181a.514.514 0 0 1 .513-.513h3.078a.513.513 0 0 0 .513-.513 1.129 1.129 0 0 1 2.258 0 .513.513 0 0 0 .513.513h3.078a.514.514 0 0 1 .513.513v1.847h-2.954a.513.513 0 1 0 0 1.026h3.467a.513.513 0 0 0 .513-.513V3.8h1.539A1.541 1.541 0 0 1 19.7 5.336v.5a6.069 6.069 0 0 0-5.3 4.326H9.334a.513.513 0 1 0 0 1.026H14.2a6.043 6.043 0 0 0 .009 1.437H9.334a.513.513 0 1 0 0 1.026h5.1a6.082 6.082 0 0 0 2.592 3.358v.137h-5.81a.513.513 0 1 0 0 1.026h5.81v1.437H9.334a.513.513 0 1 0 0 1.026h7.687v2.75a.513.513 0 0 0 .826.406l1.86-1.435a.513.513 0 0 0-.007.07zm2.655-.088l-1.842-1.421a.513.513 0 0 0-.627 0l-1.842 1.421v-4.82a6.052 6.052 0 0 0 4.31.01zm-2.142-5.445a5.028 5.028 0 1 1 5.028-5.028 5.034 5.034 0 0 1-5.026 5.028z" class="prefix__cls-1" data-name="Path 1880"/>
        </g>
    </g>
    <g id="prefix__Group_1235" data-name="Group 1235" transform="translate(2.774 9.543)">
        <g id="prefix__Group_1234" data-name="Group 1234">
            <path id="prefix__Path_1881" d="M58.959 187.766a.513.513 0 0 0-.414-.349l-1.075-.156-.48-.974a.513.513 0 0 0-.46-.286.513.513 0 0 0-.46.286l-.481.974-1.075.156a.513.513 0 0 0-.285.875l.778.758-.184 1.07a.513.513 0 0 0 .744.541l.962-.505.961.506a.513.513 0 0 0 .745-.541l-.183-1.071.778-.758a.513.513 0 0 0 .129-.526zm-1.817.737a.513.513 0 0 0-.148.454l.053.312-.28-.147a.513.513 0 0 0-.478 0l-.28.147.054-.312a.513.513 0 0 0-.147-.454l-.227-.221.313-.045a.513.513 0 0 0 .386-.281l.14-.284.14.284a.513.513 0 0 0 .386.281l.313.046z" class="prefix__cls-1" data-name="Path 1881" transform="translate(-54.074 -186)"/>
        </g>
    </g>
    <g id="prefix__Group_1237" data-name="Group 1237" transform="translate(2.774 16.527)">
        <g id="prefix__Group_1236" data-name="Group 1236">
            <path id="prefix__Path_1882" d="M58.959 323.891a.513.513 0 0 0-.414-.349l-1.075-.156-.48-.974a.513.513 0 0 0-.46-.286.513.513 0 0 0-.46.286l-.481.974-1.075.156a.513.513 0 0 0-.285.875l.778.758-.184 1.07a.513.513 0 0 0 .744.541l.962-.505.961.506a.513.513 0 0 0 .745-.541l-.183-1.071.778-.758a.513.513 0 0 0 .129-.526zm-1.817.737a.513.513 0 0 0-.148.454l.053.312-.28-.147a.513.513 0 0 0-.478 0l-.28.147.054-.312a.513.513 0 0 0-.147-.454l-.227-.221.313-.045a.513.513 0 0 0 .386-.281l.14-.284.14.284a.513.513 0 0 0 .386.281l.313.046z" class="prefix__cls-1" data-name="Path 1882" transform="translate(-54.074 -322.125)"/>
        </g>
    </g>
</svg>
