<svg xmlns="http://www.w3.org/2000/svg" width="19.819" height="5.826" viewBox="0 0 19.819 5.826">
    <defs>
        <style>
            .cls-1{fill:#72709b}
        </style>
    </defs>
    <g id="more" transform="translate(0 -180.742)">
        <g id="Group_219" data-name="Group 219" transform="translate(13.993 180.742)">
            <g id="Group_218" data-name="Group 218">
                <path id="Path_839" d="M364.4 180.742a2.913 2.913 0 1 0 2.913 2.913 2.917 2.917 0 0 0-2.913-2.913zm0 4.394a1.48 1.48 0 1 1 1.48-1.48 1.482 1.482 0 0 1-1.48 1.48z" class="cls-1" data-name="Path 839" transform="translate(-361.484 -180.742)"/>
            </g>
        </g>
        <g id="Group_221" data-name="Group 221" transform="translate(6.996 180.742)">
            <g id="Group_220" data-name="Group 220">
                <path id="Path_840" d="M183.655 180.742a2.913 2.913 0 1 0 2.913 2.913 2.916 2.916 0 0 0-2.913-2.913zm0 4.394a1.48 1.48 0 1 1 1.48-1.48 1.482 1.482 0 0 1-1.48 1.48z" class="cls-1" data-name="Path 840" transform="translate(-180.742 -180.742)"/>
            </g>
        </g>
        <g id="Group_223" data-name="Group 223" transform="translate(0 180.742)">
            <g id="Group_222" data-name="Group 222">
                <path id="Path_841" d="M2.913 180.742a2.913 2.913 0 1 0 2.913 2.913 2.916 2.916 0 0 0-2.913-2.913zm0 4.394a1.48 1.48 0 1 1 1.48-1.48 1.482 1.482 0 0 1-1.48 1.48z" class="cls-1" data-name="Path 841" transform="translate(0 -180.742)"/>
            </g>
        </g>
    </g>
</svg>
