<svg xmlns="http://www.w3.org/2000/svg" width="28.846" height="33.007" viewBox="0 0 28.846 33.007">
    <defs>
        <style>
            .prefix__cls-1{fill:#72709b}
        </style>
    </defs>
    <g id="prefix__ic_ststus" transform="translate(-.499 .015)">
        <g id="prefix__Group_1073" data-name="Group 1073" transform="translate(12.434 10.927)">
            <g id="prefix__Group_1072" data-name="Group 1072">
                <path id="prefix__Path_1792" d="M202.487 176a2.487 2.487 0 1 0 2.487 2.487 2.487 2.487 0 0 0-2.487-2.487zm0 3.979a1.492 1.492 0 1 1 1.492-1.492 1.492 1.492 0 0 1-1.492 1.492z" class="prefix__cls-1" data-name="Path 1792" transform="translate(-200 -176)"/>
            </g>
        </g>
        <g id="prefix__Group_1077" data-name="Group 1077" transform="translate(6.521 .905)">
            <g id="prefix__Group_1076" data-name="Group 1076">
                <rect id="prefix__Rectangle_295" height="1" class="prefix__cls-1" data-name="Rectangle 295" transform="translate(.451 .067)"/>
            </g>
        </g>
        <g id="prefix__Group_1093" data-name="Group 1093" transform="translate(27.522 10.706)">
            <g id="prefix__Group_1092" data-name="Group 1092">
                <rect id="prefix__Rectangle_302" height="1" class="prefix__cls-1" data-name="Rectangle 302" transform="translate(.45 .266)"/>
            </g>
        </g>
        <g id="prefix__Group_1095" data-name="Group 1095" transform="translate(2.487 17.89)">
            <g id="prefix__Group_1094" data-name="Group 1094">
                <path id="prefix__Path_1795" d="M42.487 288H40.5a.5.5 0 0 0-.5.5v1.99a.5.5 0 0 0 .5.5h1.989a.5.5 0 0 0 .5-.5v-1.99a.5.5 0 0 0-.502-.5zm-.5 1.99h-.995v-.995h.995z" class="prefix__cls-1" data-name="Path 1795" transform="translate(-40 -288)"/>
            </g>
        </g>
        <g id="prefix__Group_1097" data-name="Group 1097" transform="translate(2.487 21.869)">
            <g id="prefix__Group_1096" data-name="Group 1096">
                <path id="prefix__Path_1796" d="M42.487 352H40.5a.5.5 0 0 0-.5.5v1.99a.5.5 0 0 0 .5.5h1.989a.5.5 0 0 0 .5-.5v-1.99a.5.5 0 0 0-.502-.5zm-.5 1.99h-.995v-.995h.995z" class="prefix__cls-1" data-name="Path 1796" transform="translate(-40 -352)"/>
            </g>
        </g>
        <g id="prefix__Group_1099" data-name="Group 1099" transform="translate(11.44 16.896)">
            <g id="prefix__Group_1098" data-name="Group 1098">
                <path id="prefix__Path_1797" d="M186.487 272H184.5a.5.5 0 0 0-.5.5v1.99a.5.5 0 0 0 .5.5h1.989a.5.5 0 0 0 .5-.5v-1.99a.5.5 0 0 0-.502-.5zm-.5 1.99h-.995v-.995h.995z" class="prefix__cls-1" data-name="Path 1797" transform="translate(-184 -272)"/>
            </g>
        </g>
        <g id="prefix__Group_1101" data-name="Group 1101" transform="translate(15.419 16.896)">
            <g id="prefix__Group_1100" data-name="Group 1100">
                <path id="prefix__Path_1798" d="M250.487 272H248.5a.5.5 0 0 0-.5.5v1.99a.5.5 0 0 0 .5.5h1.989a.5.5 0 0 0 .5-.5v-1.99a.5.5 0 0 0-.502-.5zm-.5 1.99h-.995v-.995h.995z" class="prefix__cls-1" data-name="Path 1798" transform="translate(-248 -272)"/>
            </g>
        </g>
        <g id="prefix__Group_1103" data-name="Group 1103" transform="translate(11.44 20.875)">
            <g id="prefix__Group_1102" data-name="Group 1102">
                <path id="prefix__Path_1799" d="M186.487 336H184.5a.5.5 0 0 0-.5.5v1.99a.5.5 0 0 0 .5.5h1.989a.5.5 0 0 0 .5-.5v-1.99a.5.5 0 0 0-.502-.5zm-.5 1.99h-.995v-.995h.995z" class="prefix__cls-1" data-name="Path 1799" transform="translate(-184 -336)"/>
            </g>
        </g>
        <g id="prefix__Group_1105" data-name="Group 1105" transform="translate(15.419 20.875)">
            <g id="prefix__Group_1104" data-name="Group 1104">
                <path id="prefix__Path_1800" d="M250.487 336H248.5a.5.5 0 0 0-.5.5v1.99a.5.5 0 0 0 .5.5h1.989a.5.5 0 0 0 .5-.5v-1.99a.5.5 0 0 0-.502-.5zm-.5 1.99h-.995v-.995h.995z" class="prefix__cls-1" data-name="Path 1800" transform="translate(-248 -336)"/>
            </g>
        </g>
        <g id="prefix__Group_1107" data-name="Group 1107" transform="translate(14.454 13.039)">
            <g id="prefix__Group_1106" data-name="Group 1106">
                <path id="prefix__Rectangle_303" d="M0 0H1V1H0z" class="prefix__cls-1" data-name="Rectangle 303" transform="translate(-.483 -.068)"/>
            </g>
        </g>
        <g id="prefix__Group_1109" data-name="Group 1109" transform="translate(.499 -.015)">
            <g id="prefix__Group_1108" data-name="Group 1108">
                <path id="prefix__Path_1801" d="M36.864 16.383a.5.5 0 0 0-.027-.132.479.479 0 0 0-.016-.047.5.5 0 0 0-.095-.141l-2.984-2.984a.5.5 0 0 0-.353-.148h-5.472V9.45a.489.489 0 0 0-.191-.382v-.006l-4.787-3.83V2.984h2.984a.5.5 0 0 0 .5-.5V.5a.5.5 0 0 0-.5-.5h-3.477a.5.5 0 0 0-.5.5v4.732l-4.787 3.83v.006a.489.489 0 0 0-.191.382v3.482H11.5a.5.5 0 0 0-.352.146l-2.98 2.984a.5.5 0 0 0-.095.141.479.479 0 0 0-.016.047.5.5 0 0 0-.027.132c0 .011-.006.02-.006.03v12.933a.5.5 0 0 0 .5.5h27.849a.5.5 0 0 0 .5-.5V16.413c-.003-.013-.008-.019-.009-.03zM22.944.995h2.487v.995h-2.487zM11.5 14.132l1.784 1.784H9.721zm2.487 14.715h-4.97v-1.989h4.974zm0-2.984h-4.97v-8.952h4.974zm2.984 2.984h-1.985V16.911h1.989zm0-12.932h-2.277L12.7 13.926h4.27zm5.471-9.808L26 8.953h-7.11zm-.5 22.739h-.995v-2.983h.995zm1.989 0h-.995v-2.983h.995zm2.984 0h-1.982v-3.48a.5.5 0 0 0-.5-.5h-3.976a.5.5 0 0 0-.5.5v3.482H17.97V9.947h8.953zm8.249-12.932H31.6l1.784-1.784zm-5.257 12.934h-1.99V16.911h1.989zm-1.99-12.932v-1.99h4.27l-1.987 1.99zm7.958 12.932H30.9v-1.99h4.974zm0-2.984H30.9v-8.953h4.974z" class="prefix__cls-1" data-name="Path 1801" transform="translate(-8.024)"/>
            </g>
        </g>
        <g id="prefix__Group_1111" data-name="Group 1111" transform="translate(24.371 17.89)">
            <g id="prefix__Group_1110" data-name="Group 1110">
                <path id="prefix__Path_1802" d="M394.487 288H392.5a.5.5 0 0 0-.5.5v1.99a.5.5 0 0 0 .5.5h1.99a.5.5 0 0 0 .5-.5v-1.99a.5.5 0 0 0-.503-.5zm-.5 1.99h-.995v-.995h.995z" class="prefix__cls-1" data-name="Path 1802" transform="translate(-392 -288)"/>
            </g>
        </g>
        <g id="prefix__Group_1113" data-name="Group 1113" transform="translate(24.371 21.869)">
            <g id="prefix__Group_1112" data-name="Group 1112">
                <path id="prefix__Path_1803" d="M394.487 352H392.5a.5.5 0 0 0-.5.5v1.99a.5.5 0 0 0 .5.5h1.99a.5.5 0 0 0 .5-.5v-1.99a.5.5 0 0 0-.503-.5zm-.5 1.99h-.995v-.995h.995z" class="prefix__cls-1" data-name="Path 1803" transform="translate(-392 -352)"/>
            </g>
        </g>
        <ellipse id="prefix__Ellipse_16" cx="5" cy="5.5" data-name="Ellipse 16" rx="5" ry="5.5" transform="translate(9.972 17.985)" style="fill:#f8f8f9"/>
        <g id="prefix__search" style="fill:#72709b">
            <path d="M13.135 13.812c-.329 0-.636-.131-.865-.369l-2.906-3.022c-.907.543-1.938.828-3.005.828-3.24 0-5.875-2.635-5.875-5.874C.484 2.135 3.119-.5 6.359-.5c3.239 0 5.874 2.635 5.874 5.875 0 1.228-.388 2.426-1.1 3.42L14 11.778c.459.478.444 1.24-.033 1.698-.225.217-.52.336-.833.336zM6.36 1.902c-1.915 0-3.473 1.558-3.473 3.473 0 1.914 1.558 3.472 3.473 3.472 1.914 0 3.472-1.558 3.472-3.472 0-1.915-1.558-3.473-3.472-3.473z" style="stroke:none" transform="translate(8.354 18.68)"/>
            <path d="M13.135 13.312c.182 0 .355-.07.486-.196.279-.268.288-.712.02-.991L10.472 8.83c.815-.969 1.261-2.187 1.261-3.455C11.733 2.41 9.323 0 6.36 0 3.395 0 .984 2.411.984 5.375c0 2.963 2.411 5.374 5.375 5.374 1.112 0 2.172-.335 3.079-.972l3.192 3.32c.134.138.313.215.505.215M6.36 1.402c2.19 0 3.972 1.782 3.972 3.973 0 2.19-1.782 3.972-3.972 3.972S2.386 7.565 2.386 5.375 4.168 1.402 6.36 1.402m6.776 12.91c-.466 0-.901-.186-1.225-.522l-2.64-2.745c-.896.463-1.888.704-2.911.704-3.515 0-6.375-2.86-6.375-6.374C-.016 1.86 2.844-1 6.359-1s6.374 2.86 6.374 6.375c0 1.192-.337 2.358-.962 3.363l2.59 2.694c.65.676.63 1.754-.046 2.405-.319.306-.737.475-1.18.475zM6.36 2.402c-1.64 0-2.973 1.334-2.973 2.973 0 1.639 1.334 2.972 2.973 2.972 1.639 0 2.972-1.333 2.972-2.972 0-1.64-1.333-2.973-2.972-2.973z" style="stroke:none;fill:#f8f8f9" transform="translate(8.354 18.68)"/>
        </g>
    </g>
</svg>
