<svg xmlns="http://www.w3.org/2000/svg" id="prefix__coordination" width="28.63" height="28.63" viewBox="0 0 28.63 28.63">
    <defs>
        <style>
            .prefix__cls-1{fill:#72709b}
        </style>
    </defs>
    <path id="prefix__Path_2148" d="M246.777 14.777a.461.461 0 0 0 .462-.462V3.232a.461.461 0 0 0-.462-.462H243.5a2.309 2.309 0 1 0-4.524 0h-3.279a.461.461 0 0 0-.462.462v3.426a2.309 2.309 0 1 0 0 4.232v3.425a.461.461 0 0 0 .462.462H238v4.618a.466.466 0 0 0 .024.146l.35 1.05-1.092.728a.462.462 0 0 0-.2.475l.462 2.309a.467.467 0 0 0 .092.2l1.747 2.182v2.145h.924v-2.309a.462.462 0 0 0-.1-.289l-1.777-2.221-.379-1.9.625-.417.271.812.876-.292-.9-2.7v-5.923a.462.462 0 1 1 .924 0v5.079a.462.462 0 0 0 .846.256l.786-1.18h.429l.786 1.18a.463.463 0 0 0 .384.205h.676l.786 1.18a.463.463 0 0 0 .384.205h.676l.709 1.064v2.47l-1.746 2.182a.459.459 0 0 0-.1.288v2.31h.924v-2.147l1.746-2.182a.462.462 0 0 0 .1-.289v-2.77a.465.465 0 0 0-.078-.256l-.924-1.385a.463.463 0 0 0-.384-.205h-.676l-.786-1.18a.463.463 0 0 0-.384-.205h-.676l-.786-1.18a.463.463 0 0 0-.384-.205h-.924a.462.462 0 0 0-.384.205l-.078.116v-2.17zm-7.388-2.771A1.387 1.387 0 0 0 238 13.391v.462h-1.847V10a.462.462 0 0 0-.808-.306 1.385 1.385 0 1 1 0-1.832.462.462 0 0 0 .808-.306V3.694h3.48a.462.462 0 0 0 .4-.694 1.385 1.385 0 1 1 2.4 0 .462.462 0 0 0 .4.694h3.48v10.159h-5.541v-.462a1.387 1.387 0 0 0-1.384-1.385zm0 0" class="prefix__cls-1" data-name="Path 2148" transform="translate(-218.609)"/>
    <path id="prefix__Path_2149" d="M.462 60.006h3.425a2.309 2.309 0 1 0 4.232 0h3.425a.461.461 0 0 0 .462-.462v-4.319a.462.462 0 0 0-.808-.306 1.385 1.385 0 1 1 0-1.832.462.462 0 0 0 .808-.306v-4.319a.461.461 0 0 0-.462-.462H.462a.461.461 0 0 0-.462.462v11.082a.461.461 0 0 0 .462.462zm.462-11.082h10.159v2.964a2.309 2.309 0 1 0 0 4.232v2.964H7.225a.462.462 0 0 0-.306.808 1.385 1.385 0 1 1-1.832 0 .462.462 0 0 0-.306-.808H.924zm0 0" class="prefix__cls-1" data-name="Path 2149" transform="translate(0 -45.229)"/>
    <path id="prefix__Path_2150" d="M12.93 331.694a2.312 2.312 0 0 0-.924.193v-3.425a.461.461 0 0 0-.462-.462H7.225a.462.462 0 0 0-.306.808 1.385 1.385 0 1 1-1.832 0 .462.462 0 0 0-.306-.808H.462a.461.461 0 0 0-.462.462v9.238h.924v-8.774h2.963a2.309 2.309 0 1 0 4.232 0h2.964v3.858a.462.462 0 0 0 .808.306 1.385 1.385 0 1 1 0 1.832.462.462 0 0 0-.808.306v2.472h.924v-1.578a2.309 2.309 0 1 0 .924-4.425zm0 0" class="prefix__cls-1" data-name="Path 2150" transform="translate(0 -309.067)"/>
    <path id="prefix__Path_2151" d="M327.388 88.312h.924v-7.85a.461.461 0 0 0-.462-.462H320v.924h7.388zm0 0" class="prefix__cls-1" data-name="Path 2151" transform="translate(-301.529 -75.382)"/>
    <path id="prefix__Path_2152" d="M40.312 80h-7.85a.461.461 0 0 0-.462.462v7.85h.924v-7.388h7.388zm0 0" class="prefix__cls-1" data-name="Path 2152" transform="translate(-30.153 -75.382)"/>
    <path id="prefix__Path_2153" d="M32 360h.924v7.85H32zm0 0" class="prefix__cls-1" data-name="Path 2153" transform="translate(-30.153 -339.22)"/>
</svg>
