<svg xmlns="http://www.w3.org/2000/svg" width="898.2349853515625" height="629.9019775390625"><rect id="backgroundrect" width="100%" height="100%" x="0" y="0" fill="none" stroke="none"/>
  
<g class="currentLayer" style=""><title>Layer 1</title>
    <path id="Path_941" data-name="Path 941" d="M599.7550014648438,607.5730057067871 s7.3,-24.57 -20.468,-38.559 z" fill="#e6e6e6" class=""/>
    <path id="Path_942" data-name="Path 942" d="M600.6659995422364,607.7040051040649 s2.895,-24.249 35.237,-25.769 z" fill="#e6e6e6" class=""/>
    <path id="Path_943" data-name="Path 943" d="M852.8129989929199,614.7120046234131 c-5.136,21.131 -274.791,19.357 -274.383,0 C583.56599899292,593.581004623413 853.2209989929199,595.355004623413 852.8129989929199,614.7120046234131 z" fill="#e6e6e6" class=""/>
    <ellipse id="Ellipse_182" data-name="Ellipse 182" cx="93.10800170898438" cy="55.9640007019043" rx="4.354000091552734" ry="4.354000091552734" fill="#fff" class=""/>
    <ellipse id="Ellipse_183" data-name="Ellipse 183" cx="109.63299560546875" cy="55.9640007019043" rx="4.354000091552734" ry="4.354000091552734" fill="#fff" class=""/>
    <ellipse id="Ellipse_184" data-name="Ellipse 184" cx="126.15798950195312" cy="55.9640007019043" rx="4.354000091552734" ry="4.354000091552734" fill="#fff" class=""/>
    <rect id="Rectangle_266" data-name="Rectangle 266" width="552.8989868164062" height="3.072999954223633" fill="#fff" y="66.19300842285156" x="82.52899169921875" class=""/>
    <path id="Path_953" data-name="Path 953" d="M795.2720018310547,507.15500541687015 s-3.2,-10.845 2.014,-7.307 s20.391000000000002,8.851 14.923,17.36 s-38.195,55.542 -43.487,46.222 c-2.938,-5.174 7.3,-49.061 7.3,-49.061 s7.283,-1.6830000000000005 8.326,0 S795.2720018310547,507.15500541687015 795.2720018310547,507.15500541687015 z" fill="#2f2e41" class=""/>
    <path id="Path_954" data-name="Path 954" d="M748.3180009765625,230.36900317382813 l-0.978,17.6 L734.6260009765625,273.3970031738281 l42.054,-1.956 l-2.934,-26.406 l1.956,-10.758000000000001 z" fill="#ffb8b8" class=""/>
    <path id="Path_955" data-name="Path 955" d="M743.429002746582,260.6830062866211 s6.846,7.824 24.45,-0.978 l13.692,66.5 l1.956,59.658 l-58.68,-1.956 l0.978,-60.636 z" fill="#d1d1d1" class=""/>
    <path id="Path_956" data-name="Path 956" d="M710.6259978637695,387.28900451660155 s6.318,31.039 18.13,23.519 s-2.5460000000000003,-29.311 -2.5460000000000003,-29.311 z" fill="#ffb8b8" class=""/>
    <path id="Path_957" data-name="Path 957" d="M768.856005859375,554.0870083007812 l-0.978,16.626 l15.648,4.8900000000000015 V553.1090083007813 z" fill="#ffb8b8" class=""/>
    <path id="Path_958" data-name="Path 958" d="M717.0229943847656,380.0030087890625 v97.8 l55.746,47.923 l13.691,-23.473 l-39.12,-32.273 l9.78,-24.45 l41.076,-26.407 V380.9810087890625 z" fill="#2f2e41" class=""/>
    <path id="Path_959" data-name="Path 959" d="M758.098,440.63800462341305 l5.868,49.878 l1.956,66.5 H791.35 s8.8,-58.68 -0.978,-73.35 L798.196,419.1270046234131 l-7.824,-25.428 z" fill="#2f2e41" class=""/>
    <path id="Path_960" data-name="Path 960" d="M780.5929987792969,569.7350051574707 s0.978,-3.912 -5.868,-3.912 s-9.78,0.978 -9.78,1.956 a42.365,42.365 0 0 1 -0.978,4.8900000000000015 s-17.6,44.01 0,42.054 S784.5049987792969,603.9670051574707 784.5049987792969,603.9670051574707 l1.956,-28.362 s-1.956,-2.395 -2.934,-2.175 S780.5929987792969,569.7350051574707 780.5929987792969,569.7350051574707 z" fill="#2f2e41" class=""/>
    <circle id="Ellipse_187" data-name="Ellipse 187" cx="763.9669799804688" cy="218.63302612304688" r="21.516000747680664" fill="#ffb8b8" class=""/>
    <path id="Path_961" data-name="Path 961" d="M767.8790018310547,266.5550062561035 l-6.846,-7.824 L774.2690018310547,242.16500625610354 l5.346,5.8 l31.3,13.692 l-8.8,86.064 s-0.978,25.428 4.8900000000000015,43.032 c0,0 -12.714,15.648 -32.274,11.736 l-25.428,4.8900000000000015 S746.3630018310547,281.22500625610354 767.8790018310547,266.5550062561035 z" fill="#575a89" class=""/>
    <path id="Path_962" data-name="Path 962" d="M746.3630054931641,261.66500341796876 l1.124,-16.3 l-5.035,6.519 l-26.406,19.56 l2.934,108.558 l8.8,4.891 L742.4510054931641,268.51600341796876 z" fill="#575a89" class=""/>
    <path id="Path_963" data-name="Path 963" d="M722.8909997558594,270.46700616455075 l-6.846,0.978 s-4.8900000000000015,8.8 -4.8900000000000015,9.78 s-1.956,51.834 -1.956,51.834 s-3.423,51.345 2.4450000000000003,61.125 l17.314,-18.628 l-6.067,-17.069 z" fill="#575a89" class=""/>
    <path id="Path_964" data-name="Path 964" d="M763.451994140625,486.13900927734375 l1.3490000000000002,32.736 l-4.067,-3.5 z" opacity="0.3" class=""/>
    <path id="Path_965" data-name="Path 965" d="M795.966001953125,499.19900231933593 l-1.427,0.7070000000000002 l-1.53,43.855 l3.535,-4.55 z" opacity="0.3" class=""/>
    <path id="Path_967" data-name="Path 967" d="M824.6030029296875,391.7390053100586 s-4.8900000000000015,31.3 8.8,28.362 s7.824,-28.362 7.824,-28.362 z" fill="#ffb8b8" class=""/>
    <path id="Path_968" data-name="Path 968" d="M802.1080034179688,261.66500695800784 h8.8 s5.868,2.934 6.846,11.736 s14.67,47.922 14.67,47.922 s15.648,64.548 14.67,73.35 h-24.45 l1.956,-17.6 l-26.406,-70.416 z" fill="#575a89" class=""/>
    <path id="Path_978" data-name="Path 978" d="M745.665003540039,197.96400677490232 l-4.1,-1.6420000000000003 s8.576,-9.442 20.508,-8.621 l-3.356,-3.6950000000000003 s8.2,-3.284 15.661,5.337 c3.92,4.532 8.456,9.859 11.284,15.859 h4.393 l-1.8330000000000002,4.037 l6.417,4.037 l-6.586,-0.7250000000000002 a22.557,22.557 0 0 1 0.17900000000000005,6.7 a8.664,8.664 0 0 1 -3.172,5.667 h0 s-5.087,-10.529 -5.087,-12.171 v4.105 s-4.1,-3.6950000000000003 -4.1,-6.158 l-2.237,2.874 l-1.119,-4.516 l-13.8,4.516 l2.237,-3.6950000000000003 l-8.576,1.232 l3.356,-4.516 s-9.695,5.337 -10.068,9.852 a21.681,21.681 0 0 1 -3.211,8.795 S734.8510035400391,204.12200677490233 745.665003540039,197.96400677490232 z" fill="#2f2e41" class=""/>
    <rect id="Rectangle_246" data-name="Rectangle 246" width="635.6309814453125" height="407.08599853515625" fill="#e6e6e6" y="0.3600006103515625" x="0.27099609375" class=""/>
    <rect id="Rectangle_264" data-name="Rectangle 264" width="635.6309814453125" height="27.003999710083008" fill="#16c6d5" y="0" x="0" class=""/>
    <rect id="Rectangle_247" data-name="Rectangle 247" width="599.280029296875" height="155.18499755859375" fill="#fff" y="48.785003662109375" x="18.972000122070312" class=""/>
    <rect id="Rectangle_259" data-name="Rectangle 259" width="599.280029296875" height="155.18499755859375" fill="#fff" y="229.4709930419922" x="19.350997924804688" class=""/>
    <g id="Group_31" data-name="Group 31" class="">
      <rect id="Rectangle_250" data-name="Rectangle 250" width="324.33099365234375" height="14.454999923706055" fill="#e6e6e6" y="83.11500549316406" x="221.33999633789062"/>
      <rect id="Rectangle_251" data-name="Rectangle 251" width="115.63899993896484" height="14.454999923706055" fill="#e6e6e6" y="119.25200653076172" x="221.33999633789062"/>
      <rect id="Rectangle_252" data-name="Rectangle 252" width="230.375" height="14.454999923706055" fill="#e6e6e6" y="155.38900756835938" x="221.33999633789062"/>
    </g>
    <g id="Group_30" data-name="Group 30" class="">
      <path id="Path_944" data-name="Path 944" d="M199.58200012207033,126.44900463867185 a53.871,53.871 0 0 1 -8.807,29.607 a52.67,52.67 0 0 1 -3.962,5.321 a54.386,54.386 0 0 1 -11.609,10.315 q-1.771,1.174 -3.6420000000000003,2.2 a53.7,53.7 0 0 1 -21.042,6.48 c-1.6790000000000007,0.1640000000000001 -3.386,0.24200000000000008 -5.108,0.24200000000000008 a53.954,53.954 0 0 1 -13.978,-1.828 a51.9,51.9 0 0 1 -7.562,-2.625 q-1.8780000000000001,-0.811 -3.6710000000000003,-1.7640000000000002 a53.355,53.355 0 0 1 -8.159,-5.285 q-1.782,-1.387 -3.436,-2.924 a54.167,54.167 0 1 1 90.975,-39.736 z" fill="#e6e6e6"/>
      <path id="Path_945" data-name="Path 945" d="M132.28499951171875,131.34199511718748 s4.931,13.7 1.1,21.368 s6.027,16.437 6.027,16.437 s25.752,-13.15 22.464,-19.725 s-8.766,-15.341 -7.671,-20.82 z" fill="#ffb8b8"/>
      <ellipse id="Ellipse_185" data-name="Ellipse 185" cx="141.87400817871094" cy="119.01400756835938" rx="17.533000946044922" ry="17.533000946044922" fill="#ffb8b8"/>
      <path id="Path_946" data-name="Path 946" d="M131.4340075683594,178.78300903320314 a51.9,51.9 0 0 1 -7.562,-2.625 l0.47000000000000014,-13.31 l4.93,-10.962 a22.923000000000002,22.923000000000002 0 0 0 3.543,2.283 c0.30000000000000016,0.1640000000000001 0.6000000000000003,0.3200000000000002 0.932,0.47700000000000015 c4.6240000000000006,2.234 12.178,4.2 19.5,-1.28 a27.88,27.88 0 0 0 6.737,-7.583 l13.672,7.747 l0.7180000000000003,8.394 l0.8320000000000003,9.767 q-1.771,1.174 -3.6420000000000003,2.2 a53.7,53.7 0 0 1 -21.042,6.48 c-1.6790000000000007,0.1640000000000001 -3.386,0.24200000000000008 -5.108,0.24200000000000008 A53.95,53.95 0 0 1 131.4340075683594,178.78300903320314 z" fill="#575a89"/>
      <path id="Path_947" data-name="Path 947" d="M134.79899670410157,143.6849951171875 v0.02100000000000001 l-0.6900000000000006,7.156 l-0.36300000000000016,3.784 l-0.533,5.627 l-1.778,18.51 a51.9,51.9 0 0 1 -7.562,-2.625 q-1.8780000000000001,-0.811 -3.6710000000000003,-1.7640000000000002 a53.356,53.356 0 0 1 -8.159,-5.285 l-1.949,-9 l0.14900000000000008,-0.1 z" fill="#575a89"/>
      <path id="Path_948" data-name="Path 948" d="M171.5610026855469,173.88900207519532 a53.7,53.7 0 0 1 -21.042,6.48 c0.4,-6.658 0.982,-13.089 1.6430000000000002,-18.815 c0.3410000000000003,-2.938 0.7000000000000003,-5.684 1.081,-8.188 c1.188,-8.045 2.468,-13.509 3.386,-14.248 l6.061,4 l24.656,8.764 l-0.534,9.49 a54.387,54.387 0 0 1 -11.609,10.315 Q173.43200268554688,172.86500207519532 171.5610026855469,173.88900207519532 z" fill="#575a89"/>
      <path id="Path_949" data-name="Path 949" d="M112.04200671386718,169.10900463867188 q-1.782,-1.387 -3.436,-2.924 l0.9390000000000003,-6.075 l0.7000000000000003,-0.1 l3.137,-0.4480000000000002 l6.822,14.832 a53.351,53.351 0 0 1 -8.159,-5.285 z" fill="#575a89"/>
      <path id="Path_950" data-name="Path 950" d="M190.77600952148435,156.0550050048828 a52.666,52.666 0 0 1 -3.962,5.321 a54.386,54.386 0 0 1 -11.609,10.315 q-1.771,1.174 -3.6420000000000003,2.2 l-0.6470000000000004,-2.824 l3.457,-9.141 l4.211,-11.133 l8.764,1.1 A51.321,51.321 0 0 1 190.77600952148435,156.0550050048828 z" fill="#575a89"/>
      <path id="Path_951" data-name="Path 951" d="M158.5930124511719,103.15700427246094 A20.483,20.483 0 0 0 146.9440124511719,94.25000427246096 l-3.5620000000000003,2.85 l1.385,-3.324 a18.855,18.855 0 0 0 -3.521,-0.2 l-3.205,4.121 l1.327,-3.98 a20.287,20.287 0 0 0 -13.995,8.325 c-4.079,5.882 -4.768,14.062 -0.7550000000000003,19.99 c1.1,-3.3850000000000002 2.438,-6.561 3.54,-9.946 a10.017,10.017 0 0 0 2.6100000000000003,0.013000000000000008 l1.34,-3.127 l0.37400000000000017,2.9939999999999998 c4.1530000000000005,-0.36200000000000015 10.314,-1.1560000000000001 14.251,-1.8840000000000003 l-0.3830000000000002,-2.3 l2.291,1.909 c1.206,-0.278 1.923,-0.53 1.863,-0.7220000000000003 c2.928,4.721 5.83,7.736 8.758000000000001,12.457 C160.37101245117185,114.77000427246094 162.3330124511719,109.23200427246093 158.5930124511719,103.15700427246094 z" fill="#2f2e41"/>
      <ellipse id="Ellipse_186" data-name="Ellipse 186" cx="157.62200927734375" cy="118.46400451660156" rx="1.187000036239624" ry="2.374000072479248" fill="#ffb8b8"/>
    </g>
    
    
    <g id="Group_33" data-name="Group 33" class="">
      <rect id="Rectangle_250-2" data-name="Rectangle 250" width="324.33099365234375" height="14.454999923706055" fill="#e6e6e6" y="263.801025390625" x="213.20901489257812"/>
      <rect id="Rectangle_251-2" data-name="Rectangle 251" width="115.63899993896484" height="14.454999923706055" fill="#e6e6e6" y="299.9380187988281" x="213.20901489257812"/>
      <rect id="Rectangle_252-2" data-name="Rectangle 252" width="230.375" height="14.454999923706055" fill="#e6e6e6" y="336.07501220703125" x="213.20901489257812"/>
    </g>
    
    <circle id="Ellipse_194" data-name="Ellipse 194" cx="42.039005279541016" cy="13.433003425598145" r="4.4670000076293945" fill="#fff" class=""/>
    <circle id="Ellipse_195" data-name="Ellipse 195" cx="58.994998931884766" cy="13.433003425598145" r="4.4670000076293945" fill="#fff" class=""/>
    <circle id="Ellipse_246" data-name="Ellipse 246" cx="25.039005279541016" cy="13.433003425598145" r="4.4670000076293945" fill="#fff" class=""/>
  <g class="" id="svg_4"><path id="Path_952" data-name="Path 952" d="M196.94699913024903,306.2690060272217 a53.91,53.91 0 0 1 -8.813,29.627 a52.691,52.691 0 0 1 -3.965,5.325 a54.426,54.426 0 0 1 -11.617,10.322 q-1.7730000000000001,1.175 -3.645,2.2 a53.739,53.739 0 0 1 -21.057,6.485 c-1.6800000000000004,0.16400000000000006 -3.388,0.24200000000000005 -5.111,0.24200000000000005 a53.986,53.986 0 0 1 -13.988,-1.8290000000000002 a51.937,51.937 0 0 1 -7.567,-2.6270000000000002 q-1.879,-0.812 -3.673,-1.7650000000000001 a53.393,53.393 0 0 1 -8.165,-5.289 q-1.783,-1.3880000000000001 -3.438,-2.926 a54.2,54.2 0 1 1 91.039,-39.764 z" fill="#16c6d5" class=""/><g id="Group_32" data-name="Group 32" class="">
      <rect id="Rectangle_273" data-name="Rectangle 273" width="6.644999980926514" height="50.59199905395508" fill="#fff" y="280.96600341796875" x="139.42001342773438"/>
      <rect id="Rectangle_274" data-name="Rectangle 274" width="6.644999980926514" height="50.59199905395508" transform="rotate(90 168.03800964355466,302.9400024414063) " fill="#fff" y="302.9400329589844" x="168.0380096435547"/>
    </g></g><g class="" id="svg_1"><path id="svg_2" data-name="Path 952" d="M198.94699913024903,127.30604316139221 a53.91,53.91 0 0 1 -8.813,29.627 a52.691,52.691 0 0 1 -3.965,5.325 a54.426,54.426 0 0 1 -11.617,10.322 q-1.7730000000000001,1.175 -3.645,2.2 a53.739,53.739 0 0 1 -21.057,6.485 c-1.6800000000000006,0.16400000000000037 -3.388,0.24200000000000021 -5.111,0.24200000000000021 a53.986,53.986 0 0 1 -13.988,-1.8290000000000002 a51.937,51.937 0 0 1 -7.567,-2.6270000000000002 q-1.879,-0.812 -3.673,-1.7650000000000001 a53.393,53.393 0 0 1 -8.165,-5.289 q-1.783,-1.3880000000000001 -3.438,-2.926 a54.2,54.2 0 1 1 91.039,-39.764 z" fill="#16c6d5" class=""/><g id="svg_3" data-name="Group 32" class="">
      <rect id="Rectangle_273" data-name="Rectangle 273" width="6.644999980926514" height="50.59199905395508" fill="#fff" y="102.00304055213928" x="141.42001342773438"/>
      <rect id="Rectangle_274" data-name="Rectangle 274" width="6.644999980926514" height="50.59199905395508" transform="rotate(90 170.03800964355472,126.94000244140626) " fill="#fff" y="123.97707009315491" x="170.0380096435547"/>
    </g></g><g class="" id="svg_5"><path id="svg_6" data-name="Path 952" d="M885.2432942962646,470.2690060272217 a53.91,53.91 0 0 1 -8.813,29.627 a52.691,52.691 0 0 1 -3.965,5.325 a54.426,54.426 0 0 1 -11.617,10.322 q-1.7730000000000001,1.175 -3.645,2.2 a53.739,53.739 0 0 1 -21.057,6.485 c-1.6800000000000006,0.16400000000000037 -3.388,0.24200000000000021 -5.111,0.24200000000000021 a53.986,53.986 0 0 1 -13.988,-1.8290000000000002 a51.937,51.937 0 0 1 -7.567,-2.6270000000000002 q-1.879,-0.812 -3.673,-1.7650000000000001 a53.393,53.393 0 0 1 -8.165,-5.289 q-1.783,-1.3880000000000001 -3.438,-2.926 a54.2,54.2 0 1 1 91.039,-39.764 z" fill="#16c6d5" class=""/><g id="svg_7" data-name="Group 32" class="">
      <rect id="Rectangle_273" data-name="Rectangle 273" width="6.644999980926514" height="50.59199905395508" fill="#fff" y="444.96600341796875" x="827.71630859375" transform=""/>
      <rect id="Rectangle_274" data-name="Rectangle 274" width="6.644999980926514" height="50.59199905395508" transform="rotate(90 856.3343505859376,463.9769897460938) " fill="#fff" y="466.9400329589844" x="856.3343048095703"/>
    </g></g></g></svg>