<svg xmlns="http://www.w3.org/2000/svg" width="282" height="210.956" viewBox="0 0 282 210.956">
    <defs>
        <style>
            .prefix__cls-1{fill:#e6e6e6}.prefix__cls-2{fill:#3f3d56}.prefix__cls-3{fill:#fa7c50}.prefix__cls-4{fill:#1ec6d5}.prefix__cls-5{fill:#2f2e41}.prefix__cls-6{fill:#9f616a}.prefix__cls-7{fill:#d0cde1}
        </style>
    </defs>
    <g id="prefix__undraw_selected_options_42hx" transform="translate(0 -.161)">
        <path id="prefix__Path_1815" d="M973.033 692.172l1.055-4.162a54.046 54.046 0 0 1 5.734-2.057l.133 1.934.54-2.131c2.416-.69 4.06-.994 4.06-.994a51.8 51.8 0 0 1-6.878 14.9l-5.427.953 4.216.608a21.853 21.853 0 0 1-1.886 2c-6.775 6.289-14.321 9.174-16.855 6.444s.9-10.04 7.68-16.329a28.787 28.787 0 0 1 7.38-4.745z" class="prefix__cls-1" data-name="Path 1815" transform="translate(-702.556 -504.651)"/>
        <path id="prefix__Path_1816" d="M960.205 667.432l-1.248-4.108a54.039 54.039 0 0 1 3.843-4.724l1.114 1.587-.639-2.1c1.712-1.84 2.962-2.95 2.962-2.95a51.793 51.793 0 0 1 1.814 16.309l-4.153 3.621 3.923-1.659a21.877 21.877 0 0 1-.581 2.686c-2.549 8.885-7.517 15.256-11.1 14.229s-4.415-9.062-1.866-17.948a28.786 28.786 0 0 1 3.865-7.877z" class="prefix__cls-1" data-name="Path 1816" transform="translate(-699.764 -484.431)"/>
        <path id="prefix__Rectangle_40" d="M0 0H163.865V0.635H0z" class="prefix__cls-2" data-name="Rectangle 40" transform="translate(117.5 205.593)"/>
        <path id="prefix__Path_1817" d="M174.125 205.788c-2.218-3.292-3.171-9.14.953-12.021 2.046-1.429 4.529-1.255 6.679-.626a21.626 21.626 0 0 1 7.906 4.627 64.027 64.027 0 0 1 7.125 7.655c2.2 2.65 4.428 5.269 6.765 7.794a160 160 0 0 0 30.777 25.813q4.164 2.676 8.507 5.079a75.879 75.879 0 0 0 8.324 4.127c3.8 1.528 10.31 3.663 13.679-.623 1.786-2.273 1.876-5.356 1.472-7.946a38.009 38.009 0 0 0-2.929-8.909c-5.636-13.278-11.338-26.525-17.007-39.787-1.323-3.1-2.686-6.179-3.785-9.378a29.72 29.72 0 0 1-1.906-9.415c-.018-2.849.6-6.064 2.769-8.259a9.131 9.131 0 0 1 6.687-2.409c5.871.034 11.388 3.023 15.948 6.173 5.665 3.913 10.669 8.667 16.313 12.61 4.557 3.184 9.916 6.069 15.731 6.434a11.4 11.4 0 0 0 6.627-1.376 9.162 9.162 0 0 0 3.963-5.332 17.646 17.646 0 0 0 .262-7.8 32.194 32.194 0 0 0-2.721-8.534c-2.749-5.875-6.507-11.14-9.742-16.717a45.049 45.049 0 0 1-4.125-8.6c-.838-2.584-1.519-5.643-.692-8.444 1.708-5.781 8.651-3.605 12.172-1.937a56.368 56.368 0 0 1 6.88 4.007c.473.313.933-.517.462-.828a54.12 54.12 0 0 0-7.252-4.18A16.257 16.257 0 0 0 297 125.2a6.437 6.437 0 0 0-5.366 2.756c-1.436 2.189-1.337 5.019-.95 7.367a29.592 29.592 0 0 0 3.138 8.7c1.482 2.875 3.172 5.623 4.873 8.36 3.4 5.468 7.122 11 8.817 17.384 1.186 4.466 1.935 11.44-2.891 14.627a10.7 10.7 0 0 1-7.138 1.353 26.171 26.171 0 0 1-8.142-2.47c-11.884-5.578-19.8-17.159-32.469-21.441-4.308-1.456-10.336-2.386-14.126 1.552a11.9 11.9 0 0 0-2.936 7.554 26.018 26.018 0 0 0 1.361 9.3 92.02 92.02 0 0 0 3.505 9.126q2.13 4.992 4.266 9.981l8.633 20.194 4.289 10.033a49.868 49.868 0 0 1 3.394 9.459c.559 2.718.717 6.458-1.677 8.645-1.9 1.737-4.679 1.656-6.905 1.253a31.729 31.729 0 0 1-8.174-2.923c-2.977-1.452-5.874-3.063-8.719-4.739a154.257 154.257 0 0 1-16.826-11.489 160.36 160.36 0 0 1-15.257-13.606q-3.633-3.682-7.021-7.6c-2.328-2.692-4.513-5.512-6.924-8.129a33.9 33.9 0 0 0-7.343-6.232 14.794 14.794 0 0 0-7.907-2.469 7.167 7.167 0 0 0-5.263 2.525 8.839 8.839 0 0 0-1.951 5.6 11.39 11.39 0 0 0 2.033 6.422c.317.47 1.12-.033.8-.505z" class="prefix__cls-1" data-name="Path 1817" transform="translate(-166.434 -122.784)"/>
        <path id="prefix__Rectangle_41" d="M0 0H38.051V33.785H0z" class="prefix__cls-1" data-name="Rectangle 41" transform="translate(5.969 6.395)"/>
        <path id="prefix__Rectangle_42" d="M0 0H38.051V33.785H0z" class="prefix__cls-3" data-name="Rectangle 42" transform="translate(5.969 67.208)"/>
        <path id="prefix__Rectangle_43" d="M0 0H38.051V33.785H0z" class="prefix__cls-3" data-name="Rectangle 43" transform="translate(128.232 6.395)"/>
        <path id="prefix__Rectangle_44" d="M0 0H38.051V33.785H0z" class="prefix__cls-1" data-name="Rectangle 44" transform="translate(128.232 67.208)"/>
        <path id="prefix__Rectangle_45" d="M0 0H38.051V33.785H0z" class="prefix__cls-4" data-name="Rectangle 45" transform="translate(67.532 6.395)"/>
        <path id="prefix__Rectangle_46" d="M0 0H38.051V33.785H0z" class="prefix__cls-4" data-name="Rectangle 46" transform="translate(67.532 67.208)"/>
        <circle id="prefix__Ellipse_6" cx="6.5" cy="6.5" r="6.5" class="prefix__cls-2" data-name="Ellipse 6" transform="translate(61 .161)"/>
        <ellipse id="prefix__Ellipse_7" cx="6" cy="6.5" class="prefix__cls-2" data-name="Ellipse 7" rx="6" ry="6.5" transform="translate(123 .161)"/>
        <circle id="prefix__Ellipse_8" cx="6.5" cy="6.5" r="6.5" class="prefix__cls-2" data-name="Ellipse 8" transform="translate(0 61.161)"/>
        <circle id="prefix__Ellipse_9" cx="6.5" cy="6.5" r="6.5" class="prefix__cls-2" data-name="Ellipse 9" transform="translate(61 61.161)"/>
        <path id="prefix__Path_1818" d="M818.041 754.74s-8.877.683-7.966 3.869 7.966 2.731 7.966 2.731 5.463-.455 8.421.455 6.373 0 6.6-1.593-1.593-2.731-1.593-2.731l-1.138-2.276z" class="prefix__cls-5" data-name="Path 1818" transform="translate(-602.317 -552.406)"/>
        <path id="prefix__Path_1819" d="M756.489 530.767l-.91 3.642s-4.1 8.421.91 8.421 3.187-7.739 3.187-7.739l.455-3.642z" class="prefix__cls-6" data-name="Path 1819" transform="translate(-564.095 -399.559)"/>
        <path id="prefix__Path_1820" d="M892.337 521.45l.91 3.642s4.1 8.421-.91 8.421-3.186-7.739-3.186-7.739l-.455-3.642z" class="prefix__cls-6" data-name="Path 1820" transform="translate(-656.015 -393.201)"/>
        <circle id="prefix__Ellipse_10" cx="9.787" cy="9.787" r="9.787" class="prefix__cls-6" data-name="Ellipse 10" transform="translate(202.864 46.766)"/>
        <path id="prefix__Path_1821" d="M816.307 315.912s1.138 5.235.455 7.739 14.112-.455 14.112-.455-5.235-8.649-5.007-8.877z" class="prefix__cls-6" data-name="Path 1821" transform="translate(-606.615 -251.848)"/>
        <path id="prefix__Path_1822" d="M791.682 335.647s-4.1-1.138-5.463.228-9.332 5.235-9.332 5.235l5.463 33.458 23.671-5.235 4.1-31.637s-6.454-3.785-7.552-3.03-10.887.981-10.887.981z" class="prefix__cls-7" data-name="Path 1822" transform="translate(-579.714 -265.665)"/>
        <path id="prefix__Path_1823" d="M766.481 354.629l-1.092-.586s-4.142.813-3.915 4 1.138 20.94 1.138 20.94l-3.642 32.092 6.6 1.138 6.6-26.857z" class="prefix__cls-7" data-name="Path 1823" transform="translate(-567.486 -278.957)"/>
        <path id="prefix__Path_1824" d="M867.151 345.312l1.092-.586s4.143.813 3.915 4-1.138 20.94-1.138 20.94l3.642 32.092-6.6 1.138-6.6-26.857z" class="prefix__cls-7" data-name="Path 1824" transform="translate(-637.429 -272.599)"/>
        <path id="prefix__Path_1825" d="M786.491 442.931l-.91 13.884-2.959 27.768 4.324 57.584 15.022.455-4.552-54.853 4.552-18.891 14.88-.551s1.053-21.754-7.369-28.582z" class="prefix__cls-5" data-name="Path 1825" transform="translate(-583.627 -337.442)"/>
        <path id="prefix__Path_1826" d="M683.561 397.489l-2.39 50.187-.8 25.378 13.429 1.366 3.388-74.634-5.209-5.256z" class="prefix__cls-5" data-name="Path 1826" transform="translate(-464.31 -269.24)"/>
        <path id="prefix__Path_1827" d="M806.517 254.541s-8.877-1.138-11.38 3.186c0 0-.683 3.186-2.959 4.324s.455 5.007 1.138 6.145 2.5 7.739.455 9.332 3.642 6.145 3.642 6.145 2.731 3.642.455 6.373 2.959 3.642 2.959 3.642-1.138 7.739.91 5.69c0 0 .91 17.526 9.559 6.6s12.291-16.16 8.649-20.484-.91-8.194-.91-8.194 1.138-2.276-1.366-5.69-2.502-17.069-11.152-17.069z" class="prefix__cls-5" data-name="Path 1827" transform="translate(-589.542 -210.961)"/>
        <path id="prefix__Path_1828" d="M781.488 759.041s-8.877.683-7.966 3.869 7.966 2.731 7.966 2.731 5.463-.455 8.421.455 6.373 0 6.6-1.593-1.593-2.731-1.593-2.731l-1.138-2.276z" class="prefix__cls-5" data-name="Path 1828" transform="translate(-577.372 -555.341)"/>
    </g>
</svg>
