<svg xmlns="http://www.w3.org/2000/svg" width="252.624" height="200.837" viewBox="0 0 252.624 200.837">
    <defs>
        <linearGradient id="prefix__linear-gradient" x1=".5" x2=".5" y1="1" gradientUnits="objectBoundingBox">
            <stop offset="0" stop-color="gray" stop-opacity=".251"/>
            <stop offset=".54" stop-color="gray" stop-opacity=".122"/>
            <stop offset="1" stop-color="gray" stop-opacity=".102"/>
        </linearGradient>
        <style>
            .prefix__cls-1,.prefix__cls-2{fill:#1ec6d5}.prefix__cls-1,.prefix__cls-18,.prefix__cls-5{opacity:.1}.prefix__cls-3{fill:#444053}.prefix__cls-4{fill:#d5d6db}.prefix__cls-6{fill:#fff;opacity:.3}.prefix__cls-7{fill:#3a3768}.prefix__cls-9{fill:#fa7c50}.prefix__cls-11{fill:#be6f72}.prefix__cls-12{fill:#3e373a}.prefix__cls-13{fill:#4b4b5b}.prefix__cls-15{fill:#e7c7ca}.prefix__cls-18{fill:none;stroke:#000;stroke-miterlimit:10}.prefix__cls-19{fill:#ffd037}.prefix__cls-21{fill:#9d9cb5}
        </style>
    </defs>
    <g id="prefix__undraw_book_lover_mkck" transform="translate(0 -.008)">
        <path id="prefix__Path_1878" d="M246.755 96.952c-15.985-.556-31.211-5.715-45.749-11.361S172.07 73.689 156.468 70.7c-10.035-1.924-21.512-2.2-29.6 3.184-7.782 5.187-10.3 14.115-11.648 22.409-1.018 6.239-1.615 12.8 1.173 18.645 1.934 4.055 5.369 7.464 7.743 11.361 8.267 13.515 2.425 30.181-6.533 43.378-4.2 6.192-9.077 12.1-12.317 18.687s-4.742 14.14-1.907 20.863c2.813 6.669 9.514 11.667 16.77 15.187 14.742 7.15 32.108 9.2 49.053 10.354 37.5 2.566 75.2 1.455 112.795.343 13.915-.412 27.889-.83 41.577-2.981 7.6-1.2 15.449-3.09 20.969-7.669 7-5.812 8.741-15.654 4.048-22.94-7.876-12.223-29.638-15.259-35.151-28.378-3.028-7.219.084-15.261 4.485-21.959 9.445-14.365 25.274-26.968 26.109-43.387.573-11.28-7.039-22.572-18.805-27.909C312.9 74.27 295.8 74.981 286.7 84.24c-9.369 9.541-25.833 13.201-39.945 12.712z" class="prefix__cls-1" data-name="Path 1878" transform="translate(-98.6 -63.006)"/>
        <path id="prefix__Path_1879" d="M152.1 470.3l-84.54-.41-8.4-19.7 29.7-2.156-5.177-21.6 58.747-7.614-56.253-19.559 4.969-1.181 90.454 14.757-4.982 33.711-7.118 18.526z" class="prefix__cls-2" data-name="Path 1879" transform="translate(-44.549 -299.755)"/>
        <path id="prefix__Path_1880" d="M187 698.594s5.187-.83 8.3 2.835c0 0-2.282 1.8-7.192-.692z" class="prefix__cls-2" data-name="Path 1880" transform="translate(-162.692 -536.711)"/>
        <path id="prefix__Path_1881" d="M178.3 698.51s-3.31 4.073-1.679 8.607c0 0 2.7-1.079 2.991-6.577z" class="prefix__cls-2" data-name="Path 1881" transform="translate(-154.539 -536.708)"/>
        <path id="prefix__Path_1882" d="M172.76 667.384s2.075-3.806 10.373 1.521c0 0-1.106 2.559-4.772 2.351s-4.633-1.866-5.601-3.872z" class="prefix__cls-2" data-name="Path 1882" transform="translate(-151.969 -512.278)"/>
        <path id="prefix__Path_1883" d="M156.192 670.278s-4.3-.494-4.722 9.361c0 0 2.729.566 4.668-2.551s1.144-4.867.054-6.81z" class="prefix__cls-2" data-name="Path 1883" transform="translate(-135.937 -515.446)"/>
        <path id="prefix__Path_1884" d="M160.44 627.332s2.42-6.708 11.2-1.936c0 0-2.005 6.155-10.3 4.218z" class="prefix__cls-2" data-name="Path 1884" transform="translate(-142.692 -480.362)"/>
        <path id="prefix__Path_1885" d="M149.52 588.214s4.564-6.777 12.655-.494c0 0-2.835 6.362-11.964 2.9z" class="prefix__cls-2" data-name="Path 1885" transform="translate(-134.469 -451.271)"/>
        <path id="prefix__Path_1886" d="M145.6 550.783s5.325-6.227 13.337 0c0 0-5.048 5.463-13.337 1.591z" class="prefix__cls-2" data-name="Path 1886" transform="translate(-131.517 -423.383)"/>
        <path id="prefix__Path_1887" d="M142.24 512.561s5.394-6.5 13.07-.346c0 0-6.086 5.74-13.07 1.867z" class="prefix__cls-2" data-name="Path 1887" transform="translate(-128.987 -394.43)"/>
        <path id="prefix__Path_1888" d="M144.2 474.137s5.681-8.368 12.863-2.7c0 0-6.086 7.192-12.863 4.288z" class="prefix__cls-2" data-name="Path 1888" transform="translate(-130.463 -364.237)"/>
        <path id="prefix__Path_1889" d="M149.52 436.228s6.017-8.3 13-1.936c0 0-7.123 7.192-13 3.458z" class="prefix__cls-2" data-name="Path 1889" transform="translate(-134.469 -335.94)"/>
        <path id="prefix__Path_1890" d="M156.691 398.123s7.123-7.8 13.337-4.693c0 0-7.422 8.284-13.648 6.762z" class="prefix__cls-2" data-name="Path 1890" transform="translate(-139.635 -306.428)"/>
        <path id="prefix__Path_1891" d="M165.943 360.293s8.22-9.553 13-6.362c0 0-6.056 7.409-13.584 8.15z" class="prefix__cls-2" data-name="Path 1891" transform="translate(-146.397 -276.743)"/>
        <path id="prefix__Path_1892" d="M179.326 324.612s7.195-7.8 12.45-5.863c0 0-6.155 8.091-13.416 8.3z" class="prefix__cls-2" data-name="Path 1892" transform="translate(-156.186 -250.509)"/>
        <path id="prefix__Path_1893" d="M194.386 288.412s7.953-7.469 11.411-6.155c0 0-5.74 8.3-11.756 7.815z" class="prefix__cls-2" data-name="Path 1893" transform="translate(-167.993 -223.146)"/>
        <path id="prefix__Path_1894" d="M208.32 249.4s6.846-8.923 10.583-8.232c0 0-4.152 7.955-10.583 9.138z" class="prefix__cls-2" data-name="Path 1894" transform="translate(-178.746 -192.29)"/>
        <path id="prefix__Path_1895" d="M221.539 209.254s6.051-6.839 9.321-6.824c0 0-4.777 9.138-9.571 9.054z" class="prefix__cls-2" data-name="Path 1895" transform="translate(-188.513 -163.152)"/>
        <path id="prefix__Path_1896" d="M228.313 156.966l5.846-14.246s.291 12.878-6.59 16.889z" class="prefix__cls-2" data-name="Path 1896" transform="translate(-193.242 -118.189)"/>
        <path id="prefix__Path_1897" d="M240.07 97.565s.968-11.9.346-12.865c0 0 4.179 9.892-.385 18.121z" class="prefix__cls-2" data-name="Path 1897" transform="translate(-202.624 -74.499)"/>
        <path id="prefix__Path_1898" d="M129.076 635.5s-6.061-3.757-9.986 5.434c0 0 5.394 3.581 10.7-3.09z" class="prefix__cls-2" data-name="Path 1898" transform="translate(-111.555 -488.691)"/>
        <path id="prefix__Path_1899" d="M115.07 594.537s-7.434-3.391-11.04 6.2c0 0 5.742 3.952 11.717-3.779z" class="prefix__cls-2" data-name="Path 1899" transform="translate(-100.214 -457.977)"/>
        <path id="prefix__Path_1900" d="M103.537 553.093s-5.325-6.227-13.337 0c0 0 5.048 5.463 13.337 1.591z" class="prefix__cls-2" data-name="Path 1900" transform="translate(-89.8 -425.123)"/>
        <path id="prefix__Path_1901" d="M101.65 512.561s-5.394-6.5-13.07-.346c0 0 6.086 5.74 13.07 1.867z" class="prefix__cls-2" data-name="Path 1901" transform="translate(-88.58 -394.43)"/>
        <path id="prefix__Path_1902" d="M107.588 469.972S103.8 460.6 95.58 464.63c0 0 4.446 8.311 11.672 6.9z" class="prefix__cls-2" data-name="Path 1902" transform="translate(-93.851 -359.835)"/>
        <path id="prefix__Path_1903" d="M114.552 430.1s-3.762-9.536-12.1-5.115c0 0 5.108 8.741 11.732 6.587z" class="prefix__cls-2" data-name="Path 1903" transform="translate(-99.024 -329.858)"/>
        <path id="prefix__Path_1904" d="M135.287 380.121s-1.482-10.455-8.4-11.391c0 0 1.467 11.025 7.466 13.275z" class="prefix__cls-2" data-name="Path 1904" transform="translate(-117.428 -288.378)"/>
        <path id="prefix__Path_1905" d="M149.236 342.016s-.578-12.6-6.3-13.036c0 0 .193 9.561 5.651 14.819z" class="prefix__cls-2" data-name="Path 1905" transform="translate(-129.514 -258.446)"/>
        <path id="prefix__Path_1906" d="M162.833 306.164s-1.7-10.475-7.163-11.754c0 0 .677 10.144 6.622 14.325z" class="prefix__cls-2" data-name="Path 1906" transform="translate(-139.1 -232.414)"/>
        <path id="prefix__Path_1907" d="M186.273 269.845s-.057-10.912-3.391-12.515c0 0-2.067 9.879 2.425 13.908z" class="prefix__cls-2" data-name="Path 1907" transform="translate(-159.234 -204.492)"/>
        <path id="prefix__Path_1908" d="M196.984 235.028s-.467-11.235-3.92-12.818c0 0-1.181 8.891 3.4 13.554z" class="prefix__cls-2" data-name="Path 1908" transform="translate(-167.155 -178.046)"/>
        <path id="prefix__Path_1909" d="M214.22 199.292s-.02-9.138-2.485-11.282c0 0-2.45 10.01 1.2 13.12z" class="prefix__cls-2" data-name="Path 1909" transform="translate(-180.712 -152.293)"/>
        <path id="prefix__Path_1910" d="M219.3 152.209L216.906 137s-3.258 12.463 2.512 17.956z" class="prefix__cls-2" data-name="Path 1910" transform="translate(-184.522 -113.882)"/>
        <path id="prefix__Path_1911" d="M212.913 102.731s-6.155-10.225-6.029-11.361c0 0 .655 10.717 8.4 16.054z" class="prefix__cls-2" data-name="Path 1911" transform="translate(-177.664 -79.521)"/>
        <path id="prefix__Path_1912" d="M208.5 77.278s-5.809-14.523-8.437-15.7a18.408 18.408 0 0 1 8.921 15.283z" class="prefix__cls-2" data-name="Path 1912" transform="translate(-172.526 -57.089)"/>
        <path id="prefix__Path_1913" d="M219.958 150.539l-.4-.121c4.9-15.987 6.125-26.18 3.445-28.736l.284-.3c2.845 2.695 1.692 12.777-3.329 29.157z" class="prefix__cls-3" data-name="Path 1913" transform="translate(-187.21 -102.12)"/>
        <path id="prefix__Path_1914" d="M164.718 273.311l-.588-.21c.521-1.465 1.082-2.951 1.67-4.416 5.117-12.754 9.474-24.619 12.268-33.728l.511-.247c-2.8 9.126-7.079 21.446-12.2 34.217-.587 1.437-1.145 2.917-1.661 4.384z" class="prefix__cls-3" data-name="Path 1914" transform="translate(-145.47 -187.459)"/>
        <path id="prefix__Path_1915" d="M158.8 474.763c-.079-.086-8.024-9.035-13.564-24.311a89.946 89.946 0 0 1-5.352-27.855c-.38-11.887 2.114-25.16 6.387-37.218l.464.543c-9.593 27.062-5.782 50.251-.726 64.216 5.481 15.138 13.337 23.987 13.414 24.076z" class="prefix__cls-3" data-name="Path 1915" transform="translate(-127.184 -300.916)"/>
        <path id="prefix__Path_1916" d="M560.393 670.36s-5.6 6.834-1.153 17.165l-44.7 19.388-4.29.9-1.976-8.644 1.321-10.909v-5.96z" class="prefix__cls-4" data-name="Path 1916" transform="translate(-404.614 -515.511)"/>
        <path id="prefix__Path_1917" d="M59.16 574.67l61.874-11.28 81.986 13.06-50.92 18.334z" class="prefix__cls-2" data-name="Path 1917" transform="translate(-44.549 -424.237)"/>
        <path id="prefix__Path_1918" d="M59.16 574.67l61.874-11.28 81.986 13.06-50.92 18.334z" class="prefix__cls-2" data-name="Path 1918" transform="translate(-44.549 -424.237)"/>
        <path id="prefix__Path_1919" d="M140.638 652.47s-5.787 10.964.882 21.09l91.754 19.882s-5.7-8.733.294-20.855z" class="prefix__cls-2" data-name="Path 1919" transform="translate(-126.027 -502.039)"/>
        <path id="prefix__Path_1920" d="M140.638 652.47s-5.787 10.964.882 21.09l91.754 19.882s-5.7-8.733.294-20.855z" class="prefix__cls-5" data-name="Path 1920" transform="translate(-126.027 -502.039)"/>
        <path id="prefix__Path_1921" d="M154.329 667.86s-3.307 8.022 0 13.214" class="prefix__cls-5" data-name="Path 1921" transform="translate(-136.983 -513.628)"/>
        <path id="prefix__Path_1922" d="M243.064 751.718l51.224-21.858s2.865.617 1.013 2.717-51.249 21.24-51.249 21.24l-92.742-21.981z" class="prefix__cls-2" data-name="Path 1922" transform="translate(-135.817 -560.315)"/>
        <path id="prefix__Path_1923" d="M243.064 751.718l51.224-21.858s2.865.617 1.013 2.717-51.249 21.24-51.249 21.24l-92.742-21.981z" class="prefix__cls-5" data-name="Path 1923" transform="translate(-135.817 -560.315)"/>
        <path id="prefix__Path_1924" d="M499.117 742.86s-4.94 5.928 0 14.819" class="prefix__cls-5" data-name="Path 1924" transform="translate(-396.068 -570.105)"/>
        <path id="prefix__Rectangle_316" d="M0 0H23.357V0.247H0z" class="prefix__cls-5" data-name="Rectangle 316" transform="rotate(-18.45 606.693 -232.633)"/>
        <path id="prefix__Rectangle_317" d="M0 0H28.46V0.247H0z" class="prefix__cls-5" data-name="Rectangle 317" transform="rotate(-20.82 547.828 -194.205)"/>
        <path id="prefix__Rectangle_318" d="M0 0H32.987V0.247H0z" class="prefix__cls-5" data-name="Rectangle 318" transform="rotate(-22.26 521.069 -174.533)"/>
        <path id="prefix__Rectangle_319" d="M0 0H37.971V0.247H0z" class="prefix__cls-5" data-name="Rectangle 319" transform="rotate(-24.31 485.47 -151.232)"/>
        <path id="prefix__Rectangle_320" d="M0 0H41.53V0.247H0z" class="prefix__cls-5" data-name="Rectangle 320" transform="rotate(-23.65 500.645 -158.413)"/>
        <path id="prefix__Rectangle_321" d="M0 0H49.698V0.247H0z" class="prefix__cls-5" data-name="Rectangle 321" transform="rotate(-23.36 510.544 -162.178)"/>
        <path id="prefix__Path_1925" d="M152.23 586.078l43.47-9.138 26.48 5.06-35.62 11.485z" class="prefix__cls-6" data-name="Path 1925" transform="translate(-114.632 -434.44)"/>
        <path id="prefix__Path_1926" d="M574.93 659.69s2.248.906.929 2.307S524 678.023 524 678.023z" class="prefix__cls-2" data-name="Path 1926" transform="translate(-416.459 -507.476)"/>
        <path id="prefix__Path_1927" d="M659.691 574.18s-5.6 6.832-1.151 17.165l-44.7 19.388-4.29.9-1.976-8.644 1.341-10.907v-5.97z" class="prefix__cls-4" data-name="Path 1927" transform="translate(-479.388 -443.086)"/>
        <path id="prefix__Path_1928" d="M158.46 478.487l61.872-11.277 81.988 13.06-50.92 18.33z" class="prefix__cls-7" data-name="Path 1928" transform="translate(-119.323 -351.811)"/>
        <path id="prefix__Path_1929" d="M239.893 556.29s-5.789 10.964.879 21.09l91.754 19.882s-5.693-8.741.3-20.858z" class="prefix__cls-7" data-name="Path 1929" transform="translate(-200.766 -429.614)"/>
        <path id="prefix__Path_1930" d="M239.893 556.29s-5.789 10.964.879 21.09l91.754 19.882s-5.693-8.741.3-20.858l-29.016-6.281z" class="prefix__cls-5" data-name="Path 1930" transform="translate(-200.766 -429.614)"/>
        <path id="prefix__Path_1931" d="M253.622 571.68s-3.3 8.02 0 13.214" class="prefix__cls-5" data-name="Path 1931" transform="translate(-211.754 -441.203)"/>
        <path id="prefix__Path_1932" d="M342.354 655.538l51.227-21.858s2.863.617 1.01 2.717-51.249 21.241-51.249 21.241L250.6 635.656z" class="prefix__cls-7" data-name="Path 1932" transform="translate(-210.584 -487.89)"/>
        <path id="prefix__Path_1933" d="M342.354 655.538l51.227-21.858s2.863.617 1.01 2.717-51.249 21.241-51.249 21.241L250.6 635.656z" class="prefix__cls-5" data-name="Path 1933" transform="translate(-210.584 -487.89)"/>
        <path id="prefix__Path_1934" d="M598.406 646.68s-4.94 5.928 0 14.819" class="prefix__cls-5" data-name="Path 1934" transform="translate(-470.835 -497.68)"/>
        <path id="prefix__Rectangle_322" d="M0 0H23.357V0.247H0z" class="prefix__cls-5" data-name="Rectangle 322" transform="rotate(-18.45 545.83 -320.012)"/>
        <path id="prefix__Rectangle_323" d="M0 0H28.46V0.247H0z" class="prefix__cls-5" data-name="Rectangle 323" transform="rotate(-20.82 495.445 -272.837)"/>
        <path id="prefix__Rectangle_324" d="M0 0H32.987V0.247H0z" class="prefix__cls-5" data-name="Rectangle 324" transform="rotate(-22.26 472.953 -248.74)"/>
        <path id="prefix__Rectangle_325" d="M0 0H37.971V0.247H0z" class="prefix__cls-5" data-name="Rectangle 325" transform="rotate(-24.31 442.587 -220.047)"/>
        <path id="prefix__Rectangle_326" d="M0 0H41.53V0.247H0z" class="prefix__cls-5" data-name="Rectangle 326" transform="rotate(-23.65 456.156 -228.89)"/>
        <path id="prefix__Rectangle_327" d="M0 0H49.698V0.247H0z" class="prefix__cls-5" data-name="Rectangle 327" transform="rotate(-23.36 465.34 -233.375)"/>
        <path id="prefix__Path_1935" d="M251.53 489.9l43.47-9.14 26.482 5.063-35.62 11.485z" data-name="Path 1935" transform="translate(-189.406 -362.015)" style="opacity:.45;fill:#fff"/>
        <path id="prefix__Path_1936" d="M674.253 563.51s2.245.906.929 2.3-51.852 16.027-51.852 16.027z" class="prefix__cls-7" data-name="Path 1936" transform="translate(-491.256 -435.051)"/>
        <path id="prefix__Path_1937" d="M669.113 464.15s-5.6 12.268-1.153 22.6l-44.7 13.954-4.28.906-1.98-8.644 1.321-10.909v-5.97z" class="prefix__cls-4" data-name="Path 1937" transform="translate(-486.489 -360.231)"/>
        <path id="prefix__Path_1938" d="M167.89 368.46l61.874-11.28 81.988 13.06-50.925 18.334z" class="prefix__cls-9" data-name="Path 1938" transform="translate(-126.424 -268.957)"/>
        <path id="prefix__Path_1939" d="M249.347 446.26s-5.8 10.964.872 21.09l91.754 19.882s-5.7-8.741.3-20.855z" class="prefix__cls-9" data-name="Path 1939" transform="translate(-207.881 -346.76)"/>
        <path id="prefix__Path_1940" d="M249.347 446.26s-5.8 10.964.872 21.09l91.754 19.882s-5.7-8.741.3-20.855z" class="prefix__cls-5" data-name="Path 1940" transform="translate(-207.881 -346.76)"/>
        <path id="prefix__Path_1941" d="M263.059 461.65s-3.307 8.022 0 13.214" class="prefix__cls-5" data-name="Path 1941" transform="translate(-218.859 -358.349)"/>
        <path id="prefix__Path_1942" d="M351.794 551.532l51.224-16.424s2.865.617 1.013 2.717-51.249 15.807-51.249 15.807L260.04 531.65z" class="prefix__cls-9" data-name="Path 1942" transform="translate(-217.692 -411.06)"/>
        <path id="prefix__Path_1943" d="M351.794 551.532l51.224-16.424s2.865.617 1.013 2.717-51.249 15.807-51.249 15.807L260.04 531.65z" class="prefix__cls-5" data-name="Path 1943" transform="translate(-217.692 -411.06)"/>
        <path id="prefix__Path_1944" d="M607.847 536.65s-4.94 5.928 0 14.819" class="prefix__cls-5" data-name="Path 1944" transform="translate(-477.943 -414.825)"/>
        <path id="prefix__Rectangle_328" d="M0 0H23.357V0.247H0z" class="prefix__cls-5" data-name="Rectangle 328" transform="rotate(-18.45 463.332 -340.78)"/>
        <path id="prefix__Rectangle_329" d="M0 0H28.46V0.247H0z" class="prefix__cls-5" data-name="Rectangle 329" transform="rotate(-20.82 422.65 -292.766)"/>
        <path id="prefix__Rectangle_330" d="M0 0H32.987V0.247H0z" class="prefix__cls-5" data-name="Rectangle 330" transform="rotate(-22.26 405.058 -268.242)"/>
        <path id="prefix__Rectangle_331" d="M0 0H37.971V0.247H0z" class="prefix__cls-5" data-name="Rectangle 331" transform="rotate(-24.31 380.666 -239.048)"/>
        <path id="prefix__Rectangle_332" d="M0 0H41.53V0.247H0z" class="prefix__cls-5" data-name="Rectangle 332" transform="rotate(-23.65 392.41 -248.061)"/>
        <path id="prefix__Rectangle_333" d="M0 0H49.698V0.247H0z" class="prefix__cls-5" data-name="Rectangle 333" transform="rotate(-23.36 400.788 -252.601)"/>
        <path id="prefix__Path_1945" d="M260.96 379.868l43.469-9.138 26.482 5.063-35.62 11.485z" class="prefix__cls-6" data-name="Path 1945" transform="translate(-196.507 -279.16)"/>
        <path id="prefix__Path_1946" d="M683.683 453.48s2.248.906.929 2.307-51.852 16.027-51.852 16.027z" class="prefix__cls-9" data-name="Path 1946" transform="translate(-498.357 -352.197)"/>
        <path id="prefix__Path_1947" d="M373.457 149.883s-9.385-.566-8.289 6.019a1.606 1.606 0 0 0 .835 1.692s.017-.494.963-.324a4.211 4.211 0 0 0 1.023.049 2.129 2.129 0 0 0 1.247-.514s2.64-1.092 3.668-5.409c0 0 .761-.941.741-1.183l-1.591.677a2.85 2.85 0 0 1 .116 2.094s-.052-2.052-.358-2.005c-.062 0-.822.4-.822.4s.931 1.993.227 3.44c0 0 .267-2.455-.519-3.3l-1.116.652a4.927 4.927 0 0 1 .351 3.737s.19-2.576-.585-3.579l-1.013.79s1.025 2.028.4 3.421c0 0-.082-3-.617-3.226a6.1 6.1 0 0 0-1.02 1.1s.7 1.482.264 2.25c0 0-.264-2-.494-2.008a6.648 6.648 0 0 0-.973 2.223 4.806 4.806 0 0 1 .758-2.356 2.645 2.645 0 0 0-1.349.7s.136-.936 1.568-1.018a6.07 6.07 0 0 1 .924-1.064 5.782 5.782 0 0 0-2.287.262 2.591 2.591 0 0 1 2.546-.494l.988-.815a8.522 8.522 0 0 0-2.667.027s.916-.78 2.937-.212l1.089-.65a9.9 9.9 0 0 0-2.549-.22 3.912 3.912 0 0 1 2.867.044l.776-.348s-1.168-.23-1.512-.267-.361-.131-.361-.131a4.078 4.078 0 0 1 2.2.247 9.8 9.8 0 0 0 1.634-.701z" class="prefix__cls-2" data-name="Path 1947" transform="translate(-296.789 -123.574)"/>
        <path id="prefix__Path_1948" d="M908.057 259.463s-9.385-.566-8.289 6.019a1.606 1.606 0 0 0 .835 1.692s.017-.494.963-.324a4.352 4.352 0 0 0 1.023.049 2.122 2.122 0 0 0 1.235-.514s2.643-1.092 3.668-5.409c0 0 .761-.941.741-1.183l-1.586.677a2.849 2.849 0 0 1 .116 2.094s-.052-2.052-.356-2.006c-.062 0-.825.4-.825.4s.931 1.993.23 3.44c0 0 .267-2.455-.521-3.3l-1.116.652a4.927 4.927 0 0 1 .351 3.737s.19-2.576-.585-3.579l-1.01.79s1.023 2.028.4 3.421c0 0-.081-3-.617-3.226a6.2 6.2 0 0 0-1.02 1.1s.7 1.482.267 2.25c0 0-.267-2-.494-2.008a6.648 6.648 0 0 0-.973 2.223 4.791 4.791 0 0 1 .761-2.356 2.657 2.657 0 0 0-1.351.7s.138-.936 1.568-1.018a6.168 6.168 0 0 1 .924-1.067 5.8 5.8 0 0 0-2.287.264 2.591 2.591 0 0 1 2.546-.494l.988-.815a8.523 8.523 0 0 0-2.667.027s.914-.78 2.937-.212l1.087-.65a9.9 9.9 0 0 0-2.549-.22 3.912 3.912 0 0 1 2.867.044l.778-.348s-1.171-.23-1.514-.267-.361-.131-.361-.131a4.048 4.048 0 0 1 2.2.247 9.962 9.962 0 0 0 1.636-.699z" class="prefix__cls-1" data-name="Path 1948" transform="translate(-699.352 -206.089)"/>
        <path id="prefix__Path_1949" d="M431.39 297.98s-4.09-8.479-9.3-4.3a1.6 1.6 0 0 0-1.069 1.554s.432-.225.741.684a4.376 4.376 0 0 0 .454.914 2.131 2.131 0 0 0 1.06.84s2.24 1.773 6.51.563a4.225 4.225 0 0 0 1.388.062l-1.363-1.055a2.867 2.867 0 0 1-1.773 1.121s1.768-1.045 1.578-1.287c-.039-.049-.741-.526-.741-.526s-1.287 1.786-2.892 1.877c0 0 2.272-.963 2.623-2.062l-1.111-.657a4.929 4.929 0 0 1-3.092 2.129s2.341-1.089 2.838-2.255l-1.181-.494s-1.272 1.882-2.793 2.018c0 0 2.579-1.534 2.514-2.114a6.26 6.26 0 0 0-1.46-.353s-.943 1.331-1.833 1.331c0 0 1.613-1.208 1.514-1.4a6.516 6.516 0 0 0-2.42.247 4.809 4.809 0 0 1 2.428-.494 2.66 2.66 0 0 0-1.269-.837s.884-.336 1.652.872a6.093 6.093 0 0 1 1.381.286 5.8 5.8 0 0 0-1.344-1.865s1.141.23 1.662 1.976l1.2.474a8.238 8.238 0 0 0-1.324-2.314s1.126.417 1.618 2.47l1.1.632a9.772 9.772 0 0 0-1.05-2.332 3.914 3.914 0 0 1 1.358 2.524l.684.509s-.37-1.134-.494-1.45-.062-.38-.062-.38a4.053 4.053 0 0 1 .859 2.038 9.213 9.213 0 0 0 1.409 1.054z" class="prefix__cls-1" data-name="Path 1949" transform="translate(-338.915 -230.993)"/>
        <path id="prefix__Path_1950" d="M815.171 194.36s-4.088-8.479-9.3-4.3a1.607 1.607 0 0 0-1.069 1.554s.435-.222.741.684a4.281 4.281 0 0 0 .457.916 2.119 2.119 0 0 0 1.057.837s2.243 1.773 6.51.566a4.244 4.244 0 0 0 1.391.059l-1.358-1.056a2.865 2.865 0 0 1-1.771 1.124s1.766-1.047 1.576-1.289c-.039-.049-.741-.526-.741-.526s-1.284 1.786-2.892 1.877c0 0 2.275-.963 2.625-2.06l-1.129-.652a4.93 4.93 0 0 1-3.092 2.129s2.341-1.092 2.84-2.257l-1.183-.494s-1.272 1.884-2.791 2.018c0 0 2.576-1.534 2.512-2.112a6.108 6.108 0 0 0-1.457-.353s-.944 1.329-1.835 1.329c0 0 1.615-1.208 1.516-1.4a6.531 6.531 0 0 0-2.423.247 4.806 4.806 0 0 1 2.428-.494 2.645 2.645 0 0 0-1.267-.837s.884-.336 1.652.872a6.115 6.115 0 0 1 1.381.289 5.779 5.779 0 0 0-1.346-1.867s1.141.232 1.662 1.988l1.2.474a8.241 8.241 0 0 0-1.324-2.317s1.126.417 1.615 2.47l1.1.632a9.864 9.864 0 0 0-1.052-2.332 3.9 3.9 0 0 1 1.358 2.524l.684.509s-.368-1.134-.494-1.45-.062-.378-.062-.378a4.064 4.064 0 0 1 .857 2.038 9.486 9.486 0 0 0 1.424 1.038z" class="prefix__cls-1" data-name="Path 1950" transform="translate(-627.908 -152.965)"/>
        <path id="prefix__Path_1951" d="M868.038 364.164s-4.088-8.481-9.3-4.3a1.607 1.607 0 0 0-1.07 1.554s.435-.222.741.684a4.283 4.283 0 0 0 .454.916 2.119 2.119 0 0 0 1.057.837s2.243 1.776 6.513.566c0 0 1.19.2 1.388.059l-1.363-1.055a2.866 2.866 0 0 1-1.773 1.124s1.766-1.047 1.576-1.289c-.04-.049-.741-.526-.741-.526s-1.284 1.786-2.892 1.88c0 0 2.275-.966 2.625-2.062l-1.114-.657a4.92 4.92 0 0 1-3.092 2.129s2.341-1.092 2.84-2.257l-1.183-.494s-1.272 1.882-2.791 2.018c0 0 2.578-1.534 2.514-2.114a6.138 6.138 0 0 0-1.46-.353s-.943 1.329-1.835 1.329c0 0 1.615-1.208 1.517-1.4a6.531 6.531 0 0 0-2.423.247 4.821 4.821 0 0 1 2.43-.494 2.64 2.64 0 0 0-1.269-.837s.884-.338 1.652.872a6.093 6.093 0 0 1 1.381.286 5.826 5.826 0 0 0-1.344-1.867s1.141.232 1.662 1.988l1.2.474a8.2 8.2 0 0 0-1.324-2.314s1.126.415 1.615 2.47l1.1.63a9.864 9.864 0 0 0-1.052-2.332 3.911 3.911 0 0 1 1.361 2.527l.684.494s-.37-1.134-.494-1.45-.062-.378-.062-.378a4.038 4.038 0 0 1 .857 2.038 10 10 0 0 0 1.415 1.057z" class="prefix__cls-1" data-name="Path 1951" transform="translate(-667.713 -280.829)"/>
        <ellipse id="prefix__Ellipse_11" cx="5.678" cy=".635" class="prefix__cls-1" data-name="Ellipse 11" rx="5.678" ry=".635" transform="translate(44.2 192.41)"/>
        <ellipse id="prefix__Ellipse_12" cx="5.678" cy=".635" class="prefix__cls-1" data-name="Ellipse 12" rx="5.678" ry=".635" transform="translate(6.977 181.622)"/>
        <ellipse id="prefix__Ellipse_13" cx="5.678" cy=".635" class="prefix__cls-1" data-name="Ellipse 13" rx="5.678" ry=".635" transform="translate(72.573 199.575)"/>
        <ellipse id="prefix__Ellipse_14" cx="5.678" cy=".635" class="prefix__cls-1" data-name="Ellipse 14" rx="5.678" ry=".635" transform="translate(217.972 183.968)"/>
        <ellipse id="prefix__Ellipse_15" cx="5.678" cy=".635" class="prefix__cls-1" data-name="Ellipse 15" rx="5.678" ry=".635" transform="translate(170.722 180.888)"/>
        <ellipse id="prefix__Ellipse_16" cx="6.715" cy="1.153" class="prefix__cls-1" data-name="Ellipse 16" rx="6.715" ry="1.153" transform="translate(139.118 194.873)"/>
        <path id="prefix__Path_1952" d="M673.165 790.14s-9.351 4.831-4.52 10.521a1.807 1.807 0 0 0 1.768 1.149s-.262-.479.741-.862a4.822 4.822 0 0 0 1.01-.536 2.374 2.374 0 0 0 .9-1.208s1.912-2.559.43-7.293a4.692 4.692 0 0 0 .025-1.556l-1.136 1.558a3.181 3.181 0 0 1 1.309 1.946s-1.235-1.944-1.482-1.729c-.054.044-.563.852-.563.852s2.035 1.381 2.186 3.174c0 0-1.146-2.512-2.383-2.87l-.709 1.265s2.223 1.353 2.47 3.389c0 0-1.292-2.581-2.611-3.1l-.521 1.336s2.144 1.363 2.341 3.058c0 0-1.793-2.833-2.438-2.744a6.842 6.842 0 0 0-.351 1.642s1.514 1.013 1.541 2.008c0 0-1.4-1.766-1.613-1.65a7.442 7.442 0 0 0 .341 2.7 5.329 5.329 0 0 1-.62-2.7 2.964 2.964 0 0 0-.9 1.442s-.4-.976.924-1.875a6.835 6.835 0 0 1 .279-1.551 6.509 6.509 0 0 0-2.045 1.561s.225-1.282 2.171-1.919l.494-1.353a9.2 9.2 0 0 0-2.546 1.551s.432-1.272 2.7-1.882l.672-1.235a11.34 11.34 0 0 0-2.573 1.235 4.375 4.375 0 0 1 2.781-1.6l.546-.778s-1.255.447-1.605.608-.42.082-.42.082a4.542 4.542 0 0 1 2.25-1.023 11 11 0 0 0 1.157-1.613z" class="prefix__cls-2" data-name="Path 1952" transform="translate(-524.335 -605.707)"/>
        <path id="prefix__Path_1953" d="M548.137 136.61c-1.615-4.389-10.507-4.8-14.365-3.683a115.33 115.33 0 0 1-11.608 2.149l-.2-.19c.4-.119.41-.41.361-.842a13.167 13.167 0 0 1 .025-1.709 4.208 4.208 0 0 0 3.576-.8c2.223-.988 1.625-5.216 2.05-6.372a73.308 73.308 0 0 0 .815-8.5h.032l.017-.852c.022-.368.032-.583.032-.583s.217-6.209.642-7.466c.4-1.156.716-6.98.766-7.9v-.121l-.032-.538c.022-.393.032-.83.03-1.289 0-2.112-.22-4.772-.247-5.2v-.225c.017-.9-.1-5.416-3.937-7.123-1.415-.632-3.117-1.386-4.764-2.119-.425-3.668-1.4-7.316-1.311-11.01 0-.556.049-1.111.1-1.665 0 .161-.017.324-.02.494v1.077c.146-4.621 1.892-9.267 1.729-13.789-.015.442-.047.887-.089 1.331a14.356 14.356 0 0 0-.474-4.542 2.687 2.687 0 0 0-.776-1.408 3.193 3.193 0 0 0-1.353-.536 27.22 27.22 0 0 0-3.554-.662 5.488 5.488 0 0 0-.8-1.554c-2.5-3.438-6.214-6.669-10.6-7.409-2.2-.37-4.732-.062-6.229 1.512a4.67 4.67 0 0 0-.44.445c-.805.961-1.151 2.223-1.976 3.181-.054.064-.116.123-.175.185-1.615 1.445-4.132 1.746-5.928 3.043a7.114 7.114 0 0 0-.887.773 15.036 15.036 0 0 0-1.936 2.354 9.764 9.764 0 0 0-1.894 3.675c-.516 2.717 1.334 5.293 1.677 8.027.766 6.118-6 11.546-4.722 17.583a8.052 8.052 0 0 0 2.178 3.91c-2.64 2.391-4.888 4.71-4.888 4.71v.128h-.417l.042.494h-.042l.23 2.68-.23 3.9v.368h.015a62.413 62.413 0 0 0 .741 7.656c.425 1.257.64 7.466.64 7.466s.469 8.775.9 9.936-.18 5.377 2.05 6.372a4.693 4.693 0 0 0 2.24.929c-.114.924-.042 1.593.326 1.8a1.077 1.077 0 0 0 .519.148 5.5 5.5 0 0 0-.4.7 10.462 10.462 0 0 1-2.588-.61c-2.4-.988-10.346-3.211-12.655-1.647s-7.866 2.981-5.3 9.274 3.762 6.451 3.762 6.451a9.138 9.138 0 0 1 2.052 2.062c.771 1.158 7.95 3.808 9.746 3.808a17.582 17.582 0 0 1 2.285.114s-1.949 1.709-1.689 2.7-.593 8.941-.593 8.941 1.976 1.991 2.821-.62l.03.04c.158.215 1.013 1.186 2.621-.04a14.692 14.692 0 0 1 2.089-1.324l7.785-1.1a22.031 22.031 0 0 1 2.438-.017 5.094 5.094 0 0 0 3.211-1.2c1.613.613 3.426 1.282 4.288 1.526 1.749.494 9.785 2.65 11.665 1.976a2.611 2.611 0 0 0 1.013-.721l1.793.057-.84.168s1.635.027 3.858.057l-.094.054 2.788-.025c4.08.037 8.664.049 9.267-.086a65.1 65.1 0 0 1 7.291 0h.4s5.387-1.074 3.164-6.54c-1.709-4.2-6.962-5.419-9.294-5.755.657-.131 1.223-.232 1.6-.291 1.628-.247 4.789-1.729 5.046-2.235s2.907-1.976 3.591-2.813 2.633-6.753 1.01-11.143zm-44.617 12.282l-.264.086-.178.059-.341.336c-.272-.183-.563-.375-.867-.573.536.033 1.087.065 1.65.092zm23.54 6.96z" data-name="Path 1953" transform="translate(-371.555 -43.42)"/>
        <path id="prefix__Path_1954" d="M686.65 272.13s3.779 9.879 5.928 8.891 1.566-5.187 1.976-6.338.864-9.879.864-9.879.208-6.175.617-7.424a68.014 68.014 0 0 0 .741-7.852v-.121l-.407-7.163-2.307-.575-5.35 1.976-.741 4.231-.289 1.652-.123.7z" class="prefix__cls-11" data-name="Path 1954" transform="translate(-538.937 -192.7)"/>
        <path id="prefix__Path_1955" d="M691.69 358.3s3.606 2.951 4.693 3.211 1.754 2.561 1.754 2.561" class="prefix__cls-5" data-name="Path 1955" transform="translate(-542.732 -280.524)"/>
        <path id="prefix__Path_1956" d="M536.126 273.88s-3.779 9.879-5.928 8.891-1.566-5.187-1.976-6.338-.865-9.879-.865-9.879-.207-6.175-.617-7.424a68.041 68.041 0 0 1-.741-7.852v-.121l.41-7.163 2.307-.575 5.35 1.976.741 4.231.289 1.652.123.7z" class="prefix__cls-11" data-name="Path 1956" transform="translate(-417.965 -194.018)"/>
        <path id="prefix__Rectangle_334" d="M0 0H8.434V13.147H0z" class="prefix__cls-12" data-name="Rectangle 334" transform="translate(134.334 26.993)"/>
        <path id="prefix__Rectangle_335" d="M0 0H8.434V13.147H0z" class="prefix__cls-5" data-name="Rectangle 335" transform="translate(134.334 26.993)"/>
        <path id="prefix__Path_1957" d="M554.747 404.194s-2.882 3.169-1.813 3.744 7.987 11.361 7.987 11.361 22.722 2.8 27.008-1.4 4.2-11.7 4.2-11.7-3.443.741-3.818.338-2.438-2.344-2.438-2.344-29.15-1.768-31.126.001z" class="prefix__cls-13" data-name="Path 1957" transform="translate(-438.068 -314.491)"/>
        <path id="prefix__Path_1958" d="M554.747 404.194s-2.882 3.169-1.813 3.744 7.987 11.361 7.987 11.361 22.722 2.8 27.008-1.4 4.2-11.7 4.2-11.7-3.443.741-3.818.338-2.438-2.344-2.438-2.344-29.15-1.768-31.126.001z" data-name="Path 1958" transform="translate(-438.068 -314.491)" style="opacity:.02"/>
        <path id="prefix__Path_1959" d="M576.8 175.114l-7.409 5.928-2.24.163-.822.059-13.814 1.013-14.325-1.047-2.131-.156-2.717-.2-5.681-5.434a97.272 97.272 0 0 1 7.543-7.214 15.472 15.472 0 0 1 3.655-2.443l.163-.057a4.064 4.064 0 0 0 1.566-1.092c2.781-2.867 5.352-9.944 5.352-9.944s12.268-6.338 10.786 1.976 5.515 6.259 5.515 6.259l2.307 1.052.911.417 2.324 1.064 5.243 2.406c4.115 1.897 3.774 7.25 3.774 7.25z" class="prefix__cls-11" data-name="Path 1959" transform="translate(-419.215 -125.464)"/>
        <circle id="prefix__Ellipse_17" cx="11.033" cy="11.033" r="11.033" class="prefix__cls-5" data-name="Ellipse 17" transform="translate(121.691 13.933)"/>
        <path id="prefix__Path_1960" d="M575.567 223.619H526v-.119l.41-7.163a97.275 97.275 0 0 1 7.543-7.214l31.12-1.235 1.447-1.526 5.243 2.406c4.117 1.892 3.786 7.244 3.786 7.244s.564 6.199.018 7.607z" class="prefix__cls-5" data-name="Path 1960" transform="translate(-417.965 -166.111)"/>
        <path id="prefix__Path_1961" d="M575.567 222.619H526v-.119l.41-7.163a97.273 97.273 0 0 1 7.543-7.214l31.12-1.235 1.447-1.526 5.243 2.406c4.117 1.892 3.786 7.244 3.786 7.244s.564 6.199.018 7.607z" class="prefix__cls-15" data-name="Path 1961" transform="translate(-417.965 -165.358)"/>
        <path id="prefix__Path_1962" d="M584.377 187.341s7.82 9.963 18.235-.2 1.153 22.68 1.153 22.68l-22.475 2.667z" class="prefix__cls-5" data-name="Path 1962" transform="translate(-459.599 -150.164)"/>
        <path id="prefix__Path_1963" d="M584.377 189.341s7.82 9.963 18.235-.2 1.153 22.68 1.153 22.68l-22.475 2.667z" class="prefix__cls-15" data-name="Path 1963" transform="translate(-459.599 -151.67)"/>
        <path id="prefix__Path_1964" d="M583.426 201.758l.827 12.618.887 4.2.677 3.211s1.729 24.7 1.235 25.933.247 2.223.351 2.88-.1 2.307-.022 3.048 0 1.069-1.892.805-4.53-.724-4.53-.724-6.669.494-8.973-.328a26.329 26.329 0 0 0-6.669-.825s-6.587.165-8.726-.081-3.295 2.635-4.693 1.81 1.645-8.807 2.633-11.114-1.316-8.15-1.316-8.15l2.964-16.442.659-3.727v-11.719l.162-.053a4.065 4.065 0 0 0 1.567-1.1l.741 11.791 23.216.825V201.35" class="prefix__cls-5" data-name="Path 1964" transform="translate(-437.195 -162.338)"/>
        <path id="prefix__Path_1965" d="M583.426 199.758l.827 12.618.887 4.2.677 3.211s1.729 24.7 1.235 25.933.247 2.223.351 2.88-.1 2.307-.022 3.048 0 1.069-1.892.805-4.53-.724-4.53-.724-6.669.494-8.973-.328a26.33 26.33 0 0 0-6.669-.825s-6.587.165-8.726-.081-3.295 2.635-4.693 1.81 1.645-8.807 2.633-11.114-1.316-8.15-1.316-8.15l2.964-16.442.659-3.727v-11.719l.162-.053a4.065 4.065 0 0 0 1.567-1.1l.741 11.791 23.216.825V199.35" class="prefix__cls-15" data-name="Path 1965" transform="translate(-437.195 -160.832)"/>
        <path id="prefix__Path_1966" d="M575.563 58.9a2.722 2.722 0 0 0-.741-1.4 3.033 3.033 0 0 0-1.3-.533 25.767 25.767 0 0 0-3.428-.657 5.488 5.488 0 0 0-.741-1.539c-2.42-3.418-6-6.641-10.215-7.37-2.206-.383-4.762-.04-6.174 1.7-.776.956-1.109 2.223-1.892 3.161-1.509 1.823-4.233 2.047-6.135 3.458a11.366 11.366 0 0 0-2.47 2.858 9.8 9.8 0 0 0-1.825 3.653c-.494 2.695 1.287 5.263 1.615 7.982.741 6.083-5.779 11.48-4.547 17.481.719 3.5 3.952 5.965 7.3 7.214 1.178.442 2.524.882 3.075 2.013.247.494.289 1.064.521 1.563.78 1.665 3.347 1.729 4.725.516s1.813-3.174 1.976-5c.662-7.992-2.539-15.888-2.166-23.9.111-2.423.793-5.172 2.964-6.268 2.922-1.482 6.436.988 9.652.516a19.148 19.148 0 0 1 .924 11.685c-.511 2.131-1.4 4.2-1.46 6.4-.1 3.347 1.709 6.4 3.27 9.363a4.982 4.982 0 0 1 .659 1.805 4.351 4.351 0 0 1-.353 1.889c-.882 2.373-2.4 4.577-2.576 7.1a1.149 1.149 0 0 0 .185.845 1.062 1.062 0 0 0 .637.287c2.667.457 4.974-1.907 6.276-4.28a20.065 20.065 0 0 0 2.475-8.526c.269-5.029-1.534-9.976-1.423-15.009.121-5.727 2.706-11.49 1.192-17.007z" class="prefix__cls-5" data-name="Path 1966" transform="translate(-426.662 -46.305)"/>
        <path id="prefix__Path_1967" d="M576.563 57.9a2.721 2.721 0 0 0-.741-1.4 3.033 3.033 0 0 0-1.3-.533 25.766 25.766 0 0 0-3.428-.657 5.488 5.488 0 0 0-.741-1.539c-2.42-3.418-6-6.641-10.215-7.37-2.206-.383-4.762-.04-6.175 1.7-.776.956-1.109 2.223-1.892 3.161-1.509 1.823-4.233 2.047-6.135 3.458a11.366 11.366 0 0 0-2.47 2.858 9.8 9.8 0 0 0-1.825 3.653c-.494 2.695 1.287 5.263 1.615 7.982.741 6.083-5.779 11.48-4.547 17.481.719 3.5 3.952 5.965 7.3 7.214 1.178.442 2.524.882 3.075 2.013.247.494.289 1.064.521 1.563.781 1.665 3.347 1.729 4.725.516s1.813-3.174 1.976-5c.662-7.992-2.539-15.888-2.166-23.9.111-2.423.793-5.172 2.964-6.268 2.922-1.482 6.436.988 9.652.516a19.148 19.148 0 0 1 .924 11.685c-.511 2.131-1.4 4.2-1.46 6.4-.1 3.347 1.709 6.4 3.27 9.363a4.983 4.983 0 0 1 .659 1.805 4.352 4.352 0 0 1-.353 1.889c-.882 2.374-2.4 4.577-2.576 7.1a1.149 1.149 0 0 0 .185.845 1.062 1.062 0 0 0 .637.286c2.667.457 4.974-1.907 6.276-4.28a20.064 20.064 0 0 0 2.475-8.526c.269-5.029-1.534-9.976-1.423-15.009.122-5.726 2.707-11.489 1.193-17.006z" class="prefix__cls-12" data-name="Path 1967" transform="translate(-427.415 -45.552)"/>
        <path id="prefix__Path_1968" d="M581.79 471.533l9.8.314-1.405-7.266-7.506.714z" data-name="Path 1968" transform="translate(-438.098 -349.831)" style="fill:#c3c7d9"/>
        <path id="prefix__Path_1969" d="M654.486 419.744c-.659.822-3.211 2.3-3.458 2.8s-3.292 1.976-4.858 2.223-6.5 1.319-7.409 1.894a72.218 72.218 0 0 1-9.289 2.457 26.362 26.362 0 0 1-2.813.506c-1.482.081-17.7-5.434-17.7-5.434l3.127-3.211.173-.059c.884-.3 4.969-1.679 7.237-2.336 2.554-.741 5.518-3.786 5.518-3.786s4.362-1.482 4.94-1.647-1.482-5.762-1.482-5.762 9.467-1.314 13.172-2.428 12.268-.7 13.831 3.663-.319 10.297-.989 11.12z" class="prefix__cls-13" data-name="Path 1969" transform="translate(-480.435 -315.264)"/>
        <path id="prefix__Path_1970" d="M554.87 496.146s-1.892 1.976-3.786 1.813-8.518.494-8.518.494a13.28 13.28 0 0 0-3.337 1.934c-1.549 1.22-2.371.247-2.524.039l-.027-.039c-.825 2.6-2.717.617-2.717.617s.823-7.9.571-8.891 1.628-2.685 1.628-2.685l2.223-.566 5.631-1.442 8.069 2.8z" class="prefix__cls-15" data-name="Path 1970" transform="translate(-423.959 -377.754)"/>
        <path id="prefix__Path_1971" d="M538.371 493.26l-1.671 11.564-.027-.039c-.825 2.6-2.717.617-2.717.617s.823-7.9.571-8.891 1.628-2.685 1.628-2.685z" class="prefix__cls-5" data-name="Path 1971" transform="translate(-423.959 -382.152)"/>
        <path id="prefix__Path_1972" d="M599 360.08s4.362 1.482 8.15 0" class="prefix__cls-5" data-name="Path 1972" transform="translate(-472.935 -281.865)"/>
        <path id="prefix__Path_1973" d="M659.29 371.42a3.6 3.6 0 0 0 3.211 0" class="prefix__cls-5" data-name="Path 1973" transform="translate(-518.335 -290.404)"/>
        <path id="prefix__Path_1974" d="M659.29 378.835s3.045.408 3.623-.415" class="prefix__cls-5" data-name="Path 1974" transform="translate(-518.335 -295.675)"/>
        <path id="prefix__Path_1975" d="M655.29 393.479s5.72-.741 7.14-1.729" class="prefix__cls-5" data-name="Path 1975" transform="translate(-515.322 -305.713)"/>
        <path id="prefix__Path_1976" d="M584.62 391.75s3.211 1.81 5.6 1.729" class="prefix__cls-5" data-name="Path 1976" transform="translate(-462.107 -305.713)"/>
        <path id="prefix__Path_1977" d="M629.462 479.377a26.374 26.374 0 0 1-2.813.506c-1.482.082-17.7-5.434-17.7-5.434l3.127-3.211.173-.059c.494.348.9.647 1.188.874 1.361 1.072 2.675-.328 3.169-.328s4.774 3.539 4.774 3.539 3.952.906 4.611 1.729 2.964.659 3.374 1.235a2.2 2.2 0 0 1 .097 1.149z" class="prefix__cls-5" data-name="Path 1977" transform="translate(-480.428 -365.525)"/>
        <path id="prefix__Path_1978" d="M494.936 408.839s-4 .23-6.3-.741-9.961-3.211-12.184-1.638-7.575 2.964-5.105 9.222 3.623 6.422 3.623 6.422a8.916 8.916 0 0 1 1.976 2.05c.741 1.153 7.656 3.786 9.385 3.786a14.352 14.352 0 0 1 9.054 2.964 18.609 18.609 0 0 0 8.15 3.295s5.434 2.223 7.125 2.717 9.422 2.633 11.235 1.976 2.964-4.777 2.964-4.777.822-3.7.41-4.28-2.717-.412-3.374-1.235-4.611-1.729-4.611-1.729-4.27-3.542-4.764-3.542-1.808 1.4-3.169.328a72.3 72.3 0 0 0-8.523-5.434c-3.128-1.646-5.892-9.384-5.892-9.384z" class="prefix__cls-13" data-name="Path 1978" transform="translate(-376.33 -316.38)"/>
        <path id="prefix__Path_1979" d="M536.27 427.129a4.717 4.717 0 0 1 4.048 1.069c1.976 1.647 8.625 4.954 8.625 4.954" class="prefix__cls-5" data-name="Path 1979" transform="translate(-425.698 -332.282)"/>
        <path id="prefix__Path_1980" d="M704.415 427s-8.81 1.334-10.455 3.144" class="prefix__cls-5" data-name="Path 1980" transform="translate(-544.442 -332.257)"/>
        <path id="prefix__Path_1981" d="M708.261 499.769h-.388a66.4 66.4 0 0 0-7.022 0c-1.069.247-15.231 0-15.231 0l2.769-.576s-1.027-3.6-.375-3.9c0 0-3.7-2.44-.911-4.088a8.666 8.666 0 0 1 5.8-.953l7.012-2.376 1.346-.457s7.9.412 10.042 5.846-3.042 6.504-3.042 6.504z" class="prefix__cls-15" data-name="Path 1981" transform="translate(-538.161 -377.754)"/>
        <path id="prefix__Path_1982" d="M751.853 499.807h-.388c2.3-1.9 7.5-7.671-7.955-11.88l1.346-.457s7.9.412 10.042 5.846-3.045 6.491-3.045 6.491z" class="prefix__cls-5" data-name="Path 1982" transform="translate(-581.754 -377.792)"/>
        <circle id="prefix__Ellipse_18" cx=".432" cy=".432" r=".432" class="prefix__cls-13" data-name="Ellipse 18" transform="translate(155.137 114.749)"/>
        <circle id="prefix__Ellipse_19" cx=".432" cy=".432" r=".432" class="prefix__cls-13" data-name="Ellipse 19" transform="translate(152.625 115.463)"/>
        <g id="prefix__Group_1228" data-name="Group 1228" transform="translate(111.202 15.538)" style="opacity:.1">
            <path id="prefix__Path_1983" d="M615.867 115.6a19.163 19.163 0 0 0-1.418-7.938c-3.211.479-6.728-2-9.652-.516-2.164 1.1-2.843 3.846-2.964 6.268-.03.64-.035 1.279-.022 1.919 0-.227 0-.457.022-.684.114-2.423.793-5.172 2.964-6.268 2.924-1.482 6.436.988 9.652.516a19.11 19.11 0 0 1 1.418 6.703z" data-name="Path 1983" transform="translate(-586.249 -106.575)"/>
            <path id="prefix__Path_1984" d="M552.731 116.655a8.229 8.229 0 0 0-.032-1.615c-.262-2.173-1.45-4.251-1.665-6.37-.277 2.556 1.351 5.011 1.665 7.6a1.544 1.544 0 0 1 .032.385z" data-name="Path 1984" transform="translate(-547.994 -108.087)"/>
            <path id="prefix__Path_1985" d="M556.573 208.594c-.153 1.833-.585 3.791-1.976 5.006s-3.952 1.148-4.725-.516c-.247-.494-.284-1.069-.524-1.563-.548-1.131-1.9-1.571-3.075-2.013-3.347-1.252-6.575-3.7-7.293-7.214a7.573 7.573 0 0 1-.131-.963 7.782 7.782 0 0 0 .131 2.2c.719 3.5 3.952 5.962 7.293 7.214 1.178.442 2.527.882 3.075 2.013.247.494.289 1.064.524 1.563.778 1.665 3.344 1.729 4.725.516s1.81-3.174 1.976-5.006a28.232 28.232 0 0 0 .077-2.9c-.001.559-.033 1.112-.077 1.663z" data-name="Path 1985" transform="translate(-538.823 -177.862)"/>
            <path id="prefix__Path_1986" d="M687.93 118.951v1.069c.138-4.594 1.823-9.212 1.657-13.71-.128 4.159-1.563 8.412-1.657 12.641z" data-name="Path 1986" transform="translate(-651.103 -106.31)"/>
            <path id="prefix__Path_1987" d="M654.658 198.551a3.184 3.184 0 0 0 .057-.892 4.938 4.938 0 0 0-.659-1.805c-1.428-2.717-3.055-5.5-3.248-8.514 0 .128-.017.247-.02.385-.1 3.344 1.707 6.4 3.268 9.363a5.925 5.925 0 0 1 .602 1.463z" data-name="Path 1987" transform="translate(-623.132 -167.327)"/>
            <path id="prefix__Path_1988" d="M664.382 216.754a20.1 20.1 0 0 1-2.492 8.526c-1.3 2.374-3.608 4.737-6.278 4.28a1.05 1.05 0 0 1-.637-.289.619.619 0 0 1-.116-.193c-.03.193-.054.388-.069.585a1.139 1.139 0 0 0 .185.842 1.05 1.05 0 0 0 .637.289c2.67.457 4.974-1.907 6.278-4.28a20.1 20.1 0 0 0 2.492-8.526c.03-.578.032-1.153.015-1.729-.006.166-.006.329-.015.495z" data-name="Path 1988" transform="translate(-626.135 -189.104)"/>
        </g>
        <path id="prefix__Path_1989" d="M695.31 509.6a8.739 8.739 0 0 0 10.373-3.181" class="prefix__cls-18" data-name="Path 1989" transform="translate(-545.458 -392.061)"/>
        <path id="prefix__Path_1990" d="M700.29 533.262a12.187 12.187 0 0 1 11.608-.109" class="prefix__cls-18" data-name="Path 1990" transform="translate(-549.208 -411.138)"/>
        <path id="prefix__Path_1991" d="M561.93 527.082s2.144-4.836 7.869-1.148" class="prefix__cls-18" data-name="Path 1991" transform="translate(-445.021 -405.711)"/>
        <path id="prefix__Path_1992" d="M533.79 230.517l4.372-3.952s16.951-1.111 17.652 4.651c0 0 6.009-6.832 18.647-5.31l5.347 4.258-14.779 6.486-14.362 4.982-10.579-4.732z" class="prefix__cls-5" data-name="Path 1992" transform="translate(-423.831 -180.663)"/>
        <path id="prefix__Path_1993" d="M533.79 231.517l4.372-3.952s16.951-1.111 17.652 4.651c0 0 6.009-6.832 18.647-5.31l5.347 4.258-14.779 6.486-14.362 4.982-10.579-4.732z" class="prefix__cls-4" data-name="Path 1993" transform="translate(-423.831 -181.416)"/>
        <path id="prefix__Path_1994" d="M437.38 204.83l1.934 23.135 20.5 1.03-.889-23.036-.017-.388z" class="prefix__cls-5" data-name="Path 1994" transform="translate(-329.355 -154.235)"/>
        <path id="prefix__Path_1995" d="M437.38 202.83l1.934 23.135 20.5 1.03-.889-23.036-.017-.388z" class="prefix__cls-2" data-name="Path 1995" transform="translate(-329.355 -152.729)"/>
        <path id="prefix__Path_1996" d="M570.857 202.83L549.71 206v23.24l20.665-2.986z" class="prefix__cls-5" data-name="Path 1996" transform="translate(-413.941 -152.729)"/>
        <path id="prefix__Path_1997" d="M570.857 200.83L549.71 204v23.24l20.665-2.986z" class="prefix__cls-2" data-name="Path 1997" transform="translate(-413.941 -151.223)"/>
        <path id="prefix__Path_1998" d="M580.313 223.79l-11.423 1.269.25 3.892 11.166-1.22z" class="prefix__cls-6" data-name="Path 1998" transform="translate(-428.384 -168.512)"/>
        <path id="prefix__Path_1999" d="M536.777 327.263l1.163 3.129a3.886 3.886 0 0 0 3.621.741c1.892-.741 3.542-1.109 4.364-1.83s1.976-4.344 1.976-4.344 1.153-3.952 2.3-4.94 4.2-14.6 0-13.268-7.409 13.68-7.409 13.68a2.929 2.929 0 0 1-1.81.988c-1.069.084-3.211-.165-3.623.741s-1.817 3.292-.582 5.103z" class="prefix__cls-11" data-name="Path 1999" transform="translate(-425.706 -241.638)"/>
        <path id="prefix__Path_2000" d="M619.382 254.366a7.113 7.113 0 0 1-6.2-1.546l.892 23.034a6.286 6.286 0 0 0 5.31 1.754z" class="prefix__cls-5" data-name="Path 2000" transform="translate(-483.613 -201.096)"/>
        <path id="prefix__Path_2001" d="M619.382 252.366a7.113 7.113 0 0 1-6.2-1.546l.892 23.034a6.286 6.286 0 0 0 5.31 1.754z" class="prefix__cls-2" data-name="Path 2001" transform="translate(-483.613 -199.59)"/>
        <path id="prefix__Path_2002" d="M619.382 252.366a7.113 7.113 0 0 1-6.2-1.546l.892 23.034a6.286 6.286 0 0 0 5.31 1.754z" class="prefix__cls-5" data-name="Path 2002" transform="translate(-483.613 -199.59)"/>
        <path id="prefix__Path_2003" d="M640.29 239.571s8.6-2.63 10.845-2.26" class="prefix__cls-5" data-name="Path 2003" transform="translate(-504.027 -189.391)"/>
        <path id="prefix__Path_2004" d="M571.661 237.3s-8.338-1.976-9.731-1.415" class="prefix__cls-5" data-name="Path 2004" transform="translate(-445.021 -188.268)"/>
        <path id="prefix__Path_2005" d="M662.25 243.7s5.752-2.109 7.832-1.106" class="prefix__cls-5" data-name="Path 2005" transform="translate(-520.563 -193.193)"/>
        <path id="prefix__Path_2006" d="M650.52 448.937a18.91 18.91 0 0 1 2.835-1.761 46.254 46.254 0 0 0 4.2-2.566" class="prefix__cls-5" data-name="Path 2006" transform="translate(-511.731 -345.517)"/>
        <path id="prefix__Path_2007" d="M542.276 360.08s-3.608 2.951-4.693 3.211-1.754 2.561-1.754 2.561" class="prefix__cls-5" data-name="Path 2007" transform="translate(-425.367 -281.865)"/>
        <path id="prefix__Path_2008" d="M667.854 325.505l-1.151 3.137a3.89 3.89 0 0 1-3.623.741c-1.894-.741-3.539-1.109-4.364-1.83s-1.976-4.344-1.976-4.344-1.151-3.952-2.3-4.94-4.2-14.6 0-13.268 7.409 13.68 7.409 13.68a2.929 2.929 0 0 0 1.81.988c1.069.084 3.211-.165 3.623.741s1.807 3.29.572 5.095z" class="prefix__cls-11" data-name="Path 2008" transform="translate(-513.06 -240.32)"/>
        <path id="prefix__Path_2009" d="M707.15 364.94s2.359 1.516 2.349 3.329" class="prefix__cls-5" data-name="Path 2009" transform="translate(-554.374 -285.524)"/>
        <circle id="prefix__Ellipse_20" cx="11.033" cy="11.033" r="11.033" class="prefix__cls-11" data-name="Ellipse 20" transform="translate(121.73 13.392)"/>
        <path id="prefix__Path_2010" d="M581.414 94.837a22.611 22.611 0 0 0 3.791-1.435c2.863-1.005 6.029-.316 8.926.59a11.577 11.577 0 0 0 3.406.741 3.447 3.447 0 0 0 3-1.482 3.35 3.35 0 0 0-.02-3.095 8.715 8.715 0 0 0-2.015-2.487c-2.569-2.425-5.755-4.693-9.279-4.446a12.771 12.771 0 0 0-4.078 1.168 44.946 44.946 0 0 0-4.786 2.411c-1.188.689-3.389 1.61-4.073 2.87-1.558 2.838 2.708 5.545 5.128 5.165z" class="prefix__cls-12" data-name="Path 2010" transform="translate(-455.579 -73.373)"/>
        <path id="prefix__Path_2011" d="M600.532 113.716a3.447 3.447 0 0 1-3 1.482 11.586 11.586 0 0 1-3.408-.726c-2.9-.906-6.061-1.6-8.926-.59a21.5 21.5 0 0 1-3.791 1.433c-1.951.306-5.093-1.393-5.434-3.554-.383 2.5 3.26 4.636 5.434 4.3a22.732 22.732 0 0 0 3.791-1.433c2.865-1.008 6.029-.316 8.926.59a11.116 11.116 0 0 0 3.408.726 3.473 3.473 0 0 0 3-1.482 2.892 2.892 0 0 0 .346-1.805 2.662 2.662 0 0 1-.346 1.059z" class="prefix__cls-5" data-name="Path 2011" transform="translate(-455.576 -94.876)"/>
        <path id="prefix__Path_2012" d="M1025.712 661.63s1.465 1.914-.677 4.806-3.9 5.332-3.193 7.135c0 0 3.231-5.369 5.858-5.446s.9-3.267-1.988-6.495z" class="prefix__cls-2" data-name="Path 2012" transform="translate(-791.222 -508.937)"/>
        <path id="prefix__Path_2013" d="M1025.967 661.63a2.371 2.371 0 0 1 .3.6c2.564 3.013 3.932 5.826 1.465 5.9-2.3.067-5.051 4.174-5.71 5.209a2.419 2.419 0 0 0 .077.247s3.231-5.369 5.858-5.446.897-3.282-1.99-6.51z" class="prefix__cls-5" data-name="Path 2013" transform="translate(-791.476 -508.937)"/>
        <path id="prefix__Path_2014" d="M1047.968 670.2c0 .674-.077 1.22-.168 1.22s-.17-.546-.17-1.22.094-.356.188-.356.15-.322.15.356z" class="prefix__cls-19" data-name="Path 2014" transform="translate(-810.761 -515.063)"/>
        <path id="prefix__Path_2015" d="M1049.272 673.321c-.59.321-1.106.516-1.151.435s.4-.41.988-.741.358-.089.4 0 .355-.015-.237.306z" class="prefix__cls-19" data-name="Path 2015" transform="translate(-811.128 -517.383)"/>
        <path id="prefix__Path_2016" d="M996.645 661.63s-1.465 1.914.677 4.806 3.9 5.332 3.191 7.135c0 0-3.228-5.369-5.858-5.446s-.89-3.267 1.99-6.495z" class="prefix__cls-2" data-name="Path 2016" transform="translate(-769.895 -508.937)"/>
        <path id="prefix__Path_2017" d="M996.645 661.63a2.37 2.37 0 0 0-.3.6c-2.564 3.013-3.932 5.826-1.465 5.9 2.294.067 5.051 4.174 5.71 5.209a1.91 1.91 0 0 1-.079.247s-3.228-5.369-5.858-5.446-.888-3.282 1.992-6.51z" class="prefix__cls-5" data-name="Path 2017" transform="translate(-769.895 -508.937)"/>
        <path id="prefix__Path_2018" d="M995.64 670.2c0 .674.074 1.22.168 1.22s.17-.546.17-1.22-.1-.356-.188-.356-.15-.322-.15.356z" class="prefix__cls-19" data-name="Path 2018" transform="translate(-771.612 -515.063)"/>
        <path id="prefix__Path_2019" d="M990.764 673.321c.59.321 1.107.516 1.151.435s-.4-.41-.988-.741-.358-.089-.4 0-.356-.015.237.306z" class="prefix__cls-19" data-name="Path 2019" transform="translate(-767.67 -517.383)"/>
        <ellipse id="prefix__Ellipse_21" cx="15.313" cy="2.349" class="prefix__cls-1" data-name="Ellipse 21" rx="15.313" ry="2.349" transform="translate(215.307 174.588)"/>
        <path id="prefix__Path_2020" d="M1006.166 696.8l-.074.6-.1.845-.042.353-.1.845-.044.353-.1.842-1.173 9.608c-.1.857-1.5 1.526-3.2 1.526h-6.088c-1.692 0-3.09-.669-3.2-1.526l-1.173-9.608-.1-.842-.042-.353-.1-.845-.044-.353-.1-.845-.074-.6c-.057-.494.7-.894 1.657-.894h12.453c.945.004 1.703.412 1.644.894z" data-name="Path 2020" transform="translate(-767.665 -534.751)" style="fill:#65617d"/>
        <path id="prefix__Path_2021" d="M917.747 658.53l-.1.845h-15.413l-.1-.845z" class="prefix__cls-21" data-name="Path 2021" transform="translate(-679.319 -495.879)"/>
        <path id="prefix__Path_2022" d="M918.045 663.38l-.1.845h-15.12l-.1-.845z" class="prefix__cls-21" data-name="Path 2022" transform="translate(-679.764 -499.531)"/>
        <path id="prefix__Path_2023" d="M918.351 668.23l-.1.845h-14.83l-.1-.845z" class="prefix__cls-21" data-name="Path 2023" transform="translate(-680.216 -503.183)"/>
    </g>
</svg>
