<svg xmlns="http://www.w3.org/2000/svg" width="272.448" height="227.842" viewBox="0 0 272.448 227.842">
    <defs>
        <linearGradient id="prefix__linear-gradient" x1=".5" x2=".5" y1="1" gradientUnits="objectBoundingBox">
            <stop offset="0" stop-color="gray" stop-opacity=".251"/>
            <stop offset=".54" stop-color="gray" stop-opacity=".122"/>
            <stop offset="1" stop-color="gray" stop-opacity=".102"/>
        </linearGradient>
        <style>
            .prefix__cls-1,.prefix__cls-2{fill:#2ec5d4}.prefix__cls-1,.prefix__cls-3{opacity:.1}.prefix__cls-4{fill:#ffd037}.prefix__cls-5{fill:#a8a8a8}.prefix__cls-6{opacity:.2}.prefix__cls-9{fill:#53517c}.prefix__cls-10{fill:#b3d7f7}.prefix__cls-11{fill:#c37871}.prefix__cls-12{fill:#e6eaed}.prefix__cls-16{opacity:.25}.prefix__cls-18{fill:#7c7b89}.prefix__cls-19{fill:#3acc6c}.prefix__cls-20{fill:#ff748e}.prefix__cls-21{fill:#5e5a6b}
        </style>
    </defs>
    <g id="prefix__undraw_pie_chart_6efe" transform="translate(0 -.01)">
        <path id="prefix__Path_2172" d="M215.675 40.02c8.379-7.467 21.535-8.983 33.508-8.4 37.61 1.87 71.558 20.024 100.923 40.561 10.63 7.434 21.1 15.446 28 25.684 14.047 20.844 9.882 49.715-9.653 66.884-6.645 5.842-14.7 10.323-22.973 14.292-14.7 7.059-30.573 12.724-47.263 14.338-11.9 1.149-23.955.215-35.786-1.391-33.058-4.483-65.51-14.4-92.707-31.36-11.929-7.44-23.174-16.687-28.09-28.722s-1.769-27.287 10.41-34.411c5.039-2.945 11.063-4.277 16.959-5.526 8.681-1.84 17.5-3.653 25.333-7.391 8.09-3.863 17.673-11.332 16.061-19.872-1.713-9.173-3.097-17.228 5.278-24.686z" class="prefix__cls-1" data-name="Path 2172" transform="translate(-128.567 -31.5)"/>
        <ellipse id="prefix__Ellipse_103" cx="9.098" cy="1.538" class="prefix__cls-1" data-name="Ellipse 103" rx="9.098" ry="1.538" transform="translate(254.253 224.776)"/>
        <ellipse id="prefix__Ellipse_104" cx="40.484" cy="7.168" class="prefix__cls-1" data-name="Ellipse 104" rx="40.484" ry="7.168" transform="translate(66.618 200.184)"/>
        <ellipse id="prefix__Ellipse_105" cx="20.577" cy="4.532" class="prefix__cls-1" data-name="Ellipse 105" rx="20.577" ry="4.532" transform="translate(195.241 201.401)"/>
        <path id="prefix__Path_2173" d="M1061.619 791.49s1.672 2.178-.77 5.482-4.453 6.084-3.64 8.139c0 0 3.683-6.125 6.68-6.212s1.023-3.731-2.27-7.409z" class="prefix__cls-2" data-name="Path 2173" transform="translate(-796.39 -584.599)"/>
        <path id="prefix__Path_2174" d="M1061.87 791.49a2.722 2.722 0 0 1 .343.686c2.924 3.438 4.483 6.645 1.671 6.724-2.619.076-5.763 4.761-6.514 5.943a2.216 2.216 0 0 0 .09.272s3.683-6.125 6.68-6.212 1.024-3.735-2.27-7.413z" class="prefix__cls-3" data-name="Path 2174" transform="translate(-796.641 -584.599)"/>
        <path id="prefix__Path_2175" d="M1084.277 800.4c0 .77-.087 1.391-.193 1.391s-.193-.621-.193-1.391.109-.406.215-.406.171-.357.171.406z" class="prefix__cls-4" data-name="Path 2175" transform="translate(-815.942 -590.729)"/>
        <path id="prefix__Path_2176" d="M1085.706 803.685c-.675.367-1.266.591-1.315.5s.455-.468 1.13-.836.408-.1.46 0 .4-.032-.275.336z" class="prefix__cls-4" data-name="Path 2176" transform="translate(-816.304 -593.091)"/>
        <path id="prefix__Path_2177" d="M1031.468 791.49s-1.671 2.178.771 5.482 4.456 6.084 3.642 8.139c0 0-3.686-6.125-6.683-6.212s-1.029-3.731 2.27-7.409z" class="prefix__cls-2" data-name="Path 2177" transform="translate(-775.062 -584.599)"/>
        <path id="prefix__Path_2178" d="M1031.468 791.49a2.678 2.678 0 0 0-.34.686c-2.926 3.438-4.486 6.645-1.674 6.724 2.621.076 5.763 4.761 6.514 5.943-.024.093-.054.182-.087.272 0 0-3.686-6.125-6.683-6.212s-1.029-3.735 2.27-7.413z" class="prefix__cls-3" data-name="Path 2178" transform="translate(-775.062 -584.599)"/>
        <path id="prefix__Path_2179" d="M1030.08 800.4c0 .77.087 1.391.193 1.391s.193-.621.193-1.391-.109-.406-.215-.406-.171-.357-.171.406z" class="prefix__cls-4" data-name="Path 2179" transform="translate(-776.78 -590.729)"/>
        <path id="prefix__Path_2180" d="M1025.074 803.685c.675.367 1.263.591 1.315.5s-.457-.468-1.132-.836-.408-.1-.457 0-.4-.032.274.336z" class="prefix__cls-4" data-name="Path 2180" transform="translate(-772.839 -593.091)"/>
        <path id="prefix__Path_2181" d="M1032 833.734s4.669-.144 6.076-1.146 7.187-2.2 7.535-.591 7.018 8 1.745 8.036-12.25-.817-13.657-1.677-1.699-4.622-1.699-4.622z" class="prefix__cls-5" data-name="Path 2181" transform="translate(-778.177 -613.506)"/>
        <path id="prefix__Path_2182" d="M1047.506 846.207c-5.273.041-12.25-.817-13.657-1.677-1.07-.653-1.5-2.994-1.633-4.07h-.155s.294 3.768 1.7 4.628 8.384 1.72 13.657 1.677c1.522 0 2.047-.544 2.02-1.361-.22.489-.789.796-1.932.803z" class="prefix__cls-6" data-name="Path 2182" transform="translate(-778.221 -620.238)"/>
        <ellipse id="prefix__Ellipse_106" cx="9.098" cy="1.538" class="prefix__cls-1" data-name="Ellipse 106" rx="9.098" ry="1.538" transform="translate(0 213.343)"/>
        <path id="prefix__Path_2183" d="M110.55 787.085s5.191-.161 6.754-1.274 7.984-2.45 8.373-.656 7.8 8.883 1.941 8.932-13.611-.915-15.176-1.865-1.892-5.137-1.892-5.137z" class="prefix__cls-5" data-name="Path 2183" transform="translate(-107.564 -579.35)"/>
        <path id="prefix__Path_2184" d="M127.722 800.926c-5.861.046-13.611-.912-15.176-1.865-1.19-.724-1.663-3.321-1.821-4.522h-.174s.329 4.187 1.906 5.137 9.315 1.906 15.176 1.865c1.69 0 2.276-.618 2.243-1.508-.252.553-.897.893-2.154.893z" class="prefix__cls-6" data-name="Path 2184" transform="translate(-107.564 -586.818)"/>
        <ellipse id="prefix__Ellipse_107" cx="9.912" cy="1.677" class="prefix__cls-2" data-name="Ellipse 107" rx="9.912" ry="1.677" transform="translate(32.636 218.973)"/>
        <path id="prefix__Path_2185" d="M246.379 819.783a2.885 2.885 0 0 0 .947-1.426 1.273 1.273 0 0 0-.661-1.454c-.607-.231-1.255.191-1.745.615a2.322 2.322 0 0 1-1.7.817 2.589 2.589 0 0 0 .8-2.42 1 1 0 0 0-.223-.49c-.338-.362-.947-.207-1.361.076-1.282.9-1.633 2.643-1.647 4.211a8.194 8.194 0 0 1-.025-1.734 1.786 1.786 0 0 0-.651-1.535 1.968 1.968 0 0 0-.994-.234 2.066 2.066 0 0 0-1.612.46 1.606 1.606 0 0 0 .063 1.979 6.2 6.2 0 0 0 1.669 1.334 3.693 3.693 0 0 1 1.192 1.138 1.28 1.28 0 0 1 .09.2h3.612a10.047 10.047 0 0 0 2.246-1.537z" class="prefix__cls-2" data-name="Path 2185" transform="translate(-199.734 -601.864)"/>
        <path id="prefix__Path_2190" d="M561.177 558.686a77.172 77.172 0 0 0 22.265-54.34v-.656H506.18z" data-name="Path 2190" transform="translate(-395.495 -375.143)" style="fill:#3f3d56"/>
        <path id="prefix__Path_2192" d="M742.547 285.241l-1.192-10.761s-2.159-9.688-2.466-14.531-2.641-5.2-2.66-5.2-2.877-1.682-3.133-2.243a9.71 9.71 0 0 0-2.521-1.748l-.354-.188s-.9-3.743-1.968-3.207l-.087-.253a9.364 9.364 0 0 1-.5-2.5v-.31a9.136 9.136 0 0 0 2.45-4.173 9.023 9.023 0 0 0 .272-1.7v-.324c.525-.367.612-1.146.751-1.8.256-1.192.926-2.259 1.244-3.435.027-.1.049-.2.068-.31v-.068a4.017 4.017 0 0 0 .063-.653v-.046a2.536 2.536 0 0 0-1.007-2.232 2.176 2.176 0 0 1-.468-.327 1.4 1.4 0 0 1-.24-.433l-.544-1.3a1.344 1.344 0 0 0-.272-.46 1.973 1.973 0 0 0-.727-.346 3.65 3.65 0 0 1-1.761-1.829 8.289 8.289 0 0 0-1.391-2.178 6.521 6.521 0 0 0-3.909-1.323 4.218 4.218 0 0 0-.1 1.331c-2.213-.485-4.628-.95-6.667.027a1.543 1.543 0 0 0-.817.789 1.1 1.1 0 0 0-.033.128.843.843 0 0 0 0 .166 1.507 1.507 0 0 1 .035.362.545.545 0 0 1-.34.365c-.67.3-1.478-.087-2.178.15a2.178 2.178 0 0 0-1.192 1.533 5.055 5.055 0 0 1-.759 1.846c-.218.272-.5.455-.73.708a2.178 2.178 0 0 0-.514 1.731.3.3 0 0 0 0 .049.984.984 0 0 0 .052.245 2.21 2.21 0 0 0 .1.272c.038.079.079.155.122.231a5.3 5.3 0 0 1 .874 1.544v.022c.133.749-.343 1.462-.463 2.208 0 .06-.016.117-.019.177v.2c.041 1.089 1.04 1.81 1.633 2.611a4.9 4.9 0 0 0 .768 1.062c.016.117.035.231.06.343a8.884 8.884 0 0 0 .887 2.532 9.256 9.256 0 0 0 4.756 4.255c0 .106.022.215.033.324 0 .2.027.408.027.61v.294l-.09-.691a2.676 2.676 0 0 0-1.024-.014 78.489 78.489 0 0 0-53.84-21.383v37.591c-2.249-.675-4.083-.751-3.947.838.125 1.633 1.906 3.288 3.947 4.658v35.685h39.265a5.692 5.692 0 0 0 .272 1.925c.422.512.384 6.642.384 6.642s.207 1.124.259 1.326.667 5.406.667 5.659a19.1 19.1 0 0 1 .515 2.755 13 13 0 0 0 .926 3.057l.152 4.285s1.592 2.4 1.7 2.551.052 3.16 1.8 4.59a2.031 2.031 0 0 1 .566.966c.131.517 4.513 7.878 5.869 10.148l-.163.77-1.089 5.093-.052 2.142a6.664 6.664 0 0 0-.463 2.6 2.788 2.788 0 0 1 .1 1.225s-.719 1.119-.256 1.835.2 1.122-.463 2.956a1.283 1.283 0 0 0 .335 1.6 2.269 2.269 0 0 1-.033.272c-.1.817-.2 1.75-.2 2s-.1 1.361-.1 2.341c0 .776.049 1.473.256 1.587.463.253 3.033.544 3.082 1.426s1.029 2.14 3.082 2.14 5.6-.713 6.471-.613c.144.019.229-.076.272-.245a.83.83 0 0 0 .019-.087 1.943 1.943 0 0 0 1.2.64c3.081.564 6.83-.817 7.551-2.191a2.516 2.516 0 0 0 .207-.544 6.623 6.623 0 0 0-.207-3.073 5.244 5.244 0 0 1-.065-2.107 1.794 1.794 0 0 1 .422-.847 9.256 9.256 0 0 0 1.29-3.082c.248-.89.406-1.614.406-1.614s-.324-.5-.817-1.176c-.988-1.386-2.657-3.539-3.7-3.906a1.194 1.194 0 0 1-.109-.321 10.326 10.326 0 0 0-1.13-2.178 29.845 29.845 0 0 1-1.489-2.6c0-.2-2.053-3.316-2.053-3.316s-.789-1.712-1.309-2.641c.06-.163.12-.37.182-.615a41.832 41.832 0 0 0 .972-7.707 3.365 3.365 0 0 1 .512-2.856 6.112 6.112 0 0 0 .721-3.057s-.052-5.766.512-6.936 2.156-10.554 2.107-10.761a7.747 7.747 0 0 1 .408-1.489l.1-3.7v-.226a17.433 17.433 0 0 1 .817-3.928 1.711 1.711 0 0 0 .142-.7h8.474c0-.512-.019-1.021-.033-1.53h.033a77.809 77.809 0 0 0-.817-10.663c.795-.964 1.756-1.633 1.786-1.84a11.333 11.333 0 0 1 .563-1.837 8.137 8.137 0 0 0-.078-3.066zm-17.1 79.8s.218-.131.572-.313c.022.087.044.18.065.272a12.752 12.752 0 0 1 .441 2.994l-.272 2.755a8.93 8.93 0 0 0-.651 1.906c-.163-.672-.324-1.2-.324-1.2s-3.5-2.341-3.5-3.517a9.214 9.214 0 0 0-.24-1.75c-.03-.147-.063-.289-.1-.427a3.059 3.059 0 0 1 .387.6s1.043-2.529 1.293-3.539a.817.817 0 0 0 .044-.387 3.308 3.308 0 0 1-.063-1.045c.245.272.433.544.37.74-.136.459 1.974 2.907 1.974 2.907z" data-name="Path 2192" transform="translate(-506.587 -169.676)"/>
        <path id="prefix__Path_2193" d="M870.588 757.2c-.86-.1-4.356.607-6.386.607s-2.994-1.263-3.041-2.129-2.583-1.162-3.041-1.416c-.2-.114-.253-.817-.25-1.579 0-.972.1-2.072.1-2.327s.1-1.176.2-1.984c.082-.7.158-1.307.158-1.307 2.382-2.888 7.807-.762 7.807-.762s.231.8.419 1.7a9.312 9.312 0 0 1 .237 1.74c0 1.168 3.449 3.5 3.449 3.5a23.018 23.018 0 0 1 .572 2.4c.135.857.16 1.605-.224 1.557z" class="prefix__cls-9" data-name="Path 2193" transform="translate(-651.448 -551.165)"/>
        <path id="prefix__Path_2194" d="M870.588 776.273c-.86-.1-4.356.61-6.384.61s-2.994-1.266-3.041-2.129-2.586-1.165-3.043-1.418c-.2-.112-.253-.817-.25-1.576a7.959 7.959 0 0 1 2.788 1.274c.76.817.961 1.72 1.47 1.824a4.2 4.2 0 0 0 3.444.2 21.469 21.469 0 0 1 5.237-.332c.138.853.163 1.594-.221 1.547z" class="prefix__cls-3" data-name="Path 2194" transform="translate(-651.448 -570.24)"/>
        <path id="prefix__Path_2195" d="M913.479 731.3c-.86.912-.351 2.937-.351 2.937s.708 2.232 0 3.6-4.41 2.722-7.451 2.178a1.788 1.788 0 0 1-1.383-.947c-.743-1.465.52-4.021.52-4.021s.152-1.671.256-2.736a13.016 13.016 0 0 0-.436-2.981c-.15-.642-.272-1.124-.272-1.124s4.628-6.639 6.032-6.688a.637.637 0 0 1 .2.022c1.018.25 2.752 2.5 3.762 3.923.482.681.8 1.173.8 1.173s-.812 3.751-1.677 4.664z" class="prefix__cls-9" data-name="Path 2195" transform="translate(-685.065 -533.674)"/>
        <path id="prefix__Path_2196" d="M914.1 741.846c-.86.912-.351 2.937-.351 2.937s.708 2.232 0 3.6-4.41 2.739-7.451 2.178a1.791 1.791 0 0 1-1.383-.945c.876-.185 2.257-.422 4.424-.675 5.218-.61 3.849-4.053 3.849-4.053s-.607-2.434.152-3.65a26.959 26.959 0 0 0 1.633-5.227c.485.678.8 1.171.8 1.171s-.803 3.753-1.673 4.664z" class="prefix__cls-3" data-name="Path 2196" transform="translate(-685.691 -544.221)"/>
        <path id="prefix__Path_2197" d="M867.344 748.006c-.727-.994-2.877-2.907-7.214.833a2.45 2.45 0 0 1-1.171-.466c.082-.7.158-1.307.158-1.307 2.382-2.888 7.807-.762 7.807-.762s.233.803.42 1.702z" class="prefix__cls-3" data-name="Path 2197" transform="translate(-652.242 -551.165)"/>
        <path id="prefix__Path_2198" d="M876.179 529.607v.223l-.1 3.683a7.455 7.455 0 0 0-.406 1.47c.052.2-1.519 9.528-2.08 10.693s-.509 6.9-.509 6.9a6.269 6.269 0 0 1-.713 3.041 3.424 3.424 0 0 0-.5 2.85 41.1 41.1 0 0 1-.958 7.66 2.664 2.664 0 0 1-.362.955.757.757 0 0 0-.122.234c-.729 1.881-2.613 13.5-2.613 13.5s-.019.223-.038.528a5.87 5.87 0 0 0 .038 1.6.817.817 0 0 1-.044.384c-.245 1-1.274 3.52-1.274 3.52s-1.976-4.41-7.5.354c0 0-2.129-.2-1.467-2.028s.912-2.229.455-2.937.253-1.824.253-1.824a2.775 2.775 0 0 0-.1-1.217 6.664 6.664 0 0 1 .457-2.583l.052-2.129 1.067-5.063.321-1.524.332-1.576 1.77-30.72.068-1.143.5-8.627 11.959-1.976.408 3.139.648 1.541z" class="prefix__cls-10" data-name="Path 2198" transform="translate(-651.108 -389.815)"/>
        <path id="prefix__Path_2199" d="M877.556 529.1l-7.325 4.824.272 4.222s.759 6.792.759 7.5-.357 6.487-.357 6.487 1.827 2.722 1.633 3.4 1.568 2.532 1.568 2.532l3.016 5.771a11.1 11.1 0 0 0 .817 2.238 2.664 2.664 0 0 1-.362.956c-.607.607-2.736 13.733-2.736 13.733s-.019.223-.038.528c-.155-.139-.272-.223-.272-.223a25.9 25.9 0 0 1-1.47-2.684 17.97 17.97 0 0 0-1.571-2.281l-3.582-6.841-.838-1.418.332-1.576 2.333-40.49 11.959-1.976.408 3.139-10.889 2.774z" class="prefix__cls-3" data-name="Path 2199" transform="translate(-658.144 -389.779)"/>
        <path id="prefix__Path_2200" d="M888.377 529.571L875 534.4l.5-8.627 11.959-1.976.408 3.139.648 1.541c-.086.623-.138 1.094-.138 1.094z" class="prefix__cls-3" data-name="Path 2200" transform="translate(-663.915 -389.779)"/>
        <path id="prefix__Path_2201" d="M873.972 614.331a.817.817 0 0 1-.044.384 1.324 1.324 0 0 1-.272-.686c.152-.457-1.217-1.522-1.217-1.522a25.912 25.912 0 0 1-1.467-2.684 17.974 17.974 0 0 0-1.573-2.281l-3.539-6.735.321-1.524.332-1.576L868.291 567l.106 2.594s.768 6.778.768 7.478-.354 6.487-.354 6.487 1.824 2.722 1.633 3.4 1.571 2.532 1.571 2.532l3.041 5.779a8.718 8.718 0 0 0 .863 2.281 5.329 5.329 0 0 1 .686 1.146c-.73 1.881-2.613 13.5-2.613 13.5s-.019.223-.038.528a5.367 5.367 0 0 0 .018 1.606z" class="prefix__cls-3" data-name="Path 2201" transform="translate(-657.264 -421.219)"/>
        <path id="prefix__Path_2202" d="M912.819 724s-2.281 4.105-4 4.209a9.542 9.542 0 0 0-3.373 1.124c-.15-.642-.272-1.124-.272-1.124s4.628-6.639 6.032-6.688a.635.635 0 0 1 .2.022v.024a12.212 12.212 0 0 0 1.413 2.433z" class="prefix__cls-3" data-name="Path 2202" transform="translate(-685.873 -533.674)"/>
        <path id="prefix__Path_2203" d="M850.043 566.647s-2.281 4.105-4 4.209a11.267 11.267 0 0 0-4 1.47s-2.08-2.434-1.93-2.888-1.214-1.522-1.214-1.522a25.894 25.894 0 0 1-1.47-2.684 17.978 17.978 0 0 0-1.573-2.281l-3.6-6.841s-6.03-10.14-6.182-10.747a2.006 2.006 0 0 0-.561-.961c-1.72-1.421-1.671-4.41-1.772-4.562l-1.671-2.534-.152-4.258a12.967 12.967 0 0 1-.912-3.041 19.065 19.065 0 0 0-.509-2.739c0-.256-.607-5.42-.656-5.624s-.256-1.318-.256-1.318.052-6.081-.351-6.59a9.075 9.075 0 0 1-.31-2.954c-.016-1.043 0-1.96 0-1.96l29.849-3.092s.185 1.7.291 3.405a10.537 10.537 0 0 1-.087 3.386 17.219 17.219 0 0 0-.817 3.9l-13.48 4.865.15 3.7s.762 6.792.762 7.5-.357 6.487-.357 6.487 1.824 2.722 1.633 3.4 1.568 2.532 1.568 2.532l3.041 5.779a9.345 9.345 0 0 0 .863 2.281 24.9 24.9 0 0 1 1.677 3.2s2.025 3.1 2.025 3.3a29.585 29.585 0 0 0 1.47 2.586 10.487 10.487 0 0 1 1.113 2.178 12.15 12.15 0 0 0 1.418 2.418z" class="prefix__cls-10" data-name="Path 2203" transform="translate(-623.097 -376.628)"/>
        <path id="prefix__Path_2204" d="M866.25 635.68s2.483 2.839 3.748 2.891-3.748-2.891-3.748-2.891z" class="prefix__cls-3" data-name="Path 2204" transform="translate(-657.547 -471.203)"/>
        <path id="prefix__Path_2205" d="M901.06 731.277s7.5-3.852 6.533-2.077-3.7 2.722-3.7 2.722z" class="prefix__cls-3" data-name="Path 2205" transform="translate(-682.881 -538.925)"/>
        <path id="prefix__Path_2206" d="M865.13 734.92s4.611.3 5.218 1.064c0 0-4.913-1.015-5.218-1.064z" class="prefix__cls-3" data-name="Path 2206" transform="translate(-656.732 -543.428)"/>
        <path id="prefix__Path_2207" d="M865.31 740.69s4.208.152 5.575.759c0 0-4.459-.149-5.575-.759z" class="prefix__cls-3" data-name="Path 2207" transform="translate(-656.863 -547.627)"/>
        <path id="prefix__Path_2208" d="M676.115 386.959l-1.334-.61-2.112-.964s-10.034-4-10.344-8.006 11.705 2.635 11.705 2.635a11.55 11.55 0 0 0 1.113 1.5 2.3 2.3 0 0 0 1.168.833c.925.099-.196 4.612-.196 4.612z" class="prefix__cls-11" data-name="Path 2208" transform="translate(-509.13 -282.283)"/>
        <path id="prefix__Path_2209" d="M882.506 311.058l-3.294 3.811-8.006-2.632-1.976-1.573 1.263-1.671a3.826 3.826 0 0 0 .544-2.341 4.571 4.571 0 0 0-.027-.61 15.562 15.562 0 0 0-.566-2.978s11.4-2.891 10.589-.509a4.238 4.238 0 0 0-.191 1.533 9.287 9.287 0 0 0 .5 2.483 14.429 14.429 0 0 0 .858 2.066z" class="prefix__cls-11" data-name="Path 2209" transform="translate(-659.716 -228.076)"/>
        <path id="prefix__Path_2210" d="M884.289 302.494a4.238 4.238 0 0 0-.191 1.533 9.122 9.122 0 0 1-9.833 1.955A15.561 15.561 0 0 0 873.7 303s11.4-2.88 10.589-.506z" class="prefix__cls-3" data-name="Path 2210" transform="translate(-662.969 -228.034)"/>
        <path id="prefix__Path_2211" d="M873.127 261.278a5.743 5.743 0 0 1-.025.651 9.122 9.122 0 0 1-17.182 3.58 8.948 8.948 0 0 1-.874-2.515 8.711 8.711 0 0 1-.166-1.715 9.023 9.023 0 0 1 .125-1.494 9.119 9.119 0 0 1 18.111 1.181c.008.103.011.209.011.312z" class="prefix__cls-11" data-name="Path 2211" transform="translate(-649.272 -192.081)"/>
        <path id="prefix__Path_2212" d="M882.506 324.316l-3.294 3.811-8.006-2.632-1.976-1.573 1.263-1.671a3.826 3.826 0 0 0 .544-2.341l.365 2.8.087.087.523.523h.659l1.269 1.723s1.824-1.467 1.976-1.116 2.635-.607 2.635-.607h.1c2.249-.1 2.641-3.444 2.641-3.444a.539.539 0 0 1 .054-.041 14.445 14.445 0 0 0 .857 2.066z" class="prefix__cls-3" data-name="Path 2212" transform="translate(-659.716 -241.334)"/>
        <path id="prefix__Path_2213" d="M849.088 509.135c-.057.22-.12.436-.188.651-1.976 6.283-16.219 6.435-16.219 6.435l-.406-3.9-1.361 2.635s-8.814-2.434-11.964-4.173c-.016-1.043 0-1.96 0-1.96l29.85-3.093s.182 1.707.288 3.405z" class="prefix__cls-3" data-name="Path 2213" transform="translate(-623.118 -376.628)"/>
        <path id="prefix__Path_2214" d="M709.434 401.437l-1.334-.61a33.8 33.8 0 0 0 .37-4.837 2.3 2.3 0 0 0 1.168.833c.917.101-.204 4.614-.204 4.614z" class="prefix__cls-3" data-name="Path 2214" transform="translate(-542.449 -296.761)"/>
        <path id="prefix__Path_2215" d="M768.7 358.52s2.232 8.009.256 14.294-16.219 6.424-16.219 6.424l-.406-3.9-1.361 2.638s-10.641-2.943-12.718-4.666a3.868 3.868 0 0 1-1.013-4.31s.71-3.343 1.318-4.056a5.759 5.759 0 0 0 .506-3.539c-.2-.346.711-3.7 1.015-4.208s-.052-14.038-.052-14.038-4.511 2.025-4.764 2.635-5.575 3.539-5.575 3.539-5.017.61-5.929.61-5.932-.61-5.932-.61a4.9 4.9 0 0 1-1.772-.354 5.231 5.231 0 0 0-1.32-.558 3.989 3.989 0 0 1-1.824-.86 27.187 27.187 0 0 0-3.811-2.434c.659-.406.711-5.717.711-5.717l6.435 1.571s.408-.86 1.015-.506a24.154 24.154 0 0 0 4.309.651s3.092-.607 3.245-.357.607.2.607.2.61-.052.61-.25.544.046.544.046l1.015.152s-.152-1.315.3-1.416a.67.67 0 0 0 .5-.558s1.361-1.824 2.028-1.824 1.116-1.824 1.116-1.824l2.434-2.483s-.3-1.268 0-1.32.351-.607.351-.607.1-1.113.661-1.361.86-1.72.86-1.72 2.583-2.888 2.788-3.9a1.654 1.654 0 0 1 1.268-1.217 6.263 6.263 0 0 1 1.873-.817c.863-.152 3.144-.408 3.144-.408s4.154-.351 4.562-.817a1.978 1.978 0 0 1 1.568-.408.52.52 0 0 0 .272-.1 16.59 16.59 0 0 0 1.391-1.418 2.078 2.078 0 0 1 1.671-.3l.457 3.5.084.084.523.523h.659l1.269 1.726s1.824-1.47 1.976-1.116 2.635-.61 2.635-.61h.1c2.249-.1 2.641-3.441 2.641-3.441 1.116-.966 2.08 3.092 2.08 3.092l.351.188a9.41 9.41 0 0 1 2.485 1.737c.253.544 3.092 2.227 3.092 2.227z" class="prefix__cls-9" data-name="Path 2215" transform="translate(-543.177 -240.264)"/>
        <path id="prefix__Path_2216" d="M901.582 501.626l-1.5 1.206-1.7 1.361s-3.144 7.35-7.451 5.273 5.771-9.765 5.771-9.765l1.394-.675 1.543-.746z" class="prefix__cls-11" data-name="Path 2216" transform="translate(-674.736 -371.206)"/>
        <path id="prefix__Path_2217" d="M866.762 324.286a19.338 19.338 0 0 0-3.539 2.2l-.074-4.053a16.642 16.642 0 0 0 1.391-1.421 2.133 2.133 0 0 1 1.672-.3l.457 3.5z" class="prefix__cls-3" data-name="Path 2217" transform="translate(-655.291 -241.932)"/>
        <path id="prefix__Path_2218" d="M867.9 322.086a19.339 19.339 0 0 0-3.539 2.2l-.065-4.042a16.589 16.589 0 0 0 1.391-1.418 2.078 2.078 0 0 1 1.671-.3l.457 3.5z" class="prefix__cls-12" data-name="Path 2218" transform="translate(-656.128 -240.336)"/>
        <path id="prefix__Path_2219" d="M908.9 327.284c-.779 2.085-1.748 4.394-1.922 3.509-.21-1.048-2.036-2.529-3.15-3.348 2.249-.093 2.641-3.441 2.641-3.441 1.116-.964 2.08 3.092 2.08 3.092z" class="prefix__cls-3" data-name="Path 2219" transform="translate(-684.897 -244.264)"/>
        <path id="prefix__Path_2220" d="M908.9 323.933c-.779 2.085-1.748 4.394-1.922 3.509-.21-1.048-2.036-2.529-3.15-3.348 2.249-.1 2.641-3.441 2.641-3.441 1.116-.966 2.08 3.092 2.08 3.092z" class="prefix__cls-12" data-name="Path 2220" transform="translate(-684.897 -241.824)"/>
        <path id="prefix__Path_2221" d="M884.49 626.406s5.776-.817 5.523.406-5.523-.406-5.523-.406z" class="prefix__cls-3" data-name="Path 2221" transform="translate(-670.822 -464.259)"/>
        <path id="prefix__Path_2222" d="M850.23 551.775a7.012 7.012 0 0 1 4.309-.708z" class="prefix__cls-3" data-name="Path 2222" transform="translate(-645.888 -409.533)"/>
        <path id="prefix__Path_2223" d="M836.64 541.226s3.65-.558 5.017.052z" class="prefix__cls-3" data-name="Path 2223" transform="translate(-635.998 -402.292)"/>
        <path id="prefix__Path_2224" d="M887.261 572.57s-3.193 3.395-2.994 4.307z" class="prefix__cls-3" data-name="Path 2224" transform="translate(-670.653 -425.273)"/>
        <path id="prefix__Path_2225" d="M780.708 405.2s-.506 1.824 2.586 2.583z" class="prefix__cls-3" data-name="Path 2225" transform="translate(-595.269 -303.464)"/>
        <path id="prefix__Path_2226" d="M777.44 416.74s3.811 3.395 2.028 3.5-2.028-3.5-2.028-3.5z" class="prefix__cls-3" data-name="Path 2226" transform="translate(-592.913 -311.863)"/>
        <path id="prefix__Path_2227" d="M808.53 366.66s4.663 3.242 4.356 4-4.356-4-4.356-4z" class="prefix__cls-3" data-name="Path 2227" transform="translate(-615.54 -275.416)"/>
        <path id="prefix__Path_2228" d="M923.621 501.611l-1.5 1.206a9.127 9.127 0 0 0-1.974-3.811l1.543-.746z" class="prefix__cls-3" data-name="Path 2228" transform="translate(-696.775 -371.192)"/>
        <path id="prefix__Path_2229" d="M922.783 348.936l2.028-1.266s2.33.354 2.635 5.172 2.434 14.444 2.434 14.444l1.165 10.69a7.875 7.875 0 0 1 .052 3.041 11.1 11.1 0 0 0-.544 1.824c-.052.357-2.839 2.08-2.788 4.309s-3.539 4.307-3.539 4.307a14.939 14.939 0 0 0-3.092 2.333s-.863-4.056-2.736-5.069 3.953-9.07 3.953-9.07z" class="prefix__cls-9" data-name="Path 2229" transform="translate(-695.23 -261.595)"/>
        <path id="prefix__Path_2230" d="M907.635 465.65s-6.081 2.534-5.575 3.346 5.575-3.346 5.575-3.346z" class="prefix__cls-3" data-name="Path 2230" transform="translate(-683.587 -347.459)"/>
        <path id="prefix__Path_2231" d="M916.386 477.56s-2.529 1.119-2.319 1.475 2.319-1.475 2.319-1.475z" class="prefix__cls-3" data-name="Path 2231" transform="translate(-692.339 -356.126)"/>
        <path id="prefix__Path_2232" d="M911.176 485.38s-2.529 1.119-2.319 1.475 2.319-1.475 2.319-1.475z" class="prefix__cls-3" data-name="Path 2232" transform="translate(-688.547 -361.818)"/>
        <path id="prefix__Path_2235" d="M676.68 240.5v76.766h77.264A77.422 77.422 0 0 0 676.68 240.5z" data-name="Path 2235" transform="translate(-519.582 -183.599)" style="fill:#00c4d8"/>
        <path id="prefix__Path_2236" d="M895.088 524.917a2 2 0 0 1 .359-1.176 1.919 1.919 0 0 1 .866-.485c.289-.1.58-.185.871-.272a2.217 2.217 0 0 1 .7-.114 2.46 2.46 0 0 1 1.293.6.544.544 0 0 1 .185.193c.087.2-.1.411-.272.544a12.97 12.97 0 0 1-1.935 1.424 3.889 3.889 0 0 1-1.7.585c-.694.024-.414-.793-.367-1.299z" class="prefix__cls-11" data-name="Path 2236" transform="translate(-678.466 -389.102)"/>
        <path id="prefix__Path_2237" d="M873.127 261.264a5.743 5.743 0 0 1-.025.651 1.254 1.254 0 0 1-.12.071 3.512 3.512 0 0 0-.449.2c-.444.3-.343.961-.3 1.494a4.026 4.026 0 0 1-.463 2.229.8.8 0 0 1-.705-.664 5.337 5.337 0 0 1-.044-1.043 9.051 9.051 0 0 0-.871-2.638c-.6-1.68-.471-3.539-.874-5.273a2.188 2.188 0 0 0-.743-1.361 1.991 1.991 0 0 0-2 .1 11.362 11.362 0 0 1-1.848 1 5.515 5.515 0 0 1-3.171-.387 3.27 3.27 0 0 0-4.941 2.7 2.751 2.751 0 0 0-.144.936 8.413 8.413 0 0 1 .117.844c0 .61-.52 1.089-.721 1.666-.125.357-.1 1.236-.613 1.23a.33.33 0 0 1-.166-.052 8.712 8.712 0 0 1-.166-1.715 9.121 9.121 0 0 1 18.236-.313c.008.115.011.221.011.325z" class="prefix__cls-3" data-name="Path 2237" transform="translate(-649.272 -192.067)"/>
        <path id="prefix__Path_2238" d="M844.694 239.827c-.033-.879.634-1.7.482-2.567-.12-.678-.708-1.171-.994-1.8a2.178 2.178 0 0 1 .346-2.295c.223-.25.5-.446.719-.7a5.214 5.214 0 0 0 .749-1.837 2.18 2.18 0 0 1 1.179-1.522c.683-.234 1.484.147 2.142-.15a.545.545 0 0 0 .335-.359 1.271 1.271 0 0 0-.035-.362c-.046-.485.414-.863.855-1.075 2.014-.972 4.394-.509 6.577-.027a4.327 4.327 0 0 1 .1-1.323 6.412 6.412 0 0 1 3.851 1.312 8.113 8.113 0 0 1 1.361 2.159 3.675 3.675 0 0 0 1.739 1.819 1.933 1.933 0 0 1 .719.343 1.36 1.36 0 0 1 .272.457l.523 1.288a1.432 1.432 0 0 0 .24.433 2.219 2.219 0 0 0 .46.324 2.982 2.982 0 0 1 .847 3.288c-.316 1.171-.975 2.229-1.225 3.416-.147.7-.231 1.554-.871 1.873a3.7 3.7 0 0 0-.449.2c-.444.3-.346.958-.3 1.492a4.037 4.037 0 0 1-.46 2.229.8.8 0 0 1-.705-.664 5.318 5.318 0 0 1-.046-1.043 9.049 9.049 0 0 0-.871-2.638c-.6-1.68-.471-3.539-.871-5.273a2.2 2.2 0 0 0-.749-1.361 1.971 1.971 0 0 0-2 .1 10.922 10.922 0 0 1-1.846 1 5.506 5.506 0 0 1-3.174-.389 3.268 3.268 0 0 0-4.935 2.706 2.764 2.764 0 0 0-.15.936c.022.272.125.561.12.844 0 .613-.52 1.089-.721 1.669-.125.357-.1 1.233-.612 1.23-.392 0-.789-.887-.983-1.146-.593-.785-1.579-1.514-1.619-2.587z" data-name="Path 2238" transform="translate(-641.354 -172.908)" style="fill:#4b3e3c"/>
        <g id="prefix__Group_1302" data-name="Group 1302" transform="translate(202.645 53.556)" style="opacity:.1">
            <path id="prefix__Path_2239" d="M845.175 259.335c-.12-.678-.708-1.168-.994-1.794a2.031 2.031 0 0 1-.161-.561 2.12 2.12 0 0 0 .161 1.168c.272.621.857 1.108.988 1.772a1.758 1.758 0 0 0 .005-.585z" data-name="Path 2239" transform="translate(-843.998 -249.148)"/>
            <path id="prefix__Path_2240" d="M864.673 233.694a.226.226 0 0 0 0-.044.671.671 0 0 0-.033.128.315.315 0 0 0 .033-.084z" data-name="Path 2240" transform="translate(-859.021 -232.169)"/>
            <path id="prefix__Path_2241" d="M891.927 228.273a.466.466 0 0 1 0-.063v.06z" data-name="Path 2241" transform="translate(-878.879 -228.21)"/>
            <path id="prefix__Path_2242" d="M921.363 263.4c-.313 1.171-.975 2.232-1.225 3.416-.147.7-.231 1.554-.871 1.876a4.148 4.148 0 0 0-.449.2c-.367.25-.362.746-.324 1.214a.8.8 0 0 1 .324-.6 3.709 3.709 0 0 1 .449-.2c.64-.319.724-1.173.871-1.873.25-1.187.912-2.246 1.225-3.416a4.139 4.139 0 0 0 .136-1.407 4.291 4.291 0 0 1-.136.8z" data-name="Path 2242" transform="translate(-898.202 -253.238)"/>
            <path id="prefix__Path_2243" d="M875.9 269.413a.8.8 0 0 1-.705-.664 5.346 5.346 0 0 1-.046-1.045 9.034 9.034 0 0 0-.871-2.635c-.6-1.68-.471-3.539-.871-5.273a2.2 2.2 0 0 0-.749-1.361 1.984 1.984 0 0 0-2 .1 10.92 10.92 0 0 1-1.846 1 5.5 5.5 0 0 1-3.174-.387 3.268 3.268 0 0 0-4.935 2.7 2.779 2.779 0 0 0-.15.939 1.15 1.15 0 0 0 .027.191 4.128 4.128 0 0 1 .123-.52 3.268 3.268 0 0 1 4.935-2.706 5.526 5.526 0 0 0 3.174.389 11.114 11.114 0 0 0 1.846-1 1.978 1.978 0 0 1 2-.1 2.158 2.158 0 0 1 .749 1.361c.4 1.74.272 3.593.871 5.273a9.845 9.845 0 0 1 .871 2.638 5.309 5.309 0 0 0 .046 1.043.8.8 0 0 0 .705.664 4.051 4.051 0 0 0 .463-2.21 4.085 4.085 0 0 1-.463 1.6z" data-name="Path 2243" transform="translate(-856.051 -250.039)"/>
            <path id="prefix__Path_2244" d="M849.759 278.2c-.125.357-.1 1.233-.612 1.23-.392 0-.789-.885-.983-1.143-.544-.738-1.432-1.416-1.592-2.366a1.94 1.94 0 0 0-.025.376c.041 1.075 1.026 1.8 1.617 2.6.193.272.591 1.143.983 1.146.517 0 .487-.874.612-1.23.2-.577.708-1.056.721-1.669a1.668 1.668 0 0 0-.038-.348 15.152 15.152 0 0 1-.683 1.404z" data-name="Path 2244" transform="translate(-845.853 -262.932)"/>
        </g>
        <path id="prefix__Rectangle_459" d="M0 0H0.915V0.931H0z" class="prefix__cls-2" data-name="Rectangle 459" transform="translate(27.154 121.58)"/>
        <path id="prefix__Rectangle_460" d="M0 0H0.915V0.931H0z" class="prefix__cls-16" data-name="Rectangle 460" transform="translate(27.154 121.58)"/>
        <path id="prefix__Rectangle_461" d="M0 0H0.893V1.037H0z" class="prefix__cls-2" data-name="Rectangle 461" transform="translate(104.655 44.907)"/>
        <path id="prefix__Rectangle_462" d="M0 0H0.893V1.037H0z" class="prefix__cls-16" data-name="Rectangle 462" transform="translate(104.655 44.907)"/>
        <path id="prefix__Path_2245" d="M279.915 276.3v-76.77h-.161a77.429 77.429 0 0 0-77.425 76.79z" data-name="Path 2245" transform="translate(-174.359 -153.782)" style="fill:#fff;opacity:.2"/>
        <path id="prefix__Path_2248" d="M276.915 273.3v-76.77h-.161a77.429 77.429 0 0 0-77.425 76.79z" class="prefix__cls-18" data-name="Path 2248" transform="translate(-172.176 -151.598)"/>
        <path id="prefix__Path_2250" d="M593.458 677.37l1.141.716v1.361l-1.549-.24z" class="prefix__cls-2" data-name="Path 2250" transform="translate(-431.61 -492.969)"/>
        <path id="prefix__Path_2251" d="M593.458 677.37l1.141.716v1.361l-1.549-.24z" class="prefix__cls-3" data-name="Path 2251" transform="translate(-431.61 -492.969)"/>
        <path id="prefix__Path_2252" d="M193.777 678.962l-.427.128v1.361l1.448-.316-.357-1.326z" class="prefix__cls-2" data-name="Path 2252" transform="translate(-140.716 -494.017)"/>
        <path id="prefix__Path_2253" d="M193.777 678.962l-.427.128v1.361l1.448-.316-.357-1.326z" class="prefix__cls-3" data-name="Path 2253" transform="translate(-140.716 -494.017)"/>
        <path id="prefix__Path_2254" d="M349.1 517.46l-56.17 54.14a77.414 77.414 0 0 0 110.352.044z" class="prefix__cls-2" data-name="Path 2254" transform="translate(-240.296 -385.165)"/>
        <path id="prefix__Path_2257" d="M349.1 517.46l-56.17 54.14a77.414 77.414 0 0 0 110.352.044z" class="prefix__cls-18" data-name="Path 2257" transform="translate(-240.296 -385.165)"/>
        <path id="prefix__Path_2258" d="M382.99 471.639l1.87-1.279.272.544-2.132 1.56z" class="prefix__cls-19" data-name="Path 2258" transform="translate(-278.733 -342.312)"/>
        <path id="prefix__Path_2259" d="M382.99 471.639l1.87-1.279.272.544-2.132 1.56z" class="prefix__cls-3" data-name="Path 2259" transform="translate(-278.733 -342.312)"/>
        <path id="prefix__Path_2260" d="M375.112 466.087l1.974-.727.272.544-3.367 1.135z" class="prefix__cls-20" data-name="Path 2260" transform="translate(-272.183 -338.673)"/>
        <path id="prefix__Path_2261" d="M375.112 466.087l1.974-.727.272.544-3.367 1.135z" class="prefix__cls-3" data-name="Path 2261" transform="translate(-272.183 -338.673)"/>
        <path id="prefix__Path_2262" d="M373.408 458.974l2.085-.114v.544l-3.5.367.313-.705z" class="prefix__cls-21" data-name="Path 2262" transform="translate(-270.727 -333.942)"/>
        <path id="prefix__Path_2263" d="M373.408 458.974l2.085-.114v.544l-3.5.367.313-.705z" class="prefix__cls-3" data-name="Path 2263" transform="translate(-270.727 -333.942)"/>
        <path id="prefix__Path_2264" d="M277.852 490.36l-75.5 17.193a77.689 77.689 0 0 1-1.772-16.537v-.656z" class="prefix__cls-21" data-name="Path 2264" transform="translate(-173.086 -365.442)"/>
        <path id="prefix__Path_2265" d="M277.852 490.36l-75.5 17.193a77.689 77.689 0 0 1-1.772-16.537v-.656z" class="prefix__cls-3" data-name="Path 2265" transform="translate(-173.086 -365.442)"/>
        <path id="prefix__Path_2266" d="M277.852 492.36l-75.5 17.193a77.689 77.689 0 0 1-1.772-16.537v-.656z" class="prefix__cls-21" data-name="Path 2266" transform="translate(-173.086 -366.898)"/>
        <path id="prefix__Path_2267" d="M207.59 514.048a76.7 76.7 0 0 0 7.873 20.9l67.627-38.088z" class="prefix__cls-20" data-name="Path 2267" transform="translate(-178.188 -370.173)"/>
        <path id="prefix__Path_2268" d="M207.59 514.048a76.7 76.7 0 0 0 7.873 20.9l67.627-38.088z" class="prefix__cls-3" data-name="Path 2268" transform="translate(-178.188 -370.173)"/>
        <path id="prefix__Path_2269" d="M208.59 516.048a76.7 76.7 0 0 0 7.873 20.9l67.627-38.088z" data-name="Path 2269" transform="translate(-178.915 -371.628)" style="fill:#fa7c50"/>
        <path id="prefix__Path_2270" d="M308.4 501.88l-67.51 38.026.033.06a77.41 77.41 0 0 0 12.631 16.9l54.988-54.988z" class="prefix__cls-19" data-name="Path 2270" transform="translate(-202.423 -373.826)"/>
        <path id="prefix__Path_2271" d="M308.4 501.88l-67.51 38.026.033.06a77.41 77.41 0 0 0 12.631 16.9l54.988-54.988z" class="prefix__cls-3" data-name="Path 2271" transform="translate(-202.423 -373.826)"/>
        <path id="prefix__Path_2272" d="M309.4 503.88l-67.51 38.026.033.06a77.41 77.41 0 0 0 12.631 16.9l54.988-54.988z" class="prefix__cls-19" data-name="Path 2272" transform="translate(-203.15 -375.282)"/>
    </g>
</svg>
