<svg xmlns="http://www.w3.org/2000/svg" width="240.843" height="203.781" viewBox="0 0 240.843 203.781">
    <defs>
        <style>
            .prefix__cls-1,.prefix__cls-16{fill:#2ec5d4}.prefix__cls-1,.prefix__cls-4{opacity:.1}.prefix__cls-2{fill:#eaecf0}.prefix__cls-3{fill:#d3dae1}.prefix__cls-5{fill:#d48a9b}.prefix__cls-7{fill:#fff}.prefix__cls-8{fill:#535461}.prefix__cls-9{fill:#3a3768}.prefix__cls-10{fill:#434175}.prefix__cls-11{fill:#565387}.prefix__cls-12{fill:#ee8e9e}.prefix__cls-13{fill:#dfe5ee}.prefix__cls-18{fill:#ffd037}.prefix__cls-20{fill:#9d9cb5}
        </style>
    </defs>
    <g id="prefix__undraw_work_time_lhoj" transform="translate(0 .002)">
        <ellipse id="prefix__Ellipse_108" cx="10.224" cy="1.568" class="prefix__cls-1" data-name="Ellipse 108" rx="10.224" ry="1.568" transform="translate(12.249 172.231)"/>
        <ellipse id="prefix__Ellipse_109" cx="10.224" cy="1.568" class="prefix__cls-1" data-name="Ellipse 109" rx="10.224" ry="1.568" transform="translate(159.709 174.364)"/>
        <ellipse id="prefix__Ellipse_110" cx="10.224" cy="1.568" class="prefix__cls-1" data-name="Ellipse 110" rx="10.224" ry="1.568" transform="translate(134.523 188.893)"/>
        <ellipse id="prefix__Ellipse_111" cx="10.224" cy="1.568" class="prefix__cls-1" data-name="Ellipse 111" rx="10.224" ry="1.568" transform="translate(45.378 160.53)"/>
        <ellipse id="prefix__Ellipse_112" cx="58.644" cy="12.642" class="prefix__cls-1" data-name="Ellipse 112" rx="58.644" ry="12.642" transform="translate(0 178.496)"/>
        <path id="prefix__Path_2275" d="M360.967 177.9a30.2 30.2 0 0 1-6.566 10.278 24.253 24.253 0 0 1-12.649 6.174 38.094 38.094 0 0 1-4.2.543 61.019 61.019 0 0 1-11.187-.3 132.264 132.264 0 0 1-26.35-5.638q-2.111-.682-4.2-1.435-3.149-1.129-6.241-2.423c-8.4-3.509-17.077-7.984-26.009-6.6-4.329.674-8.4 2.716-12.735 3.324a22.772 22.772 0 0 1-9.1-.647 31.258 31.258 0 0 1-4.2-1.45 47.767 47.767 0 0 1-8.722-4.939c-6.544-4.574-12.417-10.244-19.307-14.2-7.6-4.369-16.005-6.445-24.572-7.994q-2.092-.378-4.2-.721c-3.964-.654-7.937-1.259-11.854-1.976-3.773-.7-7.614-1.548-10.9-3.643a27.246 27.246 0 0 1-6.122-5.744 68.527 68.527 0 0 1-8.525-13.143q-.185-.37-.363-.741a91.12 91.12 0 0 1-7.564-23.954c-.044-.247-.086-.494-.128-.741a135.274 135.274 0 0 1-1.766-25.189l.015-.741c.1-4.171.356-8.325.741-12.419.277-2.879.647-5.868 2.139-8.288s3.922-3.973 6.342-5.267c10.7-5.7 20.954-7.283 32.457-4.522 1.847.442 3.687.919 5.527 1.413 1.4.375 2.8.763 4.2 1.153 9.663 2.694 19.3 5.561 29.291 6.421q1.447.126 2.9.193 2.867.133 5.734.059a99.074 99.074 0 0 0 14.679-1.511q2.1-.363 4.2-.805c6.026-1.257 12-2.934 17.872-4.788q1.8-.568 3.6-1.156c2.7-.882 5.393-1.781 8.1-2.655 8.065-2.615 16.17-5 24.52-5.966q1.072-.121 2.144-.215c.684-.059 1.371-.106 2.055-.141a69.877 69.877 0 0 1 37.537 8.826q2.139 1.188 4.2 2.529 2.857 1.86 5.539 4A44.5 44.5 0 0 1 357 63.119 37.135 37.135 0 0 1 362.147 76c.052.247.1.494.146.741a59.38 59.38 0 0 1-.6 22.846c-.165.78-.341 1.563-.524 2.344-.057.247-.116.494-.175.741-1.689 7.041-3.848 14.062-3.284 21.26.072.906.185 1.805.333 2.694.042.247.084.494.131.741 1.1 5.873 3.605 11.444 5.107 17.26a53.174 53.174 0 0 1-2.309 33.272z" class="prefix__cls-1" data-name="Path 2275" transform="translate(-128.276 -37.41)"/>
        <path id="prefix__Path_2276" d="M341.818 77.028h20.544c-.044-.247-.094-.494-.146-.741h-20.4V49.145q-2.06-1.338-4.2-2.529v29.671h-37.533V37.79c-.684.035-1.371.081-2.055.141s-1.43.133-2.144.215v38.141H242.3l-.128-.141 29.2-32.037c-2.7.874-5.4 1.773-8.1 2.655L241.8 70.321V52.708q-2.1.44-4.2.805v17.62l-14.675-16.108q-2.867.069-5.734-.059l19.3 21.181-.128.141H185V48.355c-1.4-.39-2.8-.778-4.2-1.153v29.085h-47.205l-.015.741h47.22v25.189h-45.454c.042.247.084.494.128.741H180.8v23.954h-37.762q.178.37.363.741h37.4v24.513q2.1.346 4.2.721v-25.233h52.6v52.354a31.264 31.264 0 0 0 4.2 1.45v-53.8h54.083V187.8q2.089.756 4.2 1.435v-61.581h37.536v67.524a38.091 38.091 0 0 0 4.2-.543v-66.981h16.417c-.047-.247-.089-.494-.131-.741h-16.3v-23.955h19.238c.059-.247.119-.494.175-.741h-19.4zm-4.2 0v25.189h-37.535V77.028zm-41.735 25.189H241.8V77.028h54.083zM185 77.028h51.86l.741.674v24.515H185zm0 49.884v-23.954h52.6v23.954zm56.8 0v-23.954h54.083v23.954zm95.818 0h-37.535v-23.954h37.537z" class="prefix__cls-1" data-name="Path 2276" transform="translate(-128.342 -37.698)"/>
        <path id="prefix__Path_2277" d="M843.272 121.643h-.326a.8.8 0 0 0 .4-.647c0-.509-.625-.926-1.388-.926h-9.73c-.763 0-1.39.417-1.39.926 0 .511.627.929 1.39.929h.326a.8.8 0 0 0-.4.647c0 .435.454.8 1.062.9h-2.806c-.766 0-1.39.417-1.39.926s.625.929 1.39.929h9.732c.766 0 1.39-.417 1.39-.929 0-.435-.454-.8-1.064-.9h2.8c.763 0 1.388-.417 1.388-.929s-.621-.926-1.384-.926z" class="prefix__cls-1" data-name="Path 2277" transform="translate(-652.041 -99.659)"/>
        <path id="prefix__Path_2278" d="M416.112 157.406h-.326a.81.81 0 0 0 .4-.647c0-.511-.625-.929-1.39-.929h-9.736c-.766 0-1.39.417-1.39.929 0 .509.625.926 1.39.926h.324a.807.807 0 0 0-.4.647c0 .437.454.8 1.062.9h-2.8c-.766 0-1.39.417-1.39.929s.625.926 1.39.926h9.732c.766 0 1.39-.417 1.39-.926 0-.437-.457-.8-1.064-.9h2.8c.763 0 1.388-.417 1.388-.929s-.617-.926-1.38-.926z" class="prefix__cls-1" data-name="Path 2278" transform="translate(-330.37 -126.588)"/>
        <path id="prefix__Path_2279" d="M903.732 310.473h-.326a.81.81 0 0 0 .4-.647c0-.509-.625-.926-1.39-.926h-9.732c-.766 0-1.39.417-1.39.926 0 .509.625.926 1.39.926H893a.805.805 0 0 0-.4.647c0 .435.454.8 1.062.9h-2.8c-.763 0-1.388.417-1.388.926s.625.929 1.388.929h9.738c.763 0 1.39-.417 1.39-.929 0-.435-.457-.8-1.064-.9h2.8c.763 0 1.388-.417 1.388-.929s-.619-.923-1.382-.923z" class="prefix__cls-1" data-name="Path 2279" transform="translate(-697.57 -241.857)"/>
        <path id="prefix__Path_2280" d="M226.469 601.47l113.788 12.787v3.628L226.18 604.663z" class="prefix__cls-2" data-name="Path 2280" transform="translate(-170.324 -452.937)"/>
        <path id="prefix__Path_2281" d="M220.068 492.579h-2.158V438.97l1.553.472.017 1.608z" class="prefix__cls-2" data-name="Path 2281" transform="translate(-164.097 -330.567)"/>
        <path id="prefix__Path_2282" d="M225.756 493.153l-.951.864-.588-51.529-.017-1.608h1.124l.015 1.7z" class="prefix__cls-3" data-name="Path 2282" transform="translate(-168.833 -332.005)"/>
        <path id="prefix__Path_2283" d="M92.83 613.492l31.494-10.972v1.037L92.83 614.443z" class="prefix__cls-3" data-name="Path 2283" transform="translate(-69.905 -453.728)"/>
        <path id="prefix__Path_2284" d="M93.393 620.11l-.563-2.5 31.494-10.886v2.158z" class="prefix__cls-2" data-name="Path 2284" transform="translate(-69.905 -456.89)"/>
        <path id="prefix__Path_2285" d="M682.849 425.14v70.846h-1.642l-.084-65.721v-2.1z" class="prefix__cls-2" data-name="Path 2285" transform="translate(-512.915 -320.152)"/>
        <path id="prefix__Path_2286" d="M689.328 423.74v70.587l-1.208.605v-70.846z" class="prefix__cls-3" data-name="Path 2286" transform="translate(-518.187 -319.098)"/>
        <path id="prefix__Path_2287" d="M586.13 665.638l23.525-13.148 1.662.966-25.187 13.735z" class="prefix__cls-3" data-name="Path 2287" transform="translate(-441.384 -491.357)"/>
        <path id="prefix__Path_2288" d="M586.866 673.074l-.736-2.939 25.187-13.735v2.85z" class="prefix__cls-2" data-name="Path 2288" transform="translate(-441.384 -494.302)"/>
        <path id="prefix__Path_2289" d="M574.76 468.334l.086 74.822h2.334l-.346-75.686z" class="prefix__cls-2" data-name="Path 2289" transform="translate(-432.821 -352.029)"/>
        <path id="prefix__Path_2290" d="M584.629 464.67v75.773l-1.124.6-.346-75.686.138-.064z" class="prefix__cls-3" data-name="Path 2290" transform="translate(-439.147 -349.92)"/>
        <path id="prefix__Path_2291" d="M83.439 498.472h-1.988l-.682-66.929-.01-1.153h1.9l.015 1.316z" class="prefix__cls-2" data-name="Path 2291" transform="translate(-60.816 -324.106)"/>
        <path id="prefix__Path_2292" d="M90.618 497.954l-1.38.519-.763-66.766-.015-1.316h1.469l.012 1.445z" class="prefix__cls-3" data-name="Path 2292" transform="translate(-66.615 -324.106)"/>
        <path id="prefix__Path_2293" d="M583.72 465.3l1.331-.627v2.939l-1.3.432z" class="prefix__cls-4" data-name="Path 2293" transform="translate(-439.569 -349.92)"/>
        <path id="prefix__Path_2294" d="M684.056 423.74v4.492l-1.208.4-1.726.573v-2.1l1.729-3.023z" class="prefix__cls-4" data-name="Path 2294" transform="translate(-512.915 -319.098)"/>
        <path id="prefix__Path_2295" d="M610.288 388.75v12.441l-26.955 8.987-.173-13.306z" class="prefix__cls-5" data-name="Path 2295" transform="translate(-439.147 -292.749)"/>
        <path id="prefix__Path_2296" d="M79.36 364.707l35.425-6.737 116.117 7.6-27.128 8.122z" data-name="Path 2296" transform="translate(-59.762 -269.57)" style="fill:#efc6cd"/>
        <path id="prefix__Path_2297" d="M84.131 430.39l.012 1.445-1.467-.128-1.906-.163-.01-1.153z" class="prefix__cls-4" data-name="Path 2297" transform="translate(-60.816 -324.106)"/>
        <path id="prefix__Path_2298" d="M220.6 441.146l-1.121-.1-1.571-.133v-1.943l1.553.472h1.124z" class="prefix__cls-4" data-name="Path 2298" transform="translate(-164.097 -330.567)"/>
        <path id="prefix__Path_2299" d="M79.36 385.25v11.58l124.588 10.713-.173-13.306z" class="prefix__cls-5" data-name="Path 2299" transform="translate(-59.762 -290.113)"/>
        <path id="prefix__Path_2300" d="M429.752 422.995H413.48v-5.9l16.272 1.146z" class="prefix__cls-5" data-name="Path 2300" transform="translate(-311.37 -314.09)"/>
        <path id="prefix__Path_2301" d="M429.752 422.995H413.48v-5.9l16.272 1.146z" class="prefix__cls-4" data-name="Path 2301" transform="translate(-311.37 -314.09)"/>
        <path id="prefix__Path_2302" d="M324.96 411.85v9.33l62.467 4.751V416l-24.364-1.383-2.42 2.161-9.935-.691-3.541-2.593z" class="prefix__cls-4" data-name="Path 2302" transform="translate(-244.71 -310.144)"/>
        <path id="prefix__Path_2303" d="M323.56 410.44v9.332l62.467 4.751v-9.935l-24.364-1.383-2.418 2.161-9.937-.691-3.541-2.593z" class="prefix__cls-7" data-name="Path 2303" transform="translate(-243.656 -309.082)"/>
        <path id="prefix__Path_2304" d="M162.959 400.3l14.773 1.037-.173 4.695h-9.646l-6.453-2.532z" class="prefix__cls-5" data-name="Path 2304" transform="translate(-121.587 -301.446)"/>
        <path id="prefix__Path_2305" d="M162.959 400.3l14.773 1.037-.173 4.695h-9.646l-6.453-2.532z" class="prefix__cls-4" data-name="Path 2305" transform="translate(-121.587 -301.446)"/>
        <path id="prefix__Path_2306" d="M87.76 395.05v8.382l56.678 4.492v-8.9l-21.86-1.294-2.331 1.726-8.814-.516-3.628-2.247z" class="prefix__cls-4" data-name="Path 2306" transform="translate(-66.087 -297.493)"/>
        <path id="prefix__Path_2307" d="M86.36 393.65v8.382l56.678 4.492v-8.9l-21.86-1.3-2.331 1.729-8.814-.519-3.628-2.247z" class="prefix__cls-7" data-name="Path 2307" transform="translate(-65.033 -296.439)"/>
        <path id="prefix__Path_2308" d="M96.65 649.073l.388-.133-.2 2.756-.193.069z" class="prefix__cls-4" data-name="Path 2308" transform="translate(-72.782 -488.684)"/>
        <path id="prefix__Path_2309" d="M541.575 393.78l7.944.521-13.165 3.941-6.7-.486z" class="prefix__cls-4" data-name="Path 2309" transform="translate(-398.851 -296.537)"/>
        <path id="prefix__Path_2310" d="M541.575 392.38l7.944.521-13.165 3.939-6.7-.484z" class="prefix__cls-7" data-name="Path 2310" transform="translate(-398.851 -295.482)"/>
        <path id="prefix__Path_2311" d="M686.46 433.283c.314-.133.647.119.988.183.19.037.388 0 .578.037.39.052.778.314 1.148.18" class="prefix__cls-3" data-name="Path 2311" transform="translate(-544.687 -335.494)"/>
        <path id="prefix__Path_2312" d="M684.8 434.249c.311-.136.647.116.988.18.19.037.388 0 .58.037.39.052.776.314 1.146.18" class="prefix__cls-3" data-name="Path 2312" transform="translate(-543.437 -336.221)"/>
        <path id="prefix__Path_2313" d="M681 436.173c.314-.133.649.119.988.183.19.037.388 0 .58.037.39.052.775.314 1.146.18" class="prefix__cls-3" data-name="Path 2313" transform="translate(-540.575 -337.67)"/>
        <circle id="prefix__Ellipse_113" cx="2.319" cy="2.319" r="2.319" class="prefix__cls-8" data-name="Ellipse 113" transform="translate(10.029 179.748)"/>
        <circle id="prefix__Ellipse_114" cx="2.319" cy="2.319" r="2.319" class="prefix__cls-8" data-name="Ellipse 114" transform="translate(14.178 188.818)"/>
        <circle id="prefix__Ellipse_115" cx="2.319" cy="2.319" r="2.319" class="prefix__cls-8" data-name="Ellipse 115" transform="translate(55.55 190.461)"/>
        <circle id="prefix__Ellipse_116" cx="2.319" cy="2.319" r="2.319" class="prefix__cls-8" data-name="Ellipse 116" transform="translate(64.793 178.624)"/>
        <path id="prefix__Rectangle_466" d="M0 0H2.904V18.144H0z" class="prefix__cls-8" data-name="Rectangle 466" transform="translate(38.043 141.115)"/>
        <path id="prefix__Rectangle_467" d="M0 0H2.904V2.939H0z" class="prefix__cls-4" data-name="Rectangle 467" transform="translate(38.043 156.319)"/>
        <path id="prefix__Rectangle_468" d="M0 0H4.025V20.132H0z" class="prefix__cls-9" data-name="Rectangle 468" transform="translate(37.482 157.011)"/>
        <path id="prefix__Path_2314" d="M301.735 750.909l-26.355-1.079v4.24h30.585a4.672 4.672 0 0 0-4.23-3.161z" class="prefix__cls-9" data-name="Path 2314" transform="translate(-235.124 -573.898)"/>
        <path id="prefix__Path_2315" d="M155.76 750.909l26.355-1.079v4.24H151.53a4.67 4.67 0 0 1 4.23-3.161z" class="prefix__cls-9" data-name="Path 2315" transform="translate(-141.859 -573.898)"/>
        <path id="prefix__Path_2316" d="M190.954 750.27l-21.04 10.372a5.334 5.334 0 0 0-2.963 4.779v.316l24.572-10.713 3.457-.259 20.433 13.047a5.329 5.329 0 0 0-2.2-5.062l-18.234-12.91z" class="prefix__cls-9" data-name="Path 2316" transform="translate(-153.471 -573.905)"/>
        <path id="prefix__Path_2317" d="M269.324 608.83v1.956q-.763.032-1.556.032c-.457 0-.906 0-1.348-.025v-1.963z" class="prefix__cls-4" data-name="Path 2317" transform="translate(-228.377 -467.718)"/>
        <ellipse id="prefix__Ellipse_117" cx="10.715" cy="3.134" class="prefix__cls-9" data-name="Ellipse 117" rx="10.715" ry="3.134" transform="translate(28.676 136.141)"/>
        <path id="prefix__Path_2318" d="M249.541 591.834a1.279 1.279 0 0 1-.457.906c-1.324 1.289-5.416 2.223-10.256 2.223-4.734 0-8.747-.9-10.167-2.141a1.358 1.358 0 0 1-.551-.988c0-1.729 4.8-3.134 10.718-3.134s10.713 1.4 10.713 3.134z" class="prefix__cls-4" data-name="Path 2318" transform="translate(-199.528 -452.559)"/>
        <path id="prefix__Path_2319" d="M249.911 591.849a1.279 1.279 0 0 1-.457.906c-1.363-.341-2.307-.622-2.307-.622s-9.446.529-18.116.709a1.358 1.358 0 0 1-.551-.988c0-1.729 4.8-3.134 10.718-3.134s10.713 1.398 10.713 3.129z" class="prefix__cls-4" data-name="Path 2319" transform="translate(-199.806 -452.574)"/>
        <path id="prefix__Path_2320" d="M162.07 424.583s3.544 9.678 3.371 15.467-2.939 16.674-2.939 16.674-2.763 8.814 4.322 9.592 30.239-.519 30.239-.519 8.643 2.591 11.4 1.467a6.874 6.874 0 0 0 2.741-2.4 5.025 5.025 0 0 0-1.3-7.174 14.969 14.969 0 0 0-4.166-1.788 3.346 3.346 0 0 0-.951-.116l-30.19.6a3.246 3.246 0 0 1-2.763-3.887c.605-3.368 1.64-13.738 1.64-13.738s.173-12.614-5.875-16.156-5.529 1.978-5.529 1.978z" class="prefix__cls-9" data-name="Path 2320" transform="translate(-149.722 -326.584)"/>
        <path id="prefix__Path_2321" d="M162.07 424.454s3.544 9.676 3.371 15.464-2.939 16.677-2.939 16.677-2.763 8.811 4.322 9.589 30.239-.521 30.239-.521 8.643 2.593 11.4 1.482a6.912 6.912 0 0 0 2.741-2.4 5.028 5.028 0 0 0-1.3-7.176 15.118 15.118 0 0 0-4.166-1.788 3.256 3.256 0 0 0-.951-.114l-30.19.585a3.248 3.248 0 0 1-2.763-3.889c.605-3.371 1.64-13.736 1.64-13.736s.173-12.614-5.875-16.158-5.529 1.985-5.529 1.985z" class="prefix__cls-4" data-name="Path 2321" transform="translate(-149.722 -326.484)"/>
        <path id="prefix__Path_2322" d="M164.869 423.183s3.544 9.678 3.371 15.467-2.939 16.674-2.939 16.674-2.763 8.814 4.319 9.592 30.239-.519 30.239-.519 8.643 2.591 11.407 1.482a6.9 6.9 0 0 0 2.741-2.405 5.026 5.026 0 0 0-1.3-7.174 14.97 14.97 0 0 0-4.166-1.8 3.346 3.346 0 0 0-.951-.116l-30.19.6a3.246 3.246 0 0 1-2.763-3.887c.605-3.368 1.64-13.738 1.64-13.738s.173-12.614-5.875-16.156-5.533 1.98-5.533 1.98z" class="prefix__cls-9" data-name="Path 2322" transform="translate(-151.83 -325.53)"/>
        <path id="prefix__Path_2323" d="M412.993 741.946v3.124s14.923.269 18.21.269 7.811-1.615 8.08-2.909-3.771-2.371-5.28-2.423-1.561-.647-3.5-1.672a20.211 20.211 0 0 1-4-3.606c-.956-1.042-1.66-1.889-1.66-1.889s-8.028-.161-10.345 1.131a2.811 2.811 0 0 0-1.153 1.605c-.831 2.414-.352 6.37-.352 6.37z" class="prefix__cls-10" data-name="Path 2323" transform="translate(-338.65 -561.099)"/>
        <path id="prefix__Path_2324" d="M414.85 735.577c1.684-.585 11.538-.812 13.158-.847-.956-1.042-1.66-1.889-1.66-1.889s-8.028-.161-10.345 1.131a2.8 2.8 0 0 0-1.153 1.605z" class="prefix__cls-4" data-name="Path 2324" transform="translate(-340.152 -561.099)"/>
        <path id="prefix__Path_2325" d="M239.54 535.661l.869.526.326.2 1.267.761c6.771 4.082 25.241 15.143 26.254 15.064.264-.022 1.059-.141 2.158-.321l.933-.153c4.23-.7 11.261-1.976 12.046-2.326 1.077-.494.862 1.669.43 3.5s-.753 10.619-.269 11.745a7.179 7.179 0 0 1 .269 2.963l-.645 9.858.432 2.094s-1.455 1.185-.862 1.884.054 3.719.054 3.719c1.729-.647 13.414-.862 13.414-.862s-.494-4.312-.054-5.334.109-7.112.109-7.112.269-4.633-.215-5.709.161-7.974.161-7.974.432-4.094.538-12.446-4.742-8.619-4.742-8.619-.645-.052-1.627-.146c-1.919-.185-5.119-.536-7.258-.988a12.528 12.528 0 0 1-1.3-.346c-2.64-.9-11.528-.934-12.982-.286a3.886 3.886 0 0 1-2.9 0l-1.131-1.832-10.807.921-1.143.1-10.639.906-.741.064z" class="prefix__cls-11" data-name="Path 2325" transform="translate(-208.135 -411.006)"/>
        <path id="prefix__Path_2326" d="M410.03 551.432c3.139 1.531 6.134-3.894 7.53-6.954-1.919-.185-5.119-.536-7.258-.988-1.402 2.349-3.282 6.478-.272 7.942z" class="prefix__cls-4" data-name="Path 2326" transform="translate(-335.31 -418.514)"/>
        <path id="prefix__Path_2327" d="M376.759 411.1a3.258 3.258 0 0 0 .38 1.052 84.775 84.775 0 0 0 4.522 7.191 7.789 7.789 0 0 1 2.47 2.47c.916 1.563 1.185 5.226 1.185 5.226s2.047 8.135 3.015 9.268c.494.566.269.9-.067 1.1a4.8 4.8 0 0 0-1.7 1.593c-1.413 2.27-3.667 6.776-.494 8.322 4.309 2.1 8.352-8.913 8.352-8.913s-.81-7.811-1.025-9.157-1.509-6.9-1.509-6.9-.916-2.371-1.455-4.04a13.692 13.692 0 0 0-2.153-3.61s-2.912-5.818-3.719-6.68c-.375-.4-.9-.9-1.356-1.329-.526-.494-.961-.879-.961-.879s-5.544 3.994-5.485 5.286z" class="prefix__cls-12" data-name="Path 2327" transform="translate(-311.467 -314.834)"/>
        <path id="prefix__Path_2328" d="M228.85 730.788l9.8 4.364s12.706.269 14.928-.323 1.729-3.07-1.185-3.556-3.608-1.776-4.579-2.368a46.193 46.193 0 0 1-4.418-4.623c-.694-.788-1.185-1.358-1.185-1.358s-1.887-5.011-7.112-3.88a5.366 5.366 0 0 0-2.546 1.346c-2.818 2.608-3.062 7.767-3.062 7.767z" class="prefix__cls-10" data-name="Path 2328" transform="translate(-200.085 -550.588)"/>
        <path id="prefix__Path_2329" d="M244.38 535.677l1.267.761c6.771 4.082 25.241 15.143 26.254 15.064.264-.022 1.059-.141 2.158-.321l.934-.153.037-.062a12.349 12.349 0 0 0 1.235-3.02c1.131-4.309-4.472-7.6-4.472-7.6l-1.185-.921c-1.346-2.267-11.044-4.411-11.044-4.411l-1.25-.852-.669-.449-.175-.116-1.516-1.02-7.6.538-2.257 1.45-.247.153-.825.541z" class="prefix__cls-4" data-name="Path 2329" transform="translate(-211.78 -410.298)"/>
        <path id="prefix__Path_2330" d="M243.86 720.412c2.062 7.135 10.676 4.8 10.676 4.8l.163-.9c-.694-.788-1.185-1.358-1.185-1.358s-1.887-5.011-7.112-3.88a5.366 5.366 0 0 0-2.542 1.338z" class="prefix__cls-4" data-name="Path 2330" transform="translate(-211.388 -550.611)"/>
        <path id="prefix__Path_2331" d="M227.718 548.383c3.178 0 11.36 3.825 11.36 3.825a5.421 5.421 0 0 0 3.932.862s-3.978 4.04-3.867 5.712-2.265 4.418-2.265 4.418l-7.327 14.491c.541 10.29 11.1 7.436 11.1 7.436l.432-2.425c.647-.323 1.618-3.556 1.618-3.556s0-1.292.645-1.669 1.993-4.257 1.993-4.257 2.909-4.9 2.746-5.547 2.1-3.932 2.1-3.932 3.825-3.771 3.662-4.445 3.077-4.124 3.077-4.124a10.841 10.841 0 0 0 2.86-3.339 12.381 12.381 0 0 0 1.235-3.018c.911-3.472-2.546-6.28-3.927-7.241-.333-.232-.546-.356-.546-.356l-1.185-.921c-.612-1.032-2.951-2.04-5.322-2.828-1.709-.57-3.433-1.03-4.537-1.3-.741-.18-1.185-.282-1.185-.282l-1.25-.84-.44-.3-.4-.269-1.519-1.02-3.378.247-4.218.3-2.255 1.452-1.077.691-4.211 2.716s-.111 1.035-.146 2.428v.328c-.059 2.8.245 6.763 2.295 6.763z" class="prefix__cls-11" data-name="Path 2331" transform="translate(-197.498 -410.961)"/>
        <path id="prefix__Path_2332" d="M300.4 333.6l1.136 4.04s2 6.952 2.21 7.436a74.625 74.625 0 0 0 5.658 5.495c.225.106 3.06 1.729 3.06 1.729s.225-8.89 0-11.473a7.379 7.379 0 0 1 .141-1.694 63.559 63.559 0 0 1 1.934-7.288c.6-1.919 1.1-3.356 1.1-3.356s-12.607-.541-12.175.7a4.446 4.446 0 0 1-.047 2.037c-.262 1.294-.8 2.588-1.138 2.489a4.428 4.428 0 0 0-1-.111c-.457-.017-.879-.004-.879-.004z" class="prefix__cls-12" data-name="Path 2332" transform="translate(-253.965 -256.522)"/>
        <path id="prefix__Path_2333" d="M312.65 331.208a9.325 9.325 0 0 0 11.113.62c.6-1.919 1.1-3.356 1.1-3.356s-12.607-.541-12.175.7a4.367 4.367 0 0 1-.038 2.036z" class="prefix__cls-4" data-name="Path 2333" transform="translate(-263.19 -256.507)"/>
        <path id="prefix__Path_2334" d="M299.09 281.21a9.278 9.278 0 1 0 2.718-6.6 9.322 9.322 0 0 0-2.718 6.6z" class="prefix__cls-12" data-name="Path 2334" transform="translate(-252.979 -213.986)"/>
        <path id="prefix__Path_2335" d="M300.4 349.529l1.136 4.04s2 6.952 2.21 7.436a74.613 74.613 0 0 0 5.654 5.495c.225.106 3.06 1.729 3.06 1.729s.225-8.89 0-11.473a7.379 7.379 0 0 1 .141-1.694l-.741 2.986.054 5.981.43.323-.968 1.455v-1.079s-3.457-3.339-3.988-4.742a23.038 23.038 0 0 0-2.47-3.936s-2.223-3.7-2.262-4.359a7.071 7.071 0 0 0-1.378-2.158c-.456-.022-.878-.004-.878-.004z" class="prefix__cls-4" data-name="Path 2335" transform="translate(-253.965 -272.447)"/>
        <path id="prefix__Path_2336" d="M376.759 411.12a3.258 3.258 0 0 0 .38 1.052 6.65 6.65 0 0 0 6.075-5.453c-.526-.494-.961-.879-.961-.879s-5.553 3.991-5.494 5.28z" class="prefix__cls-4" data-name="Path 2336" transform="translate(-311.467 -314.857)"/>
        <path id="prefix__Path_2337" d="M225.39 541.567c1.087-.77 2.121-1.82 2.739-2.109a11.922 11.922 0 0 0 2.316-1.832s.356-.247.9-.563a10.9 10.9 0 0 1 3.894-1.539c1.124-.094 4.863-.333 7.8-.516l3.835-.247s3.5-1.235 5.011-.432a15.9 15.9 0 0 0 3.393 1.235v-.321l-1.131-1.832-11.95 1.02-1.519-1.02-7.6.538-2.248 1.451-1.946.166.869.526-4.211 2.716s-.127 1.206-.152 2.759z" class="prefix__cls-4" data-name="Path 2337" transform="translate(-197.479 -410.923)"/>
        <path id="prefix__Path_2338" d="M216.9 402.651a4.907 4.907 0 0 0 1.578-.805c1.084-.768 2.116-1.815 2.731-2.1a11.925 11.925 0 0 0 2.316-1.832s2.857-1.941 4.8-2.1c.528-.044 1.635-.121 2.963-.207l4.4-.282 2.282-.143 1.993-.121s3.5-1.235 5.011-.432a15.894 15.894 0 0 0 3.393 1.235 31.014 31.014 0 0 1 .494-5.334c.44-1.563 1.022-4.418 1.022-4.418s.494-3.931.971-5.71 2.371-11.691 3.341-12.348 1.506.494 1.506.494 6.465-.109 6.574-7.218c0 0-3.018-3.018-3.233-3.771s-3.07-3.556-3.07-3.556-1.618-3.018-3.457-3.072a14.51 14.51 0 0 0-2.593.082l-1.556 6.329.054 5.981.432.323-.971 1.455v-1.059s-3.457-3.341-3.986-4.742a23.036 23.036 0 0 0-2.47-3.939 31.519 31.519 0 0 1-2.267-4.361c-.054-.654-1.563-2.378-1.563-2.378a3.83 3.83 0 0 0-.916 0 .987.987 0 0 1-.4-.057 5.412 5.412 0 0 0-2.692-.153c-1.862.388-4.692 1.094-5.472 1.941-1.185 1.294-2.909 2.534-4.85 7.92l10.451 3.771-.894 1.7-8.317 15.8s-.277.449-.649 1.035c-.494.761-1.134 1.756-1.561 2.3-.753.971-.538 4.04-.538 4.04a4.324 4.324 0 0 1-.7 2c-.538.541-.435 2.529-.435 2.529l-1.4 5.226s-1.294 1.185-1.294 1.729a7.056 7.056 0 0 1-1.022 2.047s-1.564 2.576-.006 2.201z" class="prefix__cls-13" data-name="Path 2338" transform="translate(-190.565 -271.53)"/>
        <path id="prefix__Path_2339" d="M247.16 427.635a8.141 8.141 0 0 1 .165.9s4.255 9.967 4.793 10.56c.165.183.793 1.079 1.578 2.223l.9 1.331c1.627 2.418 3.457 5.164 3.457 5.164l3.986 3.5s8.673.694 11.429-2.121c-.333-.232-.546-.356-.546-.356l-1.185-.921c-.612-1.032-2.951-2.04-5.322-2.828-2.183.015-3.969.193-3.969.193l-.568-1.5-.593-1.561-3.023-7.922s-1.944-10.019-2.59-10.505-.494-1.993-.494-1.993 1.185-4.255.753-4.848.7-4.959.7-4.959a4.471 4.471 0 0 0-.519-1.208l-8.317 15.8s-.262.458-.635 1.051z" class="prefix__cls-4" data-name="Path 2339" transform="translate(-213.873 -318.584)"/>
        <path id="prefix__Path_2340" d="M252.014 400.4s-1.131 4.364-.7 4.956-.756 4.848-.756 4.848-.161 1.509.494 1.993 2.591 10.505 2.591 10.505l4.174 10.992s13.061-1.294 11.715 2.8-12.123 3.233-12.123 3.233l-3.986-3.5s-5.389-8.135-5.927-8.727-4.8-10.56-4.8-10.56a6.442 6.442 0 0 0-1.131-3.018c-.916-1.025-.215-2.754-.215-2.754s-1.131-13.032.054-14.592 9.375-.86 10.61 3.824z" class="prefix__cls-12" data-name="Path 2340" transform="translate(-209.135 -307.318)"/>
        <path id="prefix__Path_2341" d="M428.98 584.07s-3.4 1.134-4.3 2.749 4.3-2.749 4.3-2.749z" class="prefix__cls-4" data-name="Path 2341" transform="translate(-347.471 -449.072)"/>
        <path id="prefix__Path_2342" d="M422.095 569.68c-.106.161-4.648 4.717-4.364 5.818s4.364-5.818 4.364-5.818z" class="prefix__cls-4" data-name="Path 2342" transform="translate(-342.312 -438.236)"/>
        <path id="prefix__Path_2343" d="M317.608 582.77s-5.065 2.388-5.5 3.428 5.5-3.428 5.5-3.428z" class="prefix__cls-4" data-name="Path 2343" transform="translate(-262.768 -448.094)"/>
        <path id="prefix__Path_2344" d="M317.177 595.2s-4.571 1.939-5.186 2.425 5.186-2.425 5.186-2.425z" class="prefix__cls-4" data-name="Path 2344" transform="translate(-262.659 -457.454)"/>
        <path id="prefix__Path_2345" d="M314.472 611.077s-2.025 1.509-3.141.324 3.141-.324 3.141-.324z" class="prefix__cls-4" data-name="Path 2345" transform="translate(-262.057 -469.182)"/>
        <path id="prefix__Path_2346" d="M328.467 452.74c-.109.163-6.843 12.283-8.621 13.2s8.621-13.2 8.621-13.2z" class="prefix__cls-4" data-name="Path 2346" transform="translate(-268.455 -350.175)"/>
        <path id="prefix__Path_2347" d="M330.443 471.29c0 .269-6.574 14.323-7.656 14.491s7.656-14.491 7.656-14.491z" class="prefix__cls-4" data-name="Path 2347" transform="translate(-270.754 -364.144)"/>
        <path id="prefix__Path_2348" d="M238.867 507.94s-3.171 6.779-4.406 7.176 4.406-7.176 4.406-7.176z" class="prefix__cls-4" data-name="Path 2348" transform="translate(-204.177 -391.743)"/>
        <path id="prefix__Path_2349" d="M244.947 495.72s-1.094 2.371-1.758 2.371 1.758-2.371 1.758-2.371z" class="prefix__cls-4" data-name="Path 2349" transform="translate(-210.796 -382.541)"/>
        <path id="prefix__Path_2350" d="M299.09 281.2a9.279 9.279 0 0 0 .59 3.262 8.8 8.8 0 0 1 9.194-9.043c.452.02.988.126 1.171.536a2.252 2.252 0 0 1 .111.682c.136 1.047 1.2 1.7 2.2 2.042a6.574 6.574 0 0 1 2.828 1.321 7.12 7.12 0 0 1 1.176 2.625 3.768 3.768 0 0 0 .909 1.482 9.322 9.322 0 1 0-18.179-2.907z" class="prefix__cls-4" data-name="Path 2350" transform="translate(-252.979 -213.974)"/>
        <path id="prefix__Path_2351" d="M310.164 247.823c-.766-1.04-2.124-1.4-3.3-1.924a10.483 10.483 0 0 1-5.875-7.139 3.68 3.68 0 0 0 .361 4.588c-2.146-.146-4.517-.393-5.971-1.976-.331 1.141.659 2.437.119 3.494-.464.909-1.729.988-2.546 1.605a3.751 3.751 0 0 0-1.215 2.9 13.053 13.053 0 0 1-.262 3.233 10.246 10.246 0 0 0-.79 2.334 4 4 0 0 0 .4 1.771 15.987 15.987 0 0 0 2.45 4.07 8.816 8.816 0 0 1 9.016-10.619c.452.02.988.128 1.171.538a2.22 2.22 0 0 1 .111.682c.136 1.045 1.2 1.7 2.2 2.04a6.6 6.6 0 0 1 2.833 1.326 7.119 7.119 0 0 1 1.175 2.625c.326.911.956 1.865 1.916 1.976a15.807 15.807 0 0 0 .306-4.09c-.148-1.469-1.136-2.3-1.482-3.581-.39-1.336.319-2.576-.617-3.853z" data-name="Path 2351" transform="translate(-246.645 -189.038)" style="fill:#603556"/>
        <path id="prefix__Path_2352" d="M243.382 378.926l-3.393 2.047s-.971 3.285-1.729 3.7c0 0 6.789-3.771 11.906 4.9a1.966 1.966 0 0 1 .538-1.669c.7-.538.538-2.855.538-2.855a9.766 9.766 0 0 0 .494-1.134c.469-1.166-2.062-7.952-8.354-4.989z" class="prefix__cls-4" data-name="Path 2352" transform="translate(-207.171 -294.03)"/>
        <path id="prefix__Path_2353" d="M242.894 378.047l-3.4 2.047s-.971 3.287-1.729 3.719c0 0 6.789-3.773 11.906 4.9a1.962 1.962 0 0 1 .541-1.669c.7-.538.538-2.857.538-2.857a9.245 9.245 0 0 0 .494-1.131c.484-1.184-2.057-7.973-8.35-5.009z" class="prefix__cls-13" data-name="Path 2353" transform="translate(-206.802 -293.368)"/>
        <g id="prefix__Group_1303" data-name="Group 1303" transform="translate(44.034 50.836)" style="opacity:.1">
            <path id="prefix__Path_2354" d="M309.759 252.057c-.012-.879-.536-1.847-.282-2.717l.044.047c.063.899.562 1.845.238 2.67z" data-name="Path 2354" transform="translate(-304.783 -247.841)"/>
            <path id="prefix__Path_2355" d="M294.815 277.815a16.831 16.831 0 0 1-.185 2.936c.082-.753.037-1.529.077-2.289a6.346 6.346 0 0 1 .141-1.072c-.015.151-.028.284-.033.425z" data-name="Path 2355" transform="translate(-293.654 -268.964)"/>
            <path id="prefix__Path_2356" d="M290.68 302.508a2.682 2.682 0 0 1 .106-.578 4.117 4.117 0 0 0 .4 1.7 15.949 15.949 0 0 0 2.2 3.754 8.55 8.55 0 0 0 .143.963 15.99 15.99 0 0 1-2.45-4.07 4 4 0 0 1-.399-1.769z" data-name="Path 2356" transform="translate(-290.679 -287.444)"/>
            <path id="prefix__Path_2357" d="M330.936 246.1c-.207-.012-.42-.027-.63-.044a3.8 3.8 0 0 1-.358-2.783 3.64 3.64 0 0 0 .988 2.828z" data-name="Path 2357" transform="translate(-320.161 -243.27)"/>
            <path id="prefix__Path_2358" d="M304.22 285.374a8.959 8.959 0 0 1 7.11-3.1c.452.022.988.128 1.173.538a2.315 2.315 0 0 1 .111.682c.136 1.045 1.2 1.7 2.2 2.04a6.526 6.526 0 0 1 2.83 1.329 7.091 7.091 0 0 1 1.178 2.623c.326.909.953 1.862 1.911 1.976l-.1.647c-.961-.1-1.59-1.057-1.916-1.976a7.066 7.066 0 0 0-1.175-2.625 6.573 6.573 0 0 0-2.833-1.326c-1-.338-2.06-.988-2.2-2.04a2.223 2.223 0 0 0-.111-.682 1.28 1.28 0 0 0-1.171-.538 8.772 8.772 0 0 0-9.014 7.06 8.919 8.919 0 0 1 2.007-4.608z" data-name="Path 2358" transform="translate(-299.362 -272.636)"/>
        </g>
        <path id="prefix__Path_2359" d="M403.606 339.65v9.663l-9.246-.741v-8.922z" class="prefix__cls-9" data-name="Path 2359" transform="translate(-296.972 -255.774)"/>
        <path id="prefix__Path_2360" d="M403.606 373.321v.79l-9.246-.741v-.79z" class="prefix__cls-4" data-name="Path 2360" transform="translate(-296.972 -280.572)"/>
        <path id="prefix__Path_2361" d="M511.752 412.448l-14.382-.741a1.408 1.408 0 0 1 1.408-1.408l11.567.741a1.408 1.408 0 0 1 1.408 1.408z" class="prefix__cls-9" data-name="Path 2361" transform="translate(-402.293 -318.215)"/>
        <path id="prefix__Path_2362" d="M470.422 284.454l-49.749-1.482a1.511 1.511 0 0 1-1.514-1.514v-29.387a1.511 1.511 0 0 1 1.514-1.511l49.749 1.482a1.514 1.514 0 0 1 1.514 1.511v29.387a1.514 1.514 0 0 1-1.514 1.514z" class="prefix__cls-9" data-name="Path 2362" transform="translate(-343.397 -197.924)"/>
        <path id="prefix__Path_2363" d="M361.733 256.44l-50.443-1.482V228.48l50.443 1.482z" class="prefix__cls-16" data-name="Path 2363" transform="translate(-234.416 -172.058)"/>
        <ellipse id="prefix__Ellipse_118" cx=".445" cy=".44" class="prefix__cls-7" data-name="Ellipse 118" rx=".445" ry=".44" transform="translate(101.651 54.614)"/>
        <path id="prefix__Path_2364" d="M403.656 346.608l-9.216-.148v.314h9.216z" class="prefix__cls-4" data-name="Path 2364" transform="translate(-297.032 -260.902)"/>
        <path id="prefix__Path_2365" d="M351.774 383.88l12.622.827-2.689 3.865-13.877-1.482z" class="prefix__cls-4" data-name="Path 2365" transform="translate(-261.932 -289.081)"/>
        <path id="prefix__Path_2366" d="M350.774 382.88l12.622.827-2.689 3.865-13.877-1.482z" class="prefix__cls-9" data-name="Path 2366" transform="translate(-261.179 -288.328)"/>
        <path id="prefix__Path_2367" d="M354.57 384.04l11.007.672-2.344 3.149-12.1-1.208z" data-name="Path 2367" transform="translate(-264.417 -289.202)" style="fill:#d5e1f4"/>
        <ellipse id="prefix__Ellipse_119" cx="15.854" cy="2.432" class="prefix__cls-1" data-name="Ellipse 119" rx="15.854" ry="2.432" transform="translate(202.311 193.735)"/>
        <path id="prefix__Path_2368" d="M1017.1 599.29s1.761 2.3-.815 5.784-4.692 6.421-3.84 8.584c0 0 3.887-6.463 7.048-6.552s1.095-3.936-2.393-7.816z" class="prefix__cls-16" data-name="Path 2368" transform="translate(-790.025 -460.534)"/>
        <path id="prefix__Path_2369" d="M1017.4 599.29a2.893 2.893 0 0 1 .358.721c3.087 3.628 4.732 7.011 1.766 7.095-2.763.079-6.078 5.018-6.873 6.268a2.9 2.9 0 0 0 .094.284s3.887-6.463 7.048-6.552 1.093-3.936-2.393-7.816z" class="prefix__cls-4" data-name="Path 2369" transform="translate(-790.323 -460.534)"/>
        <path id="prefix__Path_2370" d="M1043.9 609.584c0 .81-.091 1.482-.2 1.482s-.2-.659-.2-1.482.114-.43.227-.43.173-.38.173.43z" class="prefix__cls-18" data-name="Path 2370" transform="translate(-813.547 -467.892)"/>
        <path id="prefix__Path_2371" d="M1045.455 613.405c-.711.388-1.333.622-1.385.524s.479-.494 1.19-.882.432-.1.494 0 .414-.03-.299.358z" class="prefix__cls-18" data-name="Path 2371" transform="translate(-813.981 -470.745)"/>
        <path id="prefix__Path_2372" d="M982.129 599.29s-1.763 2.3.812 5.784 4.692 6.421 3.84 8.584c0 0-3.885-6.463-7.048-6.552s-1.084-3.936 2.396-7.816z" class="prefix__cls-16" data-name="Path 2372" transform="translate(-764.361 -460.534)"/>
        <path id="prefix__Path_2373" d="M982.129 599.29a2.835 2.835 0 0 0-.361.721c-3.084 3.628-4.729 7.011-1.763 7.095 2.763.079 6.078 5.018 6.87 6.268a2.365 2.365 0 0 1-.094.284s-3.885-6.463-7.048-6.552-1.084-3.936 2.396-7.816z" class="prefix__cls-4" data-name="Path 2373" transform="translate(-764.361 -460.534)"/>
        <path id="prefix__Path_2374" d="M980.93 609.584c0 .81.089 1.482.2 1.482s.2-.659.2-1.482-.114-.43-.225-.43-.175-.38-.175.43z" class="prefix__cls-18" data-name="Path 2374" transform="translate(-766.437 -467.892)"/>
        <path id="prefix__Path_2375" d="M975.027 613.405c.714.388 1.333.622 1.388.524s-.494-.494-1.193-.882-.43-.1-.494 0-.412-.03.299.358z" class="prefix__cls-18" data-name="Path 2375" transform="translate(-761.66 -470.745)"/>
        <ellipse id="prefix__Ellipse_120" cx="18.423" cy="2.828" class="prefix__cls-1" data-name="Ellipse 120" rx="18.423" ry="2.828" transform="translate(203.998 165.096)"/>
        <path id="prefix__Path_2376" d="M993.591 641.607l-.089.721-.123 1.015-.052.425-.123 1.015-.052.425-.124 1.015-1.41 11.557c-.126 1.032-1.813 1.835-3.848 1.835h-7.325c-2.035 0-3.717-.8-3.843-1.835l-1.413-11.557-.123-1.015-.052-.425-.126-1.015-.052-.425-.123-1.015-.086-.721c-.072-.583.84-1.077 1.99-1.077H991.6c1.144 0 2.063.494 1.991 1.077z" data-name="Path 2376" transform="translate(-761.688 -491.59)" style="fill:#65617d"/>
        <path id="prefix__Path_2377" d="M881.416 610.4l-.123 1.015h-18.54l-.123-1.015z" class="prefix__cls-20" data-name="Path 2377" transform="translate(-649.601 -459.662)"/>
        <path id="prefix__Path_2378" d="M881.768 616.23l-.123 1.017h-18.189l-.126-1.017z" class="prefix__cls-20" data-name="Path 2378" transform="translate(-650.128 -464.052)"/>
        <path id="prefix__Path_2379" d="M882.134 622.06l-.123 1.017h-17.837l-.124-1.017z" class="prefix__cls-20" data-name="Path 2379" transform="translate(-650.67 -468.442)"/>
    </g>
</svg>
