<svg xmlns="http://www.w3.org/2000/svg" width="242" height="204" viewBox="0 0 242 204">
    <defs>
        <style>
            .prefix__cls-1{fill:#f1f1f1}.prefix__cls-2,.prefix__cls-9{fill:#2ec5d4}.prefix__cls-3{fill:#2f2e41}.prefix__cls-4{fill:#9f616a}.prefix__cls-6{fill:none;stroke:#3f3d56;stroke-miterlimit:10;stroke-width:2px}.prefix__cls-7{fill:#3f3d56}.prefix__cls-8{fill:#fa7c50}.prefix__cls-9{opacity:.3}
        </style>
    </defs>
    <g id="prefix__undraw_process_e90d" transform="translate(.412 -.07)">
        <circle id="prefix__Ellipse_90" cx="3.827" cy="3.827" r="3.827" class="prefix__cls-1" data-name="Ellipse 90" transform="translate(190.195 8.898)"/>
        <circle id="prefix__Ellipse_91" cx="3.827" cy="3.827" r="3.827" class="prefix__cls-1" data-name="Ellipse 91" transform="translate(167.633 156.976)"/>
        <circle id="prefix__Ellipse_92" cx="3.827" cy="3.827" r="3.827" class="prefix__cls-1" data-name="Ellipse 92" transform="translate(72.459 45.723)"/>
        <ellipse id="prefix__Ellipse_93" cx="41" cy="6" class="prefix__cls-1" data-name="Ellipse 93" rx="41" ry="6" transform="translate(-.412 192.07)"/>
        <path id="prefix__Path_2150" d="M364.032 611.023l10.221-3.2a37.462 37.462 0 0 0-3.818-12.187l-10.221 3.2a22.979 22.979 0 0 1 3.818 12.187z" class="prefix__cls-2" data-name="Path 2150" transform="translate(-301.809 -455.797)"/>
        <circle id="prefix__Ellipse_94" cx="9.543" cy="9.543" r="9.543" class="prefix__cls-3" data-name="Ellipse 94" transform="translate(28.111 59.424)"/>
        <path id="prefix__Path_2151" d="M100.315 724.537l-1.815 7.78h4.409l1.815-8.817z" class="prefix__cls-4" data-name="Path 2151" transform="translate(-72.956 -535.981)"/>
        <path id="prefix__Path_2152" d="M187.5 727.5v7.261l4.409.519v-7.78z" class="prefix__cls-4" data-name="Path 2152" transform="translate(-138.876 -538.944)"/>
        <path id="prefix__Path_2153" d="M235.5 464.762s.519 11.151 1.037 11.929 5.187 11.929 5.187 11.929l2.334-7.261s-3.631-5.965-3.112-9.336a38.752 38.752 0 0 0 .192-7.52z" class="prefix__cls-4" data-name="Path 2153" transform="translate(-209.437 -358.672)"/>
        <circle id="prefix__Ellipse_95" cx="7.261" cy="7.261" r="7.261" class="prefix__cls-4" data-name="Ellipse 95" transform="translate(33.583 64.597)"/>
        <path id="prefix__Path_2154" d="M264.529 336.5s.259 10.373-1.556 11.929 10.373.259 10.373.259-2.593-7.261-.519-8.817-8.298-3.371-8.298-3.371z" class="prefix__cls-4" data-name="Path 2154" transform="translate(-229.65 -263.864)"/>
        <path id="prefix__Path_2155" d="M252.416 374.046s-1.556-2.853-3.631-2.593-8.817.778-9.077 1.3a15.49 15.49 0 0 1-1.556 2.853c-.519.519-4.409 1.3-4.668 4.409s9.336 22.043 9.336 22.043-1.3 4.409-1.037 5.446-1.3 4.149-1.037 5.446-3.89 9.077-1.815 19.19v16.338s-7 28.267-4.927 30.342 9.077.778 10.373 0 6.743-39.937 6.743-39.937l2.593-13.226.259 29.045s-.519 24.377 1.3 25.155 8.817 1.037 9.336-.519c.4-1.214 2.386-33.5 3.239-47.656a52.88 52.88 0 0 0-1.142-14.568c-1.079-4.9-2.646-10.647-4.431-12.982-3.371-4.409-5.446-18.412-5.446-18.412l4.409-8.039s-2.593-2.593-4.149-2.593a21.37 21.37 0 0 1-4.672-1.042z" class="prefix__cls-3" data-name="Path 2155" transform="translate(-207.941 -289.74)"/>
        <path id="prefix__Path_2156" d="M234.191 397.5l-1.368.931s-.966 16.7-.188 17.741 6.187.531 6.594-.383-5.038-18.289-5.038-18.289z" class="prefix__cls-3" data-name="Path 2156" transform="translate(-207.091 -309.045)"/>
        <path id="prefix__Path_2157" d="M321.5 451.251s.259 10.892 1.815 14 7.261 16.078 7.261 16.078-.331 14.271 2.557 10.766 1.073-11.8 1.073-11.8l-4.927-19.19s-2.593-8.558-2.334-11.151-5.445 1.297-5.445 1.297z" class="prefix__cls-4" data-name="Path 2157" transform="translate(-273.135 -347.236)"/>
        <path id="prefix__Path_2158" d="M321.395 795.228s.259-.207 1.037.571 2.853 1.815 2.593 4.668-1.815 3.371-1.815 3.371v-.778h-.778v1.3s-1.3 4.149-7.261 1.556a13.449 13.449 0 0 1 0-3.371c.259-1.3.259-7.521 1.037-7.261s2.853.519 3.371 1.556 2.075.67 1.816-1.612z" class="prefix__cls-3" data-name="Path 2158" transform="translate(-268.362 -603.612)"/>
        <path id="prefix__Path_2159" d="M226.067 796.228s-.259-.207-1.037.571-2.853 1.815-2.593 4.668 1.815 3.371 1.815 3.371v-.778h.778v1.3s1.3 4.149 7.261 1.556a13.451 13.451 0 0 0 0-3.371c-.259-1.3-.259-7.521-1.037-7.261s-2.853.519-3.371 1.556-2.075.67-1.816-1.612z" class="prefix__cls-3" data-name="Path 2159" transform="translate(-199.745 -604.352)"/>
        <path id="prefix__Path_2160" d="M319.446 392.5l3.631.778s0 5.705 1.037 8.039 2.853 7.78 2.075 8.039-8.039 3.89-8.558 1.815-1.816-18.671 1.815-18.671z" class="prefix__cls-3" data-name="Path 2160" transform="translate(-269.784 -305.342)"/>
        <circle id="prefix__Ellipse_96" cx="9.543" cy="9.543" r="9.543" class="prefix__cls-3" data-name="Ellipse 96" transform="translate(17.773 46.859)"/>
        <path id="prefix__Path_2161" d="M196.379 278.883a9.544 9.544 0 0 0 14.737-5.011 9.544 9.544 0 1 1-18.616-3.914 9.54 9.54 0 0 0 3.879 8.925z" class="prefix__cls-3" data-name="Path 2161" transform="translate(-177.295 -214.578)"/>
        <circle id="prefix__Ellipse_97" cx="6.998" cy="6.998" r="6.998" class="prefix__cls-3" data-name="Ellipse 97" transform="translate(28.111 63.559)"/>
        <ellipse id="prefix__Ellipse_98" cx="6.203" cy="4.851" class="prefix__cls-3" data-name="Ellipse 98" rx="6.203" ry="4.851" transform="translate(34.792 63.082)"/>
        <ellipse id="prefix__Ellipse_99" cx="1.177" cy="2.083" data-name="Ellipse 99" rx="1.177" ry="2.083" transform="translate(41.472 70.821)" style="fill:#a0616a"/>
        <path id="prefix__Rectangle_441" d="M0 0H138.482V111.252H0z" class="prefix__cls-1" data-name="Rectangle 441" transform="rotate(16.73 33.918 360.78)"/>
        <path id="prefix__Line_3" d="M0 0L31.415 12.698" class="prefix__cls-6" data-name="Line 3" transform="translate(158.493 36.691)"/>
        <path id="prefix__Path_2162" d="M610.473 140.728l.47-.22-1.085-2.316 2.389-.912-.186-.485-2.91 1.112z" class="prefix__cls-7" data-name="Path 2162" transform="translate(-451.182 -101.426)"/>
        <path id="prefix__Path_2163" d="M722.566 184.726l-.186-.485 2.389-.912-1.084-2.316.47-.22 1.32 2.822z" class="prefix__cls-7" data-name="Path 2163" transform="translate(-535.046 -134.014)"/>
        <circle id="prefix__Ellipse_100" cx="2.853" cy="2.853" r="2.853" class="prefix__cls-7" data-name="Ellipse 100" transform="translate(171.348 40.187)"/>
        <path id="prefix__Line_4" d="M0 17.622L28.942 0" class="prefix__cls-6" data-name="Line 4" transform="translate(156.099 107.101)"/>
        <path id="prefix__Path_2164" d="M603.133 474.542l.1-.509-2.505-.513.694-2.462-.5-.141-.845 3z" class="prefix__cls-7" data-name="Path 2164" transform="translate(-444.463 -348.902)"/>
        <path id="prefix__Path_2165" d="M705.531 413.485l-.5-.141.695-2.461-2.506-.513.1-.508 3.052.626z" class="prefix__cls-7" data-name="Path 2165" transform="translate(-520.854 -303.679)"/>
        <circle id="prefix__Ellipse_101" cx="2.853" cy="2.853" r="2.853" class="prefix__cls-7" data-name="Ellipse 101" transform="translate(167.717 113.059)"/>
        <path id="prefix__Line_5" d="M0 0L0.01 33.884" class="prefix__cls-6" data-name="Line 5" transform="translate(119.736 68.887)"/>
        <path id="prefix__Path_2166" d="M453.538 266.157l.38.354 1.74-1.874 1.742 1.873.38-.354-2.122-2.281z" class="prefix__cls-7" data-name="Path 2166" transform="translate(-335.922 -195.55)"/>
        <path id="prefix__Path_2167" d="M453.573 389.068l.38-.354 1.741 1.873 1.741-1.874.38.354-2.121 2.282z" class="prefix__cls-7" data-name="Path 2167" transform="translate(-335.948 -288.014)"/>
        <circle id="prefix__Ellipse_102" cx="2.853" cy="2.853" r="2.853" class="prefix__cls-7" data-name="Ellipse 102" transform="translate(116.889 82.977)"/>
        <path id="prefix__Rectangle_442" d="M0 0H48V58H0z" class="prefix__cls-7" data-name="Rectangle 442" transform="translate(95.588 .07)"/>
        <path id="prefix__Path_2168" d="M551.463 103.659h-10.711a37.463 37.463 0 0 1 0-12.771h10.711a22.979 22.979 0 0 0 0 12.771z" class="prefix__cls-8" data-name="Path 2168" transform="translate(-435.122 -81.946)"/>
        <path id="prefix__Path_2169" d="M606.379 128.637h10.711a37.463 37.463 0 0 0 0-12.771h-10.711a22.98 22.98 0 0 1 0 12.771z" class="prefix__cls-2" data-name="Path 2169" transform="translate(-484.137 -100.447)"/>
        <path id="prefix__Path_2170" d="M567.379 210.637h10.711a37.463 37.463 0 0 0 0-12.771h-10.711a22.979 22.979 0 0 1 0 12.771z" class="prefix__cls-2" data-name="Path 2170" transform="translate(-455.25 -161.182)"/>
        <path id="prefix__Rectangle_443" d="M0 0H48V59H0z" class="prefix__cls-7" data-name="Rectangle 443" transform="translate(193.588 55.07)"/>
        <path id="prefix__Rectangle_444" d="M0 0H34V2H0z" class="prefix__cls-2" data-name="Rectangle 444" transform="translate(200.588 68.07)"/>
        <path id="prefix__Rectangle_445" d="M0 0H34V2H0z" class="prefix__cls-2" data-name="Rectangle 445" transform="translate(200.588 73.07)"/>
        <path id="prefix__Rectangle_446" d="M0 0H34V1H0z" class="prefix__cls-2" data-name="Rectangle 446" transform="translate(200.588 79.07)"/>
        <path id="prefix__Rectangle_447" d="M0 0H34V1H0z" class="prefix__cls-2" data-name="Rectangle 447" transform="translate(200.588 85.07)"/>
        <path id="prefix__Rectangle_448" d="M0 0H34V1H0z" class="prefix__cls-2" data-name="Rectangle 448" transform="translate(200.588 90.07)"/>
        <path id="prefix__Rectangle_449" d="M0 0H18V7H0z" class="prefix__cls-8" data-name="Rectangle 449" transform="translate(208.588 95.07)"/>
        <path id="prefix__Rectangle_450" d="M0 0H47V58H0z" class="prefix__cls-7" data-name="Rectangle 450" transform="translate(99.588 116.07)"/>
        <path id="prefix__Rectangle_451" d="M0 0H33.713V1.556H0z" class="prefix__cls-2" data-name="Rectangle 451" transform="translate(106.661 148.439)"/>
        <path id="prefix__Rectangle_452" d="M0 0H33.713V1.556H0z" class="prefix__cls-2" data-name="Rectangle 452" transform="translate(106.661 153.885)"/>
        <path id="prefix__Rectangle_453" d="M0 0H33.713V1.556H0z" class="prefix__cls-2" data-name="Rectangle 453" transform="translate(106.661 159.331)"/>
        <path id="prefix__Rectangle_454" d="M0 0H33.713V1.556H0z" class="prefix__cls-2" data-name="Rectangle 454" transform="translate(106.661 164.777)"/>
        <path id="prefix__Path_2171" d="M553.963 546.965h-10.711a37.46 37.46 0 0 1 0-12.771h10.711a22.98 22.98 0 0 0 0 12.771z" class="prefix__cls-9" data-name="Path 2171" transform="translate(-436.974 -410.29)"/>
        <path id="prefix__Rectangle_455" d="M0 0H19.709V1.297H0z" class="prefix__cls-9" data-name="Rectangle 455" transform="translate(121.443 125.1)"/>
        <path id="prefix__Rectangle_456" d="M0 0H19.709V1.297H0z" class="prefix__cls-9" data-name="Rectangle 456" transform="translate(121.443 129.768)"/>
        <path id="prefix__Rectangle_457" d="M0 0H19.709V1.297H0z" class="prefix__cls-9" data-name="Rectangle 457" transform="translate(121.443 134.436)"/>
        <path id="prefix__Rectangle_458" d="M0 0H19.709V1.297H0z" class="prefix__cls-9" data-name="Rectangle 458" transform="translate(121.443 139.104)"/>
    </g>
</svg>
