<svg xmlns="http://www.w3.org/2000/svg" width="34.965" height="37.189" viewBox="0 0 34.965 37.189">
    <defs>
        <style>
            .prefix__cls-1{fill:#8090b5}
        </style>
    </defs>
    <g id="prefix__ic_refer" transform="translate(-15.31)">
        <g id="prefix__Group_1201" data-name="Group 1201" transform="translate(15.893 10.981)">
            <g id="prefix__Group_1200" data-name="Group 1200">
                <path id="prefix__Path_1905" d="M54.342 157.033L24 151.2a.548.548 0 0 0-.491.925l5.1 5.1v11.454a.553.553 0 0 0 .769.5l8.5-3.755 1.421 1.319a.553.553 0 0 0 .654.068l7.816-4.689a.548.548 0 0 0-.563-.939l-7.463 4.478-6.925-6.431 19.292-.989-2.721 1.632a.548.548 0 0 0 .563.939l4.6-2.761a.552.552 0 0 0-.21-1.018zm-17.349 7.573l-7.061 3.12 1.869-7.941zm-5.538-6.41a.555.555 0 0 0-.5.421l-1.255 5.336v-6.4l9.862.229zm-2.076-1.747l-3.839-3.839 22.182 4.266z" class="prefix__cls-1" data-name="Path 1905" transform="translate(-23.346 -151.187)"/>
            </g>
        </g>
        <g id="prefix__Group_1203" data-name="Group 1203" transform="translate(37.284 25.113)">
            <g id="prefix__Group_1202" data-name="Group 1202">
                <path id="prefix__Path_1906" d="M329.232 346.269c-.552-.376-2.47-1.358-4.888 1-2.418-2.362-4.336-1.381-4.888-1a4.291 4.291 0 0 0-1.1 5.426 10.912 10.912 0 0 0 5.818 4.929.549.549 0 0 0 .346 0 10.913 10.913 0 0 0 5.818-4.929 4.291 4.291 0 0 0-1.106-5.426zm.123 4.936a9.85 9.85 0 0 1-5.012 4.316 9.809 9.809 0 0 1-5.011-4.316 3.218 3.218 0 0 1 .74-4.031 1.913 1.913 0 0 1 1.1-.342 4.018 4.018 0 0 1 2.768 1.6.553.553 0 0 0 .814 0c1.379-1.532 2.788-1.991 3.864-1.257a3.218 3.218 0 0 1 .737 4.03z" class="prefix__cls-1" data-name="Path 1906" transform="translate(-317.849 -345.744)"/>
            </g>
        </g>
        <g id="prefix__Group_1205" data-name="Group 1205" transform="translate(18.229)">
            <g id="prefix__Group_1204" data-name="Group 1204">
                <path id="prefix__Path_1907" d="M66.886.525c-.552-.376-2.47-1.358-4.888 1-2.418-2.358-4.336-1.376-4.888-1a4.291 4.291 0 0 0-1.1 5.426 10.912 10.912 0 0 0 5.818 4.929.549.549 0 0 0 .346 0 10.913 10.913 0 0 0 5.815-4.93A4.291 4.291 0 0 0 66.886.525zm.123 4.936A9.851 9.851 0 0 1 62 9.776a9.809 9.809 0 0 1-5.011-4.316 3.218 3.218 0 0 1 .74-4.031 1.913 1.913 0 0 1 1.1-.342 4.018 4.018 0 0 1 2.768 1.6.553.553 0 0 0 .814 0C63.784 1.154 65.193.7 66.269 1.43a3.218 3.218 0 0 1 .74 4.031z" class="prefix__cls-1" data-name="Path 1907" transform="translate(-55.503)"/>
            </g>
        </g>
        <g id="prefix__Group_1207" data-name="Group 1207" transform="translate(15.31 30.728)">
            <g id="prefix__Group_1206" data-name="Group 1206">
                <path id="prefix__Path_1908" d="M21.923 423.385a2.232 2.232 0 0 0-2.814.418 2.232 2.232 0 0 0-2.814-.418 2.6 2.6 0 0 0-.686 3.284 6.239 6.239 0 0 0 3.326 2.821.549.549 0 0 0 .346 0 6.239 6.239 0 0 0 3.326-2.821 2.6 2.6 0 0 0-.684-3.284zm-.294 2.794a5.089 5.089 0 0 1-2.521 2.2 5.05 5.05 0 0 1-2.519-2.2 1.508 1.508 0 0 1 .323-1.889.8.8 0 0 1 .46-.142 1.97 1.97 0 0 1 1.33.79.553.553 0 0 0 .814 0c.662-.736 1.315-.973 1.79-.649a1.508 1.508 0 0 1 .323 1.891z" class="prefix__cls-1" data-name="Path 1908" transform="translate(-15.31 -423.058)"/>
            </g>
        </g>
        <g id="prefix__Group_1209" data-name="Group 1209" transform="translate(39.838 5.616)">
            <g id="prefix__Group_1208" data-name="Group 1208">
                <path id="prefix__Path_1909" d="M359.626 77.64a9.679 9.679 0 0 1-5.627 0 2.6 2.6 0 0 0-.686 3.284 6.239 6.239 0 0 0 3.326 2.821.549.549 0 0 0 .346 0 6.239 6.239 0 0 0 3.326-2.821 2.6 2.6 0 0 0-.685-3.284zm-.294 2.794a5.089 5.089 0 0 1-2.521 2.2 5.05 5.05 0 0 1-2.519-2.2 1.508 1.508 0 0 1 .323-1.889.8.8 0 0 1 .46-.142 1.97 1.97 0 0 1 1.33.79.553.553 0 0 0 .814 0c.662-.736 1.315-.972 1.79-.649a1.508 1.508 0 0 1 .323 1.89z" class="prefix__cls-1" data-name="Path 1909" transform="translate(-353.013 -77.313)"/>
            </g>
        </g>
    </g>
</svg>
