<svg class="animated" id="freepik_stories-segmentation" xmlns="http://www.w3.org/2000/svg" viewBox="0 0 500 500" version="1.1" xmlns:xlink="http://www.w3.org/1999/xlink" xmlns:svgjs="http://svgjs.com/svgjs"><style>svg#freepik_stories-segmentation:not(.animated) .animable {opacity: 0;}svg#freepik_stories-segmentation.animated #freepik--background-simple--inject-17 {animation: 1s 1 forwards cubic-bezier(.36,-0.01,.5,1.38) lightSpeedRight;animation-delay: 0s;}svg#freepik_stories-segmentation.animated #freepik--Floor--inject-17 {animation: 1s 1 forwards cubic-bezier(.36,-0.01,.5,1.38) slideDown;animation-delay: 0s;}svg#freepik_stories-segmentation.animated #freepik--Chart--inject-17 {animation: 1s 1 forwards cubic-bezier(.36,-0.01,.5,1.38) zoomIn;animation-delay: 0s;}svg#freepik_stories-segmentation.animated #freepik--Character--inject-17 {animation: 1s 1 forwards cubic-bezier(.36,-0.01,.5,1.38) slideUp;animation-delay: 0s;}svg#freepik_stories-segmentation.animated #freepik--Plants--inject-17 {animation: 1s 1 forwards cubic-bezier(.36,-0.01,.5,1.38) lightSpeedRight;animation-delay: 0s;}svg#freepik_stories-segmentation.animated #freepik--speech-bubble--inject-17 {animation: 1s 1 forwards cubic-bezier(.36,-0.01,.5,1.38) lightSpeedRight;animation-delay: 0s;}            @keyframes lightSpeedRight {              from {                transform: translate3d(50%, 0, 0) skewX(-20deg);                opacity: 0;              }              60% {                transform: skewX(10deg);                opacity: 1;              }              80% {                transform: skewX(-2deg);              }              to {                opacity: 1;                transform: translate3d(0, 0, 0);              }            }                    @keyframes slideDown {                0% {                    opacity: 0;                    transform: translateY(-30px);                }                100% {                    opacity: 1;                    transform: translateY(0);                }            }                    @keyframes zoomIn {                0% {                    opacity: 0;                    transform: scale(0.5);                }                100% {                    opacity: 1;                    transform: scale(1);                }            }                    @keyframes slideUp {                0% {                    opacity: 0;                    transform: translateY(30px);                }                100% {                    opacity: 1;                    transform: inherit;                }            }        </style><g id="freepik--background-simple--inject-17" class="animable" style="transform-origin: 245.597px 200.064px;"><path d="M466.6,215.75c-1.49-28.2-21.75-55.93-49.56-60.83-36.19-6.37-74.25,24.52-107.94,9.85-24.58-10.71-33.55-40.06-47.59-62.9-24.73-40.26-73.23-64.6-120.29-60.38S50.77,78.3,33.6,122.32C22.08,151.84,22,185.17,30.46,215.71s25.16,58.39,45.81,82.42L110.92,321c34.66,26.23,78.87,38,122.33,38.11s86.35-10.85,126.91-26.47c26.34-10.15,52.4-22.6,72.92-42S468.09,243.94,466.6,215.75Z" style="fill: rgb(235, 235, 235); transform-origin: 245.597px 200.064px;" id="elw1rhd75i0xi" class="animable"></path></g><g id="freepik--Floor--inject-17" class="animable" style="transform-origin: 245.615px 287.67px;"><path d="M482,287.67c0,.14-105.84.26-236.37.26s-236.4-.12-236.4-.26,105.82-.26,236.4-.26S482,287.52,482,287.67Z" style="fill: rgb(38, 50, 56); transform-origin: 245.615px 287.67px;" id="elszqqd4t5mpm" class="animable"></path></g><g id="freepik--Chart--inject-17" class="animable" style="transform-origin: 242.58px 269.799px;"><path d="M85.43,400.07s-33.5-24.72-32.84-52.32V245.28L241,239l1.92,74.84Z" style="fill: rgb(38, 50, 56); transform-origin: 147.75px 319.535px;" id="elfzhxozrhjd9" class="animable"></path><path d="M85.43,400.08c-.14,0-.56-23.2-.93-51.81s-.56-51.81-.41-51.81.56,23.18.93,51.8S85.57,400.07,85.43,400.08Z" style="fill: rgb(69, 90, 100); transform-origin: 84.7579px 348.27px;" id="eloamvw7t5zg" class="animable"></path><path d="M94.82,397.19a1.14,1.14,0,0,1,0-.3L95,396c.15-.79.36-1.89.62-3.29.56-2.89,1.34-7,2.32-12.07,1.93-10.2,4.52-24.31,7.11-39.94s4.7-29.81,6.15-40.09c.72-5.11,1.3-9.26,1.71-12.18.2-1.41.36-2.51.47-3.31.06-.35.1-.63.14-.86a1.19,1.19,0,0,1,.06-.29,1,1,0,0,1,0,.3c0,.23,0,.51-.08.87-.09.79-.22,1.9-.38,3.32-.34,2.88-.86,7.05-1.54,12.2-1.37,10.29-3.42,24.49-6,40.13s-5.23,29.73-7.26,39.92c-1,5.09-1.87,9.2-2.48,12l-.71,3.27c-.09.35-.15.62-.2.84A1.32,1.32,0,0,1,94.82,397.19Z" style="fill: rgb(69, 90, 100); transform-origin: 104.201px 340.58px;" id="elzrb2irp91wc" class="animable"></path><path d="M127,386.6a1.06,1.06,0,0,1,0-.29l.15-.86c.15-.79.36-1.89.62-3.28.55-2.89,1.34-7,2.31-12.08,1.94-10.2,4.52-24.31,7.12-39.93s4.69-29.82,6.15-40.1c.72-5.11,1.3-9.26,1.71-12.17.2-1.41.36-2.52.47-3.31.06-.35.1-.64.14-.86a1.19,1.19,0,0,1,.06-.29,1,1,0,0,1,0,.3c0,.22-.05.51-.08.86-.1.8-.22,1.91-.38,3.32-.34,2.89-.86,7.06-1.54,12.2-1.37,10.3-3.42,24.5-6,40.14s-5.23,29.73-7.26,39.91c-1,5.09-1.87,9.21-2.48,12-.31,1.39-.54,2.48-.72,3.26l-.19.85C127,386.51,127,386.61,127,386.6Z" style="fill: rgb(69, 90, 100); transform-origin: 136.366px 330.015px;" id="el1g2s6x4u3mk" class="animable"></path><path d="M159.16,376a1.14,1.14,0,0,1,0-.3l.15-.85c.15-.79.36-1.89.62-3.29.55-2.89,1.34-7,2.31-12.07,1.94-10.2,4.52-24.31,7.12-39.93s4.69-29.82,6.15-40.1c.72-5.11,1.3-9.26,1.71-12.18.2-1.41.36-2.51.47-3.31.06-.35.1-.63.14-.85a1.21,1.21,0,0,1,.06-.3,1.71,1.71,0,0,1,0,.3c0,.23,0,.51-.09.87-.09.79-.21,1.91-.37,3.32-.34,2.88-.86,7.05-1.55,12.2-1.36,10.29-3.41,24.49-6,40.13s-5.23,29.73-7.27,39.92c-1,5.09-1.86,9.2-2.47,12q-.47,2.08-.72,3.27c-.08.35-.14.63-.2.84A1.09,1.09,0,0,1,159.16,376Z" style="fill: rgb(69, 90, 100); transform-origin: 168.523px 319.41px;" id="elt2l99yw1g58" class="animable"></path><path d="M191.33,365.43a1.06,1.06,0,0,1,0-.29l.15-.86c.15-.79.35-1.89.62-3.28.55-2.89,1.34-7,2.31-12.08,1.94-10.2,4.52-24.3,7.11-39.93s4.7-29.82,6.16-40.1c.71-5.11,1.3-9.26,1.7-12.17.21-1.41.36-2.52.48-3.31.05-.35.1-.64.13-.86a1.48,1.48,0,0,1,.07-.29,1.69,1.69,0,0,1,0,.3c0,.22-.05.51-.09.86-.09.8-.21,1.91-.38,3.32-.33,2.89-.86,7.06-1.54,12.2-1.36,10.3-3.41,24.5-6,40.14s-5.24,29.73-7.27,39.91c-1,5.09-1.86,9.21-2.47,12.05-.31,1.39-.55,2.48-.72,3.26l-.2.85A1.25,1.25,0,0,1,191.33,365.43Z" style="fill: rgb(69, 90, 100); transform-origin: 200.693px 308.845px;" id="elyk0416zs4e" class="animable"></path><path d="M223.5,354.85a1.14,1.14,0,0,1,0-.3l.15-.85c.15-.79.35-1.89.62-3.29.55-2.89,1.34-7,2.31-12.07,1.94-10.2,4.52-24.31,7.11-39.93s4.7-29.82,6.16-40.1c.71-5.11,1.29-9.26,1.7-12.18.2-1.4.36-2.51.48-3.31.05-.35.1-.63.13-.85a1.07,1.07,0,0,1,.07-.29,1.59,1.59,0,0,1,0,.29c0,.23-.05.51-.09.87-.09.79-.22,1.91-.38,3.32-.33,2.88-.86,7.05-1.54,12.2-1.36,10.29-3.41,24.49-6,40.13S229,328.22,227,338.41c-1,5.09-1.86,9.2-2.48,12l-.71,3.27c-.08.35-.15.63-.2.84S223.5,354.85,223.5,354.85Z" style="fill: rgb(69, 90, 100); transform-origin: 232.863px 298.265px;" id="ellr5vaq6lveq" class="animable"></path><path d="M84.09,296.46S-11.8,221.13,131,170c0,0,72.42-27,146.85-19L241,239Z" style="fill: rgb(69, 90, 100); transform-origin: 165.217px 222.989px;" id="elty5hb95z1er" class="animable"></path><path d="M257.77,92.07,241,178.32l106.62-69S316.11,92.65,257.77,92.07Z" style="fill: rgb(255, 114, 94); transform-origin: 294.31px 135.195px;" id="eldjfxjlsnve" class="animable"></path><polygon points="241 338.05 241 178.32 347.62 109.32 347.62 260.14 241 338.05" style="fill: rgb(255, 114, 94); transform-origin: 294.31px 223.685px;" id="elwpc0ewm0z3" class="animable"></polygon><g id="elm21l3btq28d"><path d="M257.77,92.07,241,178.32l106.62-69S316.11,92.65,257.77,92.07Z" style="opacity: 0.3; transform-origin: 294.31px 135.195px;" class="animable"></path></g><path d="M251.06,339.25v-54s174.35,17.25,175.69,20.12,0,60.37,0,60.37Z" style="fill: rgb(255, 114, 94); transform-origin: 339.203px 325.495px;" id="elb9gr3wow1sb" class="animable"></path><path d="M251.06,285.21l110-73.6s47.61,10.92,63,42,2.68,51.75,2.68,51.75Z" style="fill: rgb(255, 114, 94); transform-origin: 341.366px 258.485px;" id="el3rx5g2v4h4c" class="animable"></path><g id="eloca5gtrdm9g"><path d="M251.06,285.21l110-73.6s47.61,10.92,63,42,2.68,51.75,2.68,51.75C375.12,297.77,315.27,291.22,251.06,285.21Z" style="fill: rgb(255, 255, 255); opacity: 0.2; transform-origin: 341.366px 258.485px;" class="animable"></path></g><path d="M431.69,279.33s2,64.65,0,70.87-4.94,15.5-4.94,15.5V305.33Z" style="fill: rgb(255, 114, 94); transform-origin: 429.664px 322.515px;" id="el6uln643leaf" class="animable"></path><g id="ele7utzmc95da"><path d="M251.06,339.25v-54s174.35,17.25,175.69,20.12,0,60.37,0,60.37Z" style="opacity: 0.3; transform-origin: 339.203px 325.495px;" class="animable"></path></g><path d="M387.19,301.75c.1.09-7.95,8.87-18,19.6S351,340.7,350.85,340.6s7.94-8.87,18-19.6S387.08,301.65,387.19,301.75Z" style="fill: rgb(38, 50, 56); transform-origin: 369.019px 321.175px;" id="elyqw7zurfho9" class="animable"></path><path d="M422.23,305s-.08.16-.29.44l-.93,1.21c-.81,1.05-2,2.54-3.51,4.37-3,3.67-7.21,8.67-12,14.07s-9.27,10.17-12.56,13.58c-1.64,1.7-3,3.06-3.93,4-.43.43-.8.78-1.09,1.06a2.39,2.39,0,0,1-.4.35s.1-.16.33-.42l1-1.13,3.81-4.11c3.21-3.46,7.63-8.28,12.43-13.67s9.05-10.35,12.11-13.95c1.5-1.76,2.73-3.2,3.63-4.27l1-1.14A2.33,2.33,0,0,1,422.23,305Z" style="fill: rgb(38, 50, 56); transform-origin: 404.875px 324.54px;" id="eluv538sm25nj" class="animable"></path><path d="M352.07,297.75s-.1.17-.33.45l-1,1.2c-.89,1-2.21,2.53-3.85,4.35-3.28,3.65-7.88,8.63-13.08,14s-10,10.16-13.54,13.56c-1.77,1.7-3.21,3.07-4.22,4l-1.17,1.06c-.27.24-.42.36-.43.34a2.25,2.25,0,0,1,.36-.42l1.1-1.13,4.1-4.11c3.46-3.47,8.23-8.28,13.43-13.66s9.84-10.31,13.18-13.9l4-4.23,1.09-1.14A2.82,2.82,0,0,1,352.07,297.75Z" style="fill: rgb(38, 50, 56); transform-origin: 333.26px 317.231px;" id="el028lwo1xnhut" class="animable"></path><path d="M321.69,292.19c.12.09-6.3,8.69-14.32,19.21s-14.62,19-14.74,18.9,6.3-8.68,14.33-19.21S321.58,292.1,321.69,292.19Z" style="fill: rgb(38, 50, 56); transform-origin: 307.16px 311.245px;" id="el443xg7jgptb" class="animable"></path><path d="M297,289.69c.11.09-5.51,7.21-12.54,15.91s-12.83,15.66-12.95,15.57,5.51-7.21,12.54-15.9S296.93,289.6,297,289.69Z" style="fill: rgb(38, 50, 56); transform-origin: 284.255px 305.43px;" id="elga7nrqo4dy8" class="animable"></path><path d="M271.55,287.67a4.79,4.79,0,0,1-.67.93l-2,2.44c-1.66,2.06-3.92,4.93-6.32,8.16s-4.47,6.24-6,8.43l-1.76,2.59a5.33,5.33,0,0,1-.7.92,4.83,4.83,0,0,1,.53-1c.36-.65.92-1.56,1.62-2.68,1.41-2.24,3.45-5.29,5.85-8.54s4.72-6.08,6.46-8.08c.86-1,1.58-1.8,2.09-2.34A4.61,4.61,0,0,1,271.55,287.67Z" style="fill: rgb(38, 50, 56); transform-origin: 262.825px 299.405px;" id="el447vy2p8pgv" class="animable"></path><path d="M379.14,414.58s38.17-21.19,47.92-45.59l-.31-20-48.28,42-7.4-5.31,2,23.56Z" style="fill: rgb(69, 90, 100); transform-origin: 399.065px 381.785px;" id="el28nq6edl2lg" class="animable"></path><path d="M378.47,391s26.15-9.77,48.28-42L301.66,335.94Z" style="fill: rgb(38, 50, 56); transform-origin: 364.205px 363.47px;" id="eleh15aq2va3n" class="animable"></path><path d="M378.47,391c.14,0,.37,5.32.51,11.87s.13,11.89,0,11.89-.37-5.31-.5-11.87S378.33,391,378.47,391Z" style="fill: rgb(38, 50, 56); transform-origin: 378.727px 402.88px;" id="elsbhbqa4dlck" class="animable"></path><path d="M96.16,360.85v49.7s39.56,33.93,132.77,36.8,144.85-29.9,144.85-29.9l-4-47.15L235.86,339.25Z" style="fill: rgb(255, 114, 94); transform-origin: 234.97px 393.389px;" id="el4rfxwwmm7sr" class="animable"></path><g id="elwommb7yck1d"><path d="M96.16,360.85v49.7s39.56,33.93,132.77,36.8,144.85-29.9,144.85-29.9l-4-47.15L235.86,339.25Z" style="opacity: 0.3; transform-origin: 234.97px 393.389px;" class="animable"></path></g><path d="M96.16,360.85,241,305.33l128.75,65s-72.42,36.8-151.55,28.23C139.88,390,96.16,360.85,96.16,360.85Z" style="fill: rgb(255, 114, 94); transform-origin: 232.955px 352.592px;" id="el2wwhiexh2p" class="animable"></path><path d="M264.81,398.92a3.42,3.42,0,0,1-.32.54l-1,1.5c-.88,1.3-2.17,3.15-3.79,5.43-3.24,4.55-7.84,10.75-13.15,17.42s-10.33,12.54-14,16.71c-1.86,2.09-3.38,3.77-4.45,4.91l-1.23,1.3a3.61,3.61,0,0,1-.46.43,2.81,2.81,0,0,1,.38-.5l1.16-1.37c1.07-1.23,2.53-2.93,4.32-5,3.64-4.23,8.6-10.14,13.91-16.8s10-12.82,13.26-17.31l3.92-5.33,1.08-1.44A3.69,3.69,0,0,1,264.81,398.92Z" style="fill: rgb(38, 50, 56); transform-origin: 245.61px 423.04px;" id="elt5cy4ad4bxk" class="animable"></path><path d="M291.23,395.88c.12.08-7.69,11.6-17.44,25.72S256,447.1,255.92,447s7.69-11.59,17.44-25.72S291.11,395.8,291.23,395.88Z" style="fill: rgb(38, 50, 56); transform-origin: 273.575px 421.44px;" id="elmrk7gz03au" class="animable"></path><path d="M319.7,389.87c.12.08-8.26,12.41-18.72,27.54s-19,27.34-19.16,27.26,8.27-12.42,18.73-27.55S319.58,389.78,319.7,389.87Z" style="fill: rgb(38, 50, 56); transform-origin: 300.76px 417.27px;" id="elyzm2buzrl1" class="animable"></path><path d="M348.6,378.89a3.14,3.14,0,0,1-.32.67c-.26.47-.59,1.1-1,1.88-.89,1.63-2.21,4-3.86,6.84-3.31,5.75-8,13.62-13.4,22.18s-10.5,16.17-14.27,21.63c-1.88,2.73-3.43,4.92-4.52,6.43L310,440.24a5.29,5.29,0,0,1-.47.58,3.1,3.1,0,0,1,.38-.64l1.18-1.78,4.37-6.52c3.69-5.5,8.74-13.15,14.14-21.7s10.14-16.39,13.52-22.09l4-6.75c.45-.76.82-1.37,1.1-1.83A4.82,4.82,0,0,1,348.6,378.89Z" style="fill: rgb(38, 50, 56); transform-origin: 329.065px 409.855px;" id="elbniftlmbvck" class="animable"></path><path d="M370.11,374.94c.13.06-6,12.81-13.7,28.47s-14,28.31-14.17,28.25,6-12.81,13.7-28.48S370,374.87,370.11,374.94Z" style="fill: rgb(38, 50, 56); transform-origin: 356.174px 403.3px;" id="el49jls4l5u7p" class="animable"></path><path d="M371.6,403c.13.06-1.94,4.48-4.62,9.86s-5,9.68-5.08,9.62,1.94-4.48,4.62-9.86S371.47,402.89,371.6,403Z" style="fill: rgb(38, 50, 56); transform-origin: 366.752px 412.739px;" id="ell7rckvg26qo" class="animable"></path><path d="M240.62,400.67c.11.09-8.94,10.32-20.2,22.84s-20.49,22.6-20.59,22.5,8.93-10.32,20.2-22.84S240.52,400.57,240.62,400.67Z" style="fill: rgb(38, 50, 56); transform-origin: 220.225px 423.34px;" id="el0qz14z2fvta" class="animable"></path><path d="M217.69,399.12c.11.1-8.92,9.8-20.15,21.67S177.11,442.21,177,442.11s8.91-9.8,20.15-21.67S217.59,399,217.69,399.12Z" style="fill: rgb(38, 50, 56); transform-origin: 197.345px 420.615px;" id="el15gh4dh1397" class="animable"></path><path d="M186.9,394c.11.1-8,9.77-18.06,21.6S150.5,437,150.39,436.88s8-9.76,18.06-21.6S186.79,393.93,186.9,394Z" style="fill: rgb(38, 50, 56); transform-origin: 168.645px 415.44px;" id="eljqfhcuc379b" class="animable"></path><path d="M163.24,389.94s-.09.16-.31.43l-1,1.15c-.86,1-2.13,2.43-3.71,4.18-3.16,3.51-7.61,8.28-12.63,13.44s-9.69,9.72-13.11,13c-1.71,1.63-3.11,2.93-4.09,3.82l-1.13,1a2.14,2.14,0,0,1-.42.33,2.39,2.39,0,0,1,.35-.4l1.06-1.09,4-3.93c3.35-3.32,8-7.92,13-13.07s9.51-9.89,12.74-13.33l3.83-4.06,1.06-1.09A2.05,2.05,0,0,1,163.24,389.94Z" style="fill: rgb(38, 50, 56); transform-origin: 145.04px 408.615px;" id="elnzpf522jme" class="animable"></path><path d="M141.9,382.23s-.1.14-.34.37l-1.07,1-4,3.65c-3.34,3.08-7.91,7.39-12.82,12.28s-9.24,9.44-12.33,12.77l-3.67,3.95-1,1.06a2.41,2.41,0,0,1-.38.35,1.76,1.76,0,0,1,.3-.42l.93-1.13c.82-1,2-2.36,3.54-4.06,3-3.39,7.32-8,12.24-12.89S132.88,390,136.28,387c1.7-1.51,3.1-2.71,4.07-3.53l1.14-.93C141.75,382.31,141.89,382.21,141.9,382.23Z" style="fill: rgb(38, 50, 56); transform-origin: 124.095px 399.944px;" id="elf95lrw6qe6r" class="animable"></path><path d="M120.21,374.78c.1.11-5.31,5-12.07,11s-12.33,10.73-12.42,10.62,5.31-5,12.07-11S120.12,374.68,120.21,374.78Z" style="fill: rgb(38, 50, 56); transform-origin: 107.965px 385.59px;" id="elbd1mfhgujo" class="animable"></path></g><g id="freepik--Character--inject-17" class="animable" style="transform-origin: 152.173px 167.623px;"><path d="M169.44,118a6.27,6.27,0,0,0,3.05,7.83c1.44.67,3.12.75,4.52,1.51a5.23,5.23,0,0,1,2.65,4.22c.09,1.58-.55,3.26.1,4.71.8,1.8,3.07,2.27,4.76,3.25a8.12,8.12,0,0,1,3.86,6.3,9.72,9.72,0,0,1-2.43,7.06,11,11,0,0,1-12.84,2.58,14,14,0,0,1-6.36-7.23,32.18,32.18,0,0,1-2.07-9.58,97.64,97.64,0,0,1-.08-17.52" style="fill: rgb(38, 50, 56); transform-origin: 176.322px 137.252px;" id="elvsaf7pzhiq" class="animable"></path><path d="M150,99.63c-3.42-.65-7,1.06-9.26,3.91a16.3,16.3,0,0,0-3.12,10.38,29.85,29.85,0,0,0,2.55,10.73,7.29,7.29,0,0,0,2.4,3.47c1.91,1.24,4.42.37,6.32-.9a20.2,20.2,0,0,0,8.56-16.17,14.16,14.16,0,0,0-1.9-7.8,7.74,7.74,0,0,0-6.4-3.86" style="fill: rgb(38, 50, 56); transform-origin: 147.534px 114.055px;" id="elbjpetovxhd7" class="animable"></path><path d="M212.32,211.66l-50.18-2.93c-.31-.72-.53-1.14-.53-1.14L148,207.9l-4.43-.26-.17.36-45.64,1c-9.1,0-18.66,5.61-18.64,12.7-.09,6.75,3.2,14.07,11.35,13.88l62.19-.37,62.19,0c8.15.14,10.29-4.78,10.29-10.61C226.08,213.8,219.27,211.73,212.32,211.66Z" style="fill: rgb(38, 50, 56); transform-origin: 152.173px 221.587px;" id="el07oh5xequfpd" class="animable"></path><path d="M96.2,235.6l.3,0h.88l3.38,0,12.52-.09,41.75-.17-.17.19c-.09-1.37-.19-2.83-.28-4.3-.2-3-.39-6-.57-8.78l.15.16-38.47-4.17-11.41-1.28-3.07-.36-.79-.1-.27,0h.27l.8.07,3.08.3,11.41,1.17,38.49,4.06h.15v.15c.18,2.82.37,5.77.57,8.78.09,1.47.19,2.93.28,4.29v.19H155l-41.75.06-12.52,0-3.38,0H96.5Z" style="fill: rgb(69, 90, 100); transform-origin: 125.7px 226.235px;" id="el3vjdtnd436d" class="animable"></path><path d="M109,217.73c0,.05-.66-.46-1.76-1.12a18.92,18.92,0,0,0-4.57-2,19.22,19.22,0,0,0-4.94-.71c-1.28,0-2.08.09-2.09,0a1.65,1.65,0,0,1,.55-.13,11.54,11.54,0,0,1,1.54-.15,16.62,16.62,0,0,1,9.64,2.75,10.37,10.37,0,0,1,1.23.93C108.84,217.57,109,217.71,109,217.73Z" style="fill: rgb(69, 90, 100); transform-origin: 102.32px 215.673px;" id="elb17d2k3jcqd" class="animable"></path><path d="M208.43,214.79c0,.1-9.86,2.52-22.08,5.41s-22.14,5.15-22.17,5.06,9.87-2.52,22.09-5.41S208.41,214.7,208.43,214.79Z" style="fill: rgb(69, 90, 100); transform-origin: 186.305px 220.025px;" id="el2kybj111vx2" class="animable"></path><path d="M200.07,213.85a19.1,19.1,0,0,0-3.88,1.87,19.35,19.35,0,0,0-3.14,2.93,3.47,3.47,0,0,1,.67-1.1,10.37,10.37,0,0,1,2.28-2.12,10,10,0,0,1,2.8-1.35A3.37,3.37,0,0,1,200.07,213.85Z" style="fill: rgb(69, 90, 100); transform-origin: 196.56px 216.25px;" id="ely2r4x0nh8b" class="animable"></path><polygon points="154.43 223.78 163.8 225.06 163.82 235.25 155.21 235.05 154.43 223.78" style="fill: rgb(183, 136, 118); transform-origin: 159.125px 229.515px;" id="elcgyazoyhhb6" class="animable"></polygon><path d="M163.8,225.06H168a4.64,4.64,0,0,1,2.33.62l2.23,1.28a35.24,35.24,0,0,0,3.88,1.84c2.57.82,6.88,1.91,7.79,2.61,2.59,2,1.81,4.35.39,4.6-1.25.22-20.81-.75-20.81-.75Z" style="fill: rgb(255, 114, 94); transform-origin: 174.866px 230.551px;" id="elzjai1ll5wz9" class="animable"></path><path d="M170.74,234.39a6.59,6.59,0,0,1-.46-2.65,6.71,6.71,0,0,1,.29-2.67,23.8,23.8,0,0,1,.06,2.66A24.55,24.55,0,0,1,170.74,234.39Z" style="fill: rgb(38, 50, 56); transform-origin: 170.496px 231.73px;" id="elcpc9hzuz8aa" class="animable"></path><path d="M172.74,234.32a8.32,8.32,0,0,1-.16-2.43,8.62,8.62,0,0,1,.18-2.42,8.51,8.51,0,0,1,.17,2.43A8.83,8.83,0,0,1,172.74,234.32Z" style="fill: rgb(38, 50, 56); transform-origin: 172.753px 231.895px;" id="elc1asc7kz5eg" class="animable"></path><path d="M175.1,234.72a17.57,17.57,0,0,1-.4-5,9.57,9.57,0,0,1,.37,2.49A9.14,9.14,0,0,1,175.1,234.72Z" style="fill: rgb(38, 50, 56); transform-origin: 174.918px 232.22px;" id="elu5hc8z9tyvq" class="animable"></path><path d="M168.91,231.68a2.63,2.63,0,0,1-.86-.27,7.85,7.85,0,0,1-2.71-1.86,2.17,2.17,0,0,1-.54-.76,1,1,0,0,1,.11-1,.76.76,0,0,1,.52-.29,1.36,1.36,0,0,1,.57.06,4.2,4.2,0,0,1,.9,7.46,2.71,2.71,0,0,1-1,.44,1.14,1.14,0,0,1-.55,0A.75.75,0,0,1,165,235a1.07,1.07,0,0,1,.12-1,3,3,0,0,1,.54-.65,6.51,6.51,0,0,1,2.07-1.37,2.75,2.75,0,0,1,.87-.24s-.3.12-.81.37a6.88,6.88,0,0,0-1.95,1.41,2.81,2.81,0,0,0-.48.61.84.84,0,0,0-.1.71.56.56,0,0,0,.66.22,2.16,2.16,0,0,0,.84-.4,3.89,3.89,0,0,0-.82-6.88.66.66,0,0,0-.75.11.77.77,0,0,0-.08.75,4.14,4.14,0,0,0,1,1.24A11.39,11.39,0,0,0,168.91,231.68Z" style="fill: rgb(38, 50, 56); transform-origin: 166.812px 231.493px;" id="elz8lb8cf8i59" class="animable"></path><path d="M184.63,236a2.28,2.28,0,0,0,.51-.64,2.39,2.39,0,0,0-.28-2.12,4.75,4.75,0,0,0-2.61-2c-1.19-.42-2.61-.62-4-1.07a28.15,28.15,0,0,1-7-3.15,21.48,21.48,0,0,1-1.9-1.33,3.82,3.82,0,0,1-.64-.56,4.86,4.86,0,0,1,.72.45c.45.3,1.11.74,2,1.23a31.15,31.15,0,0,0,6.94,3c1.41.43,2.81.64,4.05,1.1a4.9,4.9,0,0,1,2.72,2.14,2.5,2.5,0,0,1,.18,2.3,1.3,1.3,0,0,1-.43.48C184.71,236,184.64,236,184.63,236Z" style="fill: rgb(38, 50, 56); transform-origin: 177.114px 230.565px;" id="elm64k6l5w03g" class="animable"></path><path d="M181.23,156.48l16,27.62a11.76,11.76,0,0,1,.35,11.11h0a11.74,11.74,0,0,1-10.83,6.52l-24.4-.62-.67-8.87,21.48-4.17-14.55-25Z" style="fill: rgb(183, 136, 118); transform-origin: 180.243px 179.107px;" id="elbvubtvi3w4" class="animable"></path><path d="M122.14,204l22.45,5.88.47-6.73-20.71-11.95,15-28.07-12.7-6.48-15.81,27.7h0a13,13,0,0,0,7.53,18.47Z" style="fill: rgb(183, 136, 118); transform-origin: 127.193px 183.265px;" id="elslukrfbxi8j" class="animable"></path><path d="M174.53,174.26l15.32-8.12a78.37,78.37,0,0,0-6.6-10.94,33.71,33.71,0,0,0-20.52-12.85h0l-17.64.26a23.06,23.06,0,0,0-6.28,1.46V144c-9.57,2.14-20.14,23.05-20.14,23.05l14,7.31.31,2.19a15,15,0,0,0,3.66,7.81l-4,26.74,45.29.82-5.81-19.13Z" style="fill: rgb(255, 114, 94); transform-origin: 154.26px 177.135px;" id="elaz9y5fbkppi" class="animable"></path><path d="M156.22,152.93a8.62,8.62,0,0,0,8.43-8.51l.4-34.26h0a2.74,2.74,0,0,0-2.44-2.77l-14.48-3.66c-4.63-.49-7.71,5.22-8,9.87-.33,5.17-.52,11.49.09,15.35,1.23,7.75,7.17,8.74,7.17,8.74s0,3,0,6.67a8.62,8.62,0,0,0,8.81,8.57Z" style="fill: rgb(183, 136, 118); transform-origin: 152.436px 128.316px;" id="elg89yugvm0hl" class="animable"></path><path d="M142.46,117.81a1,1,0,0,0,1,1,1,1,0,0,0,1-.9,1,1,0,0,0-1-1A1,1,0,0,0,142.46,117.81Z" style="fill: rgb(38, 50, 56); transform-origin: 143.46px 117.86px;" id="elzcamwl5lczs" class="animable"></path><path d="M141.5,116.89c.12.13.87-.43,1.94-.43s1.86.54,2,.41-.07-.29-.41-.54a2.71,2.71,0,0,0-1.57-.49,2.66,2.66,0,0,0-1.55.5C141.55,116.6,141.44,116.83,141.5,116.89Z" style="fill: rgb(38, 50, 56); transform-origin: 143.484px 116.375px;" id="elspzjv1a9uxn" class="animable"></path><path d="M153,118a1,1,0,0,0,1,1,1,1,0,0,0,1-.9,1,1,0,0,0-1-1A1,1,0,0,0,153,118Z" style="fill: rgb(38, 50, 56); transform-origin: 154px 118.05px;" id="elzm5a3w6s47j" class="animable"></path><path d="M152,117.09c.13.13.88-.43,2-.43s1.85.54,2,.41-.07-.29-.41-.54a2.74,2.74,0,0,0-1.58-.49,2.71,2.71,0,0,0-1.55.5C152.07,116.8,152,117,152,117.09Z" style="fill: rgb(38, 50, 56); transform-origin: 154.024px 116.575px;" id="elu7h7s1cb28" class="animable"></path><path d="M148.13,125a7.32,7.32,0,0,0-1.74-.31c-.27,0-.53-.08-.57-.27a1.36,1.36,0,0,1,.18-.81c.25-.66.52-1.35.81-2.08a35.72,35.72,0,0,0,1.81-5.44,35.67,35.67,0,0,0-2.25,5.28c-.27.73-.53,1.43-.77,2.1a1.53,1.53,0,0,0-.14,1.07.69.69,0,0,0,.45.4,2,2,0,0,0,.46.06A6.3,6.3,0,0,0,148.13,125Z" style="fill: rgb(38, 50, 56); transform-origin: 147.02px 120.576px;" id="elk95tdrx5k9o" class="animable"></path><path d="M147.39,137.69a19.77,19.77,0,0,0,10.38-2.77s-2.51,5.32-10.27,4.6Z" style="fill: rgb(170, 101, 80); transform-origin: 152.58px 137.254px;" id="elp34xj5lidx" class="animable"></path><path d="M148.58,127.6a1.91,1.91,0,0,1,1.73-.71,1.74,1.74,0,0,1,1.22.65,1.1,1.1,0,0,1,.08,1.27,1.29,1.29,0,0,1-1.4.36,4.1,4.1,0,0,1-1.37-.82,1.26,1.26,0,0,1-.3-.31.34.34,0,0,1,0-.4" style="fill: rgb(170, 101, 80); transform-origin: 150.125px 128.06px;" id="elugg0wfs88fc" class="animable"></path><path d="M151.28,125.76c-.17,0-.18,1.16-1.17,2s-2.23.7-2.24.86.28.22.8.24a2.91,2.91,0,0,0,1.87-.65,2.54,2.54,0,0,0,.9-1.66C151.49,126.05,151.36,125.76,151.28,125.76Z" style="fill: rgb(38, 50, 56); transform-origin: 149.66px 127.31px;" id="elf2a59qa9tyv" class="animable"></path><path d="M151.53,115.22c.11.29,1.18.15,2.43.3s2.27.49,2.44.23-.1-.4-.51-.68a4.09,4.09,0,0,0-1.81-.63,4.19,4.19,0,0,0-1.9.22C151.72,114.85,151.49,115.08,151.53,115.22Z" style="fill: rgb(38, 50, 56); transform-origin: 153.989px 115.129px;" id="elvqlzun4hw67" class="animable"></path><path d="M141.65,114.92c.18.24.92,0,1.81,0s1.63.17,1.81-.09-.05-.36-.37-.59a2.62,2.62,0,0,0-2.92.09C141.67,114.55,141.56,114.8,141.65,114.92Z" style="fill: rgb(38, 50, 56); transform-origin: 143.476px 114.433px;" id="elmrb5fx86unt" class="animable"></path><path d="M145.39,101.24a9.1,9.1,0,0,0,5.76,7.69c1.42.53,2.95.69,4.37,1.2a4.69,4.69,0,0,1,3.2,3,7.56,7.56,0,0,1-.51,3.79c-.33,1.25-.46,2.73.41,3.69s2.12,1.08,2.64,2.09-.08,2.23-.52,3.31a8.12,8.12,0,0,0-.46,5.07,5.61,5.61,0,0,0,3.23,3.81,1.62,1.62,0,0,0,1.79-.18c.32-.37.06-1,.27-1.41,3.38-7.31,4.92-10,4.93-17.5a16.62,16.62,0,0,0-2.88-10A7.81,7.81,0,0,0,164,102.6a36,36,0,0,0-9.49-2.85,18.24,18.24,0,0,0-4.93-.54,6.16,6.16,0,0,0-4.38,2.05" style="fill: rgb(38, 50, 56); transform-origin: 157.856px 117.141px;" id="elvf9epykhxop" class="animable"></path><path d="M147.4,103.07a4.22,4.22,0,0,0-2.33,2.93,12.31,12.31,0,0,1-1.33,3.64,22.31,22.31,0,0,1-2.35,2.31,6.78,6.78,0,0,0-1.48,6.65,10.89,10.89,0,0,1,7.33-16.12" style="fill: rgb(38, 50, 56); transform-origin: 142.928px 110.54px;" id="elpwjna7qbtvh" class="animable"></path><path d="M161.74,116.17a7.87,7.87,0,0,0-1.23-3,5.94,5.94,0,0,0-2.77-2.12,14.22,14.22,0,0,0-4.38-.48,9.83,9.83,0,0,1-2.36-.35,7.66,7.66,0,0,1-2-1,7.81,7.81,0,0,1-2.49-2.78,7,7,0,0,1-.77-2.39,2.34,2.34,0,0,1,0-.92,11,11,0,0,0,1.1,3.13,7.81,7.81,0,0,0,2.44,2.56,7.15,7.15,0,0,0,1.89.89,9.92,9.92,0,0,0,2.24.32,13.89,13.89,0,0,1,4.52.55,6,6,0,0,1,2.9,2.36,5.84,5.84,0,0,1,.92,2.34A2.34,2.34,0,0,1,161.74,116.17Z" style="fill: rgb(38, 50, 56); transform-origin: 153.741px 109.65px;" id="elhtzyujem3hc" class="animable"></path><path d="M170,122.08a3.8,3.8,0,0,0,6.84,2.14,5.56,5.56,0,0,0,.93-3.5,5.84,5.84,0,0,0-.7-2.85,4.12,4.12,0,0,0-7.64,1.59" style="fill: rgb(38, 50, 56); transform-origin: 173.607px 120.792px;" id="eld581ugfrszc" class="animable"></path><path d="M169.88,116.72a6,6,0,0,1,.71,3.47,5.88,5.88,0,0,1-.9,3.42c-.14,0,.34-1.54.38-3.44S169.73,116.76,169.88,116.72Z" style="fill: rgb(255, 114, 94); transform-origin: 170.142px 120.165px;" id="el3naxrxsql3z" class="animable"></path><path d="M170.56,116s-.07.09-.23.22a3.2,3.2,0,0,1-.83.4,4.67,4.67,0,0,1-3.3-.35,9,9,0,0,1-3.47-3.51c-1-1.54-1.95-3.39-3.64-4.56s-3.82-1.25-5.59-1.84a13.5,13.5,0,0,1-4.35-2.32,12.84,12.84,0,0,1-2.3-2.4,3.84,3.84,0,0,1-.61-1.05,18.9,18.9,0,0,0,3.14,3.16,13.64,13.64,0,0,0,4.27,2.16c1.7.55,3.84.62,5.73,1.86s2.79,3.21,3.75,4.73a9,9,0,0,0,3.23,3.44,4.65,4.65,0,0,0,3.09.48A6.26,6.26,0,0,0,170.56,116Z" style="fill: rgb(69, 90, 100); transform-origin: 158.4px 108.682px;" id="ell4iwg1j6a8d" class="animable"></path><path d="M170,113.78a.78.78,0,0,1-.24.18,2.14,2.14,0,0,1-.8.23,3.66,3.66,0,0,1-2.79-1.12,35.56,35.56,0,0,1-2.62-3.58,13.17,13.17,0,0,0-4-3.46,27.64,27.64,0,0,0-5-2,37.41,37.41,0,0,1-4.17-1.51,12.4,12.4,0,0,1-2.58-1.54,3.84,3.84,0,0,1-.78-.77,19,19,0,0,0,3.51,2c1.15.48,2.57.92,4.16,1.4a25.71,25.71,0,0,1,5.08,2,13.35,13.35,0,0,1,4.1,3.63,43.47,43.47,0,0,0,2.49,3.61A3.56,3.56,0,0,0,169,114,5,5,0,0,0,170,113.78Z" style="fill: rgb(69, 90, 100); transform-origin: 158.51px 107.202px;" id="el5ly1pysbf9h" class="animable"></path><path d="M185.83,151.93a8.94,8.94,0,0,1,0-1.43,11.19,11.19,0,0,0-.53-3.79,5.1,5.1,0,0,0-1.48-2.1,19.55,19.55,0,0,0-2.56-1.66,7.66,7.66,0,0,1-2.58-2.35,7.38,7.38,0,0,1-1.24-3.55,7.22,7.22,0,0,1,.11-1.92c.13-.62.32-1.2.47-1.77a4,4,0,0,0-.11-3.13,5.06,5.06,0,0,0-2.18-1.93c-.85-.43-1.7-.72-2.46-1.05a6.11,6.11,0,0,1-3.13-2.37,3.23,3.23,0,0,1-.38-1c0-.24,0-.38,0-.38a4.61,4.61,0,0,0,.57,1.28,6.14,6.14,0,0,0,3.08,2.14c.76.3,1.63.57,2.52,1A5.43,5.43,0,0,1,178.3,130a3.48,3.48,0,0,1,.46,1.72,7.11,7.11,0,0,1-.28,1.78,9.21,9.21,0,0,0-.55,3.52,7,7,0,0,0,1.14,3.31,7.38,7.38,0,0,0,2.41,2.22,18.43,18.43,0,0,1,2.6,1.75,5.35,5.35,0,0,1,1.53,2.29,10.3,10.3,0,0,1,.39,3.92A6.65,6.65,0,0,1,185.83,151.93Z" style="fill: rgb(69, 90, 100); transform-origin: 177.902px 137.715px;" id="elvfh9loc9gfh" class="animable"></path><path d="M177.79,121.3c-.08,0-.17-.43-.76-.78a7.5,7.5,0,0,0-2.55-.81,14.67,14.67,0,0,0-3.86.2c0-.06.36-.31,1.07-.53a7,7,0,0,1,2.87-.18,5.79,5.79,0,0,1,2.69,1C177.89,120.73,177.86,121.33,177.79,121.3Z" style="fill: rgb(69, 90, 100); transform-origin: 174.223px 120.214px;" id="elef84w3gq19" class="animable"></path><path d="M177.31,123.47c0,.06-.31.35-1,.61a5.44,5.44,0,0,1-2.76.31,5.38,5.38,0,0,1-2.56-1.07c-.57-.44-.81-.82-.76-.86a10.56,10.56,0,0,0,3.39,1.42A10.18,10.18,0,0,0,177.31,123.47Z" style="fill: rgb(69, 90, 100); transform-origin: 173.767px 123.454px;" id="elmbrf41m8sb8" class="animable"></path><path d="M141.48,209.86c-.45-.8-2.39-39.38-1.66-39.38h29.65l-1.77,38.1Z" style="fill: rgb(38, 50, 56); transform-origin: 154.564px 190.17px;" id="elu0s8nclbi2m" class="animable"></path><polygon points="130.34 217.56 127.7 187.76 182.88 187.61 179.3 217.8 130.34 217.56" style="fill: rgb(224, 224, 224); transform-origin: 155.29px 202.705px;" id="el770wpviedec" class="animable"></polygon><path d="M158.85,203.57a3.52,3.52,0,1,1-3.53-3.5A3.53,3.53,0,0,1,158.85,203.57Z" style="fill: rgb(250, 250, 250); transform-origin: 155.33px 203.59px;" id="elhr1m891j44d" class="animable"></path><path d="M142.25,143.05s1.75,17.72,2.69,27.27a2.18,2.18,0,0,1-.32,1.74,1.51,1.51,0,0,1-2.1-.18,3.71,3.71,0,0,1-.88-2.16c-.64-6.17-2-17.88-2.53-25.77C139.11,144,141.21,142.78,142.25,143.05Z" style="fill: rgb(38, 50, 56); transform-origin: 142.055px 157.707px;" id="elgox68athgz" class="animable"></path><path d="M167,143.05s-1.75,17.72-2.69,27.27a2.18,2.18,0,0,0,.32,1.74,1.51,1.51,0,0,0,2.1-.18,3.72,3.72,0,0,0,.89-2.16c.63-6.17,2-17.88,2.52-25.77C170.11,144,168,142.78,167,143.05Z" style="fill: rgb(38, 50, 56); transform-origin: 167.195px 157.707px;" id="elxqisok96ehf" class="animable"></path><path d="M144.86,170.91s.39.28.26.94a1.5,1.5,0,0,1-.62.93,1.68,1.68,0,0,1-1.36.19,2,2,0,0,1-1.11-.78,2.16,2.16,0,0,1-.37-1c-.06-.6.1-1,.16-.94s.06.36.2.87a1.86,1.86,0,0,0,1.25,1.36,1.31,1.31,0,0,0,1-.1,1.28,1.28,0,0,0,.53-.63C145,171.28,144.78,171,144.86,170.91Z" style="fill: rgb(69, 90, 100); transform-origin: 143.397px 171.64px;" id="elnv8q0m5hi9d" class="animable"></path><path d="M143.26,170.33c0,.07-.07.2,0,.41s.2.4.45.27.21-.35,0-.52-.32-.15-.35-.22.18-.25.54-.09a.72.72,0,0,1,.41.54.74.74,0,0,1-.42.76.76.76,0,0,1-.86-.11.7.7,0,0,1-.19-.65C143,170.33,143.24,170.27,143.26,170.33Z" style="fill: rgb(69, 90, 100); transform-origin: 143.569px 170.841px;" id="elx01hbtuu2x" class="animable"></path><path d="M167.39,170.32c.06,0,.23.41.16,1.13a2.51,2.51,0,0,1-.46,1.21,2,2,0,0,1-1.43.77,1.52,1.52,0,0,1-1.44-.8,2.22,2.22,0,0,1-.26-1.27c.07-.71.24-1.1.3-1.09s0,.44.07,1.09a2.1,2.1,0,0,0,.3,1,1.08,1.08,0,0,0,1,.53,1.64,1.64,0,0,0,1.09-.55,2.55,2.55,0,0,0,.47-1C167.34,170.76,167.31,170.33,167.39,170.32Z" style="fill: rgb(69, 90, 100); transform-origin: 165.758px 171.852px;" id="ell1gs6dyp8ta" class="animable"></path><path d="M165.63,171c0,.07-.07.17,0,.33s.09.24.25.19.17-.16.08-.31-.22-.15-.25-.22.16-.23.46-.08a.58.58,0,0,1,.32.49.61.61,0,0,1-.43.61.63.63,0,0,1-.73-.2.62.62,0,0,1-.06-.58C165.36,170.9,165.62,170.91,165.63,171Z" style="fill: rgb(69, 90, 100); transform-origin: 165.857px 171.451px;" id="el5li60iwb93o" class="animable"></path><path d="M165.49,182.23s-.25.18-.75.4a18,18,0,0,1-2.15.79,25.22,25.22,0,0,1-15-.19,18.52,18.52,0,0,1-2.13-.84c-.49-.24-.75-.38-.73-.41s1.13.38,3,.9a28.52,28.52,0,0,0,14.75.18C164.34,182.59,165.45,182.15,165.49,182.23Z" style="fill: rgb(69, 90, 100); transform-origin: 155.109px 183.223px;" id="elvwtg4fdccvl" class="animable"></path><path d="M135.22,166.67a35.84,35.84,0,0,0-1.76,4.19,36.37,36.37,0,0,0-.71,4.49,8.14,8.14,0,0,1,.21-4.63A8.24,8.24,0,0,1,135.22,166.67Z" style="fill: rgb(38, 50, 56); transform-origin: 133.865px 171.01px;" id="el6q65rsgxsff" class="animable"></path><path d="M123.91,176a2.34,2.34,0,0,1-.22.71,11.76,11.76,0,0,1-1,1.78,12.83,12.83,0,0,1-5.06,4.35,15.06,15.06,0,0,1-3.51,1.14,10.5,10.5,0,0,0-2.74,1,5.13,5.13,0,0,0-1.89,1.86s0-.28.24-.71a4.3,4.3,0,0,1,1.45-1.46A9.88,9.88,0,0,1,114,183.5a16.51,16.51,0,0,0,3.41-1.15,13.76,13.76,0,0,0,5-4.09C123.41,176.92,123.82,175.94,123.91,176Z" style="fill: rgb(38, 50, 56); transform-origin: 116.7px 181.419px;" id="els2hf9eujh3l" class="animable"></path><path d="M116.27,183.43a14.63,14.63,0,0,0,1-1.43,4.51,4.51,0,0,0,.07-3.94l-.09-.18.4.06a5.28,5.28,0,0,0-1.6,3.54c-.06,1,.16,1.66.07,1.68a2.83,2.83,0,0,1-.44-1.69,5.27,5.27,0,0,1,1.62-3.91l.25-.24.15.3.1.2a4.6,4.6,0,0,1-.21,4.36C117,183.17,116.28,183.47,116.27,183.43Z" style="fill: rgb(38, 50, 56); transform-origin: 116.963px 180.377px;" id="el92b3pel3dhq" class="animable"></path><path d="M119.48,181.48a2.52,2.52,0,0,1,1.68-.5,4.59,4.59,0,0,1,3.78,1.83l.11.14.22.3-.37.1a5.27,5.27,0,0,1-4.06-.59c-.91-.56-1.26-1.15-1.21-1.18s.49.42,1.39.86a5.32,5.32,0,0,0,3.74.4l-.14.4-.1-.13a4.53,4.53,0,0,0-3.36-1.76A16.08,16.08,0,0,0,119.48,181.48Z" style="fill: rgb(38, 50, 56); transform-origin: 122.375px 182.248px;" id="elkezudqtuk1d" class="animable"></path><path d="M122.16,178.78s.27-.67,1.22-1.25a4.59,4.59,0,0,1,4.19-.25l.17.08.33.15-.27.26a5.25,5.25,0,0,1-3.83,1.47,2.75,2.75,0,0,1-1.64-.44c0-.08.64.13,1.64.08a5.37,5.37,0,0,0,3.46-1.48l.07.42-.14-.06a4.54,4.54,0,0,0-3.8.1A15.41,15.41,0,0,0,122.16,178.78Z" style="fill: rgb(38, 50, 56); transform-origin: 125.115px 178.067px;" id="eln68e43ummkc" class="animable"></path><path d="M113,184a2.43,2.43,0,0,1,1.72-.34,4.59,4.59,0,0,1,3.59,2.16l.1.16.19.31-.38.07a5.31,5.31,0,0,1-4-1c-.85-.65-1.14-1.26-1.1-1.29s.46.46,1.31,1a5.4,5.4,0,0,0,3.69.74l-.18.38-.08-.13a4.56,4.56,0,0,0-3.19-2.07A15.68,15.68,0,0,0,113,184Z" style="fill: rgb(38, 50, 56); transform-origin: 115.8px 185.023px;" id="elsnp0nmo16k" class="animable"></path></g><g id="freepik--Plants--inject-17" class="animable" style="transform-origin: 251.95px 234.338px;"><path d="M28,263.88c-1.09,1.55-3.2,1-4.18.09a7.83,7.83,0,0,1-1.77-3.63c-.87-3-1.73-6.14-1.09-9.18a5.08,5.08,0,0,1,1.17-2.5,2.64,2.64,0,0,1,2.52-.84,3.88,3.88,0,0,1,2.21,2.32A21.82,21.82,0,0,1,29,259.53a7.59,7.59,0,0,1-1,4.35" style="fill: rgb(255, 114, 94); transform-origin: 24.8789px 256.31px;" id="elkqmfk2ggx7" class="animable"></path><g id="eloys3cs2aaf"><g style="opacity: 0.2; transform-origin: 24.8789px 256.31px;" class="animable"><path d="M28,263.88c-1.09,1.55-3.2,1-4.18.09a7.83,7.83,0,0,1-1.77-3.63c-.87-3-1.73-6.14-1.09-9.18a5.08,5.08,0,0,1,1.17-2.5,2.64,2.64,0,0,1,2.52-.84,3.88,3.88,0,0,1,2.21,2.32A21.82,21.82,0,0,1,29,259.53a7.59,7.59,0,0,1-1,4.35" id="elvsrzay1dgcm" class="animable" style="transform-origin: 24.8789px 256.31px;"></path></g></g><path d="M23.94,271.75A9.43,9.43,0,0,0,18.1,271a4.93,4.93,0,0,0-2.89,1.29,2.09,2.09,0,0,0,0,2.89,2.73,2.73,0,0,0,1.82.46c1.55,0,3.26-.29,4.49.64.71.53,1.18,1.41,2,1.67a2,2,0,0,0,2.19-1A3.41,3.41,0,0,0,26,274.5,3.84,3.84,0,0,0,23.94,271.75Z" style="fill: rgb(255, 114, 94); transform-origin: 20.369px 274.414px;" id="elfj0c61x17qe" class="animable"></path><path d="M31,266.11a5.67,5.67,0,0,1-.88-5.2,10.11,10.11,0,0,1,3.08-4.47,16.57,16.57,0,0,1,5.52-3.25,5.91,5.91,0,0,1,2.48-.43A2.6,2.6,0,0,1,43.28,254c.58,1.11,0,2.45-.58,3.55a42,42,0,0,1-3.62,5.52,9.76,9.76,0,0,1-4,3.41c-1.66.63-3.38.56-4.25-.59" style="fill: rgb(255, 114, 94); transform-origin: 36.6797px 259.815px;" id="ell6alhktcno" class="animable"></path><path d="M28.09,287.31a3.83,3.83,0,0,1-.1-.71c0-.51-.11-1.16-.18-1.92a26.84,26.84,0,0,0-.44-2.83,21.22,21.22,0,0,0-1-3.33,12.15,12.15,0,0,0-1.71-3,6.45,6.45,0,0,0-2.15-1.79,6.08,6.08,0,0,0-1.81-.56,4,4,0,0,1-.71-.1,2.55,2.55,0,0,1,.72,0,5.41,5.41,0,0,1,1.89.5,6.26,6.26,0,0,1,2.27,1.8,12.06,12.06,0,0,1,1.77,3.08,21.83,21.83,0,0,1,1,3.39,23.67,23.67,0,0,1,.37,2.86c.06.82.09,1.48.1,1.94A3.07,3.07,0,0,1,28.09,287.31Z" style="fill: rgb(38, 50, 56); transform-origin: 24.0549px 280.177px;" id="el3vw0226r1cn" class="animable"></path><path d="M28,285.83a1.25,1.25,0,0,1,0-.33v-.94c0-.81,0-2,0-3.44-.07-2.9-.32-6.91-.8-11.32s-1.14-8.37-1.72-11.22c-.14-.71-.28-1.35-.41-1.91s-.24-1.05-.34-1.45l-.22-.91a1.31,1.31,0,0,1-.06-.32,1.41,1.41,0,0,1,.12.31l.27.89c.12.39.24.88.38,1.44s.31,1.2.46,1.91a106.93,106.93,0,0,1,1.81,11.23c.48,4.42.7,8.44.72,11.35,0,1.45,0,2.63-.05,3.45q0,.57-.06.93A1.68,1.68,0,0,1,28,285.83Z" style="fill: rgb(38, 50, 56); transform-origin: 26.33px 269.91px;" id="eljgu8fycuk9n" class="animable"></path><path d="M27.94,278.07a5.65,5.65,0,0,1,0-1,24.75,24.75,0,0,1,.3-2.65,33.52,33.52,0,0,1,.86-3.86A34.47,34.47,0,0,1,30.72,266a24.49,24.49,0,0,1,4.74-7.38,12.68,12.68,0,0,1,1.12-1c.17-.14.32-.29.48-.4l.43-.3a7.19,7.19,0,0,1,.82-.53,32.76,32.76,0,0,0-2.7,2.41A25.89,25.89,0,0,0,31,266.13a35.09,35.09,0,0,0-1.62,4.53,36.28,36.28,0,0,0-.92,3.82c-.2,1.1-.32,2-.39,2.62A6.49,6.49,0,0,1,27.94,278.07Z" style="fill: rgb(38, 50, 56); transform-origin: 33.1139px 267.23px;" id="el0wfpqckfzg2" class="animable"></path><path d="M458.94,272.36c.58-2.31-.94-4.61-2.64-6.27s-3.74-3.15-4.63-5.35c-1.45-3.57.44-8.22-2-11.19-1.44-1.75-4-2.32-5.29-4.19A9.48,9.48,0,0,1,443.2,242a34.09,34.09,0,0,0-8.56-15.81,29.54,29.54,0,0,0,3.41,15.26c1,1.88,2.22,3.7,2.56,5.79.55,3.4-1.33,6.92-.48,10.25,1,3.82,5.29,6.35,5.51,10.28.19,3.33-2.69,6.26-2.45,9.59a8.94,8.94,0,0,0,1.5,3.93c2.59,4.26,6.39,7.18,12.11,7.05l7,.21Z" style="fill: rgb(255, 114, 94); transform-origin: 449.203px 257.37px;" id="elrqkwwt7pcxr" class="animable"></path><g id="elcpuwl1k4lme"><g style="opacity: 0.3; transform-origin: 449.203px 257.37px;" class="animable"><path d="M458.94,272.36c.58-2.31-.94-4.61-2.64-6.27s-3.74-3.15-4.63-5.35c-1.45-3.57.44-8.22-2-11.19-1.44-1.75-4-2.32-5.29-4.19A9.48,9.48,0,0,1,443.2,242a34.09,34.09,0,0,0-8.56-15.81,29.54,29.54,0,0,0,3.41,15.26c1,1.88,2.22,3.7,2.56,5.79.55,3.4-1.33,6.92-.48,10.25,1,3.82,5.29,6.35,5.51,10.28.19,3.33-2.69,6.26-2.45,9.59a8.94,8.94,0,0,0,1.5,3.93c2.59,4.26,6.39,7.18,12.11,7.05l7,.21Z" id="el1k8xj9mgxfw" class="animable" style="transform-origin: 449.203px 257.37px;"></path></g></g><path d="M465.24,288.74a5.57,5.57,0,0,0,1.93-.06,11.29,11.29,0,0,0,2.27-.58,10,10,0,0,0,2.81-1.56A4.06,4.06,0,0,0,473.4,285a7.5,7.5,0,0,0,.31-2.1,20,20,0,0,1,.16-2.27,6.23,6.23,0,0,1,.84-2.26c.82-1.45,2.18-2.83,2.61-4.81a15.8,15.8,0,0,0-.22-6.14,12.94,12.94,0,0,1,.13-6.59c.74-2.2,2.26-4.19,3-6.67s.38-5.18.52-7.83a10.61,10.61,0,0,1,.89-3.9c.56-1.24,1.34-2.42,1.95-3.73,1.23-2.65,1.43-5.64,1.76-8.58.16-1.48.31-3,.48-4.48a21.28,21.28,0,0,1,.75-4.49,39.09,39.09,0,0,1,1.65-4.35,13.84,13.84,0,0,0,.8-2.27,22.25,22.25,0,0,0,.22-2.41,29.35,29.35,0,0,0-.22-4.86c-.2-1.61-.5-3.22-.68-4.84,0-.09,0-.19,0-.28l0-.32L488,202a10.79,10.79,0,0,0-3.76,3.2,17.22,17.22,0,0,0-2.29,4.29,51.82,51.82,0,0,0-2.13,9.2,25,25,0,0,1-2.84,8.49c-.76,1.26-1.68,2.4-2.49,3.62a9.93,9.93,0,0,0-1.71,4c-.4,3,1.25,5.57.92,8.19a9.08,9.08,0,0,1-1.26,3.65c-.63,1.12-1.37,2.17-2.07,3.22a19.85,19.85,0,0,0-1.87,3.24,10.23,10.23,0,0,0-.84,3.52c-.16,2.37.19,4.61,0,6.73a15.33,15.33,0,0,1-1.7,5.77c-.84,1.73-1.77,3.29-2.55,4.81a22.4,22.4,0,0,0-1.05,2.24,10.53,10.53,0,0,0-.61,2.22,14.22,14.22,0,0,0,0,4,10.1,10.1,0,0,0,2,5.09,4.94,4.94,0,0,0,.57.61,3.42,3.42,0,0,0,.46.39l.41.28a9.5,9.5,0,0,1-1.37-1.34,10.11,10.11,0,0,1-1.93-5.06,13.47,13.47,0,0,1,.07-3.94,10.51,10.51,0,0,1,.6-2.17c.3-.73.66-1.46,1.06-2.21.79-1.51,1.73-3.06,2.59-4.81a15.79,15.79,0,0,0,1.76-5.87c.17-2.16-.17-4.41,0-6.72a10,10,0,0,1,.82-3.41,20.18,20.18,0,0,1,1.85-3.18c.7-1,1.45-2.08,2.1-3.23a9.4,9.4,0,0,0,1.31-3.8c.33-2.8-1.31-5.41-.9-8.17a9.32,9.32,0,0,1,1.66-3.83c.79-1.2,1.72-2.35,2.5-3.63a25.43,25.43,0,0,0,2.9-8.64,52,52,0,0,1,2.12-9.12,16.58,16.58,0,0,1,2.23-4.17,10.39,10.39,0,0,1,3.6-3.08l-.32-.18,0,.29c.19,1.64.49,3.24.68,4.84a28.4,28.4,0,0,1,.22,4.78c0,.78-.09,1.6-.2,2.34a14,14,0,0,1-.78,2.19,38.92,38.92,0,0,0-1.66,4.4,22.53,22.53,0,0,0-.77,4.56c-.16,1.51-.31,3-.47,4.49-.32,2.94-.52,5.89-1.71,8.45-.58,1.27-1.36,2.45-1.94,3.73a10.89,10.89,0,0,0-.91,4.05c-.14,2.7.23,5.35-.49,7.75s-2.23,4.39-3,6.65a13.39,13.39,0,0,0-.12,6.76,15.53,15.53,0,0,1,.27,6c-.4,1.88-1.72,3.25-2.56,4.75a6.75,6.75,0,0,0-.86,2.35c-.11.8-.1,1.57-.13,2.3a7,7,0,0,1-.29,2,3.74,3.74,0,0,1-1.08,1.48,9.53,9.53,0,0,1-2.74,1.56,11.35,11.35,0,0,1-2.24.62,8.51,8.51,0,0,1-1.42.15Z" style="fill: rgb(38, 50, 56); transform-origin: 475.44px 245.308px;" id="elb658nfqsbb6" class="animable"></path><path d="M486.92,206a1.24,1.24,0,0,0-.06.22c0,.16-.09.37-.16.63-.13.55-.29,1.39-.55,2.43s-.9,2.22-1.43,3.67-1.12,3.11-1.64,5-1,4-1.47,6.18A26,26,0,0,1,479.4,231c-.56,1.15-1.21,2.3-1.71,3.57a16.4,16.4,0,0,0-1,4,80.73,80.73,0,0,1-1.46,8.49c-1.38,5.75-2.68,11.23-3.88,16.22s-2.32,9.46-3.24,13.24-1.64,6.78-2.15,8.93l-.57,2.43c0,.26-.1.47-.13.64a.6.6,0,0,0,0,.22,2,2,0,0,0,.07-.21c.05-.17.11-.37.18-.63.16-.58.37-1.39.65-2.41l2.29-8.9c.95-3.77,2.08-8.24,3.34-13.21l3.91-16.23a79.15,79.15,0,0,0,1.46-8.52,16.33,16.33,0,0,1,.95-3.94c.49-1.23,1.12-2.38,1.69-3.53a25.83,25.83,0,0,0,2.19-7c.47-2.23.91-4.3,1.42-6.17s1-3.54,1.56-5,1.12-2.64,1.37-3.72.37-1.89.47-2.45c0-.26.08-.47.11-.65A.72.72,0,0,0,486.92,206Z" style="fill: rgb(38, 50, 56); transform-origin: 476.087px 247.37px;" id="elde87i9w0ncg" class="animable"></path><path d="M466.47,288.75c4.57-2.75,5.84-11,3.9-16s-5.31-9.49-5.86-14.79c-.42-4.07.89-8.27-.08-12.24-1.31-5.37-6.58-9.51-6.55-15,0-3.1,1.76-6,1.6-9.12-.19-3.8-3.13-6.8-5-10.14-2.8-5.11-3-11.17-4-16.91s-3.2-11.88-8.31-14.67c-.73,4.88-2,8.23-1.55,14.83.16,2.38,2.94,6.9,3.35,12.1.24,3.11.41,6.22.62,9.33a29.63,29.63,0,0,0,1.52,8.94c.84,2.16,2.19,4.13,2.82,6.36,1.18,4.21-.32,8.79.64,13.05.82,3.62,3.34,6.72,3.87,10.38.75,5.16-2.55,10.53-.82,15.44.86,2.43,2.88,4.38,3.47,6.9.45,1.95,0,4,.39,6,.66,3.16,6.71,5.58,9.93,5.37" style="fill: rgb(255, 114, 94); transform-origin: 455.886px 234.315px;" id="elmz1mnltxh5" class="animable"></path><path d="M443.52,184.69a1.18,1.18,0,0,0,0,.28c0,.2.06.47.11.8.11.7.23,1.74.48,3.07s1,2.86,1.53,4.68,1.18,3.91,1.71,6.26,1,4.95,1.46,7.75a32.61,32.61,0,0,0,2.4,8.74c.65,1.47,1.38,2.93,1.93,4.48a20.14,20.14,0,0,1,1,4.95,97.78,97.78,0,0,0,1.4,10.66c1.44,7.22,2.82,14.1,4.07,20.36s2.5,11.85,3.5,16.57l2.4,11.17.68,3,.19.79c0,.18.07.27.07.27a1,1,0,0,0,0-.28c0-.2-.08-.46-.14-.79l-.59-3.05-2.26-11.2c-1-4.73-2.13-10.36-3.41-16.6s-2.61-13.13-4-20.35a101.7,101.7,0,0,1-1.4-10.63,20.7,20.7,0,0,0-1-5c-.57-1.59-1.31-3.06-2-4.51a32.12,32.12,0,0,1-2.41-8.64c-.49-2.79-1-5.4-1.52-7.75s-1.16-4.45-1.78-6.27-1.32-3.32-1.6-4.63-.43-2.36-.56-3.05c-.07-.33-.12-.6-.15-.8A1.23,1.23,0,0,0,443.52,184.69Z" style="fill: rgb(38, 50, 56); transform-origin: 454.986px 236.605px;" id="eln828yrvzrlh" class="animable"></path></g><g id="freepik--speech-bubble--inject-17" class="animable" style="transform-origin: 85.2368px 103.11px;"><path d="M49.89,102.43a4.3,4.3,0,0,0,.08-.6q.06-.63.15-1.74a20.55,20.55,0,0,1,.42-2.8c.12-.54.17-1.15.36-1.76s.36-1.28.56-2a33.35,33.35,0,0,1,4.65-9.35,32.57,32.57,0,0,1,10-9.08A32.6,32.6,0,0,1,86,71c.75.05,1.48.24,2.23.35a15.87,15.87,0,0,1,2.25.5,31.1,31.1,0,0,1,8.76,3.76,32.57,32.57,0,0,1,13.14,15.87,31.58,31.58,0,0,1,2.12,11,31,31,0,0,1-1.81,11.44l-.41,1.12-.06.14.06.14c2.55,5.56,5,11,7.46,16.3l.4-.47-14.65-5.31-.18-.06-.14.14a32.51,32.51,0,0,1-13.57,8.19,32.31,32.31,0,0,1-26.29-3.56,33.17,33.17,0,0,1-8.33-7.46,35.79,35.79,0,0,1-4.63-8,36.48,36.48,0,0,1-1.87-6.74q-.2-1.42-.36-2.52c0-.72-.06-1.34-.08-1.85s0-.85-.06-1.14a2.28,2.28,0,0,0,0-.38,2.12,2.12,0,0,0,0,.38V104c0,.51,0,1.14,0,1.87s.19,1.58.3,2.54a35,35,0,0,0,1.8,6.82,35.43,35.43,0,0,0,4.61,8.16A33.66,33.66,0,0,0,65,131a32.68,32.68,0,0,0,26.69,3.72,33,33,0,0,0,13.85-8.31l-.32.08,14.64,5.32.73.27-.33-.74L112.83,115v.28l.42-1.14a32,32,0,0,0,1.85-11.69,32.51,32.51,0,0,0-2.18-11.28A33.05,33.05,0,0,0,99.5,75a31.46,31.46,0,0,0-8.93-3.8,15.1,15.1,0,0,0-2.29-.5c-.76-.11-1.51-.3-2.27-.35a30.76,30.76,0,0,0-4.48-.16,31.27,31.27,0,0,0-15.63,4.5A32.75,32.75,0,0,0,55.81,84a33.17,33.17,0,0,0-4.59,9.49l-.54,2a16.29,16.29,0,0,0-.33,1.79,19.73,19.73,0,0,0-.36,2.82c0,.74-.07,1.32-.09,1.75A3.9,3.9,0,0,0,49.89,102.43Z" style="fill: rgb(38, 50, 56); transform-origin: 85.2368px 103.11px;" id="elrj7pu9i1as" class="animable"></path><path d="M82.06,103.11l11.72-.23A11.72,11.72,0,1,1,81.56,91.39Z" style="fill: rgb(255, 114, 94); transform-origin: 82.062px 103.105px;" id="elv4gwkh9099" class="animable"></path><path d="M85.16,100.19l-.49-11.72a12.33,12.33,0,0,1,8.5,3.16,12.08,12.08,0,0,1,3.71,8.15Z" style="fill: rgb(255, 114, 94); transform-origin: 90.775px 94.3287px;" id="eln5cxafo8tln" class="animable"></path></g><defs>     <filter id="active" height="200%">         <feMorphology in="SourceAlpha" result="DILATED" operator="dilate" radius="2"></feMorphology>                <feFlood flood-color="#32DFEC" flood-opacity="1" result="PINK"></feFlood>        <feComposite in="PINK" in2="DILATED" operator="in" result="OUTLINE"></feComposite>        <feMerge>            <feMergeNode in="OUTLINE"></feMergeNode>            <feMergeNode in="SourceGraphic"></feMergeNode>        </feMerge>    </filter>    <filter id="hover" height="200%">        <feMorphology in="SourceAlpha" result="DILATED" operator="dilate" radius="2"></feMorphology>                <feFlood flood-color="#ff0000" flood-opacity="0.5" result="PINK"></feFlood>        <feComposite in="PINK" in2="DILATED" operator="in" result="OUTLINE"></feComposite>        <feMerge>            <feMergeNode in="OUTLINE"></feMergeNode>            <feMergeNode in="SourceGraphic"></feMergeNode>        </feMerge>            <feColorMatrix type="matrix" values="0   0   0   0   0                0   1   0   0   0                0   0   0   0   0                0   0   0   1   0 "></feColorMatrix>    </filter></defs></svg>