<svg xmlns="http://www.w3.org/2000/svg" width="144" height="25.168141640719824" style=""><rect id="backgroundrect" width="100%" height="100%" x="0" y="0" fill="none" stroke="none" class="" style=""/>
    <defs>
        <style>
            .cls-1{fill:none;stroke:#8090b5;stroke-linecap:round;stroke-linejoin:round;stroke-dasharray:2 4}
        </style>
    </defs>
    
    
<g class="currentLayer" style=""><title>Layer 1</title><g class=""><path id="Path_545" d="M2.783271686232183,12.835991864204402 c7.913,3.8680000000000003 21.8,8.289 42.709,7.753 c45.582,-1.1480000000000001 35.285,-17.473 82.451,-9.006 " class="cls-1" data-name="Path 545"/><g id="send" transform="rotate(11 124.61300659179688,18.64121818542482) " class="">
        <g id="Group_86" data-name="Group 86">
            <path id="Path_512" d="M138.46500970808233,11.953218518257142 a1.6190000000000002,1.6190000000000002 0 0 1 -0.751000000000001,0.751000000000001 L125.50000970808235,18.61721851825714 a1.6190000000000002,1.6190000000000002 0 0 1 -2.208,-2.061 L125.41600970808234,11.247218518257142 L123.29200970808235,5.938218518257141 A1.6190000000000002,1.6190000000000002 0 0 1 125.50000970808235,3.87921851825714 l12.214,5.912 a1.6190000000000002,1.6190000000000002 0 0 1 0.751000000000001,2.162 zM125.03100970808235,4.852218518257143 a0.54,0.54 0 0 0 -0.736000000000001,0.6860000000000014 l2.068,5.17 h10.77 zM126.36200970808235,11.787218518257141 l-2.067,5.17 a0.539,0.539 0 0 0 0.736000000000001,0.6850000000000014 l12.1,-5.854 z" data-name="Path 512" style="fill:#8090b5"/>
        </g>
    </g></g></g></svg>