<svg xmlns="http://www.w3.org/2000/svg" width="151.10619475598975" height="46.16814164071987" style=""><rect id="backgroundrect" width="100%" height="100%" x="0" y="0" fill="none" stroke="none" class="" style=""/>
    <defs>
        <style>
            .cls-1{fill:none;stroke:#8090b5;stroke-linecap:round;stroke-linejoin:round;stroke-dasharray:2 4}
        </style>
    </defs>
    
    
<g class="currentLayer" style=""><title>Layer 1</title><g class=""><path id="Path_544" d="M4.056423843383527,11.505629525184645 c14.123,-5.014 38.761,-10.873 63.7,-3.5 c40.59,16.278 31.232,24.66 67.416,26.137 " class="cls-1" data-name="Path 544"/><g id="send" transform="rotate(0.30413615703582764 139.2841339111337,34.07575225829762) " class="">
        <g id="Group_86" data-name="Group 86">
            <path id="Path_512" d="M146.84823652648925,34.78051717436314 a1.6190000000000002,1.6190000000000002 0 0 1 -0.751000000000001,0.751000000000001 L133.88323652648927,41.444517174363135 a1.6190000000000002,1.6190000000000002 0 0 1 -2.208,-2.061 L133.79923652648927,34.07451717436314 L131.67523652648927,28.765517174363136 A1.6190000000000002,1.6190000000000002 0 0 1 133.88323652648927,26.706517174363135 l12.214,5.912 a1.6190000000000002,1.6190000000000002 0 0 1 0.751000000000001,2.162 zM133.41423652648925,27.679517174363134 a0.54,0.54 0 0 0 -0.736000000000001,0.6860000000000014 l2.068,5.17 h10.77 zM134.74523652648926,34.61451717436314 l-2.067,5.17 a0.539,0.539 0 0 0 0.736000000000001,0.6850000000000014 l12.1,-5.854 z" data-name="Path 512" style="fill:#8090b5"/>
        </g>
    </g></g></g></svg>