<svg xmlns="http://www.w3.org/2000/svg" width="18.001" height="21.737" viewBox="0 0 18.001 21.737">
    <defs>
        <style>
            .prefix__cls-1{fill:#5b5b76}
        </style>
    </defs>
    <g id="prefix__checklist" transform="translate(-44.001)">
        <g id="prefix__Group_1359" data-name="Group 1359" transform="translate(52.577 6.453)">
            <g id="prefix__Group_1358" data-name="Group 1358">
                <path id="prefix__Path_2286" d="M252.539 152h-6.114a.425.425 0 1 0 0 .849h6.114a.425.425 0 1 0 0-.849z" class="prefix__cls-1" data-name="Path 2286" transform="translate(-246.001 -152)"/>
            </g>
        </g>
        <g id="prefix__Group_1361" data-name="Group 1361" transform="translate(56.905 8.491)">
            <g id="prefix__Group_1360" data-name="Group 1360">
                <path id="prefix__Path_2287" d="M348.666 200.125a.424.424 0 1 0 .124.3.428.428 0 0 0-.124-.3z" class="prefix__cls-1" data-name="Path 2287" transform="translate(-347.941 -200.001)"/>
            </g>
        </g>
        <g id="prefix__Group_1363" data-name="Group 1363" transform="translate(52.577 1.826)">
            <g id="prefix__Group_1362" data-name="Group 1362">
                <path id="prefix__Path_2288" d="M246.716 43.125a.424.424 0 1 0 .124.3.428.428 0 0 0-.124-.3z" class="prefix__cls-1" data-name="Path 2288" transform="translate(-245.991 -43.001)"/>
            </g>
        </g>
        <g id="prefix__Group_1365" data-name="Group 1365" transform="translate(52.577 8.491)">
            <g id="prefix__Group_1364" data-name="Group 1364">
                <path id="prefix__Path_2289" d="M248.968 200h-2.542a.425.425 0 0 0 0 .849h2.542a.425.425 0 0 0 0-.849z" class="prefix__cls-1" data-name="Path 2289" transform="translate(-246.001 -200)"/>
            </g>
        </g>
        <g id="prefix__Group_1367" data-name="Group 1367" transform="translate(52.577 11.038)">
            <g id="prefix__Group_1366" data-name="Group 1366">
                <path id="prefix__Path_2290" d="M252.539 260h-6.114a.425.425 0 0 0 0 .849h6.114a.425.425 0 0 0 0-.849z" class="prefix__cls-1" data-name="Path 2290" transform="translate(-246.001 -260)"/>
            </g>
        </g>
        <g id="prefix__Group_1369" data-name="Group 1369" transform="translate(56.905 13.076)">
            <g id="prefix__Group_1368" data-name="Group 1368">
                <path id="prefix__Path_2291" d="M348.666 308.125a.424.424 0 1 0 .124.3.428.428 0 0 0-.124-.3z" class="prefix__cls-1" data-name="Path 2291" transform="translate(-347.941 -308.001)"/>
            </g>
        </g>
        <g id="prefix__Group_1371" data-name="Group 1371" transform="translate(52.577 13.076)">
            <g id="prefix__Group_1370" data-name="Group 1370">
                <path id="prefix__Path_2292" d="M248.968 308h-2.542a.425.425 0 1 0 0 .849h2.542a.425.425 0 1 0 0-.849z" class="prefix__cls-1" data-name="Path 2292" transform="translate(-246.001 -308)"/>
            </g>
        </g>
        <g id="prefix__Group_1373" data-name="Group 1373" transform="translate(52.577 15.624)">
            <g id="prefix__Group_1372" data-name="Group 1372">
                <path id="prefix__Path_2293" d="M252.539 368h-6.114a.425.425 0 0 0 0 .849h6.114a.425.425 0 0 0 0-.849z" class="prefix__cls-1" data-name="Path 2293" transform="translate(-246.001 -368)"/>
            </g>
        </g>
        <g id="prefix__Group_1375" data-name="Group 1375" transform="translate(56.905 17.661)">
            <g id="prefix__Group_1374" data-name="Group 1374">
                <path id="prefix__Path_2294" d="M348.666 416.125a.424.424 0 1 0 .124.3.428.428 0 0 0-.124-.3z" class="prefix__cls-1" data-name="Path 2294" transform="translate(-347.941 -416.001)"/>
            </g>
        </g>
        <g id="prefix__Group_1377" data-name="Group 1377" transform="translate(52.577 17.661)">
            <g id="prefix__Group_1376" data-name="Group 1376">
                <path id="prefix__Path_2295" d="M248.968 416h-2.542a.425.425 0 0 0 0 .849h2.542a.425.425 0 0 0 0-.849z" class="prefix__cls-1" data-name="Path 2295" transform="translate(-246.001 -416)"/>
            </g>
        </g>
        <g id="prefix__Group_1379" data-name="Group 1379" transform="translate(44.001)">
            <g id="prefix__Group_1378" data-name="Group 1378">
                <path id="prefix__Path_2296" d="M59.932 1.656h-3.243a2.6 2.6 0 0 0-1.8-.722h-.372a1.7 1.7 0 0 0-3.033 0h-.373a2.6 2.6 0 0 0-1.8.722h-3.24A2.072 2.072 0 0 0 44 3.726v15.941a2.072 2.072 0 0 0 2.07 2.07h13.862A2.072 2.072 0 0 0 62 19.667V3.726a2.072 2.072 0 0 0-2.068-2.07zm-8.82.127h.662a.425.425 0 0 0 .409-.312.849.849 0 0 1 1.637 0 .425.425 0 0 0 .409.312h.661A1.764 1.764 0 0 1 56.646 3.4h-7.289a1.764 1.764 0 0 1 1.755-1.617zm10.041 17.884a1.222 1.222 0 0 1-1.221 1.221H46.071a1.222 1.222 0 0 1-1.221-1.221V3.726A1.222 1.222 0 0 1 46.071 2.5h2.647a2.6 2.6 0 0 0-.217 1.04v.276a.425.425 0 0 0 .425.425h8.151a.425.425 0 0 0 .425-.425v-.271a2.6 2.6 0 0 0-.217-1.04h2.648a1.222 1.222 0 0 1 1.221 1.221z" class="prefix__cls-1" data-name="Path 2296" transform="translate(-44.001)"/>
            </g>
        </g>
        <g id="prefix__Group_1381" data-name="Group 1381" transform="translate(46.602 6.227)">
            <g id="prefix__Group_1380" data-name="Group 1380">
                <path id="prefix__Path_2297" d="M108.961 146.791a.425.425 0 0 0-.6 0l-1.815 1.816-.559-.559a.425.425 0 1 0-.6.6l.86.859a.425.425 0 0 0 .6 0l2.116-2.116a.425.425 0 0 0-.002-.6z" class="prefix__cls-1" data-name="Path 2297" transform="translate(-105.261 -146.667)"/>
            </g>
        </g>
        <g id="prefix__Group_1383" data-name="Group 1383" transform="translate(46.803 15.624)">
            <g id="prefix__Group_1382" data-name="Group 1382">
                <path id="prefix__Path_2298" d="M112.463 368h-2.038a.425.425 0 0 0-.425.425v2.038a.425.425 0 0 0 .425.425h2.038a.425.425 0 0 0 .425-.425v-2.038a.425.425 0 0 0-.425-.425zm-.425 2.038h-1.188v-1.189h1.189z" class="prefix__cls-1" data-name="Path 2298" transform="translate(-110.001 -368)"/>
            </g>
        </g>
        <g id="prefix__Group_1385" data-name="Group 1385" transform="translate(46.803 11.038)">
            <g id="prefix__Group_1384" data-name="Group 1384">
                <path id="prefix__Path_2299" d="M112.463 260h-2.038a.425.425 0 0 0-.425.425v2.038a.425.425 0 0 0 .425.425h2.038a.425.425 0 0 0 .425-.425v-2.038a.425.425 0 0 0-.425-.425zm-.425 2.038h-1.188v-1.189h1.189z" class="prefix__cls-1" data-name="Path 2299" transform="translate(-110.001 -260)"/>
            </g>
        </g>
    </g>
</svg>
