<svg xmlns="http://www.w3.org/2000/svg" width="22.319" height="22.285" viewBox="0 0 22.319 22.285">
    <defs>
        <style>
            .prefix__cls-1{fill:#5b5b76}
        </style>
    </defs>
    <g id="prefix__priority" transform="translate(0 -.392)">
        <g id="prefix__Group_1341" data-name="Group 1341" transform="translate(20.552 16.603)">
            <g id="prefix__Group_1340" data-name="Group 1340">
                <path id="prefix__Path_2276" d="M472.234 372.427l-.006-.006a.435.435 0 0 0-.617.614l.006.006a.435.435 0 1 0 .617-.614z" class="prefix__cls-1" data-name="Path 2276" transform="translate(-471.485 -372.293)"/>
            </g>
        </g>
        <g id="prefix__Group_1343" data-name="Group 1343" transform="translate(0 15.712)">
            <g id="prefix__Group_1342" data-name="Group 1342">
                <path id="prefix__Path_2277" d="M22.169 354.322a.435.435 0 1 0-.833.251 2.612 2.612 0 1 1-1.675-1.722.435.435 0 1 0 .274-.826 3.465 3.465 0 0 0-3.5.779H3.707v-.312a.435.435 0 0 0-.743-.308l-2.837 2.837a.435.435 0 0 0 0 .616l2.836 2.836a.435.435 0 0 0 .743-.308v-.312h12.733a3.481 3.481 0 0 0 5.731-3.531zm-6.4 2.661H3.271a.435.435 0 0 0-.367.2l-1.854-1.854 1.85-1.854a.435.435 0 0 0 .367.2h12.5a3.493 3.493 0 0 0 0 3.308z" class="prefix__cls-1" data-name="Path 2277" transform="translate(0 -351.845)"/>
            </g>
        </g>
        <g id="prefix__Group_1345" data-name="Group 1345" transform="translate(20.545 8.943)">
            <g id="prefix__Group_1344" data-name="Group 1344">
                <path id="prefix__Path_2278" d="M472.074 196.7l-.006-.006a.435.435 0 0 0-.617.614l.006.006a.435.435 0 1 0 .617-.614z" class="prefix__cls-1" data-name="Path 2278" transform="translate(-471.325 -196.566)"/>
            </g>
        </g>
        <g id="prefix__Group_1347" data-name="Group 1347" transform="translate(20.545 1.283)">
            <g id="prefix__Group_1346" data-name="Group 1346">
                <path id="prefix__Path_2279" d="M472.074 20.975l-.006-.006a.435.435 0 0 0-.617.614l.006.006a.435.435 0 1 0 .617-.614z" class="prefix__cls-1" data-name="Path 2279" transform="translate(-471.325 -20.841)"/>
            </g>
        </g>
        <g id="prefix__Group_1349" data-name="Group 1349" transform="translate(17.745 2.048)">
            <g id="prefix__Group_1348" data-name="Group 1348">
                <path id="prefix__Path_2280" d="M408.548 38.407a.435.435 0 0 0-.484.137l-.9 1.112a.435.435 0 0 0 .678.546l.123-.152v1.55a.435.435 0 1 0 .87 0v-2.782a.435.435 0 0 0-.287-.411z" class="prefix__cls-1" data-name="Path 2280" transform="translate(-407.071 -38.383)"/>
            </g>
        </g>
        <g id="prefix__Group_1351" data-name="Group 1351" transform="translate(17.476 9.419)">
            <g id="prefix__Group_1350" data-name="Group 1350">
                <path id="prefix__Path_2281" d="M403.239 210.26h-.7a2.5 2.5 0 0 0 .869-1.539 1.18 1.18 0 0 0-1.247-1.247 1.248 1.248 0 0 0-1.247 1.247.435.435 0 0 0 .87 0 .377.377 0 0 1 .376-.376c.332 0 .376.19.376.376 0 .389-.836 1.19-1.44 1.619a.435.435 0 0 0 .252.79h1.887a.435.435 0 0 0 0-.87z" class="prefix__cls-1" data-name="Path 2281" transform="translate(-400.917 -207.475)"/>
            </g>
        </g>
        <g id="prefix__Group_1353" data-name="Group 1353" transform="translate(17.803 17.367)">
            <g id="prefix__Group_1352" data-name="Group 1352">
                <path id="prefix__Path_2282" d="M410.52 390.956a1.133 1.133 0 0 0-1.132-1.132h-.537a.435.435 0 0 0 0 .87h.537a.261.261 0 0 1 0 .522h-.537a.435.435 0 0 0 0 .87h.537a.261.261 0 0 1 0 .522h-.537a.435.435 0 1 0 0 .87h.537a11.468 11.468 0 0 0 1.132-2.524z" class="prefix__cls-1" data-name="Path 2282" transform="translate(-408.416 -389.824)"/>
            </g>
        </g>
        <g id="prefix__Group_1355" data-name="Group 1355" transform="translate(3.717 8.052)">
            <g id="prefix__Group_1354" data-name="Group 1354">
                <path id="prefix__Path_2283" d="M103.729 178.595a.435.435 0 1 0-.833.251 2.612 2.612 0 1 1-1.675-1.722.435.435 0 1 0 .274-.826 3.465 3.465 0 0 0-3.493.777h-9.011v-.312a.435.435 0 0 0-.743-.308l-2.836 2.836a.435.435 0 0 0 0 .616l2.836 2.836a.435.435 0 0 0 .743-.308v-.312h9a3.481 3.481 0 0 0 5.734-3.528zm-6.4 2.658h-8.774a.435.435 0 0 0-.367.2l-1.854-1.853 1.854-1.854a.435.435 0 0 0 .367.2h8.776a3.493 3.493 0 0 0 0 3.308z" class="prefix__cls-1" data-name="Path 2283" transform="translate(-85.284 -176.118)"/>
            </g>
        </g>
        <g id="prefix__Group_1357" data-name="Group 1357" transform="translate(8.488 .392)">
            <g id="prefix__Group_1356" data-name="Group 1356">
                <path id="prefix__Path_2284" d="M208.4 2.868a.435.435 0 1 0-.833.251A2.612 2.612 0 1 1 205.9 1.4a.435.435 0 1 0 .274-.826 3.465 3.465 0 0 0-3.5.78h-4.236v-.315a.435.435 0 0 0-.743-.308l-2.836 2.836a.435.435 0 0 0 0 .616l2.836 2.836a.435.435 0 0 0 .743-.308V6.4h4.237a3.482 3.482 0 0 0 5.73-3.532zM198 5.53a.435.435 0 0 0-.367.2l-1.854-1.854 1.854-1.854a.435.435 0 0 0 .367.2h4a3.493 3.493 0 0 0 0 3.308h-4z" class="prefix__cls-1" data-name="Path 2284" transform="translate(-194.73 -.392)"/>
            </g>
        </g>
    </g>
</svg>
