<svg xmlns="http://www.w3.org/2000/svg" width="20.54" height="18.486" viewBox="0 0 20.54 18.486">
    <path id="prefix__suitcase" d="M19.513 3.081h-4.45V1.712A1.714 1.714 0 0 0 13.351 0H7.189a1.714 1.714 0 0 0-1.712 1.712v1.369h-4.45A1.027 1.027 0 0 0 0 4.108v7.62a1.031 1.031 0 0 0 .685.966v4.764a1.027 1.027 0 0 0 1.027 1.027h17.116a1.027 1.027 0 0 0 1.027-1.027v-4.763a1.032 1.032 0 0 0 .685-.967v-7.62a1.027 1.027 0 0 0-1.027-1.027zM6.162 1.712A1.027 1.027 0 0 1 7.189.685h6.162a1.027 1.027 0 0 1 1.027 1.027v1.369h-.685V1.712a.342.342 0 0 0-.342-.342H7.189a.342.342 0 0 0-.342.342v1.369h-.685zm6.847 1.369H7.531V2.054h5.477zm6.161 14.378a.342.342 0 0 1-.342.342H1.712a.342.342 0 0 1-.342-.342v-4.647l7.53 1.039v.869a1.027 1.027 0 0 0 1.027 1.027h.685a1.027 1.027 0 0 0 1.027-1.027v-.869l7.531-1.039zm-8.215-2.739a.342.342 0 0 1-.342.342h-.685a.342.342 0 0 1-.342-.342v-2.054a.342.342 0 0 1 .342-.342h.685a.342.342 0 0 1 .342.342zm8.9-2.992a.342.342 0 0 1-.294.339l-.095.013-7.827 1.08v-.494a1.027 1.027 0 0 0-1.027-1.027h-.684A1.027 1.027 0 0 0 8.9 12.666v.494L.979 12.067a.342.342 0 0 1-.295-.339v-7.62a.342.342 0 0 1 .342-.342h18.487a.342.342 0 0 1 .342.342zm0 0" style="fill:#5b5b76"/>
</svg>
