<svg xmlns="http://www.w3.org/2000/svg" width="48.87" height="55.603" viewBox="0 0 48.87 55.603">
    <defs>
        <style>
            .prefix__cls-1{fill:#5b5b76}
        </style>
    </defs>
    <g id="prefix__mail_1_" data-name="mail (1)" transform="translate(-31)">
        <g id="prefix__Group_1325" data-name="Group 1325" transform="translate(44.032 6.516)">
            <g id="prefix__Group_1324" data-name="Group 1324">
                <path id="prefix__Path_2142" d="M162.4 60a11.4 11.4 0 0 0-6.137 21.011 11.639 11.639 0 0 0 11.341.619 1.629 1.629 0 0 0-1.362-2.96 8.44 8.44 0 0 1-8.221-.4 8.144 8.144 0 1 1 12.527-6.87 1.629 1.629 0 0 1-3.258.025V71.4a4.894 4.894 0 1 0-1.629 3.639 4.884 4.884 0 0 0 8.145-3.639A11.416 11.416 0 0 0 162.4 60zm1.606 11.664a1.625 1.625 0 1 1 .012-.448 1.63 1.63 0 0 0-.009.448z" class="prefix__cls-1" data-name="Path 2142" transform="translate(-151 -60)"/>
            </g>
        </g>
        <g id="prefix__Group_1327" data-name="Group 1327" transform="translate(31)">
            <g id="prefix__Group_1326" data-name="Group 1326">
                <path id="prefix__Path_2143" d="M79.87 21.392a1.64 1.64 0 0 0-.477-1.149L73.354 14.2V1.629A1.629 1.629 0 0 0 71.725 0h-32.58a1.629 1.629 0 0 0-1.629 1.629V14.2l-6.039 6.039-.016.018A1.636 1.636 0 0 0 31 21.392v29.324a4.892 4.892 0 0 0 4.887 4.884h39.1a4.892 4.892 0 0 0 4.887-4.887V21.395l-.004-.003zm-6.516-2.581l2.583 2.583-2.583 2.583zm-32.58-3.932V3.258H70.1v23.978l-8.82 8.82H49.594l-8.82-8.82zm-3.258 3.932v5.167l-2.583-2.583zm-3.258 31.231V25.327l12.357 12.357zm2.3 2.3l13.036-13.029h11.682l13.032 13.032zm40.05-2.3L64.255 37.684l12.357-12.357z" class="prefix__cls-1" data-name="Path 2143" transform="translate(-31)"/>
            </g>
        </g>
    </g>
</svg>
