<svg xmlns="http://www.w3.org/2000/svg" id="prefix__ic_wa" width="52.104" height="52.104" viewBox="0 0 52.104 52.104">
    <defs>
        <style>
            .prefix__cls-1{fill:#5b5b76}
        </style>
    </defs>
    <path id="prefix__Path_2140" d="M44.7 7.4A25.1 25.1 0 0 0 26.836 0 25.272 25.272 0 0 0 4.381 36.856L.134 48.989a2.343 2.343 0 0 0 2.2 3.115 2.36 2.36 0 0 0 .78-.134l12.133-4.247A25.269 25.269 0 0 0 44.7 7.4zm-2.158 33.573a22.22 22.22 0 0 1-26.132 3.909 2.353 2.353 0 0 0-1.877-.145L3.509 48.594l3.859-11.023a2.354 2.354 0 0 0-.146-1.877A22.214 22.214 0 0 1 26.834 3.056a22.211 22.211 0 0 1 15.708 37.917zm0 0" class="prefix__cls-1" data-name="Path 2140"/>
    <path id="prefix__Path_2141" d="M150.615 129.73a2.985 2.985 0 0 0-4.216 0l-1.272 1.27a18.5 18.5 0 0 1-7.432-7.431l1.271-1.271a2.984 2.984 0 0 0 0-4.216l-3.426-3.426a2.985 2.985 0 0 0-4.216 0l-2.74 2.74c-1.57 1.57-1.648 4.269-.221 7.6a33.355 33.355 0 0 0 15.337 15.337 11.063 11.063 0 0 0 4.266 1.016 4.543 4.543 0 0 0 3.334-1.237l2.74-2.741a2.981 2.981 0 0 0 0-4.216zm-1.476 8.222c-.448.448-1.826.605-4.234-.427a30.38 30.38 0 0 1-13.732-13.732c-1.032-2.409-.875-3.787-.427-4.235l2.688-2.688 3.32 3.32-1.591 1.592a2.332 2.332 0 0 0-.432 2.715 21.558 21.558 0 0 0 9.469 9.469 2.332 2.332 0 0 0 2.716-.432l1.591-1.591 3.32 3.32zm0 0" class="prefix__cls-1" data-name="Path 2141" transform="translate(-114.388 -102.206)"/>
</svg>
