<svg xmlns="http://www.w3.org/2000/svg" width="52.104" height="52.104" viewBox="0 0 52.104 52.104">
    <path id="prefix__facebook" d="M7.632 52.1h16.995V33.582h-6.106v-6.106h6.106v-7.632a7.641 7.641 0 0 1 7.632-7.632h7.632v6.106h-6.105a3.056 3.056 0 0 0-3.053 3.053v6.106h8.883L38.6 33.582h-7.867V52.1h13.738a7.641 7.641 0 0 0 7.629-7.629V7.632A7.641 7.641 0 0 0 44.471 0H7.632A7.641 7.641 0 0 0 0 7.632v36.839A7.641 7.641 0 0 0 7.632 52.1zM3.053 7.632a4.585 4.585 0 0 1 4.579-4.579h36.839a4.585 4.585 0 0 1 4.579 4.579v36.839a4.585 4.585 0 0 1-4.579 4.579H33.786V36.635h7.4l2.034-12.211h-9.434v-3.053h9.159V9.159H32.259a10.7 10.7 0 0 0-10.685 10.685v4.579h-6.106v12.212h6.106v12.416H7.632a4.585 4.585 0 0 1-4.579-4.579zm0 0" style="fill:#5b5b76"/>
</svg>
