<svg xmlns="http://www.w3.org/2000/svg" id="prefix__clipboard" width="38.826" height="38.826" viewBox="0 0 38.826 38.826">
    <defs>
        <style>
            .prefix__cls-1{fill:#fa7c50}
        </style>
    </defs>
    <g id="prefix__Group_1227" data-name="Group 1227" transform="translate(13.038 25.337)">
        <g id="prefix__Group_1226" data-name="Group 1226">
            <path id="prefix__Path_1877" d="M173.224 334.343a.756.756 0 1 0 .223.536.763.763 0 0 0-.223-.536z" class="prefix__cls-1" data-name="Path 1877" transform="translate(-171.93 -334.121)"/>
        </g>
    </g>
    <g id="prefix__Group_1229" data-name="Group 1229" transform="translate(14.515 7.432)">
        <g id="prefix__Group_1228" data-name="Group 1228">
            <path id="prefix__Path_1878" d="M192.178 98h-.01a.758.758 0 0 0 0 1.517h.01a.758.758 0 1 0 0-1.517z" class="prefix__cls-1" data-name="Path 1878" transform="translate(-191.409 -98.001)"/>
        </g>
    </g>
    <g id="prefix__Group_1231" data-name="Group 1231" transform="translate(24.489 12.383)">
        <g id="prefix__Group_1230" data-name="Group 1230">
            <path id="prefix__Path_1879" d="M333.659 167.173a.758.758 0 0 0-.612-.516l-2.8-.406-1.247-2.535a.758.758 0 0 0-.68-.423.759.759 0 0 0-.68.423l-1.251 2.536-2.8.407a.758.758 0 0 0-.42 1.294l2.026 1.973-.477 2.787a.758.758 0 0 0 1.1.8l2.5-1.317 2.5 1.315a.758.758 0 0 0 1.1-.8l-.479-2.787 2.024-1.974a.758.758 0 0 0 .196-.777zm-3.56 1.944a.758.758 0 0 0-.218.671l.286 1.665-1.5-.786a.759.759 0 0 0-.706 0l-1.5.787.285-1.666a.758.758 0 0 0-.218-.671l-1.21-1.179L327 167.7a.758.758 0 0 0 .571-.415l.747-1.516.748 1.515a.759.759 0 0 0 .571.415l1.673.243z" class="prefix__cls-1" data-name="Path 1879" transform="translate(-322.938 -163.293)"/>
        </g>
    </g>
    <g id="prefix__Group_1233" data-name="Group 1233">
        <g id="prefix__Group_1232" data-name="Group 1232">
            <path id="prefix__Path_1880" d="M30.636 8.621v-.734a3.8 3.8 0 0 0-3.792-3.792h-2.357a2.279 2.279 0 0 0-2.193-1.67h-3.882a3.185 3.185 0 0 0-6.187 0H8.342a2.279 2.279 0 0 0-2.193 1.67H3.792A3.8 3.8 0 0 0 0 7.887v27.148a3.8 3.8 0 0 0 3.792 3.792h23.053a3.8 3.8 0 0 0 3.792-3.792v-1.89-.074l2.706 2.088a.758.758 0 0 0 1.222-.6v-9.4a8.946 8.946 0 0 0-3.929-16.538zM29.12 33.145v1.889a2.278 2.278 0 0 1-2.275 2.275H3.792a2.278 2.278 0 0 1-2.275-2.275V7.887a2.278 2.278 0 0 1 2.275-2.275h2.275V8.19a.758.758 0 0 0 .758.758h5.584a.758.758 0 0 0 0-1.517H7.583V4.7a.759.759 0 0 1 .758-.758h4.55a.758.758 0 0 0 .758-.758 1.668 1.668 0 0 1 3.337 0 .758.758 0 0 0 .758.758h4.55a.759.759 0 0 1 .758.758v2.73h-4.365a.758.758 0 0 0 0 1.517h5.124a.758.758 0 0 0 .758-.758V5.612h2.275a2.278 2.278 0 0 1 2.276 2.275v.734a8.97 8.97 0 0 0-7.828 6.394H13.8a.758.758 0 0 0 0 1.517h7.191A8.932 8.932 0 0 0 21 18.655h-7.2a.758.758 0 1 0 0 1.517h7.531a8.99 8.99 0 0 0 3.831 4.963v.2h-8.593a.758.758 0 0 0 0 1.517h8.588v2.123H13.8a.758.758 0 1 0 0 1.517h11.357v4.064a.758.758 0 0 0 1.222.6l2.75-2.121a.758.758 0 0 0-.009.11zm3.924-.129l-2.722-2.1a.759.759 0 0 0-.926 0l-2.722 2.1v-7.125a8.944 8.944 0 0 0 6.37.015zm-3.166-8.048a7.432 7.432 0 1 1 7.432-7.432 7.44 7.44 0 0 1-7.432 7.432z" class="prefix__cls-1" data-name="Path 1880"/>
        </g>
    </g>
    <g id="prefix__Group_1235" data-name="Group 1235" transform="translate(4.101 14.105)">
        <g id="prefix__Group_1234" data-name="Group 1234">
            <path id="prefix__Path_1881" d="M61.294 188.61a.759.759 0 0 0-.612-.516l-1.589-.231-.71-1.44A.758.758 0 0 0 57.7 186a.758.758 0 0 0-.68.423l-.711 1.439-1.589.23a.758.758 0 0 0-.421 1.293l1.149 1.121-.272 1.582a.758.758 0 0 0 1.1.8l1.421-.747 1.421.747a.758.758 0 0 0 1.1-.8l-.271-1.582 1.15-1.12a.759.759 0 0 0 .197-.776zm-2.686 1.09a.758.758 0 0 0-.218.671l.079.461-.414-.218a.758.758 0 0 0-.706 0l-.414.217.079-.461a.758.758 0 0 0-.218-.671l-.335-.327.463-.067a.759.759 0 0 0 .571-.415l.207-.419.207.419a.758.758 0 0 0 .571.415l.463.067z" class="prefix__cls-1" data-name="Path 1881" transform="translate(-54.074 -186)"/>
        </g>
    </g>
    <g id="prefix__Group_1237" data-name="Group 1237" transform="translate(4.101 24.428)">
        <g id="prefix__Group_1236" data-name="Group 1236">
            <path id="prefix__Path_1882" d="M61.294 324.735a.758.758 0 0 0-.612-.516l-1.589-.231-.71-1.44a.758.758 0 0 0-.68-.423.758.758 0 0 0-.68.423l-.711 1.439-1.589.23a.758.758 0 0 0-.421 1.293l1.149 1.121-.272 1.582a.758.758 0 0 0 1.1.8l1.421-.747 1.421.747a.758.758 0 0 0 1.1-.8l-.271-1.582 1.15-1.12a.758.758 0 0 0 .194-.776zm-2.686 1.09a.758.758 0 0 0-.218.671l.079.461-.414-.218a.759.759 0 0 0-.706 0l-.414.217.079-.461a.758.758 0 0 0-.218-.671l-.335-.327.463-.067a.759.759 0 0 0 .571-.415l.207-.419.207.419a.758.758 0 0 0 .571.415l.463.067z" class="prefix__cls-1" data-name="Path 1882" transform="translate(-54.074 -322.125)"/>
        </g>
    </g>
</svg>
