<svg xmlns="http://www.w3.org/2000/svg" width="210.698" height="160" viewBox="0 0 210.698 160">
    <defs>
        <style>
            .prefix__cls-1,.prefix__cls-4{fill:#fa7c50}.prefix__cls-1,.prefix__cls-2,.prefix__cls-5{opacity:.1}.prefix__cls-3{fill:#3f3d56}.prefix__cls-6{fill:#192534}.prefix__cls-7{fill:#fbbebe}.prefix__cls-8{fill:#f2f2f2}.prefix__cls-15{fill:#e53c5f}.prefix__cls-17{fill:#464a5f}.prefix__cls-18{fill:#9c9ca1}
        </style>
    </defs>
    <g id="prefix__undraw_buffer_wq43" transform="translate(.09)">
        <path id="prefix__Path_2788" d="M857.752 638.49l-20.858-36.128a.664.664 0 0 0-1.152 0l-20.859 36.128a.664.664 0 0 0 .575 1.005h6.222a.668.668 0 0 1 .666.666v7.712a.666.666 0 0 0 .664.666h8.11a.666.666 0 0 0 .666-.666v-3.728a.664.664 0 0 1 .664-.664h7.72a.666.666 0 0 1 .666.664v3.728a.666.666 0 0 0 .666.666h8.12a.666.666 0 0 0 .666-.666v-7.72a.666.666 0 0 1 .666-.666h6.222a.666.666 0 0 0 .577-1zm-29.081 4a.664.664 0 0 1-.471.2h-2.928a.666.666 0 1 1 0-1.331h2.928a.666.666 0 0 1 .471 1.136zm19.161 0a.664.664 0 0 1-.471.2h-2.926a.666.666 0 0 1 0-1.331h2.926a.666.666 0 0 1 .471 1.136z" class="prefix__cls-1" data-name="Path 2788" transform="translate(-662.903 -488.855)"/>
        <path id="prefix__Path_2789" d="M228.328 640.078l-20.859-36.128a.666.666 0 0 0-1.152 0L188.3 635.155a55.036 55.036 0 0 0 7.547 7.785h2.928a.666.666 0 0 1 0 1.331h-1.239a32.231 32.231 0 0 0 4.826 3v-1.538a.666.666 0 0 1 .666-.666h7.734a.666.666 0 0 1 .664.666v3.724a.648.648 0 0 0 .062.28.666.666 0 0 0 .6.386h8.119a.652.652 0 0 0 .529-.267.64.64 0 0 0 .135-.4v-7.712a.666.666 0 0 1 .666-.666h6.222a.666.666 0 0 0 .565-1zm-13.788 3.057a.664.664 0 0 1 .471-.2h2.928a.666.666 0 0 1 0 1.331h-2.929a.666.666 0 0 1-.471-1.136zm-13.1-13.369a.666.666 0 0 1-.666-.666v-5.056a.666.666 0 0 1 .666-.666h10.91a.666.666 0 0 1 .664.666v5.056a.666.666 0 0 1-.664.666z" class="prefix__cls-1" data-name="Path 2789" transform="translate(-169.249 -490.125)"/>
        <path id="prefix__Path_2790" d="M474.35 407.755h-25.806v-5.583a1.335 1.335 0 0 0-1.335-1.335h-7.586v-5.947a.841.841 0 0 0-.841-.841h-9.764a.841.841 0 0 0-.841.841v5.947h-8.911a1.335 1.335 0 0 0-1.335 1.335v5.583h-24.612a.271.271 0 0 0-.269.271v74.11a.272.272 0 0 0 .269.271h16.358a.271.271 0 0 0 .271-.271v-9.971a.274.274 0 0 1 .271-.271h6.91a.274.274 0 0 1 .271.271v9.971a.272.272 0 0 0 .269.271H450a.274.274 0 0 0 .271-.271v-9.971a.271.271 0 0 1 .269-.271h6.91a.271.271 0 0 1 .271.271v9.971a.274.274 0 0 0 .271.271h16.358a.274.274 0 0 0 .271-.271v-74.11a.274.274 0 0 0-.271-.271zm-67.329 60.677a.269.269 0 0 1-.269.27h-10.1a.269.269 0 0 1-.271-.27v-3.451a.271.271 0 0 1 .272-.271h10.1a.271.271 0 0 1 .269.271zm0-8.917a.269.269 0 0 1-.269.271h-10.1a.27.27 0 0 1-.272-.271v-3.449a.27.27 0 0 1 .271-.271h10.1a.269.269 0 0 1 .269.271zm0-8.915a.271.271 0 0 1-.269.271h-10.1a.271.271 0 0 1-.272-.271v-3.451a.271.271 0 0 1 .272-.271h10.1a.271.271 0 0 1 .269.271zm0-8.917a.269.269 0 0 1-.269.271h-10.1a.27.27 0 0 1-.272-.271v-3.449a.27.27 0 0 1 .271-.271h10.1a.269.269 0 0 1 .269.271zm0-8.915a.271.271 0 0 1-.269.271h-10.1a.271.271 0 0 1-.272-.271v-3.451a.27.27 0 0 1 .271-.27h10.1a.269.269 0 0 1 .269.27zm0-8.915a.269.269 0 0 1-.269.269h-10.1a.269.269 0 0 1-.272-.27V420.4a.271.271 0 0 1 .272-.271h10.1a.271.271 0 0 1 .269.271zm0-8.917a.269.269 0 0 1-.269.271h-10.1a.27.27 0 0 1-.272-.272v-3.449a.27.27 0 0 1 .271-.271h10.1a.269.269 0 0 1 .269.271zm23.953 53.493a.27.27 0 0 1-.271.269h-10.112a.271.271 0 0 1-.271-.269v-3.449a.274.274 0 0 1 .271-.271h10.1a.271.271 0 0 1 .271.271zm0-8.917a.269.269 0 0 1-.271.271h-10.112a.271.271 0 0 1-.271-.271v-3.447a.271.271 0 0 1 .271-.271h10.1a.27.27 0 0 1 .271.271zm0-8.915a.271.271 0 0 1-.271.271h-10.112a.274.274 0 0 1-.271-.271v-3.449a.274.274 0 0 1 .271-.271h10.1a.271.271 0 0 1 .271.271zm0-8.917a.269.269 0 0 1-.271.271h-10.112a.271.271 0 0 1-.271-.271v-3.447a.271.271 0 0 1 .271-.271h10.1a.27.27 0 0 1 .271.271zm0-8.915a.271.271 0 0 1-.271.271h-10.112a.273.273 0 0 1-.271-.271v-3.449a.271.271 0 0 1 .271-.27h10.1a.27.27 0 0 1 .271.27zm0-8.915a.27.27 0 0 1-.271.27h-10.112a.272.272 0 0 1-.271-.27v-3.45a.273.273 0 0 1 .271-.271h10.1a.271.271 0 0 1 .271.271zm0-8.917a.269.269 0 0 1-.271.271h-10.112a.271.271 0 0 1-.271-.271v-3.447a.271.271 0 0 1 .271-.271h10.1a.27.27 0 0 1 .271.271zm16.368 53.493a.27.27 0 0 1-.271.27h-10.1a.271.271 0 0 1-.272-.27v-3.447a.273.273 0 0 1 .271-.271h10.1a.272.272 0 0 1 .271.271zm0-8.917a.269.269 0 0 1-.271.271h-10.1a.271.271 0 0 1-.271-.271v-3.445a.271.271 0 0 1 .271-.271h10.1a.27.27 0 0 1 .271.271zm0-8.915a.271.271 0 0 1-.271.271h-10.1a.274.274 0 0 1-.272-.271v-3.447a.273.273 0 0 1 .271-.271h10.1a.272.272 0 0 1 .271.271zm0-8.917a.269.269 0 0 1-.271.271h-10.1a.271.271 0 0 1-.271-.271v-3.445a.271.271 0 0 1 .271-.271h10.1a.27.27 0 0 1 .271.271zm0-8.915a.272.272 0 0 1-.271.271h-10.1a.274.274 0 0 1-.272-.271v-3.447a.271.271 0 0 1 .271-.27h10.1a.27.27 0 0 1 .271.27zm0-8.915a.269.269 0 0 1-.271.269h-10.1a.272.272 0 0 1-.272-.27V420.4a.273.273 0 0 1 .271-.271h10.1a.271.271 0 0 1 .271.271zm0-8.917a.269.269 0 0 1-.271.271h-10.1a.271.271 0 0 1-.271-.271v-3.445a.271.271 0 0 1 .271-.271h10.1a.27.27 0 0 1 .271.271zm23.958 53.496a.272.272 0 0 1-.271.27h-10.1a.269.269 0 0 1-.271-.27v-3.445a.271.271 0 0 1 .271-.271h10.1a.274.274 0 0 1 .271.272zm0-8.917a.272.272 0 0 1-.271.271h-10.1a.27.27 0 0 1-.271-.271v-3.443a.27.27 0 0 1 .271-.271h10.1a.271.271 0 0 1 .271.271zm0-8.915a.274.274 0 0 1-.271.271h-10.1a.271.271 0 0 1-.271-.271v-3.445a.272.272 0 0 1 .271-.271h10.1a.274.274 0 0 1 .271.271zm0-8.917a.271.271 0 0 1-.271.271h-10.1a.27.27 0 0 1-.271-.271v-3.443a.27.27 0 0 1 .271-.271h10.1a.271.271 0 0 1 .271.271zm0-8.915a.274.274 0 0 1-.271.271h-10.1a.271.271 0 0 1-.271-.271v-3.445a.269.269 0 0 1 .271-.27h10.1a.272.272 0 0 1 .271.269zm0-8.915a.272.272 0 0 1-.271.269h-10.1a.269.269 0 0 1-.271-.269V420.4a.271.271 0 0 1 .271-.271h10.1a.273.273 0 0 1 .271.271zm0-8.917a.272.272 0 0 1-.271.272h-10.1a.27.27 0 0 1-.271-.272v-3.443a.27.27 0 0 1 .271-.271h10.1a.271.271 0 0 1 .271.271z" class="prefix__cls-1" data-name="Path 2790" transform="translate(-329.446 -322.702)"/>
        <g id="prefix__Group_1323" class="prefix__cls-2" data-name="Group 1323" transform="translate(-.09 61.691)">
            <path id="prefix__Path_2791" d="M158.414 673.786a4.917 4.917 0 0 1-.65 2.49 5.1 5.1 0 0 1 0 4.979 4.575 4.575 0 0 1 .491 1.207 91.323 91.323 0 0 1-6.051-9.05 4.826 4.826 0 0 1 .635-2.124 4.917 4.917 0 0 1-.65-2.474 5.119 5.119 0 0 1 .294-1.731 4.3 4.3 0 0 1 .356-.758 2.706 2.706 0 0 1 4.925 0 4.48 4.48 0 0 1 .348.734 5.154 5.154 0 0 1 .3 1.756 5.081 5.081 0 0 0 0 4.971z" class="prefix__cls-3" data-name="Path 2791" transform="translate(-140.31 -600.646)"/>
            <ellipse id="prefix__Ellipse_204" cx="3.111" cy="4.074" class="prefix__cls-3" data-name="Ellipse 204" rx="3.111" ry="4.074" transform="translate(11.879 59.106)"/>
            <ellipse id="prefix__Ellipse_205" cx="3.111" cy="4.074" class="prefix__cls-3" data-name="Ellipse 205" rx="3.111" ry="4.074" transform="translate(11.879 54.127)"/>
            <path id="prefix__Path_2792" d="M122.951 379.372a14.837 14.837 0 0 1-3.192 9.217 14.908 14.908 0 0 1-8.849 23.845c-.358.072-.722.129-1.09.173a15.061 15.061 0 0 1-3.419.018q-.567-.06-1.12-.167a14.741 14.741 0 0 1-4.625-1.691 148.522 148.522 0 0 1-7.02-16.858 14.839 14.839 0 0 1 2.673-5.319 14.92 14.92 0 0 1-2.4-14l11.318 3.8-10.617-5.516a14.967 14.967 0 0 1 1.717-2.719 14.908 14.908 0 1 1 24.621-16.682l-10.942 8.044 11.865-6.154a14.926 14.926 0 0 1-.286 11.811l-8.849-.066 8.177 1.343a14.968 14.968 0 0 1-1.16 1.705 14.841 14.841 0 0 1 3.198 9.216z" class="prefix__cls-4" data-name="Path 2792" transform="translate(-93.12 -346.029)"/>
            <path id="prefix__Path_2793" d="M122.991 529.391a14.911 14.911 0 0 1-12.028 14.628c-.36.073-.724.129-1.092.173a15.061 15.061 0 0 1-3.419.018q-.567-.06-1.12-.167a14.741 14.741 0 0 1-4.625-1.691 148.518 148.518 0 0 1-7.021-16.858 14.839 14.839 0 0 1 2.673-5.319 14.848 14.848 0 0 1-3.189-9.217c0-1.673 28.621 6.681 26.622 9.217a14.837 14.837 0 0 1 3.2 9.216z" class="prefix__cls-5" data-name="Path 2793" transform="translate(-93.16 -477.614)"/>
        </g>
        <g id="prefix__Group_1324" class="prefix__cls-2" data-name="Group 1324" transform="translate(190.361 77.693)">
            <path id="prefix__Path_2794" d="M1067.3 690.44c-.583 1.862-1.207 3.71-1.846 5.516a5.166 5.166 0 0 1-.266-1.651 4.145 4.145 0 0 1 2.112-3.865z" class="prefix__cls-3" data-name="Path 2794" transform="translate(-1053.309 -637.18)"/>
            <path id="prefix__Path_2795" d="M1026.358 446.77a86.557 86.557 0 0 1-2.011 15.485 170.271 170.271 0 0 1-4.253 16.605c-.583 1.862-1.207 3.71-1.846 5.516-.734 2.049-1.508 4.044-2.319 5.953a14.962 14.962 0 0 1-6.618-23.28 14.982 14.982 0 0 1-2.413-14.031l11.318 3.807-10.616-5.525a15.015 15.015 0 0 1 1.7-2.725 14.96 14.96 0 0 1 5.856-22.974 25.65 25.65 0 0 1 9.8 12.857l-1.981 1.458 2.1-1.092a25.54 25.54 0 0 1 1.225 6.7h-.591l.6.1c.041.368.049.77.049 1.146z" class="prefix__cls-4" data-name="Path 2795" transform="translate(-1006.112 -425.6)"/>
            <path id="prefix__Path_2796" d="M1024.436 589.339a170.255 170.255 0 0 1-4.253 16.605c-.583 1.862-1.207 3.71-1.846 5.516-.734 2.049-1.508 4.044-2.319 5.953a14.962 14.962 0 0 1-6.618-23.28 14.906 14.906 0 0 1-3.19-9.239c0-1.011 10.401 1.632 18.226 4.445z" class="prefix__cls-5" data-name="Path 2796" transform="translate(-1006.19 -552.684)"/>
        </g>
        <path id="prefix__Path_2797" d="M347.532 157.552a5.812 5.812 0 0 0-3.366.368 4.969 4.969 0 0 1-4.05 0 5.683 5.683 0 0 0-4.762.092 2.944 2.944 0 0 1-1.372.344c-1.931 0-3.537-1.945-3.871-4.511a3.736 3.736 0 0 0 .965-1.042 5.423 5.423 0 0 1 9.681-.032 3.726 3.726 0 0 0 3.208 1.752h.05c1.538.001 2.869 1.234 3.517 3.029z" class="prefix__cls-1" data-name="Path 2797" transform="translate(-280.791 -132.779)"/>
        <path id="prefix__Path_2798" d="M353.352 121.026l-3.121 1.981 1.892-3.441a3.1 3.1 0 0 0-1.888-.674h-.05a3.651 3.651 0 0 1-.648-.046l-1.058.67.454-.825a3.757 3.757 0 0 1-1.85-1.408l-1.894 1.207 1.2-2.174a5.544 5.544 0 0 0-4.241-2.146 5.816 5.816 0 0 0-4.855 3 3.62 3.62 0 0 1-3.218 1.729h-.107c-2.174 0-3.936 2.466-3.936 5.5s1.762 5.5 3.936 5.5a2.96 2.96 0 0 0 1.372-.342 5.675 5.675 0 0 1 4.762-.095 4.969 4.969 0 0 0 4.05.01 5.689 5.689 0 0 1 4.722.09 2.946 2.946 0 0 0 1.355.336c2.174 0 3.936-2.464 3.936-5.5a6.99 6.99 0 0 0-.813-3.372z" class="prefix__cls-1" data-name="Path 2798" transform="translate(-280.662 -104.306)"/>
        <path id="prefix__Path_2799" d="M813.279 330.26a4.068 4.068 0 0 0-2.361.257 3.473 3.473 0 0 1-2.836 0 3.982 3.982 0 0 0-3.334.064 2.07 2.07 0 0 1-.959.241c-1.351 0-2.476-1.363-2.709-3.159a2.6 2.6 0 0 0 .676-.728 3.8 3.8 0 0 1 6.781-.024 2.614 2.614 0 0 0 2.244 1.235h.036a2.816 2.816 0 0 1 2.462 2.114z" class="prefix__cls-1" data-name="Path 2799" transform="translate(-653.711 -270.785)"/>
        <path id="prefix__Path_2800" d="M817.388 304.666l-2.184 1.386 1.325-2.413a2.15 2.15 0 0 0-1.321-.473h-.034a2.253 2.253 0 0 1-.453-.034l-.742.471.318-.577a2.64 2.64 0 0 1-1.3-.983l-1.325.841.837-1.522a3.881 3.881 0 0 0-2.968-1.5 4.059 4.059 0 0 0-3.4 2.1 2.544 2.544 0 0 1-2.246 1.207h-.074c-1.52 0-2.755 1.725-2.755 3.853s1.235 3.853 2.755 3.853a2.046 2.046 0 0 0 .959-.241 3.982 3.982 0 0 1 3.334-.064 3.519 3.519 0 0 0 1.426.306 3.477 3.477 0 0 0 1.408-.3 3.98 3.98 0 0 1 3.3.064 2.06 2.06 0 0 0 .949.235c1.522 0 2.755-1.725 2.755-3.853a4.9 4.9 0 0 0-.564-2.356z" class="prefix__cls-1" data-name="Path 2800" transform="translate(-653.576 -250.946)"/>
        <path id="prefix__Path_2801" d="M284.41 285.26a4.071 4.071 0 0 1 2.361.257 3.467 3.467 0 0 0 2.834 0 3.982 3.982 0 0 1 3.334.064 2.076 2.076 0 0 0 .959.241c1.351 0 2.478-1.363 2.711-3.159a2.572 2.572 0 0 1-.676-.728 3.8 3.8 0 0 0-6.781-.024 2.614 2.614 0 0 1-2.246 1.235h-.034a2.814 2.814 0 0 0-2.462 2.114z" class="prefix__cls-1" data-name="Path 2801" transform="translate(-244.657 -235.151)"/>
        <path id="prefix__Path_2802" d="M261.691 259.666l2.186 1.386-1.327-2.413a2.154 2.154 0 0 1 1.321-.473h.046a2.264 2.264 0 0 0 .452-.034l.74.471-.318-.577a2.644 2.644 0 0 0 1.3-.983l1.325.841-.839-1.522a3.885 3.885 0 0 1 2.97-1.5 4.072 4.072 0 0 1 3.4 2.1 2.542 2.542 0 0 0 2.246 1.207h.072c1.522 0 2.755 1.725 2.755 3.853s-1.233 3.853-2.755 3.853a2.057 2.057 0 0 1-.959-.241 3.982 3.982 0 0 0-3.334-.064 3.509 3.509 0 0 1-1.424.306 3.463 3.463 0 0 1-1.408-.3 3.984 3.984 0 0 0-3.306.064 2.054 2.054 0 0 1-.949.235c-1.52 0-2.755-1.725-2.755-3.853a4.9 4.9 0 0 1 .561-2.356z" class="prefix__cls-1" data-name="Path 2802" transform="translate(-226.194 -215.323)"/>
        <path id="prefix__Path_2803" d="M340.614 362.96l44.128 21.317a10.981 10.981 0 0 0 8.4 0l44.128-21.317c2.323-1.122 2.323-2.948 0-4.068l-44.13-21.317a10.98 10.98 0 0 0-8.4 0l-44.128 21.317c-2.312 1.12-2.312 2.946.002 4.068z" class="prefix__cls-6" data-name="Path 2803" transform="translate(-286.283 -279.448)"/>
        <path id="prefix__Path_2804" d="M437.028 556.654s-8.058-3.885-9.128-4.408a2.157 2.157 0 0 0-2.478.026c-1.122.521-32.548 15.71-32.548 15.71a10.98 10.98 0 0 1-8.4 0s-30.594-14.761-32.028-15.465c-1.565-.756-2.011-.756-3.419-.078l-8.71 4.2c-2.323 1.122-2.323 2.946 0 4.068l44.128 21.317a10.98 10.98 0 0 0 8.4 0l44.128-21.317c2.375-1.1 2.375-2.92.052-4.042z" class="prefix__cls-6" data-name="Path 2804" transform="translate(-286.046 -449.871)"/>
        <path id="prefix__Path_2805" d="M437.132 685.434s-8.058-3.885-9.128-4.408a2.157 2.157 0 0 0-2.478.026C424.4 681.573 393 696.778 393 696.778a10.956 10.956 0 0 1-8.4 0s-30.594-14.761-32.028-15.465c-1.565-.756-2.011-.756-3.419-.078l-8.71 4.2c-2.323 1.122-2.323 2.948 0 4.068l44.128 21.317a9.752 9.752 0 0 0 4.2.835 10.152 10.152 0 0 0 4.2-.835l44.13-21.317c2.354-1.121 2.354-2.947.031-4.069z" class="prefix__cls-6" data-name="Path 2805" transform="translate(-286.148 -551.664)"/>
        <ellipse id="prefix__Ellipse_206" cx="9.581" cy="13.307" class="prefix__cls-6" data-name="Ellipse 206" rx="9.581" ry="13.307" transform="translate(65.372 30.474)"/>
        <path id="prefix__Rectangle_486" d="M0 0H8.517V8.517H0z" class="prefix__cls-4" data-name="Rectangle 486" transform="translate(74.06 66.707)"/>
        <path id="prefix__Path_2806" d="M414.217 576.01l2.8 3.934a5.1 5.1 0 0 1 2.021-4.074 24.9 24.9 0 0 0-3.96-3.175.318.318 0 0 0-.229-.076.332.332 0 0 0-.171.127 5.41 5.41 0 0 0-1.124 1.776c-.174.585.321 1.021.663 1.488z" class="prefix__cls-7" data-name="Path 2806" transform="translate(-346.95 -466.959)"/>
        <path id="prefix__Path_2807" d="M430.411 586.82a2.483 2.483 0 0 1 1.207.416 6.188 6.188 0 0 1 1.39.911 2.108 2.108 0 0 1 .712 1.458 3.679 3.679 0 0 1-.346 1.291 11.161 11.161 0 0 0-.519 6.114 4.089 4.089 0 0 1 .117 2.011 3.281 3.281 0 0 1-1.15 1.426 5.355 5.355 0 0 1-2.576 1.378 2.077 2.077 0 0 1-2.329-1.355 3.752 3.752 0 0 1 .215-1.711 16.548 16.548 0 0 0 .318-4.137 5.708 5.708 0 0 0-.1-1.257c-.066-.29-.179-.567-.273-.851a3.536 3.536 0 0 1-.077-2.364 4.709 4.709 0 0 1 .654-1.074c.679-.915 1.417-2.262 2.757-2.256z" class="prefix__cls-8" data-name="Path 2807" transform="translate(-357.473 -478.002)"/>
        <path id="prefix__Path_2808" d="M427.4 282.089a2.149 2.149 0 0 1-1.12 2.391l-1.193.863c-.06.042-.127.1-.133.169a.254.254 0 0 0 .129.2 3.956 3.956 0 0 0 1.655.754 7.842 7.842 0 0 0 1.285.109 22.781 22.781 0 0 0 6.669-.471 3.42 3.42 0 0 0 1.1-.469 1.408 1.408 0 0 0 .619-.987 3.057 3.057 0 0 1-1.492-.666 2.331 2.331 0 0 1-1.064-1.17c-.09-.324-.038-.674-.113-1.006a2.02 2.02 0 0 0-1.05-1.207 16.708 16.708 0 0 0-4.038-1.108c-.483-.131-1.345-.71-1.378.072-.035.837.079 1.698.124 2.526z" class="prefix__cls-7" data-name="Path 2808" transform="translate(-355.934 -234.6)"/>
        <path id="prefix__Path_2809" d="M427.4 282.089a2.149 2.149 0 0 1-1.12 2.391l-1.193.863c-.06.042-.127.1-.133.169a.254.254 0 0 0 .129.2 3.956 3.956 0 0 0 1.655.754 7.842 7.842 0 0 0 1.285.109 22.781 22.781 0 0 0 6.669-.471 3.42 3.42 0 0 0 1.1-.469 1.408 1.408 0 0 0 .619-.987 3.057 3.057 0 0 1-1.492-.666 2.331 2.331 0 0 1-1.064-1.17c-.09-.324-.038-.674-.113-1.006a2.02 2.02 0 0 0-1.05-1.207 16.708 16.708 0 0 0-4.038-1.108c-.483-.131-1.345-.71-1.378.072-.035.837.079 1.698.124 2.526z" class="prefix__cls-5" data-name="Path 2809" transform="translate(-355.934 -234.6)"/>
        <path id="prefix__Path_2810" d="M362.476 358.337a7.444 7.444 0 0 0-5.14 1.04 42.184 42.184 0 0 1-4.7 2.57c-1.341.509-2.836.734-3.964 1.621a6.468 6.468 0 0 0-1.961 3.258 5.18 5.18 0 0 0-.277 2.152 5.831 5.831 0 0 0 .529 1.609 71.154 71.154 0 0 0 4.109 7.441 79.743 79.743 0 0 0 8.708 12.49c1.09-.748.983-2.55 2.063-3.31a5.84 5.84 0 0 0 .831-.541c.511-.529.312-1.394.07-2.087a104.477 104.477 0 0 0-5.311-12.605c2.938.02 5.4-2.276 8.3-2.791a15.268 15.268 0 0 1 2.425-.161 82.291 82.291 0 0 0 8.559-.6 5.192 5.192 0 0 0 2.9-1 5.339 5.339 0 0 0 1.333-2.894c.511-2.19 1.792-4.113 2.58-6.218.2-.543.4-1.088.65-1.609.217-.446.475-.873.7-1.313a18.945 18.945 0 0 0 1.486-4.493c.422-1.85.8-3.741 1.195-5.6.261-1.279.77-2.667.163-3.821a3.451 3.451 0 0 0-1.665-1.408 4.089 4.089 0 0 0-2.3-.418c-1.536.243-2.572 1.651-3.435 2.942l-1.347 2.029a14.339 14.339 0 0 0-.889 1.454 28.888 28.888 0 0 0-1.17 3.127 12.11 12.11 0 0 1-5.691 6.671c-.712.356-1.464.623-2.18.967-.561.27-1.1.585-1.667.843a7.457 7.457 0 0 1-4.904.655z" data-name="Path 2810" transform="translate(-293.415 -281.651)" style="fill:#00c4d8"/>
        <circle id="prefix__Ellipse_207" cx="5.323" cy="5.323" r="5.323" class="prefix__cls-7" data-name="Ellipse 207" transform="translate(70.781 36.96)"/>
        <path id="prefix__Path_2811" d="M407.215 299.07a5.5 5.5 0 0 1-.887 1.719 4.32 4.32 0 0 1-3.149 1.235 9.309 9.309 0 0 1-3.781-.642 3.519 3.519 0 0 0-1.589-.4c-.794.07-1.384.738-2.083 1.122a10.453 10.453 0 0 1-1.1.475 6.126 6.126 0 0 0-3.529 4.452c-.4 2.268 1.424 4.424 2.53 6.447a13.285 13.285 0 0 1 1.319 2.723 8.367 8.367 0 0 1-.557 4.979 18.613 18.613 0 0 0-1.408 4.873c-.036.5.137 1.166.635 1.16a1.1 1.1 0 0 0 .509-.2 4.525 4.525 0 0 1 2.94-.541c.706.115 1.378.4 2.083.5a8.524 8.524 0 0 0 4.084-.768 8.279 8.279 0 0 0 3.449-1.949c.67-.744 1.054-1.715 1.742-2.443.9-.955 2.27-1.424 3.027-2.5a8.56 8.56 0 0 0 .883-2.136 3.2 3.2 0 0 1 1.323-1.84 3.855 3.855 0 0 1-.726-2.049 5.344 5.344 0 0 1 .654-1.79c.171-.384.306-.784.44-1.182l.434-1.293c.117-.352.235-.7.324-1.062.151-.6.213-1.247.39-1.852a11.372 11.372 0 0 1 2.657-4.042 17.058 17.058 0 0 0-2.858-.825 4.3 4.3 0 0 1-.957-.249c-.352-.155-.65-.4-.989-.587a5.516 5.516 0 0 0-1.731-.44 24.537 24.537 0 0 1-4.076-.893z" class="prefix__cls-4" data-name="Path 2811" transform="translate(-328.899 -250.091)"/>
        <path id="prefix__Path_2812" d="M382.05 384.406a5.189 5.189 0 0 0 .046 1.408 5.509 5.509 0 0 0 .577 1.367c1.106 2.114 2.011 4.326 2.922 6.534a8.787 8.787 0 0 1 .585 1.766c.084.458.095.929.155 1.392a4.425 4.425 0 0 0 .36 1.319c.213.454 1.367 2.882 1.81 3.119a2.28 2.28 0 0 0 2.834-.859c.605-.9-.2-4.094-.479-5.138a12.9 12.9 0 0 0-1.384-2.928 53.792 53.792 0 0 1-2.52-5.084 8.513 8.513 0 0 1-.953-4.684 14.97 14.97 0 0 1 .877-2.582 4.278 4.278 0 0 0 .257-2.673 1.263 1.263 0 0 0-.2-.424 1.351 1.351 0 0 0-.563-.364c-.941-.38-2.866-.7-3.272.569-.167.525-.2 1.1-.342 1.635a19.63 19.63 0 0 0-.471 2.6c-.122 1-.181 2.013-.239 3.027z" class="prefix__cls-7" data-name="Path 2812" transform="translate(-321.967 -311.16)"/>
        <path id="prefix__Path_2813" d="M465.4 435.362q-1.78 2.1-3.463 4.281l2.9 2.146a6.121 6.121 0 0 1 .422-1.106 6.2 6.2 0 0 1 .69-.975l2.942-3.646a5.211 5.211 0 0 0-2.283-.772c-.38.056-.817.016-1.208.072z" class="prefix__cls-7" data-name="Path 2813" transform="translate(-385.28 -358.238)"/>
        <path id="prefix__Path_2814" d="M522.8 318.79c.768.175 1.536.35 2.295.563a8.733 8.733 0 0 1 4.257 2.311c.241.27.461.68.247.973a1.365 1.365 0 0 1-.253.225 2.972 2.972 0 0 0-.644.947 7.418 7.418 0 0 1-1.345 1.782 5.862 5.862 0 0 0-1.486-1.172l-1.207-.754a4.645 4.645 0 0 0-1.709-.774 9.6 9.6 0 0 0-2.162.169 4.581 4.581 0 0 1-2.636-.6.631.631 0 0 1-.249-.215.623.623 0 0 1-.066-.233 3.165 3.165 0 0 1 .722-2.309c.372-.473 1.207-1.357 1.848-1.44a3.736 3.736 0 0 1 1.076.237z" class="prefix__cls-7" data-name="Path 2814" transform="translate(-429.462 -265.554)"/>
        <path id="prefix__Path_2815" d="M488.7 345.63a5.143 5.143 0 0 0-.631.294 9.223 9.223 0 0 0-5.583 5.412l-2.626 5.587-.551 1.172-.845 1.774-2.148 4.569a3.755 3.755 0 0 1 2.285.217 2.011 2.011 0 0 1 1.182 1.852c.623-.054.955-.732 1.394-1.178a8.725 8.725 0 0 1 1.243-.9A9.825 9.825 0 0 0 483.9 363a43.237 43.237 0 0 1 4.458-4.3 10.027 10.027 0 0 0 .885-.792 7.3 7.3 0 0 0 1.347-2.266 19.734 19.734 0 0 0 1.323-4.927 5.713 5.713 0 0 0-.235-3.065 3.419 3.419 0 0 0-3.771-1.89" data-name="Path 2815" transform="translate(-396.544 -287.029)" style="fill:#01e7c0"/>
        <path id="prefix__Path_2816" d="M487.7 346.63a5.145 5.145 0 0 0-.631.294 9.223 9.223 0 0 0-5.583 5.412l-2.626 5.587-.551 1.172-.845 1.774-2.148 4.569a3.755 3.755 0 0 1 2.285.217 2.011 2.011 0 0 1 1.182 1.852c.623-.054.955-.732 1.394-1.178a8.73 8.73 0 0 1 1.243-.9A9.824 9.824 0 0 0 482.9 364a43.24 43.24 0 0 1 4.458-4.3 10.022 10.022 0 0 0 .885-.792 7.3 7.3 0 0 0 1.347-2.266 19.735 19.735 0 0 0 1.323-4.927 5.713 5.713 0 0 0-.235-3.065 3.419 3.419 0 0 0-3.771-1.89" class="prefix__cls-5" data-name="Path 2816" transform="translate(-395.752 -287.82)"/>
        <path id="prefix__Path_2817" d="M448.47 452.357l-2.2-.241a.346.346 0 0 0-.181.014.322.322 0 0 0-.127.155q-1.062 2-1.983 4.07a2.694 2.694 0 0 0-.229 2.413c.129.213.316.39.436.6a2.049 2.049 0 0 1-.048 1.661.871.871 0 0 0-.084.489c.054.225.282.36.491.463a17.252 17.252 0 0 0 5.5 1.641.569.569 0 0 0 .428-.062.575.575 0 0 0 .165-.3 5.264 5.264 0 0 0 .179-.656 6.2 6.2 0 0 0-.247-2.389 7.919 7.919 0 0 1-.032-3.879 5.2 5.2 0 0 1 .7-1.472c.35-.511-.847-.991-1.164-1.349-.54-.607-.705-1.059-1.604-1.158z" class="prefix__cls-8" data-name="Path 2817" transform="translate(-370.7 -371.461)"/>
        <path id="prefix__Path_2818" d="M384.778 341.915L384.11 346a3.182 3.182 0 0 1 2.168-.644 2.9 2.9 0 0 1 2.212.638c.219.237.358.537.571.78a.835.835 0 0 0 .849.322.734.734 0 0 0 .43-.509 2.213 2.213 0 0 0 .04-.69l-.219-4.509a10.1 10.1 0 0 0-.511-3.218 5.027 5.027 0 0 0-.939-1.518 1.645 1.645 0 0 0-.4-.348 1.684 1.684 0 0 0-.533-.159 3.215 3.215 0 0 0-1.86.064c-.4.239-.44.8-.487 1.223-.171 1.507-.408 2.997-.653 4.483z" class="prefix__cls-4" data-name="Path 2818" transform="translate(-323.653 -279.587)"/>
        <ellipse id="prefix__Ellipse_208" cx="7.453" cy="3.194" class="prefix__cls-6" data-name="Ellipse 208" rx="7.453" ry="3.194" transform="translate(68.628 35.822)"/>
        <circle id="prefix__Ellipse_209" cx="4.257" cy="4.257" r="4.257" class="prefix__cls-6" data-name="Ellipse 209" transform="translate(61.939 30.327)"/>
        <circle id="prefix__Ellipse_210" cx="4.257" cy="4.257" r="4.257" class="prefix__cls-6" data-name="Ellipse 210" transform="translate(77.367 29.226)"/>
        <path id="prefix__Path_2819" d="M474.1 207.511a4.259 4.259 0 0 1 .939 5.554 4.49 4.49 0 0 0 .362-.392 4.259 4.259 0 1 0-6.621-5.36 4.513 4.513 0 0 0-.307.437 4.257 4.257 0 0 1 5.627-.239z" class="prefix__cls-5" data-name="Path 2819" transform="translate(-390.439 -176.459)"/>
        <path id="prefix__Path_2820" d="M394.826 211.9a4.259 4.259 0 0 1 5.349 1.76 4.41 4.41 0 0 0-.177-.5 4.259 4.259 0 1 0-7.828 3.359 3.889 3.889 0 0 0 .242.474 4.257 4.257 0 0 1 2.414-5.093z" class="prefix__cls-5" data-name="Path 2820" transform="translate(-329.741 -180.298)"/>
        <path id="prefix__Path_2821" d="M430.333 253.111c-3.692 0-6.755-1.15-7.348-2.661a1.479 1.479 0 0 0-.1.533c0 1.764 3.336 3.194 7.453 3.194s7.453-1.43 7.453-3.194a1.438 1.438 0 0 0-.1-.533c-.603 1.518-3.666 2.661-7.358 2.661z" class="prefix__cls-5" data-name="Path 2821" transform="translate(-354.252 -211.897)"/>
        <path id="prefix__Path_2822" d="M843.55 198a4.39 4.39 0 0 0-1.762 8.412 3.87 3.87 0 0 1 .076-1.006l.565-2.393a1.676 1.676 0 0 1-.141-.694c0-.652.376-1.136.847-1.136a.585.585 0 0 1 .591.658 9.462 9.462 0 0 1-.388 1.559.678.678 0 0 0 .694.845c.831 0 1.392-1.068 1.392-2.335a1.644 1.644 0 0 0-1.826-1.681 2.079 2.079 0 0 0-2.162 2.1 1.267 1.267 0 0 0 .29.861.2.2 0 0 1 .062.243c-.022.08-.068.275-.091.354a.149.149 0 0 1-.219.109 1.689 1.689 0 0 1-.9-1.677 2.9 2.9 0 0 1 3.137-2.741 2.62 2.62 0 0 1 2.779 2.514c0 1.723-.959 3.017-2.369 3.017a1.261 1.261 0 0 1-1.072-.547s-.255 1.006-.31 1.207a3.621 3.621 0 0 1-.442.941 4.39 4.39 0 1 0 1.249-8.61z" data-name="Path 2822" transform="translate(-683.953 -170.326)" style="fill:#be000f"/>
        <path id="prefix__Path_2823" d="M765.2 86.009a3.859 3.859 0 0 1-1.088.3 1.925 1.925 0 0 0 .835-1.052 3.793 3.793 0 0 1-1.207.461 1.9 1.9 0 0 0-3.282 1.3 1.944 1.944 0 0 0 .048.434 5.38 5.38 0 0 1-3.911-1.985 1.9 1.9 0 0 0 .588 2.533 1.836 1.836 0 0 1-.863-.235v.022a1.9 1.9 0 0 0 1.522 1.862 1.951 1.951 0 0 1-.5.066 1.913 1.913 0 0 1-.358-.034A1.9 1.9 0 0 0 758.759 91a3.8 3.8 0 0 1-2.357.8 3.745 3.745 0 0 1-.452-.028 5.3 5.3 0 0 0 2.9.859 5.367 5.367 0 0 0 5.4-5.406v-.243a3.864 3.864 0 0 0 .939-.975z" data-name="Path 2823" transform="translate(-618.054 -81.096)" style="fill:#55acee"/>
        <path id="prefix__Path_2824" d="M456.421 65.12h-6.695a.416.416 0 0 0-.416.416v6.693a.416.416 0 0 0 .416.416h3.342v-2.978h-.9v-1.1h.9v-.8a1.43 1.43 0 0 1 1.542-1.5c.416 0 .863.032.965.046v1.006h-.692c-.471 0-.561.225-.561.553v.7h1.124l-.147 1.1h-.977v2.978h2.093a.416.416 0 0 0 .414-.416v-6.698a.416.416 0 0 0-.41-.416z" data-name="Path 2824" transform="translate(-375.271 -65.12)" style="fill:#3b5998"/>
        <path id="prefix__Path_2825" d="M568.3 150.7l-.03-.137h-3.069v1.267h1.776a1.591 1.591 0 0 1-1.647 1.247 1.88 1.88 0 0 1-1.339-.5 1.977 1.977 0 0 1-.024-2.743 1.842 1.842 0 0 1 1.345-.5 1.7 1.7 0 0 1 1.138.414l.941-.935a3.181 3.181 0 0 0-2.11-.8 3.149 3.149 0 0 0-3.218 3.194 3.218 3.218 0 0 0 .873 2.212 3.338 3.338 0 0 0 2.413.973 2.968 2.968 0 0 0 2.162-.907 3.187 3.187 0 0 0 .831-2.212 3.613 3.613 0 0 0-.04-.571zm3.8-.135h-1.118v-1.116h-.8v1.116h-1.118v.8h1.118v1.116h.8v-1.116h1.124z" data-name="Path 2825" transform="translate(-464.52 -131.346)" style="fill:#dd4b39"/>
        <path id="prefix__Path_2826" d="M284.021 192.631a1.573 1.573 0 0 1 1.567 1.569v3.135a1.565 1.565 0 0 1-.461 1.106 1.545 1.545 0 0 1-1.106.461h-3.137a1.573 1.573 0 0 1-1.567-1.567V194.2a1.573 1.573 0 0 1 1.567-1.569h3.137m0-.627h-3.137a2.2 2.2 0 0 0-2.194 2.2v3.135a2.2 2.2 0 0 0 2.194 2.194h3.137a2.2 2.2 0 0 0 2.194-2.194V194.2a2.2 2.2 0 0 0-2.194-2.2z" class="prefix__cls-15" data-name="Path 2826" transform="translate(-240.16 -165.583)"/>
        <path id="prefix__Path_2827" d="M291.959 199.2a.469.469 0 1 1 .333-.137.471.471 0 0 1-.333.137zm-2.037.314a1.255 1.255 0 1 1-1.255 1.253 1.255 1.255 0 0 1 1.255-1.253m0-.627a1.88 1.88 0 1 0 1.331.55 1.882 1.882 0 0 0-1.331-.55z" class="prefix__cls-15" data-name="Path 2827" transform="translate(-247.586 -170.56)"/>
        <path id="prefix__Path_2828" d="M713.3 288h-6.278a.613.613 0 0 0-.644.587v6.293a.662.662 0 0 0 .644.644h6.278a.629.629 0 0 0 .6-.644v-6.288a.577.577 0 0 0-.6-.591zm-4.585 6.276h-1.078v-3.352h1.078zm-.5-3.861a.579.579 0 1 1 .591-.579.553.553 0 0 1-.6.577zm4.44 3.861h-1.082v-1.834c0-.438-.157-.738-.547-.738a.587.587 0 0 0-.551.4.7.7 0 0 0-.038.263v1.91h-1.078v-3.356h1.078v.467a1.092 1.092 0 0 1 .973-.545c.706 0 1.241.467 1.241 1.472z" data-name="Path 2828" transform="translate(-578.841 -241.593)" style="fill:#007bb6"/>
        <path id="prefix__Path_2829" d="M424.31 378.473l.533.963 17.341-3.676-.686-1.09z" class="prefix__cls-17" data-name="Path 2829" transform="translate(-335.91 -296.712)"/>
        <path id="prefix__Path_2830" d="M496.73 390.737l-2.63-15.578a.5.5 0 0 1 .438-.577l19.909-2.124a.5.5 0 0 1 .545.426l1.862 13.645z" class="prefix__cls-17" data-name="Path 2830" transform="translate(-410.501 -308.296)"/>
        <path id="prefix__Path_2831" d="M496.73 390.737l-2.63-15.578a.5.5 0 0 1 .438-.577l19.909-2.124a.5.5 0 0 1 .545.426l1.862 13.645z" class="prefix__cls-5" data-name="Path 2831" transform="translate(-410.501 -308.296)"/>
        <path id="prefix__Path_2832" d="M498.246 390.737l-2.624-15.577a.5.5 0 0 1 .436-.577l19.909-2.124a.5.5 0 0 1 .545.426l1.86 13.645z" class="prefix__cls-17" data-name="Path 2832" transform="translate(-411.702 -308.296)"/>
        <path id="prefix__Path_2833" d="M409.31 315.38l2.156 13.235 18-3.7-1.673-11.763z" class="prefix__cls-4" data-name="Path 2833" transform="translate(-324 -247.825)"/>
        <path id="prefix__Path_2834" d="M509.7 446.286l-.127-.255-2.383.533 6.069 9.275a.784.784 0 0 0 .877.324l21.317-6.2a.784.784 0 0 0 .255-1.38l-8.261-6.256-1.723.4.076.177z" class="prefix__cls-18" data-name="Path 2834" transform="translate(-420.752 -363.674)"/>
        <path id="prefix__Path_2835" d="M509.7 446.286l-.127-.255-2.383.533 6.069 9.275a.784.784 0 0 0 .877.324l21.317-6.2a.784.784 0 0 0 .255-1.38l-8.261-6.256-1.723.4.076.177z" class="prefix__cls-5" data-name="Path 2835" transform="translate(-420.752 -363.674)"/>
        <path id="prefix__Path_2836" d="M511.21 446.286l-.127-.255-2.383.533 6.069 9.275a.784.784 0 0 0 .877.324l21.317-6.2a.784.784 0 0 0 .253-1.38l-8.261-6.256-1.723.4.076.177z" class="prefix__cls-18" data-name="Path 2836" transform="translate(-421.947 -363.674)"/>
        <path id="prefix__Path_2837" d="M568.1 473.768l6.85-1.784a.135.135 0 0 1 .123.03l3.043 2.761a.133.133 0 0 1-.052.225l-7.24 2.14a.131.131 0 0 1-.137-.042l-2.648-3.119a.135.135 0 0 1 .062-.211z" class="prefix__cls-5" data-name="Path 2837" transform="translate(-469.219 -387.316)"/>
        <path id="prefix__Path_2838" d="M568.827 473.033l6.85-1.78a.133.133 0 0 1 .123.03l3.039 2.759a.133.133 0 0 1-.052.225l-7.24 2.14a.135.135 0 0 1-.139-.042l-2.646-3.119a.131.131 0 0 1 .066-.213z" data-name="Path 2838" transform="translate(-469.791 -386.737)" style="fill:#939498"/>
        <g id="prefix__Group_1325" class="prefix__cls-2" data-name="Group 1325" transform="translate(88.91 79.523)">
            <path id="prefix__Path_2839" d="M521.192 467.183l.308.495a.06.06 0 0 0 .062.028l1.04-.231a.06.06 0 0 0 .034-.092l-.344-.483a.058.058 0 0 0-.06-.024l-1.006.215a.058.058 0 0 0-.034.092z" data-name="Path 2839" transform="translate(-520.881 -462.886)"/>
            <path id="prefix__Path_2840" d="M527.962 465.789l.306.5a.062.062 0 0 0 .064.026l1.038-.231a.058.058 0 0 0 .034-.093l-.342-.479a.06.06 0 0 0-.06-.024L528 465.7a.058.058 0 0 0-.034.088z" data-name="Path 2840" transform="translate(-526.291 -461.776)"/>
            <path id="prefix__Path_2841" d="M534.5 464.362l.308.495a.06.06 0 0 0 .062.026l1.04-.231a.06.06 0 0 0 .034-.092l-.346-.479a.062.062 0 0 0-.06-.024l-1.006.215a.06.06 0 0 0-.032.091z" data-name="Path 2841" transform="translate(-531.515 -460.634)"/>
            <path id="prefix__Path_2842" d="M540.959 462.951l.3.489a.064.064 0 0 0 .068.028l1.03-.229a.064.064 0 0 0 .036-.1l-.338-.473a.062.062 0 0 0-.064-.024l-1.006.213a.064.064 0 0 0-.03.095z" data-name="Path 2842" transform="translate(-536.674 -459.505)"/>
            <path id="prefix__Path_2843" d="M540.432 466.727l.308.495a.056.056 0 0 0 .062.026l1.038-.231a.056.056 0 0 0 .034-.09l-.342-.481a.058.058 0 0 0-.06-.022l-1.005.215a.058.058 0 0 0-.034.089z" data-name="Path 2843" transform="translate(-536.253 -462.525)"/>
            <path id="prefix__Path_2844" d="M533.76 468.178l.308.495a.06.06 0 0 0 .064.026l1.038-.231a.058.058 0 0 0 .034-.092l-.344-.471a.056.056 0 0 0-.06-.022l-1.006.215a.06.06 0 0 0-.034.08z" data-name="Path 2844" transform="translate(-530.927 -463.69)"/>
            <path id="prefix__Path_2845" d="M538.1 471.177l.308.5a.064.064 0 0 0 .064.026l1.038-.231a.058.058 0 0 0 .034-.093l-.344-.477a.058.058 0 0 0-.06-.024l-1.005.215a.06.06 0 0 0-.034.086z" data-name="Path 2845" transform="translate(-534.392 -466.081)"/>
            <path id="prefix__Path_2846" d="M544.242 473.787l.308.495a.056.056 0 0 0 .062.026l1.038-.231a.058.058 0 0 0 .036-.09l-.344-.481a.058.058 0 0 0-.06-.022l-1.005.215a.058.058 0 0 0-.034.089z" data-name="Path 2846" transform="translate(-539.297 -468.165)"/>
            <path id="prefix__Path_2847" d="M545.3 477.833l.5.623a.058.058 0 0 0 .06.02l1.046-.271a.06.06 0 0 0 .032-.095l-.515-.627a.058.058 0 0 0-.06-.02l-1.03.278a.058.058 0 0 0-.03.092z" data-name="Path 2847" transform="translate(-540.139 -471.344)"/>
            <path id="prefix__Path_2848" d="M552.1 475.773l.511.642a.058.058 0 0 0 .06.02l1.365-.378a.06.06 0 0 0 .03-.095l-.515-.629a.058.058 0 0 0-.06-.02l-1.359.366a.06.06 0 0 0-.032.095z" data-name="Path 2848" transform="translate(-545.574 -469.626)"/>
            <path id="prefix__Path_2849" d="M538.65 479.52l.5.623a.058.058 0 0 0 .06.02l1.046-.271a.06.06 0 0 0 .032-.095l-.515-.629a.056.056 0 0 0-.06-.018l-1.03.275a.06.06 0 0 0-.03.095z" data-name="Path 2849" transform="translate(-534.827 -472.691)"/>
            <path id="prefix__Path_2850" d="M531.6 481.271l.5.621a.058.058 0 0 0 .06.02l1.046-.271a.06.06 0 0 0 .032-.094l-.513-.633a.062.062 0 0 0-.062-.02l-1.03.277a.06.06 0 0 0-.03.1z" data-name="Path 2850" transform="translate(-529.194 -474.084)"/>
            <path id="prefix__Path_2851" d="M547.406 461.441l.3.489a.064.064 0 0 0 .068.028l1.03-.229a.062.062 0 0 0 .036-.1l-.338-.473a.062.062 0 0 0-.064-.024l-.993.213a.06.06 0 0 0-.04.095z" data-name="Path 2851" transform="translate(-541.823 -458.299)"/>
            <path id="prefix__Path_2852" d="M546.972 465.189l.3.489a.064.064 0 0 0 .068.028l1.03-.229a.062.062 0 0 0 .036-.1l-.33-.481a.062.062 0 0 0-.064-.024l-.993.225a.062.062 0 0 0-.048.09z" data-name="Path 2852" transform="translate(-541.48 -461.287)"/>
            <path id="prefix__Path_2853" d="M553.681 460.021l.3.489a.064.064 0 0 0 .068.028l1.03-.229a.062.062 0 0 0 .036-.1l-.338-.473a.062.062 0 0 0-.064-.024l-.993.213a.062.062 0 0 0-.04.095z" data-name="Path 2853" transform="translate(-546.838 -457.164)"/>
            <path id="prefix__Path_2854" d="M572 456.062l.426.454a.056.056 0 0 0 .048.014l.919-.213a.05.05 0 0 0 .024-.086l-.481-.454a.054.054 0 0 0-.048-.012l-.865.213a.05.05 0 0 0-.024.084z" data-name="Path 2854" transform="translate(-561.47 -454.009)"/>
            <path id="prefix__Path_2855" d="M577.869 454.7l.428.454a.048.048 0 0 0 .048.014l.919-.213a.048.048 0 0 0 .022-.084l-.481-.457a.058.058 0 0 0-.048-.012l-.865.213a.052.052 0 0 0-.024.084z" data-name="Path 2855" transform="translate(-566.158 -452.924)"/>
            <path id="prefix__Path_2856" d="M572.129 459.713l.428.454a.048.048 0 0 0 .048.014l.919-.211a.05.05 0 0 0 .024-.086l-.483-.455a.05.05 0 0 0-.046-.014l-.865.215a.05.05 0 0 0-.026.082z" data-name="Path 2856" transform="translate(-561.573 -456.927)"/>
            <path id="prefix__Path_2857" d="M566.1 461.076l.4.434a.062.062 0 0 0 .06.018l.891-.2a.064.064 0 0 0 .028-.109l-.461-.434a.06.06 0 0 0-.058-.014l-.837.2a.064.064 0 0 0-.026.1z" data-name="Path 2857" transform="translate(-556.755 -458.008)"/>
            <path id="prefix__Path_2858" d="M570.672 467.89l.4.434a.066.066 0 0 0 .06.018l.891-.2a.062.062 0 0 0 .028-.107l-.461-.434a.066.066 0 0 0-.058-.016l-.837.2a.064.064 0 0 0-.026.1z" data-name="Path 2858" transform="translate(-560.406 -463.452)"/>
            <path id="prefix__Path_2859" d="M564.4 469.309l.4.434a.066.066 0 0 0 .06.018l.889-.2a.062.062 0 0 0 .03-.107l-.461-.434a.064.064 0 0 0-.058-.016l-.839.2a.064.064 0 0 0-.024.1z" data-name="Path 2859" transform="translate(-555.394 -464.586)"/>
            <path id="prefix__Path_2860" d="M558.025 470.876l.4.434a.062.062 0 0 0 .06.018l.891-.2a.064.064 0 0 0 .028-.109l-.461-.434a.06.06 0 0 0-.058-.014l-.837.2a.062.062 0 0 0-.026.1z" data-name="Path 2860" transform="translate(-550.301 -465.837)"/>
            <path id="prefix__Path_2861" d="M551.284 472.225l.414.44a.06.06 0 0 0 .056.018l.9-.2a.058.058 0 0 0 .028-.1l-.467-.444a.058.058 0 0 0-.054-.014l-.847.2a.056.056 0 0 0-.03.1z" data-name="Path 2861" transform="translate(-544.913 -466.918)"/>
            <path id="prefix__Path_2862" d="M564.313 465.346l.4.434a.064.064 0 0 0 .06.018l.889-.2a.062.062 0 0 0 .03-.107l-.458-.44a.064.064 0 0 0-.058-.016l-.839.2a.062.062 0 0 0-.026.111z" data-name="Path 2862" transform="translate(-555.32 -461.415)"/>
            <path id="prefix__Path_2863" d="M558.208 466.768l.4.432a.058.058 0 0 0 .06.018l.891-.2a.062.062 0 0 0 .028-.107l-.461-.434a.056.056 0 0 0-.058-.016l-.837.2a.062.062 0 0 0-.026.107z" data-name="Path 2863" transform="translate(-550.446 -462.553)"/>
            <path id="prefix__Path_2864" d="M551.663 468.167l.4.434a.062.062 0 0 0 .06.018l.889-.2a.064.064 0 0 0 .03-.109l-.461-.434a.062.062 0 0 0-.058-.014l-.839.2a.062.062 0 0 0-.024.1z" data-name="Path 2864" transform="translate(-545.218 -463.673)"/>
            <path id="prefix__Path_2865" d="M544.939 469.8l.414.44a.068.068 0 0 0 .058.016l.9-.2a.058.058 0 0 0 .026-.1l-.467-.44a.06.06 0 0 0-.054-.014l-.847.2a.06.06 0 0 0-.03.1z" data-name="Path 2865" transform="translate(-539.85 -464.985)"/>
            <path id="prefix__Path_2866" d="M570.64 463.887l.4.432a.062.062 0 0 0 .06.02l.889-.2a.062.062 0 0 0 .03-.107l-.461-.434a.058.058 0 0 0-.058-.016l-.839.2a.064.064 0 0 0-.024.1z" data-name="Path 2866" transform="translate(-560.38 -460.254)"/>
            <path id="prefix__Path_2867" d="M559.923 462.659l.4.434a.064.064 0 0 0 .06.018l.889-.2a.062.062 0 0 0 .028-.107l-.458-.434a.064.064 0 0 0-.058-.016l-.839.2a.062.062 0 0 0-.024.1z" data-name="Path 2867" transform="translate(-551.817 -459.273)"/>
            <path id="prefix__Path_2868" d="M583.556 453.347l.448.475a.038.038 0 0 0 .036.012l.949-.221a.038.038 0 0 0 .018-.064l-.5-.477a.038.038 0 0 0-.036 0l-.893.221a.036.036 0 0 0-.018.054z" data-name="Path 2868" transform="translate(-570.707 -451.856)"/>
            <path id="prefix__Path_2869" d="M589.261 452.085l.448.477a.042.042 0 0 0 .036.012l.949-.221a.038.038 0 0 0 .018-.064l-.5-.477a.034.034 0 0 0-.034 0l-.895.221a.036.036 0 0 0-.02.052z" data-name="Path 2869" transform="translate(-575.267 -450.849)"/>
            <path id="prefix__Path_2870" d="M595.12 450.886l.4.44a.036.036 0 0 0 .038.012l.885-.241a.04.04 0 0 0 .014-.066l-.456-.384a.04.04 0 0 0-.032 0l-.839.185a.036.036 0 0 0-.012.054z" data-name="Path 2870" transform="translate(-579.945 -449.919)"/>
            <path id="prefix__Path_2871" d="M601.264 452.93l.4.442a.04.04 0 0 0 .036.012l.885-.241a.038.038 0 0 0 .014-.066l-.457-.384a.032.032 0 0 0-.032 0l-.837.183a.038.038 0 0 0-.012.054z" data-name="Path 2871" transform="translate(-584.854 -451.553)"/>
            <path id="prefix__Path_2872" d="M600.5 456.838l.388.418a.046.046 0 0 0 .05.014l.853-.231a.05.05 0 0 0 .02-.089l-.432-.366a.05.05 0 0 0-.044-.01l-.8.179a.05.05 0 0 0-.03.084z" data-name="Path 2872" transform="translate(-584.234 -454.656)"/>
            <path id="prefix__Path_2873" d="M595.519 461.981l.388.42a.05.05 0 0 0 .05.014l.861-.233a.05.05 0 0 0 .02-.086l-.432-.366a.051.051 0 0 0-.044 0l-.8.177a.052.052 0 0 0-.038.074z" data-name="Path 2873" transform="translate(-580.266 -458.772)"/>
            <path id="prefix__Path_2874" d="M589.492 463.513l.388.418a.046.046 0 0 0 .05.014l.853-.231a.05.05 0 0 0 .02-.088l-.432-.366a.05.05 0 0 0-.044 0l-.8.179a.05.05 0 0 0-.03.074z" data-name="Path 2874" transform="translate(-575.449 -459.994)"/>
            <path id="prefix__Path_2875" d="M601.163 460.431l.388.418a.054.054 0 0 0 .05.016l.855-.233a.05.05 0 0 0 .018-.089l-.432-.364a.058.058 0 0 0-.044-.012l-.8.179a.052.052 0 0 0-.03.084z" data-name="Path 2875" transform="translate(-584.769 -457.528)"/>
            <path id="prefix__Path_2876" d="M600.156 464.575l.585.527a.06.06 0 0 0 .048 0l.847-.239a.05.05 0 0 0 .02-.086l-.631-.553a.046.046 0 0 0-.048 0l-.8.267a.048.048 0 0 0-.016.084z" data-name="Path 2876" transform="translate(-583.959 -460.763)"/>
            <path id="prefix__Path_2877" d="M589.974 455.764l.4.442a.034.034 0 0 0 .036.01l.885-.241a.036.036 0 0 0 .014-.064l-.457-.386a.036.036 0 0 0-.032 0l-.837.185a.038.038 0 0 0-.012.054z" data-name="Path 2877" transform="translate(-575.834 -453.816)"/>
            <path id="prefix__Path_2878" d="M584.3 457.091l.388.418a.054.054 0 0 0 .05.016l.855-.233a.05.05 0 0 0 .018-.089l-.432-.364a.058.058 0 0 0-.044-.012l-.8.179a.05.05 0 0 0-.03.084z" data-name="Path 2878" transform="translate(-571.292 -454.86)"/>
            <path id="prefix__Path_2879" d="M583.134 461.126l.388.42a.05.05 0 0 0 .05.014l.853-.233a.05.05 0 0 0 .02-.086l-.434-.366a.05.05 0 0 0-.044-.01l-.8.177a.05.05 0 0 0-.028.084z" data-name="Path 2879" transform="translate(-570.364 -458.083)"/>
            <path id="prefix__Path_2880" d="M577.145 462.576l.388.42a.05.05 0 0 0 .05.014l.853-.233a.05.05 0 0 0 .02-.086l-.434-.366a.046.046 0 0 0-.042-.01l-.8.177a.05.05 0 0 0-.03.084z" data-name="Path 2880" transform="translate(-565.58 -459.242)"/>
            <path id="prefix__Path_2881" d="M578.222 458.445l.388.42a.046.046 0 0 0 .05.014l.853-.233a.05.05 0 0 0 .02-.086l-.432-.366a.05.05 0 0 0-.044-.01l-.8.179a.05.05 0 0 0-.03.082z" data-name="Path 2881" transform="translate(-566.441 -455.942)"/>
            <path id="prefix__Path_2882" d="M583.233 464.846l.388.42a.05.05 0 0 0 .05.014l.853-.233a.05.05 0 0 0 .02-.086l-.432-.366a.05.05 0 0 0-.044-.01l-.8.177a.052.052 0 0 0-.03.084z" data-name="Path 2882" transform="translate(-570.445 -461.055)"/>
            <path id="prefix__Path_2883" d="M577.346 466.393l.368.4a.06.06 0 0 0 .062.018l.823-.223a.064.064 0 0 0 .024-.111l-.4-.346a.058.058 0 0 0-.054-.012l-.78.171a.062.062 0 0 0-.04.1z" data-name="Path 2883" transform="translate(-565.741 -462.283)"/>
            <path id="prefix__Path_2884" d="M595.791 454.277l.4.442a.038.038 0 0 0 .038 0l.885-.241a.036.036 0 0 0 .014-.064l-.457-.386a.044.044 0 0 0-.032 0l-.837.185a.038.038 0 0 0-.014.064z" data-name="Path 2884" transform="translate(-580.477 -452.621)"/>
            <path id="prefix__Path_2885" d="M594.954 458.2l.388.42a.05.05 0 0 0 .05.014l.853-.233a.05.05 0 0 0 .02-.086l-.426-.364a.05.05 0 0 0-.044-.01l-.8.177a.05.05 0 0 0-.036.082z" data-name="Path 2885" transform="translate(-579.809 -455.751)"/>
            <path id="prefix__Path_2886" d="M589.215 459.771l.388.418a.052.052 0 0 0 .05.016l.853-.233a.052.052 0 0 0 .02-.088l-.434-.364a.054.054 0 0 0-.042-.012l-.8.179a.05.05 0 0 0-.03.084z" data-name="Path 2886" transform="translate(-575.223 -457.001)"/>
            <path id="prefix__Path_2887" d="M566.019 457.351l.428.454a.052.052 0 0 0 .048.014l.919-.213a.05.05 0 0 0 .022-.086l-.481-.454a.052.052 0 0 0-.048-.012l-.865.213a.052.052 0 0 0-.024.084z" data-name="Path 2887" transform="translate(-556.691 -455.039)"/>
            <path id="prefix__Path_2888" d="M559.932 458.776l.4.434a.062.062 0 0 0 .06.018l.891-.2a.064.064 0 0 0 .028-.109l-.461-.434a.06.06 0 0 0-.058-.014l-.837.2a.064.064 0 0 0-.026.1z" data-name="Path 2888" transform="translate(-551.825 -456.17)"/>
            <path id="prefix__Path_2889" d="M553.385 463.867l.3.487a.062.062 0 0 0 .068.028l1.028-.229a.062.062 0 0 0 .038-.1l-.338-.471a.068.068 0 0 0-.064-.026l-1.005.213a.064.064 0 0 0-.03.1z" data-name="Path 2889" transform="translate(-546.6 -460.236)"/>
            <path id="prefix__Path_2890" d="M519.737 465.059l1.016-.235a.058.058 0 0 1 .06.022l.179.235a.058.058 0 0 1-.034.093l-1.052.245a.058.058 0 0 1-.064-.028l-.143-.245a.058.058 0 0 1 .038-.086z" data-name="Path 2890" transform="translate(-519.69 -461.247)"/>
            <path id="prefix__Path_2891" d="M526.649 463.548l1.006-.235a.056.056 0 0 1 .06.022l.179.233a.06.06 0 0 1-.034.095l-1.052.245a.06.06 0 0 1-.064-.028l-.143-.245a.058.058 0 0 1 .048-.086z" data-name="Path 2891" transform="translate(-525.206 -460.039)"/>
            <path id="prefix__Path_2892" d="M533.36 462.065l1.005-.233a.056.056 0 0 1 .06.02l.179.235a.058.058 0 0 1-.034.093l-1.052.245a.058.058 0 0 1-.064-.028l-.143-.243a.06.06 0 0 1 .048-.088z" data-name="Path 2892" transform="translate(-530.567 -458.856)"/>
            <path id="prefix__Path_2893" d="M539.96 460.616l1.005-.233a.056.056 0 0 1 .06.022l.179.233a.06.06 0 0 1-.034.095l-1.032.243a.056.056 0 0 1-.064-.026l-.143-.245a.06.06 0 0 1 .028-.089z" data-name="Path 2893" transform="translate(-535.854 -457.699)"/>
            <path id="prefix__Path_2894" d="M546.562 459.149l1.006-.233a.066.066 0 0 1 .064.024l.173.227a.064.064 0 0 1-.036.1l-1.044.243a.064.064 0 0 1-.068-.03l-.139-.237a.064.064 0 0 1 .044-.094z" data-name="Path 2894" transform="translate(-541.116 -456.527)"/>
            <path id="prefix__Path_2895" d="M553.014 457.8l1.006-.233a.06.06 0 0 1 .064.022l.173.227a.064.064 0 0 1-.036.1l-1.044.243a.064.064 0 0 1-.068-.03l-.141-.237a.062.062 0 0 1 .046-.092z" data-name="Path 2895" transform="translate(-546.269 -455.452)"/>
            <path id="prefix__Path_2896" d="M559.34 456.517l.931-.225a.06.06 0 0 1 .06.018l.181.189a.062.062 0 0 1-.03.1l-.921.231a.058.058 0 0 1-.058-.016l-.2-.2a.064.064 0 0 1 .038-.1z" data-name="Path 2896" transform="translate(-551.326 -454.43)"/>
            <path id="prefix__Path_2897" d="M565.532 455.067l.959-.233a.048.048 0 0 1 .048.014l.2.211a.048.048 0 0 1-.024.082l-.947.239a.052.052 0 0 1-.048-.014l-.211-.215a.05.05 0 0 1 .022-.084z" data-name="Path 2897" transform="translate(-556.284 -453.265)"/>
            <path id="prefix__Path_2898" d="M571.639 453.634l.959-.233a.044.044 0 0 1 .048.014l.2.2a.052.052 0 0 1-.024.084l-.943.247a.054.054 0 0 1-.048-.014l-.217-.213a.05.05 0 0 1 .024-.086z" data-name="Path 2898" transform="translate(-561.16 -452.121)"/>
            <path id="prefix__Path_2899" d="M577.792 452.378l.959-.233a.052.052 0 0 1 .048.014l.2.2a.052.052 0 0 1-.024.084l-.947.237a.052.052 0 0 1-.05-.014l-.211-.213a.052.052 0 0 1 .024-.076z" data-name="Path 2899" transform="translate(-566.081 -451.118)"/>
            <path id="prefix__Path_2900" d="M583.569 450.95l.989-.239a.036.036 0 0 1 .036 0l.219.231a.036.036 0 0 1-.018.062l-.969.255a.034.034 0 0 1-.036 0l-.233-.235a.038.038 0 0 1 .012-.074z" data-name="Path 2900" transform="translate(-570.692 -449.969)"/>
            <path id="prefix__Path_2901" d="M589.456 449.71l.989-.241a.042.042 0 0 1 .036.012l.221.231a.038.038 0 0 1-.018.062l-.977.245a.036.036 0 0 1-.036 0l-.233-.243a.038.038 0 0 1 .018-.066z" data-name="Path 2901" transform="translate(-575.401 -448.98)"/>
            <path id="prefix__Path_2902" d="M595.245 448.528l.913-.2a.038.038 0 0 1 .038.014l.177.217a.036.036 0 0 1-.02.058l-.859.227a.034.034 0 0 1-.036-.01l-.233-.235a.037.037 0 0 1 .02-.07z" data-name="Path 2902" transform="translate(-580.013 -448.068)"/>
            <path id="prefix__Path_2903" d="M600.8 447.245l.915-.2a.036.036 0 0 1 .038.012l.177.217a.038.038 0 0 1-.02.06l-.859.227a.045.045 0 0 1-.036 0l-.233-.237a.04.04 0 1 1 .018-.078z" data-name="Path 2903" transform="translate(-584.453 -447.043)"/>
            <path id="prefix__Path_2904" d="M523.441 469.995l.338.481a.058.058 0 0 0 .062.024l1.76-.4a.058.058 0 0 0 .032-.092l-.372-.493a.06.06 0 0 0-.062-.02l-1.721.42a.062.062 0 0 0-.036.082z" data-name="Path 2904" transform="translate(-522.683 -464.976)"/>
            <path id="prefix__Path_2905" d="M526.073 472.922l.338.535a.056.056 0 0 0 .062.026l2.126-.5a.058.058 0 0 0 .032-.095l-.42-.521a.058.058 0 0 0-.06-.02l-2.041.491a.058.058 0 0 0-.036.089z" data-name="Path 2905" transform="translate(-524.782 -467.253)"/>
            <path id="prefix__Path_2906" d="M528.441 475.612l.4.581a.058.058 0 0 0 .062.024l2.815-.7a.06.06 0 0 0 .034-.095l-.455-.581a.058.058 0 0 0-.06-.022l-2.783.7a.058.058 0 0 0-.016.09z" data-name="Path 2906" transform="translate(-526.669 -469.236)"/>
            <path id="prefix__Path_2907" d="M560.492 469.006l.515.621a.064.064 0 0 0 .064.02l6.194-1.546a.06.06 0 0 0 .028-.1l-.631-.629a.06.06 0 0 0-.06-.016l-6.077 1.555a.062.062 0 0 0-.032.1z" data-name="Path 2907" transform="translate(-552.275 -463.265)"/>
            <path id="prefix__Path_2908" d="M592.256 465.877l.6.6a.052.052 0 0 0 .05.014l1.269-.34a.05.05 0 0 0 .022-.084l-.629-.617a.046.046 0 0 0-.048-.012l-1.247.344a.05.05 0 0 0-.02.092z" data-name="Path 2908" transform="translate(-577.644 -461.739)"/>
            <path id="prefix__Path_2909" d="M607.578 464.39l.276.294a.036.036 0 0 0 .036.01l.941-.253a.036.036 0 0 0 .016-.062l-.336-.316a.038.038 0 0 0-.036 0l-.881.276a.036.036 0 0 0-.016.052z" data-name="Path 2909" transform="translate(-589.899 -460.636)"/>
            <path id="prefix__Path_2910" d="M611.558 461.4l.33.346a.034.034 0 0 0 .038.01l.863-.3a.036.036 0 0 0 .014-.062l-.322-.292a.04.04 0 0 0-.036 0l-.871.243a.038.038 0 0 0-.016.054z" data-name="Path 2910" transform="translate(-593.079 -458.272)"/>
            <path id="prefix__Path_2911" d="M613.746 463.319l-.237-.2a.038.038 0 0 1 .012-.064l.859-.3a.036.036 0 0 1 .04 0l.267.259a.038.038 0 0 1-.016.064l-.893.231a.04.04 0 0 1-.032.01z" data-name="Path 2911" transform="translate(-594.632 -459.591)"/>
            <path id="prefix__Path_2912" d="M619.094 461.641c.074.07.2.213.255.261a.038.038 0 0 0 .036.01l.895-.243a.038.038 0 0 0 .016-.064l-.318-.286a.034.034 0 0 0-.036 0l-.833.267a.036.036 0 0 0-.016.054z" data-name="Path 2912" transform="translate(-599.098 -458.444)"/>
            <path id="prefix__Path_2913" d="M606.586 457.457l.481.463a.032.032 0 0 0 .034.01l2.311-.6a.036.036 0 0 0 .014-.064l-.553-.471a.034.034 0 0 0-.034 0l-2.228.6a.036.036 0 0 0-.024.062z" data-name="Path 2913" transform="translate(-589.102 -454.828)"/>
            <path id="prefix__Path_2914" d="M605.824 454.56l.495.44a.042.042 0 0 0 .034 0l1.738-.4a.038.038 0 0 0 .016-.066l-.569-.477a.042.042 0 0 0-.034 0l-1.663.448a.038.038 0 0 0-.016.056z" data-name="Path 2914" transform="translate(-588.497 -452.642)"/>
            <path id="prefix__Path_2915" d="M606.569 451.49l.469.418a.036.036 0 0 0 .034 0l.891-.2a.04.04 0 0 0 .018-.066l-.555-.479a.038.038 0 0 0-.036 0l-.8.257a.038.038 0 0 0-.016.07z" data-name="Path 2915" transform="translate(-589.083 -450.33)"/>
            <path id="prefix__Path_2916" d="M600.517 448.976l.454.412a.04.04 0 0 0 .034 0l1.408-.336a.038.038 0 0 0 .016-.064l-.541-.452a.042.042 0 0 0-.034 0l-1.327.376a.038.038 0 0 0-.01.064z" data-name="Path 2916" transform="translate(-584.251 -448.232)"/>
        </g>
        <path id="prefix__Path_2917" d="M521.2 466.442l.308.495a.06.06 0 0 0 .062.026l1.04-.231a.06.06 0 0 0 .034-.092l-.344-.479a.062.062 0 0 0-.06-.024l-1.005.215a.06.06 0 0 0-.034.091z" class="prefix__cls-17" data-name="Path 2917" transform="translate(-432.284 -382.767)"/>
        <path id="prefix__Path_2918" d="M527.962 465.027l.306.495a.06.06 0 0 0 .064.026l1.038-.231a.058.058 0 0 0 .034-.092l-.342-.479a.058.058 0 0 0-.06-.022l-1.005.215a.058.058 0 0 0-.034.088z" class="prefix__cls-17" data-name="Path 2918" transform="translate(-437.638 -381.648)"/>
        <path id="prefix__Path_2919" d="M534.5 463.608l.308.495a.056.056 0 0 0 .062.026l1.04-.231a.058.058 0 0 0 .034-.09l-.346-.481a.058.058 0 0 0-.06-.022l-1.005.215a.058.058 0 0 0-.032.088z" class="prefix__cls-17" data-name="Path 2919" transform="translate(-442.818 -380.523)"/>
        <path id="prefix__Path_2920" d="M540.947 462.177l.3.489a.062.062 0 0 0 .068.028l1.03-.229a.064.064 0 0 0 .036-.1l-.342-.475a.062.062 0 0 0-.064-.026l-1.005.213a.064.064 0 0 0-.026.1z" class="prefix__cls-17" data-name="Path 2920" transform="translate(-447.921 -379.383)"/>
        <path id="prefix__Path_2921" d="M540.432 465.969l.308.5a.062.062 0 0 0 .062.026l1.038-.231a.058.058 0 0 0 .034-.093l-.342-.479a.06.06 0 0 0-.06-.024l-1.005.215a.058.058 0 0 0-.034.088z" class="prefix__cls-17" data-name="Path 2921" transform="translate(-447.516 -382.394)"/>
        <path id="prefix__Path_2922" d="M533.746 467.389l.308.495a.064.064 0 0 0 .064.028l1.038-.231a.058.058 0 0 0 .034-.092l-.344-.479a.058.058 0 0 0-.06-.024l-1.006.215a.06.06 0 0 0-.034.088z" class="prefix__cls-17" data-name="Path 2922" transform="translate(-442.221 -383.518)"/>
        <path id="prefix__Path_2923" d="M538.092 470.416l.308.495a.058.058 0 0 0 .064.026l1.038-.231a.058.058 0 0 0 .034-.092l-.344-.479a.056.056 0 0 0-.06-.022l-1.005.213a.06.06 0 0 0-.034.09z" class="prefix__cls-17" data-name="Path 2923" transform="translate(-445.663 -385.916)"/>
        <path id="prefix__Path_2924" d="M544.242 473.059l.308.5a.058.058 0 0 0 .062.026l1.038-.231a.06.06 0 0 0 .036-.092l-.344-.479a.06.06 0 0 0-.06-.024l-1.005.215a.058.058 0 0 0-.034.089z" class="prefix__cls-17" data-name="Path 2924" transform="translate(-450.534 -388.01)"/>
        <path id="prefix__Path_2925" d="M545.3 477.075l.5.621a.058.058 0 0 0 .06.02l1.046-.271a.06.06 0 0 0 .032-.095l-.515-.627a.058.058 0 0 0-.06-.02l-1.03.278a.06.06 0 0 0-.03.094z" class="prefix__cls-17" data-name="Path 2925" transform="translate(-451.367 -391.132)"/>
        <path id="prefix__Path_2926" d="M552.1 475.021l.511.642a.058.058 0 0 0 .06.02l1.365-.378a.06.06 0 0 0 .03-.095l-.515-.627a.058.058 0 0 0-.06-.02l-1.359.366a.058.058 0 0 0-.032.092z" class="prefix__cls-17" data-name="Path 2926" transform="translate(-456.749 -389.435)"/>
        <path id="prefix__Path_2927" d="M538.65 478.715l.5.621a.058.058 0 0 0 .06.02l1.046-.271a.06.06 0 0 0 .032-.095l-.515-.627a.058.058 0 0 0-.06-.02l-1.03.278a.06.06 0 0 0-.03.095z" class="prefix__cls-17" data-name="Path 2927" transform="translate(-446.099 -392.431)"/>
        <path id="prefix__Path_2928" d="M531.62 480.523l.5.623a.058.058 0 0 0 .06.02l1.046-.272a.06.06 0 0 0 .032-.095l-.513-.627a.062.062 0 0 0-.062-.02l-1.03.278a.058.058 0 0 0-.03.093z" class="prefix__cls-17" data-name="Path 2928" transform="translate(-440.53 -393.865)"/>
        <path id="prefix__Path_2929" d="M547.411 460.681l.3.489a.064.064 0 0 0 .068.028l1.03-.229a.062.062 0 0 0 .036-.1l-.338-.473a.062.062 0 0 0-.064-.024l-.993.213a.062.062 0 0 0-.04.094z" class="prefix__cls-17" data-name="Path 2929" transform="translate(-453.044 -378.202)"/>
        <path id="prefix__Path_2930" d="M546.961 464.462l.3.489a.064.064 0 0 0 .068.028l1.03-.229a.062.062 0 0 0 .036-.1l-.338-.471a.062.062 0 0 0-.064-.026l-.993.213a.062.062 0 0 0-.04.095z" class="prefix__cls-17" data-name="Path 2930" transform="translate(-452.688 -381.197)"/>
        <path id="prefix__Path_2931" d="M553.672 459.262l.3.489a.064.064 0 0 0 .068.028l1.03-.229a.062.062 0 0 0 .036-.1l-.338-.473a.064.064 0 0 0-.064-.024l-.993.209a.062.062 0 0 0-.04.1z" class="prefix__cls-17" data-name="Path 2931" transform="translate(-458.001 -377.078)"/>
        <path id="prefix__Path_2932" d="M572 455.3l.426.454a.056.056 0 0 0 .048.014l.919-.213a.05.05 0 0 0 .024-.086l-.481-.454a.054.054 0 0 0-.048-.012l-.865.213a.05.05 0 0 0-.024.084z" class="prefix__cls-17" data-name="Path 2932" transform="translate(-472.518 -373.95)"/>
        <path id="prefix__Path_2933" d="M577.883 453.967l.428.452a.048.048 0 0 0 .048.016l.919-.213a.05.05 0 0 0 .028-.082l-.481-.454a.052.052 0 0 0-.048-.012l-.865.213a.052.052 0 0 0-.03.08z" class="prefix__cls-17" data-name="Path 2933" transform="translate(-477.181 -372.896)"/>
        <path id="prefix__Path_2934" d="M572.13 458.961l.428.454a.052.052 0 0 0 .048.014l.919-.213a.05.05 0 0 0 .024-.086l-.483-.454a.048.048 0 0 0-.046-.012l-.865.213a.052.052 0 0 0-.026.084z" class="prefix__cls-17" data-name="Path 2934" transform="translate(-472.622 -376.848)"/>
        <path id="prefix__Path_2935" d="M566.088 460.318l.4.432a.062.062 0 0 0 .06.018l.891-.2a.062.062 0 0 0 .028-.107l-.461-.434a.056.056 0 0 0-.058-.016l-.837.2a.062.062 0 0 0-.026.107z" class="prefix__cls-17" data-name="Path 2935" transform="translate(-467.83 -377.914)"/>
        <path id="prefix__Path_2936" d="M570.672 467.126l.4.434a.062.062 0 0 0 .06.018l.891-.2a.064.064 0 0 0 .028-.109l-.461-.434a.06.06 0 0 0-.058-.014l-.837.2a.064.064 0 0 0-.026.1z" class="prefix__cls-17" data-name="Path 2936" transform="translate(-471.463 -383.309)"/>
        <path id="prefix__Path_2937" d="M564.4 468.551l.4.434a.067.067 0 0 0 .06.018l.889-.2a.062.062 0 0 0 .03-.107l-.461-.434a.068.068 0 0 0-.058-.016l-.839.2a.064.064 0 0 0-.024.1z" class="prefix__cls-17" data-name="Path 2937" transform="translate(-466.495 -384.438)"/>
        <path id="prefix__Path_2938" d="M557.956 470.072l.4.434a.068.068 0 0 0 .06.018l.891-.2a.063.063 0 0 0 .034-.121l-.461-.434a.06.06 0 0 0-.058-.016l-.837.2a.062.062 0 0 0-.032.119z" class="prefix__cls-17" data-name="Path 2938" transform="translate(-461.375 -385.631)"/>
        <path id="prefix__Path_2939" d="M551.294 471.477l.414.44a.058.058 0 0 0 .056.016l.9-.2a.06.06 0 0 0 .028-.1l-.469-.442a.064.064 0 0 0-.054-.014l-.847.2a.058.058 0 0 0-.028.1z" class="prefix__cls-17" data-name="Path 2939" transform="translate(-456.112 -386.759)"/>
        <path id="prefix__Path_2940" d="M564.321 464.591l.4.434a.06.06 0 0 0 .06.018l.889-.2a.064.064 0 0 0 .03-.109l-.458-.438a.062.062 0 0 0-.058-.014l-.839.2a.062.062 0 0 0-.026.109z" class="prefix__cls-17" data-name="Path 2940" transform="translate(-466.429 -381.298)"/>
        <path id="prefix__Path_2941" d="M558.222 466.03l.4.434a.067.067 0 0 0 .06.018l.891-.2a.062.062 0 0 0 .028-.107l-.461-.434a.066.066 0 0 0-.058-.016l-.837.2a.064.064 0 0 0-.026.1z" class="prefix__cls-17" data-name="Path 2941" transform="translate(-461.602 -382.442)"/>
        <path id="prefix__Path_2942" d="M551.663 467.417l.4.432a.062.062 0 0 0 .06.02l.889-.2a.062.062 0 0 0 .03-.107l-.461-.434a.058.058 0 0 0-.058-.016l-.839.2a.062.062 0 0 0-.024.1z" class="prefix__cls-17" data-name="Path 2942" transform="translate(-456.405 -383.539)"/>
        <path id="prefix__Path_2943" d="M544.933 468.987l.414.44a.062.062 0 0 0 .058.016l.9-.2a.06.06 0 0 0 .026-.1l-.467-.44a.06.06 0 0 0-.054-.016l-.847.2a.06.06 0 0 0-.03.1z" class="prefix__cls-17" data-name="Path 2943" transform="translate(-451.076 -384.787)"/>
        <path id="prefix__Path_2944" d="M570.64 463.131l.4.434a.067.067 0 0 0 .06.018l.889-.2a.062.062 0 0 0 .03-.107l-.461-.434a.068.068 0 0 0-.058-.016l-.839.2a.064.064 0 0 0-.024.1z" class="prefix__cls-17" data-name="Path 2944" transform="translate(-471.438 -380.145)"/>
        <path id="prefix__Path_2945" d="M559.923 461.9l.4.434a.06.06 0 0 0 .06.018l.889-.2a.062.062 0 0 0 .028-.107l-.458-.434a.069.069 0 0 0-.058-.016l-.839.2a.062.062 0 0 0-.024.1z" class="prefix__cls-17" data-name="Path 2945" transform="translate(-462.948 -379.171)"/>
        <path id="prefix__Path_2946" d="M583.56 452.6l.448.477a.038.038 0 0 0 .036.01l.949-.219a.038.038 0 0 0 .018-.064l-.5-.477a.04.04 0 0 0-.036 0l-.893.221a.036.036 0 0 0-.018.052z" class="prefix__cls-17" data-name="Path 2946" transform="translate(-481.681 -371.824)"/>
        <path id="prefix__Path_2947" d="M589.243 451.31l.448.477a.048.048 0 0 0 .036.01l.949-.219a.038.038 0 0 0 .018-.064l-.5-.477a.036.036 0 0 0-.034-.01l-.895.221a.038.038 0 0 0-.02.062z" class="prefix__cls-17" data-name="Path 2947" transform="translate(-486.178 -370.799)"/>
        <path id="prefix__Path_2948" d="M595.09 450.086l.4.442a.038.038 0 0 0 .038 0l.885-.241a.038.038 0 0 0 .014-.064l-.456-.386a.04.04 0 0 0-.032 0l-.839.185a.036.036 0 0 0-.012.064z" class="prefix__cls-17" data-name="Path 2948" transform="translate(-490.808 -369.856)"/>
        <path id="prefix__Path_2949" d="M601.285 452.214l.4.442a.034.034 0 0 0 .036.01l.885-.241a.036.036 0 0 0 .014-.064l-.448-.376a.036.036 0 0 0-.032 0l-.837.185a.038.038 0 0 0-.018.044z" class="prefix__cls-17" data-name="Path 2949" transform="translate(-495.725 -371.558)"/>
        <path id="prefix__Path_2950" d="M600.5 456.081l.388.42a.056.056 0 0 0 .05.014l.853-.233a.05.05 0 0 0 .02-.089l-.432-.364a.058.058 0 0 0-.044-.012l-.8.179a.052.052 0 0 0-.03.084z" class="prefix__cls-17" data-name="Path 2950" transform="translate(-495.098 -374.596)"/>
        <path id="prefix__Path_2951" d="M595.516 461.2l.388.42a.046.046 0 0 0 .05.014l.861-.233a.05.05 0 0 0 .02-.086l-.44-.356a.05.05 0 0 0-.044-.01l-.8.179a.05.05 0 0 0-.03.072z" class="prefix__cls-17" data-name="Path 2951" transform="translate(-491.152 -378.656)"/>
        <path id="prefix__Path_2952" d="M589.473 462.731l.388.42a.056.056 0 0 0 .05.014l.853-.233a.05.05 0 0 0 .02-.088l-.432-.364a.058.058 0 0 0-.044-.012l-.8.179a.052.052 0 0 0-.03.084z" class="prefix__cls-17" data-name="Path 2952" transform="translate(-486.361 -379.864)"/>
        <path id="prefix__Path_2953" d="M601.163 459.676l.388.42a.048.048 0 0 0 .05.014l.855-.233a.05.05 0 0 0 .018-.086l-.432-.366a.05.05 0 0 0-.044-.01l-.8.177a.052.052 0 0 0-.03.084z" class="prefix__cls-17" data-name="Path 2953" transform="translate(-495.621 -377.444)"/>
        <path id="prefix__Path_2954" d="M600.185 463.837l.585.525a.048.048 0 0 0 .048.01l.847-.239a.05.05 0 0 0 .02-.086l-.631-.553a.046.046 0 0 0-.048 0l-.8.267a.05.05 0 0 0-.016.076z" class="prefix__cls-17" data-name="Path 2954" transform="translate(-494.844 -380.667)"/>
        <path id="prefix__Path_2955" d="M589.974 455.04l.4.442a.038.038 0 0 0 .036.012l.885-.241a.038.038 0 0 0 .014-.066l-.457-.384a.032.032 0 0 0-.032 0l-.837.183a.038.038 0 0 0-.012.054z" class="prefix__cls-17" data-name="Path 2955" transform="translate(-486.762 -373.789)"/>
        <path id="prefix__Path_2956" d="M584.3 456.336l.388.42a.052.052 0 0 0 .05.014l.855-.233a.05.05 0 0 0 .018-.086l-.432-.366a.05.05 0 0 0-.044-.01l-.8.177a.052.052 0 0 0-.03.084z" class="prefix__cls-17" data-name="Path 2956" transform="translate(-482.266 -374.798)"/>
        <path id="prefix__Path_2957" d="M583.134 460.368l.388.418a.046.046 0 0 0 .05.014l.853-.231a.052.052 0 0 0 .02-.088l-.434-.366a.05.05 0 0 0-.044-.01l-.8.179a.05.05 0 0 0-.028.084z" class="prefix__cls-17" data-name="Path 2957" transform="translate(-481.339 -377.991)"/>
        <path id="prefix__Path_2958" d="M577.145 461.818l.388.418a.046.046 0 0 0 .05.014l.853-.231a.052.052 0 0 0 .02-.089l-.434-.366a.046.046 0 0 0-.042-.01l-.8.179a.05.05 0 0 0-.03.084z" class="prefix__cls-17" data-name="Path 2958" transform="translate(-476.595 -379.139)"/>
        <path id="prefix__Path_2959" d="M578.215 457.691l.388.418a.046.046 0 0 0 .05.014l.853-.231a.052.052 0 0 0 .02-.089l-.432-.364a.058.058 0 0 0-.044-.012l-.8.179a.05.05 0 0 0-.03.084z" class="prefix__cls-17" data-name="Path 2959" transform="translate(-477.442 -375.871)"/>
        <path id="prefix__Path_2960" d="M583.232 464.086l.388.42a.046.046 0 0 0 .05.014l.853-.231a.05.05 0 0 0 .02-.088l-.432-.366a.05.05 0 0 0-.044-.01l-.8.179a.05.05 0 0 0-.03.082z" class="prefix__cls-17" data-name="Path 2960" transform="translate(-481.417 -380.937)"/>
        <path id="prefix__Path_2961" d="M577.346 465.636l.368.4a.066.066 0 0 0 .062.018l.823-.225a.062.062 0 0 0 .024-.109l-.4-.346a.058.058 0 0 0-.054-.014l-.78.173a.062.062 0 0 0-.04.1z" class="prefix__cls-17" data-name="Path 2961" transform="translate(-476.755 -382.156)"/>
        <path id="prefix__Path_2962" d="M595.816 453.56l.4.442a.04.04 0 0 0 .038.012l.885-.241a.038.038 0 0 0 .014-.066l-.456-.384a.032.032 0 0 0-.032 0l-.837.185a.036.036 0 0 0-.014.052z" class="prefix__cls-17" data-name="Path 2962" transform="translate(-491.39 -372.617)"/>
        <path id="prefix__Path_2963" d="M594.942 457.436l.388.42a.046.046 0 0 0 .05.014l.853-.231a.052.052 0 0 0 .02-.088l-.434-.366a.05.05 0 0 0-.044-.01l-.8.179a.048.048 0 0 0-.028.082z" class="prefix__cls-17" data-name="Path 2963" transform="translate(-490.691 -375.67)"/>
        <path id="prefix__Path_2964" d="M589.223 459.015l.388.42a.05.05 0 0 0 .05.014l.853-.233a.05.05 0 0 0 .02-.086l-.434-.366a.046.046 0 0 0-.042-.01l-.8.177a.052.052 0 0 0-.03.084z" class="prefix__cls-17" data-name="Path 2964" transform="translate(-486.163 -376.921)"/>
        <path id="prefix__Path_2965" d="M565.988 456.561l.428.446a.048.048 0 0 0 .048.014l.919-.211a.05.05 0 0 0 .022-.086l-.481-.454a.054.054 0 0 0-.048-.014l-.865.215a.05.05 0 0 0-.024.09z" class="prefix__cls-17" data-name="Path 2965" transform="translate(-467.75 -374.941)"/>
        <path id="prefix__Path_2966" d="M559.918 458.048l.4.432a.058.058 0 0 0 .06.018l.891-.2a.062.062 0 0 0 .028-.107l-.461-.434a.056.056 0 0 0-.058-.016l-.837.2a.062.062 0 0 0-.026.107z" class="prefix__cls-17" data-name="Path 2966" transform="translate(-462.943 -376.116)"/>
        <path id="prefix__Path_2967" d="M553.385 463.111l.3.489a.064.064 0 0 0 .068.028l1.028-.229a.064.064 0 0 0 .038-.1l-.338-.473a.062.062 0 0 0-.064-.024l-1.006.213a.062.062 0 0 0-.03.095z" class="prefix__cls-17" data-name="Path 2967" transform="translate(-457.775 -380.127)"/>
        <path id="prefix__Path_2968" d="M519.747 464.3l1.016-.235a.062.062 0 0 1 .06.022l.179.235a.058.058 0 0 1-.034.092l-1.052.239a.058.058 0 0 1-.064-.028l-.143-.243a.06.06 0 0 1 .038-.082z" class="prefix__cls-17" data-name="Path 2968" transform="translate(-431.107 -381.131)"/>
        <path id="prefix__Path_2969" d="M526.649 462.791l1.006-.235a.062.062 0 0 1 .06.022l.179.235a.058.058 0 0 1-.034.092l-1.052.245a.058.058 0 0 1-.064-.028l-.143-.245a.058.058 0 0 1 .048-.086z" class="prefix__cls-17" data-name="Path 2969" transform="translate(-436.565 -379.934)"/>
        <path id="prefix__Path_2970" d="M533.359 461.349l1.006-.235a.058.058 0 0 1 .06.022l.179.233a.06.06 0 0 1-.034.094l-1.052.245a.06.06 0 0 1-.064-.028l-.143-.245a.058.058 0 0 1 .048-.086z" class="prefix__cls-17" data-name="Path 2970" transform="translate(-441.88 -378.792)"/>
        <path id="prefix__Path_2971" d="M539.96 459.859l1.005-.235a.058.058 0 0 1 .06.022l.179.235a.06.06 0 0 1-.034.092l-1.032.245a.058.058 0 0 1-.064-.028l-.143-.245a.058.058 0 0 1 .028-.086z" class="prefix__cls-17" data-name="Path 2971" transform="translate(-447.123 -377.612)"/>
        <path id="prefix__Path_2972" d="M546.566 458.4l1.006-.233a.066.066 0 0 1 .064.022l.173.229a.062.062 0 0 1-.036.1l-1.044.243a.064.064 0 0 1-.068-.03l-.139-.237a.064.064 0 0 1 .044-.092z" class="prefix__cls-17" data-name="Path 2972" transform="translate(-452.344 -376.456)"/>
        <path id="prefix__Path_2973" d="M553.029 457.067l1.005-.233a.062.062 0 0 1 .064.024l.173.227a.062.062 0 0 1-.036.1l-1.044.243a.064.064 0 0 1-.068-.03l-.137-.237a.062.062 0 0 1 .042-.092z" class="prefix__cls-17" data-name="Path 2973" transform="translate(-457.464 -375.402)"/>
        <path id="prefix__Path_2974" d="M559.339 455.761l.931-.227a.064.064 0 0 1 .06.018l.181.191a.06.06 0 0 1-.03.1l-.921.231a.058.058 0 0 1-.058-.016l-.2-.2a.062.062 0 0 1 .038-.1z" class="prefix__cls-17" data-name="Path 2974" transform="translate(-462.463 -374.373)"/>
        <path id="prefix__Path_2975" d="M565.558 454.319l.959-.233a.054.054 0 0 1 .048.014l.2.2a.05.05 0 0 1-.024.084l-.947.237a.048.048 0 0 1-.048-.014l-.211-.215a.05.05 0 0 1 .022-.074z" class="prefix__cls-17" data-name="Path 2975" transform="translate(-467.405 -373.227)"/>
        <path id="prefix__Path_2976" d="M571.664 452.878l.959-.233a.052.052 0 0 1 .048.014l.2.2a.052.052 0 0 1-.024.084l-.943.247a.048.048 0 0 1-.048-.014l-.211-.215a.05.05 0 0 1 .018-.084z" class="prefix__cls-17" data-name="Path 2976" transform="translate(-472.239 -372.085)"/>
        <path id="prefix__Path_2977" d="M577.751 451.627l.959-.233a.048.048 0 0 1 .048.014l.2.2a.052.052 0 0 1-.024.084l-.947.239a.058.058 0 0 1-.05-.014l-.211-.2a.05.05 0 0 1 .024-.088z" class="prefix__cls-17" data-name="Path 2977" transform="translate(-477.053 -371.093)"/>
        <path id="prefix__Path_2978" d="M583.586 450.192l.989-.241a.036.036 0 0 1 .036 0l.219.233a.038.038 0 0 1-.018.062l-.969.255a.046.046 0 0 1-.036 0l-.233-.237a.038.038 0 0 1 .012-.072z" class="prefix__cls-17" data-name="Path 2978" transform="translate(-481.682 -369.948)"/>
        <path id="prefix__Path_2979" d="M589.488 448.94l.989-.239a.036.036 0 0 1 .036 0l.221.231a.036.036 0 0 1-.018.062l-.977.245a.036.036 0 0 1-.036-.01l-.233-.235a.038.038 0 0 1 .018-.054z" class="prefix__cls-17" data-name="Path 2979" transform="translate(-486.365 -368.958)"/>
        <path id="prefix__Path_2980" d="M595.271 447.764l.913-.2a.034.034 0 0 1 .038.012l.177.217a.038.038 0 0 1-.02.06l-.859.227a.046.046 0 0 1-.036-.01l-.233-.237a.036.036 0 0 1 .02-.068z" class="prefix__cls-17" data-name="Path 2980" transform="translate(-490.934 -368.06)"/>
        <path id="prefix__Path_2981" d="M600.858 446.487l.915-.2a.04.04 0 0 1 .038.012l.177.217a.038.038 0 0 1-.02.06l-.859.227a.034.034 0 0 1-.036-.01l-.233-.235a.038.038 0 0 1 .018-.07z" class="prefix__cls-17" data-name="Path 2981" transform="translate(-495.363 -367.049)"/>
        <path id="prefix__Path_2982" d="M523.441 469.255l.338.481a.058.058 0 0 0 .062.024l1.76-.4a.058.058 0 0 0 .032-.093l-.372-.491a.058.058 0 0 0-.062-.022l-1.721.422a.06.06 0 0 0-.036.08z" class="prefix__cls-17" data-name="Path 2982" transform="translate(-434.051 -384.835)"/>
        <path id="prefix__Path_2983" d="M526.058 472.164l.338.537a.058.058 0 0 0 .062.026l2.126-.507a.058.058 0 0 0 .032-.095l-.42-.521a.062.062 0 0 0-.06-.02l-2.041.485a.058.058 0 0 0-.036.095z" class="prefix__cls-17" data-name="Path 2983" transform="translate(-436.111 -387.076)"/>
        <path id="prefix__Path_2984" d="M528.441 474.861l.4.581a.058.058 0 0 0 .062.022l2.815-.7a.058.058 0 0 0 .034-.092l-.454-.583a.058.058 0 0 0-.06-.02l-2.783.7a.06.06 0 0 0-.016.092z" class="prefix__cls-17" data-name="Path 2984" transform="translate(-437.986 -389.042)"/>
        <path id="prefix__Path_2985" d="M560.492 468.252l.515.619a.064.064 0 0 0 .064.02l6.194-1.544a.062.062 0 0 0 .028-.107l-.631-.627a.066.066 0 0 0-.06-.018l-6.077 1.555a.064.064 0 0 0-.032.1z" class="prefix__cls-17" data-name="Path 2985" transform="translate(-463.315 -383.103)"/>
        <path id="prefix__Path_2986" d="M592.256 465.122l.6.6a.052.052 0 0 0 .05.012l1.269-.34a.05.05 0 0 0 .022-.084l-.629-.615a.048.048 0 0 0-.048-.014l-1.247.346a.05.05 0 0 0-.02.093z" class="prefix__cls-17" data-name="Path 2986" transform="translate(-488.545 -381.611)"/>
        <path id="prefix__Path_2987" d="M607.485 463.611l.276.292a.036.036 0 0 0 .036 0l.941-.251a.038.038 0 0 0 .016-.064l-.336-.314a.034.034 0 0 0-.036-.01l-.881.276a.037.037 0 0 0-.016.072z" class="prefix__cls-17" data-name="Path 2987" transform="translate(-500.615 -380.494)"/>
        <path id="prefix__Path_2988" d="M611.509 460.592l.33.346a.034.034 0 0 0 .038 0l.863-.3a.038.038 0 0 0 .014-.064l-.322-.29a.04.04 0 0 0-.036-.01l-.871.245a.038.038 0 0 0-.016.07z" class="prefix__cls-17" data-name="Path 2988" transform="translate(-503.812 -378.128)"/>
        <path id="prefix__Path_2989" d="M613.74 462.594l-.237-.191a.038.038 0 0 1 .012-.066l.859-.3a.04.04 0 0 1 .04 0l.267.261a.036.036 0 0 1-.016.062l-.893.231a.04.04 0 0 1-.032.003z" class="prefix__cls-17" data-name="Path 2989" transform="translate(-505.395 -379.522)"/>
        <path id="prefix__Path_2990" d="M619.073 460.845c.074.072.2.213.255.261a.034.034 0 0 0 .036 0l.895-.243a.036.036 0 0 0 .016-.062l-.318-.288a.04.04 0 0 0-.036 0l-.833.267a.038.038 0 0 0-.016.064z" class="prefix__cls-17" data-name="Path 2990" transform="translate(-509.81 -378.314)"/>
        <path id="prefix__Path_2991" d="M606.576 456.693l.481.463a.034.034 0 0 0 .034 0l2.311-.6a.038.038 0 0 0 .014-.066l-.561-.463a.036.036 0 0 0-.034 0l-2.228.6a.038.038 0 0 0-.016.066z" class="prefix__cls-17" data-name="Path 2991" transform="translate(-499.881 -374.748)"/>
        <path id="prefix__Path_2992" d="M605.824 453.806l.495.44a.036.036 0 0 0 .034 0l1.738-.4a.038.038 0 0 0 .016-.066l-.569-.475a.036.036 0 0 0-.034 0l-1.663.446a.038.038 0 0 0-.016.056z" class="prefix__cls-17" data-name="Path 2992" transform="translate(-499.3 -372.597)"/>
        <path id="prefix__Path_2993" d="M606.609 450.775l.469.418a.044.044 0 0 0 .034.01L608 451a.038.038 0 0 0 .018-.064l-.555-.479a.034.034 0 0 0-.036 0l-.8.259a.036.036 0 0 0-.016.056z" class="prefix__cls-17" data-name="Path 2993" transform="translate(-499.937 -370.347)"/>
        <path id="prefix__Path_2994" d="M600.437 448.192l.455.4a.034.034 0 0 0 .034 0l1.408-.334a.038.038 0 0 0 .016-.066l-.541-.452a.034.034 0 0 0-.034 0l-1.327.374a.039.039 0 0 0-.01.076z" class="prefix__cls-17" data-name="Path 2994" transform="translate(-495.018 -368.193)"/>
        <path id="prefix__Path_2995" d="M507.667 334.3a39.971 39.971 0 0 0-2.439 3.218 10.184 10.184 0 0 1-.987 1.317c-.521.549-1.172.961-1.705 1.5a10 10 0 0 0-1.486 2.17 15.9 15.9 0 0 0-.8 1.575 7.962 7.962 0 0 0-.352 5.1c.163.6.489 1.283 1.1 1.426a1.938 1.938 0 0 0 1.388-.4 3.212 3.212 0 0 0 1.189-1.038 3.349 3.349 0 0 0 .346-1.269l.529-3.871a4.47 4.47 0 0 1 .28-1.207 3.494 3.494 0 0 1 1.6-1.548c.662-.364 1.376-.635 2.011-1.05.591-.386 1.1-.889 1.691-1.275a21.351 21.351 0 0 0 2.23-1.333 1.985 1.985 0 0 0 .7-2.3 2.685 2.685 0 0 0-.726-.766l-1.293-1.042c-.276-.221-.845-.891-1.193-.935s-.875.483-1.108.69a9.787 9.787 0 0 0-.973 1.04z" class="prefix__cls-7" data-name="Path 2995" transform="translate(-415.029 -276.738)"/>
        <path id="prefix__Path_2996" d="M502.7 309.369a4.264 4.264 0 0 1 .8.2c.263.107.5.267.77.368a9.232 9.232 0 0 0 1.048.249 1.408 1.408 0 0 1 .887.563 2.675 2.675 0 0 0-1.478.955 4.47 4.47 0 0 0-.617 1.221 13.723 13.723 0 0 0-.8 4.038.828.828 0 0 0 .181.678 4.817 4.817 0 0 0-3.31-.652.824.824 0 0 1-.322-.026.72.72 0 0 1-.284-.233 2.815 2.815 0 0 1-.6-1.351 6.1 6.1 0 0 1 .2-2.134 11 11 0 0 0 .261-2.065 10.032 10.032 0 0 0-.33-1.953c-.143-.814.766-.414 1.253-.32z" class="prefix__cls-4" data-name="Path 2996" transform="translate(-414.573 -257.991)"/>
    </g>
</svg>
