<svg xmlns="http://www.w3.org/2000/svg" width="213.045" height="150" viewBox="0 0 213.045 150">
    <defs>
        <linearGradient id="prefix__linear-gradient" x1=".627" x2="1.626" y1=".5" y2=".5" gradientUnits="objectBoundingBox">
            <stop offset="0" stop-color="gray" stop-opacity=".251"/>
            <stop offset=".54" stop-color="gray" stop-opacity=".122"/>
            <stop offset="1" stop-color="gray" stop-opacity=".102"/>
        </linearGradient>
        <style>
            .prefix__cls-1,.prefix__cls-4{fill:#fa7c50}.prefix__cls-1,.prefix__cls-2,.prefix__cls-5{opacity:.1}.prefix__cls-3{fill:#3f3d56}.prefix__cls-7{fill:#a8a8a8}.prefix__cls-8{opacity:.2}.prefix__cls-11{fill:#a0616a}
        </style>
    </defs>
    <g id="prefix__undraw_visual_data_b1wx_1_" data-name="undraw_visual_data_b1wx (1)" transform="translate(-.003 -.344)">
        <ellipse id="prefix__Ellipse_171" cx="12.722" cy="3.377" class="prefix__cls-1" data-name="Ellipse 171" rx="12.722" ry="3.377" transform="translate(170.784 143.59)"/>
        <path id="prefix__Path_2586" d="M247.921 199.342c-4.656 3.855-11.282 5.45-17.69 6.457l-1.078.164a202.9 202.9 0 0 1-20.25 1.849c-3.633.176-7.266.3-10.9.41l-2.847.084q-5.545.164-11.112.323-5.45.155-10.9.29-6.979.17-13.959.282-5.45.086-10.9.118-6.981.04-13.959-.027-5.454-.055-10.9-.191-6.983-.179-13.959-.525-4.735-.231-9.463-.555l-1.436-.1c-13.533-.973-27.308-2.719-39.15-8.238l-.319-.151c-.159-.074-.317-.149-.476-.227a42.875 42.875 0 0 1-6.226-3.643 22.345 22.345 0 0 1-7.92-9.142c-2.394-5.66-1.128-12.022 1.606-17.556s6.84-10.53 10.391-15.741c1.04-1.527 2.027-3.11 2.945-4.734 5.737-10.184 8.582-21.97 2.568-31.784a43.617 43.617 0 0 0-2.568-3.626 34.354 34.354 0 0 1-3.966-5.929c-2.35-4.916-1.845-10.444-.989-15.7 1.147-6.982 3.251-14.5 9.825-18.865 6.821-4.53 16.5-4.3 24.967-2.672 13.162 2.517 25.31 7.786 37.572 12.537s25.109 9.1 38.592 9.564a61.715 61.715 0 0 0 8.677-.315 55.131 55.131 0 0 0 11.3-2.376 33.908 33.908 0 0 0 13.714-8.015c7.677-7.8 22.1-8.385 32.507-3.677 9.926 4.492 16.345 14 15.871 23.494-.539 10.57-8.471 19.26-15.739 28.173-.882 1.08-1.752 2.164-2.6 3.255q-.709.914-1.392 1.832c-.8 1.08-1.568 2.166-2.295 3.265-3.713 5.635-6.339 12.4-3.782 18.487 1.434 3.406 4.17 6.005 7.469 8.274 7.391 5.082 17.592 8.5 22.181 15.615 3.963 6.139 2.498 14.415-3.41 19.316z" class="prefix__cls-1" data-name="Path 2586" transform="translate(-43.21 -66.376)"/>
        <g id="prefix__Group_1317" class="prefix__cls-2" data-name="Group 1317" transform="translate(86.761 .344)">
            <path id="prefix__Path_2587" d="M598.683 583.577q.012.28.042.549 2.32-.924 4.554-1.988a3.692 3.692 0 0 0 2.105-1.03c.435-.219.869-.447 1.3-.676a5.324 5.324 0 0 0-.33-.6 3.777 3.777 0 0 0-6.874.221 6.85 6.85 0 0 0-.797 3.524z" class="prefix__cls-3" data-name="Path 2587" transform="translate(-579.27 -474.442)"/>
            <path id="prefix__Path_2588" d="M597.534 548.631a6.872 6.872 0 0 0 1.024 3.443 4.093 4.093 0 0 0 3.513 2.1c.1 0 .2-.014.288-.022a3.691 3.691 0 0 0 2.105-1.03 5.062 5.062 0 0 0 .968-1.268 7.12 7.12 0 0 0-.227-6.957 3.777 3.777 0 0 0-6.874.221 6.852 6.852 0 0 0-.797 3.513z" class="prefix__cls-3" data-name="Path 2588" transform="translate(-578.35 -446.448)"/>
            <ellipse id="prefix__Ellipse_172" cx="4.347" cy="5.691" class="prefix__cls-3" data-name="Ellipse 172" rx="4.347" ry="5.691" transform="rotate(-1.9 2721.985 -523.933)"/>
            <ellipse id="prefix__Ellipse_173" cx="4.347" cy="5.691" class="prefix__cls-3" data-name="Ellipse 173" rx="4.347" ry="5.691" transform="rotate(-1.9 2511.322 -520.503)"/>
            <ellipse id="prefix__Ellipse_174" cx="4.347" cy="5.691" class="prefix__cls-3" data-name="Ellipse 174" rx="4.347" ry="5.691" transform="rotate(-1.9 2300.568 -517.074)"/>
            <path id="prefix__Path_2589" d="M538.614 91.217a20.682 20.682 0 0 0 1.539-2.435l-11.478-1.5 12.349-.314a20.851 20.851 0 0 0-.143-16.5L524.6 79.6l14.909-11.728a20.823 20.823 0 1 0-33.62 24.428 20.9 20.9 0 0 0-2.248 3.872l15.07 7.212-15.974-4.784a20.832 20.832 0 0 0 4 19.431 20.821 20.821 0 1 0 32.712-1.083 20.827 20.827 0 0 0-.833-25.731z" class="prefix__cls-4" data-name="Path 2589" transform="translate(-501.054 -58.134)"/>
            <path id="prefix__Path_2590" d="M505.1 294.051a20.725 20.725 0 0 0 4.876 12.722 20.821 20.821 0 1 0 32.712-1.077c2.674-3.629-37.664-13.98-37.588-11.645z" class="prefix__cls-5" data-name="Path 2590" transform="translate(-504.295 -246.882)"/>
        </g>
        <g id="prefix__Group_1318" class="prefix__cls-2" data-name="Group 1318" transform="translate(45.734 62.531)">
            <path id="prefix__Path_2591" d="M346.435 774.664a3.4 3.4 0 0 1-.03.4q-1.65-.656-3.242-1.405a2.626 2.626 0 0 1-1.5-.73q-.465-.236-.924-.481a3.764 3.764 0 0 1 .235-.422 2.681 2.681 0 0 1 4.882.151 4.871 4.871 0 0 1 .579 2.487z" class="prefix__cls-3" data-name="Path 2591" transform="translate(-329.416 -696.958)"/>
            <path id="prefix__Path_2592" d="M345.274 749.742a4.888 4.888 0 0 1-.724 2.451 2.914 2.914 0 0 1-2.5 1.5l-.2-.016a2.626 2.626 0 0 1-1.5-.73 3.578 3.578 0 0 1-.69-.9 5.075 5.075 0 0 1 .155-4.948 2.689 2.689 0 0 1 4.892.151 4.87 4.87 0 0 1 .567 2.492z" class="prefix__cls-3" data-name="Path 2592" transform="translate(-328.1 -676.984)"/>
            <ellipse id="prefix__Ellipse_175" cx="4.049" cy="3.093" class="prefix__cls-3" data-name="Ellipse 175" rx="4.049" ry="3.093" transform="rotate(-88.19 42.498 30.147)"/>
            <ellipse id="prefix__Ellipse_176" cx="4.049" cy="3.093" class="prefix__cls-3" data-name="Ellipse 176" rx="4.049" ry="3.093" transform="rotate(-88.19 40.022 27.594)"/>
            <ellipse id="prefix__Ellipse_177" cx="4.049" cy="3.093" class="prefix__cls-3" data-name="Ellipse 177" rx="4.049" ry="3.093" transform="rotate(-88.19 37.547 25.039)"/>
            <path id="prefix__Path_2593" d="M287.819 424.051a15.073 15.073 0 0 1-1.1-1.731l8.166-1.085-8.788-.2a14.837 14.837 0 0 1 .087-11.744l11.6 6.486-10.619-8.339a14.818 14.818 0 1 1 23.935 17.346 14.79 14.79 0 0 1 1.6 2.755l-10.719 5.145 11.365-3.419a14.839 14.839 0 0 1-2.827 13.836 14.818 14.818 0 1 1-23.282-.736 14.818 14.818 0 0 1 .578-18.312z" class="prefix__cls-4" data-name="Path 2593" transform="translate(-283.775 -400.451)"/>
            <path id="prefix__Path_2594" d="M313.979 568.458a14.763 14.763 0 0 1-3.457 9.059 14.818 14.818 0 1 1-23.282-.735c-1.906-2.582 26.795-9.987 26.739-8.324z" class="prefix__cls-5" data-name="Path 2594" transform="translate(-283.775 -534.868)"/>
        </g>
        <g id="prefix__Group_1319" class="prefix__cls-2" data-name="Group 1319" transform="translate(144.736 39.335)">
            <path id="prefix__Path_2595" d="M867.205 644.614a3.851 3.851 0 0 1-.028.4q-1.652-.656-3.242-1.405a2.636 2.636 0 0 1-1.5-.73c-.308-.157-.618-.318-.924-.481a4.117 4.117 0 0 1 .235-.421 2.681 2.681 0 0 1 4.882.151 4.871 4.871 0 0 1 .577 2.486z" class="prefix__cls-3" data-name="Path 2595" transform="translate(-850.189 -566.884)"/>
            <path id="prefix__Path_2596" d="M866.088 619.692a4.888 4.888 0 0 1-.726 2.451 2.911 2.911 0 0 1-2.5 1.5l-.2-.016a2.635 2.635 0 0 1-1.5-.73 3.643 3.643 0 0 1-.69-.9 5.075 5.075 0 0 1 .155-4.948 2.689 2.689 0 0 1 4.892.151 4.871 4.871 0 0 1 .569 2.492z" class="prefix__cls-3" data-name="Path 2596" transform="translate(-848.905 -546.91)"/>
            <ellipse id="prefix__Ellipse_178" cx="4.049" cy="3.093" class="prefix__cls-3" data-name="Ellipse 178" rx="4.049" ry="3.093" transform="rotate(-88.19 42.512 30.156)"/>
            <ellipse id="prefix__Ellipse_179" cx="4.049" cy="3.093" class="prefix__cls-3" data-name="Ellipse 179" rx="4.049" ry="3.093" transform="rotate(-88.19 40.038 27.602)"/>
            <ellipse id="prefix__Ellipse_180" cx="4.049" cy="3.093" class="prefix__cls-3" data-name="Ellipse 180" rx="4.049" ry="3.093" transform="rotate(-88.19 37.563 25.048)"/>
            <path id="prefix__Path_2597" d="M808.6 293.9a14.635 14.635 0 0 1-1.1-1.731l8.166-1.075-8.788-.213a14.849 14.849 0 0 1 .086-11.744l11.6 6.486-10.619-8.335a14.82 14.82 0 1 1 23.938 17.346 14.79 14.79 0 0 1 1.6 2.755l-10.719 5.145 11.365-3.419a14.824 14.824 0 0 1-2.827 13.834 14.816 14.816 0 1 1-23.276-.736 14.818 14.818 0 0 1 .574-18.313z" class="prefix__cls-4" data-name="Path 2597" transform="translate(-804.559 -270.277)"/>
            <path id="prefix__Path_2598" d="M834.767 438.406a14.75 14.75 0 0 1-3.459 9.057 14.816 14.816 0 1 1-23.278-.736c-1.908-2.582 26.789-9.986 26.737-8.321z" class="prefix__cls-5" data-name="Path 2598" transform="translate(-804.563 -404.791)"/>
        </g>
        <ellipse id="prefix__Ellipse_181" cx="11.333" cy="2.179" class="prefix__cls-4" data-name="Ellipse 181" rx="11.333" ry="2.179" transform="translate(27.135 141.502)"/>
        <ellipse id="prefix__Ellipse_182" cx="1.32" cy="1.727" class="prefix__cls-3" data-name="Ellipse 182" rx="1.32" ry="1.727" transform="translate(36.959 141.027)"/>
        <ellipse id="prefix__Ellipse_183" cx="1.32" cy="1.727" class="prefix__cls-3" data-name="Ellipse 183" rx="1.32" ry="1.727" transform="translate(36.959 138.916)"/>
        <ellipse id="prefix__Ellipse_184" cx="1.32" cy="1.727" class="prefix__cls-3" data-name="Ellipse 184" rx="1.32" ry="1.727" transform="translate(36.959 136.805)"/>
        <ellipse id="prefix__Ellipse_185" cx="1.32" cy="1.727" class="prefix__cls-3" data-name="Ellipse 185" rx="1.32" ry="1.727" transform="translate(36.959 134.694)"/>
        <ellipse id="prefix__Ellipse_186" cx="1.32" cy="1.727" class="prefix__cls-3" data-name="Ellipse 186" rx="1.32" ry="1.727" transform="translate(36.959 132.583)"/>
        <ellipse id="prefix__Ellipse_187" cx="1.32" cy="1.727" class="prefix__cls-3" data-name="Ellipse 187" rx="1.32" ry="1.727" transform="translate(36.959 130.472)"/>
        <ellipse id="prefix__Ellipse_188" cx="1.32" cy="1.727" class="prefix__cls-3" data-name="Ellipse 188" rx="1.32" ry="1.727" transform="translate(36.959 128.361)"/>
        <path id="prefix__Path_2599" d="M215.109 626.378a6.422 6.422 0 0 0 .491-.724l-3.467-.57 3.749.03A6.339 6.339 0 0 0 216 620.1l-5.031 2.61 4.64-3.417a6.321 6.321 0 1 0-10.44 7.075 6.363 6.363 0 0 0-.72 1.153l4.5 2.338-4.8-1.61a6.325 6.325 0 0 0 1.018 5.936 6.321 6.321 0 1 0 9.939 0 6.325 6.325 0 0 0 0-7.816z" class="prefix__cls-4" data-name="Path 2599" transform="translate(-171.89 -510.738)"/>
        <path id="prefix__Path_2600" d="M203.82 686.9a6.3 6.3 0 0 0 1.352 3.908 6.321 6.321 0 1 0 9.939 0c.844-1.071-11.291-4.613-11.291-3.908z" class="prefix__cls-5" data-name="Path 2600" transform="translate(-171.89 -567.356)"/>
        <path id="prefix__Path_2601" d="M344.041 567.933v44.926q-4.922-.241-9.838-.578l-1.493-.105v-44.243a1.753 1.753 0 0 1 1.753-1.753h7.824a1.753 1.753 0 0 1 1.754 1.753z" class="prefix__cls-3" data-name="Path 2601" transform="translate(-277.44 -470.705)"/>
        <path id="prefix__Path_2602" d="M462.71 492.434v-75.5a1.753 1.753 0 0 1 1.753-1.753h7.824a1.753 1.753 0 0 1 1.753 1.753v75.7z" class="prefix__cls-3" data-name="Path 2602" transform="translate(-382.622 -349.721)"/>
        <path id="prefix__Path_2603" d="M592.71 555.967v-60.034a1.753 1.753 0 0 1 1.753-1.753h7.824a1.753 1.753 0 0 1 1.753 1.753v59.9z" class="prefix__cls-3" data-name="Path 2603" transform="translate(-487.804 -413.017)"/>
        <path id="prefix__Path_2604" d="M734.041 271.933v103.836q-5.665.161-11.331.3V271.933a1.753 1.753 0 0 1 1.753-1.753h7.824a1.753 1.753 0 0 1 1.754 1.753z" class="prefix__cls-3" data-name="Path 2604" transform="translate(-592.986 -233.545)"/>
        <path id="prefix__Path_2605" d="M864.041 376.933v82.1c-3.777.183-7.554.312-11.331.427v-82.527a1.753 1.753 0 0 1 1.753-1.753h7.824a1.753 1.753 0 0 1 1.753 1.753z" class="prefix__cls-3" data-name="Path 2605" transform="translate(-698.169 -317.673)"/>
        <path id="prefix__Path_2606" d="M318.5 148.251l25.842-28.824 25.842 14.511 25.843-44.528 25.842 21.27" data-name="Path 2606" transform="translate(-259.651 -71.361)" style="fill:none;stroke:#3f3d56;stroke-linecap:round;stroke-miterlimit:10;stroke-width:3px"/>
        <circle id="prefix__Ellipse_189" cx="5.566" cy="5.566" r="5.566" class="prefix__cls-4" data-name="Ellipse 189" transform="translate(55.368 68.449)"/>
        <circle id="prefix__Ellipse_190" cx="5.566" cy="5.566" r="5.566" class="prefix__cls-4" data-name="Ellipse 190" transform="translate(80.186 40.793)"/>
        <circle id="prefix__Ellipse_191" cx="5.566" cy="5.566" r="5.566" class="prefix__cls-4" data-name="Ellipse 191" transform="translate(105.005 54.716)"/>
        <circle id="prefix__Ellipse_192" cx="5.566" cy="5.566" r="5.566" class="prefix__cls-4" data-name="Ellipse 192" transform="translate(129.824 12.483)"/>
        <circle id="prefix__Ellipse_193" cx="5.566" cy="5.566" r="5.566" class="prefix__cls-4" data-name="Ellipse 193" transform="translate(176.548 57.387)"/>
        <ellipse id="prefix__Ellipse_194" cx="3.713" cy=".628" class="prefix__cls-1" data-name="Ellipse 194" rx="3.713" ry=".628" transform="translate(41.078 137.431)"/>
        <path id="prefix__Path_2607" d="M264.35 761.118a7.751 7.751 0 0 0 2.755-.521c.638-.455 3.258-.994 3.417-.268s3.181 3.626.8 3.646-5.556-.374-6.192-.761-.78-2.096-.78-2.096z" class="prefix__cls-7" data-name="Path 2607" transform="translate(-222.102 -625.975)"/>
        <path id="prefix__Path_2608" d="M271.355 768.324c-2.385.02-5.554-.372-6.192-.759-.485-.3-.678-1.356-.743-1.845h-.07s.133 1.708.771 2.1 3.8.781 6.192.761c.69 0 .928-.251.914-.614-.095.216-.357.353-.872.357z" class="prefix__cls-8" data-name="Path 2608" transform="translate(-222.102 -630.579)"/>
        <ellipse id="prefix__Ellipse_195" cx="6.82" cy="1.153" class="prefix__cls-1" data-name="Ellipse 195" rx="6.82" ry="1.153" transform="translate(196.326 142.234)"/>
        <path id="prefix__Path_2609" d="M1084 771.781s3.89-.119 5.063-.954 5.983-1.831 6.274-.493 5.848 6.659 1.455 6.7-10.206-.684-11.376-1.391-1.416-3.862-1.416-3.862z" class="prefix__cls-7" data-name="Path 2609" transform="translate(-885.428 -633.751)"/>
        <path id="prefix__Path_2610" d="M1096.841 785.081c-4.393.036-10.206-.684-11.376-1.391-.891-.543-1.246-2.491-1.366-3.379h-.129s.247 3.139 1.415 3.851 6.985 1.433 11.376 1.392c1.268 0 1.706-.461 1.682-1.129-.176.395-.66.648-1.602.656z" class="prefix__cls-8" data-name="Path 2610" transform="translate(-885.404 -642.269)"/>
        <path id="prefix__Path_2611" d="M892.682 388.317a1.788 1.788 0 0 0 .4.948 3.439 3.439 0 0 0 1.107.67 4.374 4.374 0 0 1 2.139 2.459c.662 1.932.747 3.976 1.59 5.84s1.833 3.656 2.56 5.566a18.665 18.665 0 0 0 1.35 3.2 4.958 4.958 0 0 0 1.107 1.274c-.046.7-.064 1.391-.06 2.091a.8.8 0 0 1 .68.358 2.069 2.069 0 0 1 .3.745c.272 1.127-.064 2.328.181 3.461a17.6 17.6 0 0 1-.6 9.47 10.113 10.113 0 0 0-.324 4.089c1.081-.109 2.04.555 3.051.994a4.2 4.2 0 0 1-.143 1.789 9.853 9.853 0 0 0-.356 3.294l.05 8.2a12.372 12.372 0 0 0 .274 3.1 13.6 13.6 0 0 1 .9 3.465c-.054 2.525 1.139 4.93 1.044 7.435-.018.481-.083.958-.129 1.435a16.33 16.33 0 0 0 .1 3.815c.362 2.517 1.318 4.992 1.079 7.522-.016.171-.074.4-.235.463.2.225.409.447.624.66a.566.566 0 0 1-.173.181 1.757 1.757 0 0 1-.759.2 1.608 1.608 0 0 0-.869.282 1.25 1.25 0 0 0-.362.664 1.789 1.789 0 0 0 .239 1.487 1.66 1.66 0 0 0 .674.5 4.326 4.326 0 0 0 2.93-.181l3.753-1.137a1.264 1.264 0 0 0 .61-.318.668.668 0 0 0 .149-.322 5.134 5.134 0 0 0 2.584-.3l3.753-1.139a1.247 1.247 0 0 0 .61-.318.728.728 0 0 0 .153-.6c.028-.012.056-.02.083-.034.286-.129.6-.382.527-.686-.05-.2-.248-.314-.334-.5a.717.717 0 0 1 .139-.7c.147-.2.346-.364.481-.573.433-.664.139-1.537-.024-2.314-.352-1.66-.026-3.393-.248-5.075-.076-.567-.213-1.123-.322-1.686a34.451 34.451 0 0 1-.459-4.019c-.143-1.924-.678-3.821-.372-5.729a22.239 22.239 0 0 0 .189-3.379 14.692 14.692 0 0 0-.093-2.155c-.078-.533-.215-1.056-.274-1.59a14.421 14.421 0 0 1-.032-1.807 17.874 17.874 0 0 0-.37-4c-.4-1.807-1.145-3.536-1.463-5.347.107.024.215.048.318.076.012-1.391-1.207-4.417-1.658-5.737a1.669 1.669 0 0 1-.119-.507 5.485 5.485 0 0 1 .125-.682 5.588 5.588 0 0 0-.268-1.419 3.327 3.327 0 0 1 .074-1.01c.32-1.779.718-3.544 1.115-5.308a5.654 5.654 0 0 0 .177-1.962 2.463 2.463 0 0 1 .6-1.954 2.317 2.317 0 0 0 .441-.555 1.407 1.407 0 0 0 .087-.555 8.909 8.909 0 0 0-.358-2.415 6.252 6.252 0 0 0 .58-2.149 34.907 34.907 0 0 0 .437-4.9 8.3 8.3 0 0 0-.358-2.584 10.241 10.241 0 0 0-.68-1.5 48.766 48.766 0 0 0-3.365-5.978c-.4-.561-.147-1.334-.119-2.026a5.785 5.785 0 0 0-.624-2.4 3.944 3.944 0 0 0-.747-1.286 1.215 1.215 0 0 0-.875-.4 1.318 1.318 0 0 0-.932.57 3.075 3.075 0 0 0-.559 2.3 4.448 4.448 0 0 0 1.012 2.173 4.925 4.925 0 0 0 .873.829q.493 1.566.994 3.131a39.057 39.057 0 0 0 1.789 4.9 3.867 3.867 0 0 1 .481 1.421 4.178 4.178 0 0 1-.38 1.57 11.081 11.081 0 0 0-.64 3.312 1.139 1.139 0 0 0-.167.091c-.626.41-.823 1.3-1.475 1.668a4.617 4.617 0 0 1-1.266.3.437.437 0 0 0-.115.032c-.016-.079-.032-.157-.042-.239a.649.649 0 0 1 0-.153 6.676 6.676 0 0 0 2.471-2.354 2.151 2.151 0 0 0 .292-.6 2.306 2.306 0 0 0 .03-.775 12.372 12.372 0 0 0-.368-2.554 4.249 4.249 0 0 0-1.33-2.165c-.326-.262-.7-.459-1.026-.724-.632-.511-1.065-1.266-1.789-1.646a2.153 2.153 0 0 0-2.705.7 1.569 1.569 0 0 1-.4.5 4.084 4.084 0 0 0-.37.2.757.757 0 0 0-.159.783 8.144 8.144 0 0 1 .227 1.708 4.175 4.175 0 0 0-.012 5.4c0 .37 0 .739-.014 1.109a1.073 1.073 0 0 1-.014.211 1.433 1.433 0 0 1-.6-.4c-.223-.278-.262-.688-.535-.916a1.509 1.509 0 0 0-.652-.239 4.049 4.049 0 0 1-1.59-.753 3.194 3.194 0 0 0-1.179-.732 26.159 26.159 0 0 0-2.584-3.944 7.686 7.686 0 0 1-.676-.928 12.9 12.9 0 0 1-.825-2.439c-.755-2.29-2.64-4.127-3.1-6.5a10.718 10.718 0 0 0-1.085-2.4 3.062 3.062 0 0 0-1.036-1.405 1.763 1.763 0 0 0-2.089.32 2.51 2.51 0 0 0-.647 2.141zm23.6 80.447a1.757 1.757 0 0 1-.759.2 3.66 3.66 0 0 0-.4.064c-.05-.417-.078-.841-.109-1.252-.105-1.35-.316-2.69-.525-4.027a23.98 23.98 0 0 0-.8-4.25 18.315 18.315 0 0 1-1.435-6.719c.022-.523.087-1.042.115-1.562a19.677 19.677 0 0 1 .2-3.862c.141-.57.382-1.115.473-1.7a8.042 8.042 0 0 0 .02-1.578 20.98 20.98 0 0 1 .451-5.437 3.838 3.838 0 0 1 .6 1.706l.745 4.043a23.4 23.4 0 0 0 2.01 7.079 4.215 4.215 0 0 0-.056 2.326c.117.318.31.6.429.918a6.847 6.847 0 0 1 .231 1.69c.129 1.193.622 2.366.26 3.517a17.153 17.153 0 0 0-.722 3.65 8.9 8.9 0 0 1-.119 1.028c-.064.306-.167.6-.225.91a3.014 3.014 0 0 0 .058 1.326 2.708 2.708 0 0 1 .163.745c0 .254-.312.437-.563.477.074.1.153.187.235.276a.871.871 0 0 1-.275.432z" data-name="Path 2611" transform="translate(-732.116 -325.405)"/>
        <path id="prefix__Path_2612" d="M966.82 814.389a1.608 1.608 0 0 0-.869.282 1.225 1.225 0 0 0-.362.66 1.766 1.766 0 0 0 .239 1.475 1.656 1.656 0 0 0 .674.5 4.338 4.338 0 0 0 2.93-.181l3.753-1.125a1.26 1.26 0 0 0 .61-.316.829.829 0 0 0 .016-.966 1.877 1.877 0 0 0-.8-.634 8.9 8.9 0 0 0-3.765-.722c-.477 0-.948-.115-1.272.252-.171.2-.139.412-.4.58a1.789 1.789 0 0 1-.754.195z" class="prefix__cls-3" data-name="Path 2612" transform="translate(-790.502 -668.736)"/>
        <path id="prefix__Path_2613" d="M1002.49 804.011a1.624 1.624 0 0 0-.869.282 1.233 1.233 0 0 0-.362.66 1.771 1.771 0 0 0 .239 1.477 1.67 1.67 0 0 0 .674.5 4.337 4.337 0 0 0 2.93-.179l3.753-1.131a1.26 1.26 0 0 0 .61-.316.827.827 0 0 0 .016-.964 1.883 1.883 0 0 0-.8-.634 8.921 8.921 0 0 0-3.767-.724c-.477 0-.946-.113-1.272.254-.171.2-.139.409-.4.578a1.729 1.729 0 0 1-.752.197z" class="prefix__cls-3" data-name="Path 2613" transform="translate(-819.082 -660.422)"/>
        <path id="prefix__Path_2614" d="M964.646 600.443a46.253 46.253 0 0 1 6.657-.187 1.331 1.331 0 0 1 .431.068c.489.2.565.839.61 1.362.2 2.123 1.125 4.1 1.59 6.18a17.656 17.656 0 0 1 .37 3.976 14.253 14.253 0 0 0 .032 1.789c.06.531.2 1.052.274 1.58a14.488 14.488 0 0 1 .094 2.141 21.97 21.97 0 0 1-.189 3.354c-.306 1.894.229 3.777.372 5.693a33.964 33.964 0 0 0 .451 4c.109.559.246 1.111.322 1.674.223 1.672-.1 3.393.248 5.043.163.771.457 1.638.024 2.3-.135.2-.334.368-.481.568a.709.709 0 0 0-.139.7c.085.181.284.3.334.493.078.3-.241.553-.527.682a5.488 5.488 0 0 1-6.393-1.578c.25-.04.557-.221.563-.475a2.687 2.687 0 0 0-.163-.74 2.982 2.982 0 0 1-.057-1.316c.057-.306.161-.6.224-.9a8.808 8.808 0 0 0 .119-1.022 16.927 16.927 0 0 1 .722-3.626c.362-1.143-.131-2.3-.26-3.493a6.863 6.863 0 0 0-.231-1.68c-.119-.314-.312-.6-.429-.911a4.166 4.166 0 0 1 .056-2.312 23.142 23.142 0 0 1-2.01-7.033l-.745-4.016a3.946 3.946 0 0 0-.6-1.7 20.706 20.706 0 0 0-.451 5.4 7.961 7.961 0 0 1-.02 1.568c-.091.576-.332 1.119-.473 1.684a20.7 20.7 0 0 0-.2 3.837c-.028.519-.093 1.034-.115 1.552a18.1 18.1 0 0 0 1.435 6.677 24.647 24.647 0 0 1 .8 4.22c.2 1.33.419 2.66.525 4a6.344 6.344 0 0 0 .908 3.534 6.513 6.513 0 0 1-2.246 1.075 4.147 4.147 0 0 1-2.767-.537 8.7 8.7 0 0 1-2.187-1.859c.161-.056.219-.29.235-.459.239-2.517-.718-4.97-1.079-7.474a16.093 16.093 0 0 1-.1-3.789c.046-.475.111-.95.129-1.427.1-2.487-1.1-4.882-1.059-7.371a13.187 13.187 0 0 0-.9-3.443 12.457 12.457 0 0 1-.274-3.081l-.05-8.15a10.074 10.074 0 0 1 .356-3.27c.437-1.252-.064-2.69-.139-4.014a16.541 16.541 0 0 0 6.403.713z" data-name="Path 2614" transform="translate(-784.499 -497.585)" style="fill:#696791"/>
        <path id="prefix__Path_2615" d="M905.174 410.575a25.97 25.97 0 0 0-3.043-4.8 7.63 7.63 0 0 1-.676-.922 12.806 12.806 0 0 1-.825-2.423c-.755-2.274-2.64-4.1-3.1-6.453a10.8 10.8 0 0 0-1.085-2.385 3.011 3.011 0 0 0-1.036-1.392 1.766 1.766 0 0 0-2.089.318 2.483 2.483 0 0 0-.64 2.1 1.775 1.775 0 0 0 .4.942 3.468 3.468 0 0 0 1.107.666 4.349 4.349 0 0 1 2.139 2.443c.662 1.918.747 3.95 1.59 5.8s1.833 3.63 2.56 5.524a19.054 19.054 0 0 0 1.35 3.181 3.915 3.915 0 0 0 2.7 1.976 6.647 6.647 0 0 1 .324-2.123c.242-.788.684-1.711.324-2.452z" class="prefix__cls-11" data-name="Path 2615" transform="translate(-730.524 -328.204)"/>
        <path id="prefix__Path_2616" d="M1000.8 408.7a10.989 10.989 0 0 1 .646-4.131 4.278 4.278 0 0 0 .38-1.56 3.828 3.828 0 0 0-.481-1.413 36.272 36.272 0 0 1-1.789-4.864l-.994-3.111a4.833 4.833 0 0 1-.873-.825 4.394 4.394 0 0 1-1.012-2.159 3.031 3.031 0 0 1 .559-2.282 1.321 1.321 0 0 1 .932-.569 1.22 1.22 0 0 1 .875.4 3.917 3.917 0 0 1 .748 1.276 5.722 5.722 0 0 1 .624 2.385c-.028.688-.284 1.455.119 2.014a48.316 48.316 0 0 1 3.365 5.94 10.067 10.067 0 0 1 .68 1.489 8.192 8.192 0 0 1 .358 2.572 35.694 35.694 0 0 1-.437 4.864 4.35 4.35 0 0 1-1.091 2.783 15.758 15.758 0 0 0-2.609-2.809z" class="prefix__cls-11" data-name="Path 2616" transform="translate(-815.434 -324.822)"/>
        <circle id="prefix__Ellipse_196" cx="4.125" cy="4.125" r="4.125" class="prefix__cls-11" data-name="Ellipse 196" transform="translate(176.185 76.179)"/>
        <path id="prefix__Path_2617" d="M971.59 487.373a5.518 5.518 0 0 0 .889 2.057c.235.4.535.821.994.865a20.032 20.032 0 0 1-3.747 1.507 4.24 4.24 0 0 1-1.368.221 3.347 3.347 0 0 1-1.139-.292A5.664 5.664 0 0 1 964 487.97a7.474 7.474 0 0 0 1.533-.117 1.127 1.127 0 0 0 .751-.37 1.192 1.192 0 0 0 .155-.664c.02-.688.022-1.378 0-2.065a8.152 8.152 0 0 1 3 .37c.4.129.8.284 1.193.386.25.064.94 0 1.125.145.302.204-.237 1.212-.167 1.718z" class="prefix__cls-11" data-name="Path 2617" transform="translate(-789.282 -402.936)"/>
        <path id="prefix__Path_2618" d="M953.719 486.787a2.6 2.6 0 0 1 1.976-2.308 4.612 4.612 0 0 0 1.266-.294c.652-.364.849-1.25 1.475-1.658a1.743 1.743 0 0 1 2.059.334 4.422 4.422 0 0 1 1.044 1.966 9.951 9.951 0 0 1 .535 3.012 1.389 1.389 0 0 1-.087.551 2.3 2.3 0 0 1-.441.551 2.437 2.437 0 0 0-.6 1.942 5.563 5.563 0 0 1-.177 1.948c-.4 1.753-.8 3.5-1.115 5.274a3.274 3.274 0 0 0-.074.994 5.888 5.888 0 0 1 .268 1.411 5.345 5.345 0 0 0-.125.678 1.643 1.643 0 0 0 .119.5c.451 1.31 1.67 4.312 1.658 5.7a34.6 34.6 0 0 0-7.425-.674 16.507 16.507 0 0 0-1.8.079c-1.437.155-2.908.575-4.3.187-1.294-.36-2.439-1.391-3.777-1.262a9.981 9.981 0 0 1 .324-4.061 17.383 17.383 0 0 0 .6-9.409c-.245-1.125.091-2.32-.181-3.437a2.05 2.05 0 0 0-.3-.741.8.8 0 0 0-.68-.356 25.322 25.322 0 0 1 .5-5.353c.131-.626.4-1.366 1.04-1.473.569-.1 1.046.384 1.5.735a4.036 4.036 0 0 0 1.59.747 1.509 1.509 0 0 1 .652.239c.272.227.312.634.535.91.4.495 1.286.453 1.568 1.024a3.9 3.9 0 0 1 .149.521 1.913 1.913 0 0 0 .656.847 3.69 3.69 0 0 0 1.568.876z" data-name="Path 2618" transform="translate(-773.224 -400.305)" style="fill:#f86d70"/>
        <path id="prefix__Path_2619" d="M975.112 444.478a.754.754 0 0 1 .159-.779c.109-.085.252-.117.37-.2a1.591 1.591 0 0 0 .4-.5 2.159 2.159 0 0 1 2.7-.686c.718.376 1.151 1.127 1.789 1.634.324.262.7.457 1.026.72a4.216 4.216 0 0 1 1.33 2.151 12.193 12.193 0 0 1 .368 2.536 2.281 2.281 0 0 1-.03.771 2.158 2.158 0 0 1-.292.6 6.642 6.642 0 0 1-2.6 2.409 4.025 4.025 0 0 1-3.471.06.6.6 0 0 1-.266-.213.766.766 0 0 1-.042-.459 3.144 3.144 0 0 0-.346-1.759c-.2-.4-.5-.74-.656-1.151a4.009 4.009 0 0 1-.187-1.427 15.427 15.427 0 0 0-.252-3.707z" data-name="Path 2619" transform="translate(-798.154 -368.521)" style="fill:#2d293d"/>
    </g>
</svg>
