<svg xmlns="http://www.w3.org/2000/svg" width="217.602" height="150" viewBox="0 0 217.602 150">
    <defs>
        <linearGradient id="prefix__linear-gradient" x1=".5" x2=".5" y1="1" gradientUnits="objectBoundingBox">
            <stop offset="0" stop-color="gray" stop-opacity=".251"/>
            <stop offset=".54" stop-color="gray" stop-opacity=".122"/>
            <stop offset="1" stop-color="gray" stop-opacity=".102"/>
        </linearGradient>
        <style>
            .prefix__cls-1,.prefix__cls-2,.prefix__cls-7{fill:#fa7c50}.prefix__cls-1,.prefix__cls-15,.prefix__cls-5{opacity:.1}.prefix__cls-3{fill:#444053}.prefix__cls-6{fill:#fff}.prefix__cls-7,.prefix__cls-8{opacity:.3}.prefix__cls-10{fill:#a5636d}.prefix__cls-11{opacity:.05}.prefix__cls-12{fill:#bebed0}.prefix__cls-13{fill:#5c5c8e}.prefix__cls-16{fill:#f7cddd}.prefix__cls-21{fill:#3acc6c}.prefix__cls-22{fill:#ffd037}.prefix__cls-24{fill:#9d9cb5}
        </style>
    </defs>
    <g id="prefix__undraw_to_do_list_a49b_1_" data-name="undraw_to_do_list_a49b (1)" transform="translate(.003)">
        <path id="prefix__Path_2620" d="M89.486 59.292c7.382-6.609 18.972-7.955 29.521-7.429 33.133 1.653 63.041 17.705 88.912 35.864 9.366 6.574 18.586 13.664 24.671 22.711 12.377 18.428 8.7 43.957-8.5 59.138-5.855 5.166-12.953 9.125-20.24 12.636-12.955 6.241-26.931 11.249-41.638 12.676-10.486 1.016-21.093.187-31.526-1.228-29.125-3.964-57.713-12.728-81.676-27.729-10.514-6.577-20.42-14.755-24.752-25.4S22.695 116.4 33.426 110.1c4.439-2.606 9.744-3.781 14.94-4.887 7.648-1.625 15.417-3.229 22.319-6.534 7.128-3.414 15.567-10.018 14.157-17.576-1.515-8.103-2.729-15.222 4.644-21.811z" class="prefix__cls-1" data-name="Path 2620" transform="translate(-22.3 -51.76)"/>
        <path id="prefix__Path_2621" d="M279 496.18a5.138 5.138 0 0 1 4.606-.62s-.655 1.393-3.573 1.375z" class="prefix__cls-2" data-name="Path 2621" transform="translate(-230.802 -411.845)"/>
        <path id="prefix__Path_2622" d="M277.37 500a5.138 5.138 0 0 0 1.238 4.481s1.022-1.15-.14-3.827z" class="prefix__cls-2" data-name="Path 2622" transform="translate(-229.312 -415.939)"/>
        <path id="prefix__Path_2623" d="M264 482.147s.083-2.294 5.278-1.733a2.468 2.468 0 0 1-1.7 2.244 2.976 2.976 0 0 1-3.578-.511z" class="prefix__cls-2" data-name="Path 2623" transform="translate(-218.638 -399.817)"/>
        <path id="prefix__Path_2624" d="M259.068 488.65s-2.159.786-.024 5.557a2.468 2.468 0 0 0 1.609-2.314 2.983 2.983 0 0 0-1.585-3.243z" class="prefix__cls-2" data-name="Path 2624" transform="translate(-213.769 -406.803)"/>
        <path id="prefix__Path_2625" d="M248.529 461.488s-.437-3.755 4.855-3.571c0 0 .5 3.394-3.888 4.44z" class="prefix__cls-2" data-name="Path 2625" transform="translate(-206.052 -381.74)"/>
        <path id="prefix__Path_2626" d="M231.83 443.276s.561-4.294 5.894-3.226c0 0 .162 3.689-4.986 4.211z" class="prefix__cls-2" data-name="Path 2626" transform="translate(-192.522 -367.085)"/>
        <path id="prefix__Path_2627" d="M219.38 423.834s1.052-4.211 6.33-3.159c0 0-1.091 3.787-5.953 3.914z" class="prefix__cls-2" data-name="Path 2627" transform="translate(-177.658 -351.327)"/>
        <path id="prefix__Path_2628" d="M207.53 404.211s1.019-4.366 6.112-3.257c0 0-1.528 4.163-5.756 3.979z" class="prefix__cls-2" data-name="Path 2628" transform="translate(-168.316 -335.301)"/>
        <path id="prefix__Path_2629" d="M199.66 382.2s.709-5.311 5.457-4.324c0 0-1.183 4.852-5.086 5.077z" class="prefix__cls-2" data-name="Path 2629" transform="translate(-160.948 -316.658)"/>
        <path id="prefix__Path_2630" d="M192.09 360.708s.888-5.359 5.708-3.995c0 0-1.676 5.1-5.348 4.717z" class="prefix__cls-2" data-name="Path 2630" transform="translate(-155.03 -299.369)"/>
        <path id="prefix__Path_2631" d="M187.13 335.731s1.528-5.383 5.221-5.381c0 0-1.561 5.675-4.872 6.435z" class="prefix__cls-2" data-name="Path 2631" transform="translate(-151.153 -278.204)"/>
        <path id="prefix__Path_2632" d="M183.71 312.7s1.644-6.474 4.66-6.095c0 0-1.12 4.942-4.516 7.088z" class="prefix__cls-2" data-name="Path 2632" transform="translate(-148.479 -258.92)"/>
        <path id="prefix__Path_2633" d="M181.28 289.648s1.565-5.4 4.516-5.728c0 0-1 5.293-4.4 7.112z" class="prefix__cls-2" data-name="Path 2633" transform="translate(-146.58 -240.494)"/>
        <path id="prefix__Path_2634" d="M178.76 267.311s2-5.424 3.955-5.621c0 0-.757 5.293-3.726 6.49z" class="prefix__cls-2" data-name="Path 2634" transform="translate(-144.61 -222.398)"/>
        <path id="prefix__Path_2635" d="M176.83 243.317s1.135-5.852 3.069-6.407c0 0-.085 4.752-2.857 6.832z" class="prefix__cls-2" data-name="Path 2635" transform="translate(-143.101 -202.268)"/>
        <path id="prefix__Path_2636" d="M172.4 219.132s1.251-4.676 2.8-5.442c0 0-.1 5.457-2.4 6.549z" class="prefix__cls-2" data-name="Path 2636" transform="translate(-139.638 -183.384)"/>
        <path id="prefix__Path_2637" d="M166.75 191.338l-.6-8.138s3.187 6.038.873 9.567z" class="prefix__cls-2" data-name="Path 2637" transform="translate(-134.752 -158.675)"/>
        <path id="prefix__Path_2638" d="M146.689 161.642s-2.355-5.87-2.879-6.182c0 0 4.322 3.711 4.1 8.683z" class="prefix__cls-2" data-name="Path 2638" transform="translate(-117.289 -132.824)"/>
        <path id="prefix__Path_2639" d="M235.481 474.183s-3.765-.347-3.449 4.94c0 0 3.405.421 4.342-4z" class="prefix__cls-2" data-name="Path 2639" transform="translate(-187.605 -394.996)"/>
        <path id="prefix__Path_2640" d="M217.329 454.82s-4.326.151-3.768 5.553c0 0 3.656.511 4.663-4.564z" class="prefix__cls-2" data-name="Path 2640" transform="translate(-173.023 -379.311)"/>
        <path id="prefix__Path_2641" d="M196.58 436.347s-4-1.692-6.33 3.159c0 0 3.687 1.395 6.706-2.4z" class="prefix__cls-2" data-name="Path 2641" transform="translate(-153.592 -363.936)"/>
        <path id="prefix__Path_2642" d="M184.64 415.507s-4.1-1.807-6.28 2.929c0 0 4.246 1.281 6.64-2.209z" class="prefix__cls-2" data-name="Path 2642" transform="translate(-144.297 -346.952)"/>
        <path id="prefix__Path_2643" d="M175 393.3s-4.012-3.549-6.957.31c0 0 4.071 2.89 7.166.506z" class="prefix__cls-2" data-name="Path 2643" transform="translate(-136.23 -327.96)"/>
        <path id="prefix__Path_2644" d="M168.172 369.846s-4.038-3.632-6.952.437c0 0 4.49 2.936 7.123.347z" class="prefix__cls-2" data-name="Path 2644" transform="translate(-130.898 -308.915)"/>
        <path id="prefix__Path_2645" d="M165.033 341.268s-3.18-4.606-6.673-3.418c0 0 3.3 4.881 6.682 4.529z" class="prefix__cls-2" data-name="Path 2645" transform="translate(-128.663 -284.052)"/>
        <path id="prefix__Path_2646" d="M162.38 317.1s-3.255-5.833-6.07-4.691c0 0 2.353 4.488 6.184 5.686z" class="prefix__cls-2" data-name="Path 2646" transform="translate(-127.06 -263.472)"/>
        <path id="prefix__Path_2647" d="M160.055 294.589s-3.287-4.562-6.175-3.879c0 0 2.722 4.649 6.529 5.224z" class="prefix__cls-2" data-name="Path 2647" transform="translate(-125.161 -245.877)"/>
        <path id="prefix__Path_2648" d="M163.889 268.521s-2.608-5.16-4.569-5.132c0 0 1.356 5.173 4.44 6.02z" class="prefix__cls-2" data-name="Path 2648" transform="translate(-129.413 -223.761)"/>
        <path id="prefix__Path_2649" d="M159.724 247.269s-2.881-5.217-4.894-5.151c0 0 1.545 4.5 4.822 5.623z" class="prefix__cls-2" data-name="Path 2649" transform="translate(-125.903 -206.458)"/>
        <path id="prefix__Path_2650" d="M160.638 222.951s-2.172-4.326-3.848-4.761c0 0 1.207 5.326 3.672 5.937z" class="prefix__cls-2" data-name="Path 2650" transform="translate(-127.435 -187.022)"/>
        <path id="prefix__Path_2651" d="M150.825 196.025l-4.735-6.645s1.4 6.684 5.437 7.919z" class="prefix__cls-2" data-name="Path 2651" transform="translate(-119.071 -163.659)"/>
        <path id="prefix__Path_2652" d="M132.547 172.274s-5.328-3.39-5.547-3.964c0 0 2.838 4.929 7.784 5.627z" class="prefix__cls-2" data-name="Path 2652" transform="translate(-104.148 -143.641)"/>
        <path id="prefix__Path_2653" d="M123.074 159.624s-6.191-5.512-7.714-5.446a9.776 9.776 0 0 1 7.858 5.136z" class="prefix__cls-2" data-name="Path 2653" transform="translate(-95.049 -131.821)"/>
        <path id="prefix__Path_2654" d="M155.015 191.633l-.218.037c-1.458-8.742-3.294-13.87-5.167-14.442l.063-.218c1.982.602 3.829 5.656 5.322 14.623z" class="prefix__cls-3" data-name="Path 2654" transform="translate(-121.838 -153.767)"/>
        <path id="prefix__Path_2655" d="M175.716 262.568l-.327.039c-.1-.816-.188-1.655-.255-2.488-.592-7.258-1.334-13.916-2.163-18.9l.181-.242c.832 4.99 1.718 11.844 2.312 19.113.066.832.152 1.664.252 2.478z" class="prefix__cls-3" data-name="Path 2655" transform="translate(-140.084 -206.149)"/>
        <path id="prefix__Path_2656" d="M210.788 376.488a42.863 42.863 0 0 1-12.187-8.319 47.727 47.727 0 0 1-9.133-11.94 55.725 55.725 0 0 1-5.778-19.159l.349.148a50.59 50.59 0 0 0 14.843 30.619 42.38 42.38 0 0 0 12.06 8.24z" class="prefix__cls-3" data-name="Path 2656" transform="translate(-149.637 -285.843)"/>
        <g id="prefix__Group_1320" data-name="Group 1320" transform="translate(41.217 1.312)" style="opacity:.7">
            <path id="prefix__Path_2657" d="M320.84 435.385a5.148 5.148 0 0 1 4.584.779s-1.041 1.135-3.822.249z" class="prefix__cls-2" data-name="Path 2657" transform="translate(-304.178 -352.777)"/>
            <path id="prefix__Path_2658" d="M317.108 436.23a5.14 5.14 0 0 0-.151 4.645s1.31-.792 1.006-3.693z" class="prefix__cls-2" data-name="Path 2658" transform="translate(-300.744 -353.618)"/>
            <path id="prefix__Path_2659" d="M309.75 417.8s.764-2.165 5.555-.085a2.463 2.463 0 0 1-2.3 1.635 2.982 2.982 0 0 1-3.255-1.55z" class="prefix__cls-2" data-name="Path 2659" transform="translate(-295.509 -338.44)"/>
            <path id="prefix__Path_2660" d="M301.98 420.89s-2.292.109-1.676 5.3a2.467 2.467 0 0 0 2.227-1.731 2.979 2.979 0 0 0-.551-3.569z" class="prefix__cls-2" data-name="Path 2660" transform="translate(-288.043 -341.627)"/>
            <path id="prefix__Path_2661" d="M299.3 394.291s.7-3.711 5.7-1.965c0 0-.526 3.39-5.031 3.082z" class="prefix__cls-2" data-name="Path 2661" transform="translate(-287.34 -318.933)"/>
            <path id="prefix__Path_2662" d="M288.94 372.059s1.812-3.929 6.579-1.327c0 0-.943 3.569-6.014 2.536z" class="prefix__cls-2" data-name="Path 2662" transform="translate(-279.242 -301.721)"/>
            <path id="prefix__Path_2663" d="M282.9 350.23s2.259-3.711 6.985-1.133c0 0-2.183 3.287-6.848 1.965z" class="prefix__cls-2" data-name="Path 2663" transform="translate(-274.52 -284.792)"/>
            <path id="prefix__Path_2664" d="M277.31 327.88s2.27-3.859 6.808-1.29c0 0-2.7 3.519-6.677 2.087z" class="prefix__cls-2" data-name="Path 2664" transform="translate(-270.15 -267.221)"/>
            <path id="prefix__Path_2665" d="M275.27 304.48s2.257-4.859 6.5-2.5c0 0-2.574 4.278-6.365 3.333z" class="prefix__cls-2" data-name="Path 2665" transform="translate(-268.556 -248.167)"/>
            <path id="prefix__Path_2666" d="M274.69 281.627s2.443-4.852 6.636-2.115c0 0-3.115 4.366-6.507 2.912z" class="prefix__cls-2" data-name="Path 2666" transform="translate(-268.102 -230.455)"/>
            <path id="prefix__Path_2667" d="M276.16 257.395s3.056-4.684 6.583-3.584c0 0-3.18 4.962-6.566 4.7z" class="prefix__cls-2" data-name="Path 2667" transform="translate(-269.251 -210.887)"/>
            <path id="prefix__Path_2668" d="M278.437 233.819s3.493-5.691 6.263-4.431c0 0-2.541 4.385-6.42 5.422z" class="prefix__cls-2" data-name="Path 2668" transform="translate(-270.909 -191.785)"/>
            <path id="prefix__Path_2669" d="M282.827 211.366s3.1-4.691 6.016-4.126c0 0-2.532 4.756-6.313 5.481z" class="prefix__cls-2" data-name="Path 2669" transform="translate(-274.231 -174.577)"/>
            <path id="prefix__Path_2670" d="M288.111 188.779s3.525-4.584 5.446-4.187c0 0-2.3 4.828-5.488 5.084z" class="prefix__cls-2" data-name="Path 2670" transform="translate(-278.562 -156.89)"/>
            <path id="prefix__Path_2671" d="M292.71 164.433s2.825-5.239 4.837-5.2c0 0-1.5 4.512-4.761 5.675z" class="prefix__cls-2" data-name="Path 2671" transform="translate(-282.189 -137.082)"/>
            <path id="prefix__Path_2672" d="M296.7 139.726s2.587-4.091 4.3-4.366c0 0-1.724 5.182-4.239 5.547z" class="prefix__cls-2" data-name="Path 2672" transform="translate(-285.308 -118.423)"/>
            <path id="prefix__Path_2673" d="M298.166 108.53l1.849-7.95s1.246 6.712-2.015 9.386z" class="prefix__cls-2" data-name="Path 2673" transform="translate(-286.324 -91.235)"/>
            <path id="prefix__Path_2674" d="M295.08 74.2s-.5-6.3-.91-6.767c0 0 3.025 4.82 1.336 9.513z" class="prefix__cls-2" data-name="Path 2674" transform="translate(-283.33 -65.321)"/>
            <path id="prefix__Path_2675" d="M281.641 402.056s-3.493-1.449-4.761 3.693c0 0 3.124 1.415 5.333-2.525z" class="prefix__cls-2" data-name="Path 2675" transform="translate(-269.814 -326.756)"/>
            <path id="prefix__Path_2676" d="M269.52 378.832s-4.176-1.142-5.25 4.182c0 0 3.34 1.576 5.811-2.971z" class="prefix__cls-2" data-name="Path 2676" transform="translate(-259.957 -308.669)"/>
            <path id="prefix__Path_2677" d="M257.285 355.582s-3.314-2.8-6.985 1.133c0 0 3.1 2.43 7.118-.3z" class="prefix__cls-2" data-name="Path 2677" transform="translate(-249.036 -289.818)"/>
            <path id="prefix__Path_2678" d="M252.287 331.9s-3.375-2.942-6.867.928c0 0 3.672 2.488 7-.131z" class="prefix__cls-2" data-name="Path 2678" transform="translate(-245.221 -271.221)"/>
            <path id="prefix__Path_2679" d="M251.246 306.7s-2.777-4.584-6.736-1.777c0 0 3.028 3.973 6.693 2.619z" class="prefix__cls-2" data-name="Path 2679" transform="translate(-244.51 -250.261)"/>
            <path id="prefix__Path_2680" d="M251.577 282.354s-2.777-4.669-6.767-1.648c0 0 3.414 4.147 6.695 2.451z" class="prefix__cls-2" data-name="Path 2680" transform="translate(-244.745 -231.248)"/>
            <path id="prefix__Path_2681" d="M258.922 251.864s-1.666-5.341-5.352-5.239c0 0 1.7 5.645 5.031 6.313z" class="prefix__cls-2" data-name="Path 2681" transform="translate(-251.592 -205.4)"/>
            <path id="prefix__Path_2682" d="M263.628 227.789s-1.371-6.538-4.4-6.284c0 0 .912 4.986 4.213 7.271z" class="prefix__cls-2" data-name="Path 2682" transform="translate(-256.017 -185.758)"/>
            <path id="prefix__Path_2683" d="M268.193 205.362s-1.781-5.335-4.743-5.542c0 0 1.216 5.25 4.68 6.931z" class="prefix__cls-2" data-name="Path 2683" transform="translate(-259.316 -168.813)"/>
            <path id="prefix__Path_2684" d="M279.658 181.378s-.956-5.7-2.838-6.258c0 0-.242 5.341 2.449 7.07z" class="prefix__cls-2" data-name="Path 2684" transform="translate(-269.763 -149.504)"/>
            <path id="prefix__Path_2685" d="M282.029 159.854s-1.2-5.839-3.139-6.374c0 0 .138 4.752 2.932 6.8z" class="prefix__cls-2" data-name="Path 2685" transform="translate(-271.385 -132.588)"/>
            <path id="prefix__Path_2686" d="M290 136.941s-.786-4.776-2.257-5.691c0 0-.437 5.444 1.746 6.767z" class="prefix__cls-2" data-name="Path 2686" transform="translate(-278.278 -115.211)"/>
            <path id="prefix__Path_2687" d="M288.6 108.233l-2.545-7.753s-.655 6.8 2.838 9.179z" class="prefix__cls-2" data-name="Path 2687" transform="translate(-276.949 -91.157)"/>
            <path id="prefix__Path_2688" d="M278.389 80.165s-4.088-4.826-4.119-5.435c0 0 1.251 5.551 5.756 7.688z" class="prefix__cls-2" data-name="Path 2688" transform="translate(-267.774 -71.028)"/>
            <path id="prefix__Path_2689" d="M273.115 65.268s-4.272-7.105-5.745-7.5a9.762 9.762 0 0 1 5.964 7.238z" class="prefix__cls-2" data-name="Path 2689" transform="translate(-262.38 -57.77)"/>
            <path id="prefix__Path_2690" d="M293.866 105.365l-.218-.031c1.207-8.777.982-14.221-.637-15.324l.124-.181c1.717 1.171 1.965 6.545.731 15.536z" class="prefix__cls-3" data-name="Path 2690" transform="translate(-282.423 -82.832)"/>
            <path id="prefix__Path_2691" d="M277.965 179.454l-.325-.059c.148-.81.314-1.635.5-2.454 1.6-7.105 2.868-13.68 3.556-18.683l.247-.179c-.69 5.021-1.884 11.82-3.479 18.936-.187.802-.352 1.623-.499 2.439z" class="prefix__cls-3" data-name="Path 2691" transform="translate(-270.408 -136.184)"/>
            <path id="prefix__Path_2692" d="M288.732 298.406a42.96 42.96 0 0 1-9.168-11.569 47.69 47.69 0 0 1-5.164-14.117 55.677 55.677 0 0 1 .183-20.01l.288.244a50.574 50.574 0 0 0 5.073 33.653A42.26 42.26 0 0 0 289 298.063z" class="prefix__cls-3" data-name="Path 2692" transform="translate(-267.233 -210.158)"/>
        </g>
        <path id="prefix__Path_2693" d="M1007.18 805.827s-9.229-.557-8.14 5.911a1.573 1.573 0 0 0 .819 1.661s.017-.48.947-.317a4.224 4.224 0 0 0 1 .048 2.1 2.1 0 0 0 1.227-.506s2.593-1.072 3.6-5.311c0 0 .746-.926.718-1.163l-1.558.655a2.789 2.789 0 0 1 .114 2.056s-.05-2.015-.349-1.965c-.061.011-.81.391-.81.391s.917 1.965.218 3.379c0 0 .262-2.412-.511-3.239l-1.091.642a4.841 4.841 0 0 1 .345 3.669s.186-2.53-.576-3.514l-.993.775s1.006 1.993.393 3.359c0 0-.081-2.945-.607-3.167a5.714 5.714 0 0 0-1 1.091s.688 1.445.262 2.209c0 0-.262-1.965-.478-1.965a6.374 6.374 0 0 0-.956 2.183 4.714 4.714 0 0 1 .746-2.314 2.6 2.6 0 0 0-1.325.685s.135-.919 1.528-1a6.055 6.055 0 0 1 .908-1.046 5.712 5.712 0 0 0-2.246.26 2.508 2.508 0 0 1 2.5-.474l.98-.8a8.121 8.121 0 0 0-2.619.026s.9-.766 2.884-.207l1.067-.637a9.722 9.722 0 0 0-2.5-.218 3.835 3.835 0 0 1 2.816.044l.764-.343s-1.15-.218-1.487-.262-.354-.129-.354-.129a3.978 3.978 0 0 1 2.157.24 9.776 9.776 0 0 0 1.607-.707z" class="prefix__cls-2" data-name="Path 2693" transform="translate(-820.377 -665.075)"/>
        <ellipse id="prefix__Ellipse_197" cx="6.531" cy="1.105" class="prefix__cls-1" data-name="Ellipse 197" rx="6.531" ry="1.105" transform="translate(173.915 147.783)"/>
        <path id="prefix__Path_2694" d="M1101.151 727.776s-5.2-.312-4.584 3.333a.888.888 0 0 0 .461.936s.011-.271.535-.179a2.314 2.314 0 0 0 .565.028 1.168 1.168 0 0 0 .69-.286 4.132 4.132 0 0 0 2.032-2.995s.421-.522.4-.655l-.873.375a1.575 1.575 0 0 1 .063 1.159s-.028-1.137-.2-1.109c-.035 0-.456.218-.456.218a2.6 2.6 0 0 1 .126 1.906s.149-1.36-.288-1.825l-.618.36a2.732 2.732 0 0 1 .194 2.069 3.879 3.879 0 0 0-.325-1.982l-.559.437a2.668 2.668 0 0 1 .218 1.895s-.046-1.659-.343-1.786a3.5 3.5 0 0 0-.565.609s.389.816.148 1.246c0 0-.148-1.107-.268-1.111a3.665 3.665 0 0 0-.539 1.236 2.667 2.667 0 0 1 .421-1.31 1.471 1.471 0 0 0-.749.386s.076-.517.873-.563a3.4 3.4 0 0 1 .511-.589 3.217 3.217 0 0 0-1.266.146 1.425 1.425 0 0 1 1.41-.268l.554-.45a4.561 4.561 0 0 0-1.478.015 1.782 1.782 0 0 1 1.626-.118l.6-.36a5.509 5.509 0 0 0-1.412-.122 2.165 2.165 0 0 1 1.587.026l.437-.194s-.655-.127-.838-.146-.2-.074-.2-.074a2.253 2.253 0 0 1 1.218.135 5.185 5.185 0 0 0 .892-.393z" class="prefix__cls-2" data-name="Path 2694" transform="translate(-896.646 -604.066)"/>
        <ellipse id="prefix__Ellipse_198" cx="3.682" cy=".622" class="prefix__cls-1" data-name="Ellipse 198" rx="3.682" ry=".622" transform="translate(197.241 127.676)"/>
        <path id="prefix__Path_2695" d="M957 742.271s-6.282-.38-5.54 4.023a1.072 1.072 0 0 0 .557 1.131s0-.325.644-.218a3 3 0 0 0 .683.035 1.436 1.436 0 0 0 .834-.345s1.766-.729 2.453-3.617c0 0 .509-.629.487-.79l-1.059.452a1.9 1.9 0 0 1 .076 1.4s-.033-1.373-.238-1.34c-.042 0-.55.264-.55.264a3.142 3.142 0 0 1 .153 2.3s.179-1.642-.347-2.2l-.747.437a3.3 3.3 0 0 1 .234 2.5 4.731 4.731 0 0 0-.391-2.4l-.677.526a3.222 3.222 0 0 1 .268 2.288s-.054-2-.415-2.157a4.1 4.1 0 0 0-.681.736s.467.985.177 1.5c0 0-.177-1.334-.323-1.34a4.5 4.5 0 0 0-.655 1.491 3.226 3.226 0 0 1 .509-1.576 1.775 1.775 0 0 0-.9.467s.092-.627 1.048-.681a4.1 4.1 0 0 1 .618-.712 3.886 3.886 0 0 0-1.528.177 1.71 1.71 0 0 1 1.7-.323l.668-.544a5.488 5.488 0 0 0-1.783.018 2.173 2.173 0 0 1 1.965-.142l.727-.437a6.574 6.574 0 0 0-1.7-.148 2.624 2.624 0 0 1 1.917.031l.522-.214s-.781-.153-1.011-.177-.24-.087-.24-.087a2.713 2.713 0 0 1 1.469.164 6.572 6.572 0 0 0 1.076-.492z" class="prefix__cls-2" data-name="Path 2695" transform="translate(-781.895 -615.395)"/>
        <ellipse id="prefix__Ellipse_199" cx="4.446" cy=".751" class="prefix__cls-1" data-name="Ellipse 199" rx="4.446" ry=".751" transform="translate(171.236 131.662)"/>
        <path id="prefix__Path_2696" d="M328.877 416.473l-21.9 8.472-32 12.37c-1.207-2.242-2.988-5.309-5.193-8.95-7.579-12.562-20.121-32.1-31.284-49.271-12.582-19.346-23.409-35.683-23.409-35.683l7.839-2.272 64.027-18.569z" class="prefix__cls-5" data-name="Path 2696" transform="translate(-181.538 -287.315)"/>
        <path id="prefix__Path_2697" d="M330.877 409.473l-21.9 8.472-32 12.37c-1.207-2.242-2.988-5.309-5.193-8.95-7.579-12.562-20.121-32.1-31.284-49.271-12.582-19.346-23.409-35.683-23.409-35.683l7.839-2.272 64.027-18.569z" class="prefix__cls-6" data-name="Path 2697" transform="translate(-185.204 -281.843)"/>
        <path id="prefix__Path_2698" d="M358.948 409.473l-21.9 8.472a164.67 164.67 0 0 1-37.2 3.421c-7.579-12.562-20.121-32.1-31.284-49.271L253 334.139l64.027-18.569z" class="prefix__cls-5" data-name="Path 2698" transform="translate(-214.561 -281.843)"/>
        <path id="prefix__Path_2699" d="M364.295 370.747s-34.017 20.121-84.8 15.581L239 287.622l19.4-3.333 67.074-11.519 38.058 96.069z" class="prefix__cls-2" data-name="Path 2699" transform="translate(-204.6 -248.385)"/>
        <path id="prefix__Path_2700" d="M433.053 368.839a161.043 161.043 0 0 1-26.6-.755c-10.089-1.183-20.226-3.632-28.936-8.116a87.858 87.858 0 0 1-18.917-12.707c-14.1-12.687-22.832-30.835-30.671-62.973L395 272.77z" class="prefix__cls-5" data-name="Path 2700" transform="translate(-276.917 -241.075)"/>
        <path id="prefix__Path_2701" d="M441.707 255.962s-25.085 4.734-50.594 1.818c-10.089-1.146-20.237-3.5-28.936-7.816a88.138 88.138 0 0 1-18.916-12.236c-17.463-15.135-26.676-38.3-36.181-85.115 0 0 41.692 9.688 82.885-11.534 0 .001 13.893 83.51 51.742 114.883z" class="prefix__cls-6" data-name="Path 2701" transform="translate(-263.217 -121.583)"/>
        <path id="prefix__Path_2702" d="M520.682 588.256c-10.089-1.19-20.237-3.632-28.936-8.116a87.852 87.852 0 0 1-18.916-12.706c14.863-1.207 17-9.334 17-9.334 11.019 17.489 30.852 30.156 30.852 30.156z" class="prefix__cls-5" data-name="Path 2702" transform="translate(-391.145 -465.924)"/>
        <path id="prefix__Path_2703" d="M405.85 244.682s22.4 2.556 43.358-9.223l1.436 4.612a111.365 111.365 0 0 1-44.794 10z" class="prefix__cls-7" data-name="Path 2703" transform="translate(-336.1 -201.369)"/>
        <path id="prefix__Path_2704" d="M405.85 332.666a147.478 147.478 0 0 0 47.05-13.776l.838 1.917s-9.122 11.479-47.889 14.479z" class="prefix__cls-8" data-name="Path 2704" transform="translate(-336.312 -269.415)"/>
        <path id="prefix__Path_2705" d="M417.94 373.354a147.505 147.505 0 0 0 47.051-13.774l.838 1.916s-9.12 11.491-47.889 14.492z" class="prefix__cls-8" data-name="Path 2705" transform="translate(-346.21 -302.569)"/>
        <path id="prefix__Path_2706" d="M429 417.2a147.505 147.505 0 0 0 47.051-13.774l.838 1.917S467.756 416.83 429 419.838z" class="prefix__cls-8" data-name="Path 2706" transform="translate(-355.265 -338.298)"/>
        <path id="prefix__Path_2707" d="M442.13 454.784a147.506 147.506 0 0 0 47.051-13.774l.838 1.917s-9.12 11.486-47.889 14.494z" class="prefix__cls-8" data-name="Path 2707" transform="translate(-366.014 -368.918)"/>
        <path id="prefix__Path_2708" d="M454.23 495.5a147.506 147.506 0 0 0 47.051-13.774l.838 1.917s-9.119 11.49-47.889 14.495z" class="prefix__cls-5" data-name="Path 2708" transform="translate(-375.92 -402.096)"/>
        <path id="prefix__Rectangle_481" d="M0 0H6.581V6.581H0z" class="prefix__cls-7" data-name="Rectangle 481" transform="rotate(-18.8 199.36 -324.983)"/>
        <path id="prefix__Rectangle_482" d="M0 0H6.581V6.581H0z" class="prefix__cls-7" data-name="Rectangle 482" transform="rotate(-18.8 224.84 -330.201)"/>
        <path id="prefix__Rectangle_483" d="M0 0H6.581V6.581H0z" class="prefix__cls-7" data-name="Rectangle 483" transform="rotate(-18.8 273.377 -337.297)"/>
        <path id="prefix__Rectangle_484" d="M0 0H6.581V6.581H0z" class="prefix__cls-7" data-name="Rectangle 484" transform="rotate(-18.8 299.517 -341.648)"/>
        <path id="prefix__Rectangle_485" d="M0 0H6.581V6.581H0z" class="prefix__cls-7" data-name="Rectangle 485" transform="rotate(-18.8 250.968 -333.572)"/>
        <path id="prefix__Path_2709" d="M812.169 324.335l-.234-.218c.6-.122 1.17-.177 1.17-.177s-2.067-7.478-5.553-9.973a16.364 16.364 0 0 1-4.176-5.049 76.343 76.343 0 0 0-6.219-9.118l-.629-.792-.271-.345a3.01 3.01 0 0 0 .788-1.779.028.028 0 0 1 0-.013.834.834 0 0 0 0-.1 1.214 1.214 0 0 0-.044-.242l-.024.037c-.295-.856-1.428-1.233-2.268-1.7-1.965-1.107-2.8-3.525-3.224-5.774-.327-1.746-.6-3.711-1.965-4.835-.873-.723-2.061-.96-2.94-1.679a8.6 8.6 0 0 1-1.823-2.663 10.667 10.667 0 0 0-3.547-4 5.916 5.916 0 0 0-5.123-.677c-.64.245-1.22.624-1.853.888-1.572.655-3.373.568-4.929 1.259-1.917.851-3.163 2.733-4.3 4.518a21.5 21.5 0 0 0-2.041 3.634v-.142a5.2 5.2 0 0 0-.406 1.89 2.838 2.838 0 0 0 .089.821 2.646 2.646 0 0 0 1.772 1.692 7.4 7.4 0 0 0 .192.823 8.076 8.076 0 0 0 5.217 5.328c.072.026.146.044.218.065a1.737 1.737 0 0 0 .26.48c.7.873 2.093.624 3-.011.037-.024.072-.055.107-.081a3.252 3.252 0 0 0 .039.369c.02.1.035.218.057.312a15.087 15.087 0 0 0 2.914 6.793s.194.293.511.777a9.737 9.737 0 0 0 2.229 6.365c-1.107.64-3.492 1.893-4.968 1.788 0 0-5.422.7-6.051.349-.087-.048-.17.017-.249.166-1.493-.91-6.267-3.534-6.675-.166-.369 3.056 3.982 3.447 6.053 3.462-.094.895-.146 1.611-.146 1.611l8.908-.609 4.638-.683a5.579 5.579 0 0 1-1.657 1.578s-4.193 3.394-4.918 3.425c-.1 0-.135.1-.12.266-1.764 0-7.249.255-5.728 3.311 1.382 2.77 5.272.853 7.031-.205.415.805.768 1.436.768 1.436l7.188-5.119 1.556-1.31a5.54 5.54 0 0 0 1.548-.3.18.18 0 0 0 .022.057 2.953 2.953 0 0 1 .124.493c.437 2.508-1.03 8.358-1.03 8.358s-3.226 8.227-1.676 9.349.4 5.857.4 5.857a8.752 8.752 0 0 0 .93 1.284 3.9 3.9 0 0 0 .544.517 5.039 5.039 0 0 0-.179.6 4.894 4.894 0 0 0 .255 3.021c1.065 2.585.417 6.33.417 6.33l-2.091 14.127a5.94 5.94 0 0 0-2.783 0c-.74.417-.5 2.519 1.22 3.423a4.423 4.423 0 0 1-1.768.814c-1.528.349-2.6.572-3.309.707-.046 0-3.667-.8-4.6-.271s-.482 3.458 2.163 4.176c2.589.7 12.244 1.729 15.025 1.31l.177-.031c2.364-.467.288-3.573.026-3.951-.017-.127-.033-.26-.05-.4-.037-.323-.07-.694-.094-1.091a35.314 35.314 0 0 0 6.433.181.692.692 0 0 0 .157-.028c2.093-.415.26-3.161.024-3.493l-.033-.268v-.024c0-.063-.015-.131-.022-.2a.843.843 0 0 0-.017-.17c-.017-.059 0-.1-.015-.159l-.026-.334v-.142c0-.087-.011-.175-.015-.264v-.146c0-.131 0-.266-.013-.4v-1.067c0-.146.013-.3.022-.447l.013-.162c0-.111.018-.218.028-.332a.524.524 0 0 1 .017-.164c.018-.153.037-.306.059-.461a1 1 0 0 1 .022-.138c.02-.116.039-.234.061-.351a.855.855 0 0 1 .035-.175q.039-.19.085-.38a.451.451 0 0 1 .024-.1c.039-.153.083-.3.129-.454.015-.052.033-.1.05-.157.037-.114.076-.218.118-.336l.052-.14c.059-.148.122-.295.188-.437.017-.037.037-.074.057-.111.055-.113.114-.218.175-.336l.074-.129c.083-.14.168-.279.262-.413 2.4-3.423 3.034-10.024 2.975-11.46s.286-4.416.716-4.857a37.916 37.916 0 0 0 2.967-4.387c.181-.323.338-.626.463-.9.712-.247 1.183-.437 1.183-.437a10.12 10.12 0 0 1-.358-2.814 8.529 8.529 0 0 1 2.637-6.291 10.286 10.286 0 0 0 3.589-6.959v-.207c-.001-.212-.011-.313-.011-.313z" data-name="Path 2709" transform="translate(-629.059 -250.06)"/>
        <path id="prefix__Path_2710" d="M887.362 573.09a37.5 37.5 0 0 1-2.838 4.337c-.41.437-.74 3.386-.683 4.8s-.541 7.95-2.841 11.333-1.115 9.231-1.115 9.231l-3.661 1.284h-4.4l-3.03-.906-.8-2.2s1.065-.164 3.711-.792a3.434 3.434 0 0 0 2.74-3.115l1.858-12.973a12.417 12.417 0 0 0-.356-5.54 4.509 4.509 0 0 1 .3-3.951l.059-.092a36.992 36.992 0 0 1 5.787-3.68c2.587-1.249 5.21-1.842 5.955.373a3.848 3.848 0 0 1-.686 1.891z" class="prefix__cls-10" data-name="Path 2710" transform="translate(-710.923 -476.842)"/>
        <path id="prefix__Path_2711" d="M887.362 573.09a37.5 37.5 0 0 1-2.838 4.337c-.41.437-.74 3.386-.683 4.8s-.541 7.95-2.841 11.333c-1.615 2.386-1.508 5.992-1.31 7.915.085.805.19 1.31.19 1.31l-3.661 1.284h-4.394l-3.03-.9-.8-2.2s.266-.042.873-.159 1.528-.319 2.851-.633a3.434 3.434 0 0 0 2.726-3.115l1.858-12.973a12.417 12.417 0 0 0-.356-5.54 4.509 4.509 0 0 1 .3-3.951l.059-.092a36.992 36.992 0 0 1 5.787-3.68c2.587-1.249 5.21-1.842 5.955.373a3.848 3.848 0 0 1-.686 1.891z" class="prefix__cls-11" data-name="Path 2711" transform="translate(-710.923 -476.842)"/>
        <path id="prefix__Path_2712" d="M879.888 714.159l-3.661 1.284h-4.4l-3.03-.908-.8-2.2s.266-.042.873-.159a1.648 1.648 0 0 0 1.268 1.781l1.72.059c.242 0 .487.013.727.013a21.934 21.934 0 0 0 7.112-1.181c.09.8.191 1.311.191 1.311z" class="prefix__cls-5" data-name="Path 2712" transform="translate(-709.986 -591.872)"/>
        <path id="prefix__Path_2713" d="M859.874 712.921l-1.722-.059a1.68 1.68 0 0 1-1.214-2.163s-3.1-.7-3.892-.238-.41 3.03 1.829 3.658c2.183.613 10.36 1.515 12.711 1.146l.151-.026c2.13-.437 0-3.492 0-3.492a22.022 22.022 0 0 1-7.863 1.174z" class="prefix__cls-12" data-name="Path 2713" transform="translate(-697.975 -590.411)"/>
        <path id="prefix__Path_2714" d="M854.965 575.938c-.116.231-.24.471-.382.723a40.7 40.7 0 0 1-3.117 4.759c-.463.493-.832 3.82-.773 5.427s-.613 8.967-3.2 12.787a12.237 12.237 0 0 0-1.6 6.791q.01 1.094.129 2.183c.1.889.218 1.443.218 1.443l-4.13 1.447h-4.97l-3.42-1.017-.9-2.5s.3-.048.971-.181 1.72-.356 3.217-.709a3.881 3.881 0 0 0 3.084-3.514l2.093-14.64s.618-3.7-.4-6.254a5.02 5.02 0 0 1-.244-2.988 4.767 4.767 0 0 1 .655-1.576s.8-.629 2-1.46c.533-.367 1.15-.773 1.814-1.183 2.916-1.805 6.752-3.648 8.59-2.305a2.378 2.378 0 0 1 .847 1.22 3.1 3.1 0 0 1-.482 1.547z" class="prefix__cls-10" data-name="Path 2714" transform="translate(-682.574 -482.853)"/>
        <path id="prefix__Path_2715" d="M846.225 735.728l-4.13 1.447h-4.959l-3.42-1.017-.9-2.5s.3-.048.971-.181a1.823 1.823 0 0 0 .581 1.613 1.945 1.945 0 0 0 1.231.463l1.565.05c.273 0 .548.015.821.015a24.826 24.826 0 0 0 8.028-1.336c.101.892.212 1.446.212 1.446z" class="prefix__cls-5" data-name="Path 2715" transform="translate(-681.541 -608.53)"/>
        <path id="prefix__Path_2716" d="M823.59 734.335l-1.563-.052a1.965 1.965 0 0 1-1.233-.463 1.93 1.93 0 0 1-.517-1.993s-3.493-.792-4.394-.268-.461 3.42 2.065 4.13c2.473.692 11.693 1.709 14.348 1.294l.168-.031c2.4-.493 0-3.947 0-3.947a24.765 24.765 0 0 1-8.874 1.33z" class="prefix__cls-12" data-name="Path 2716" transform="translate(-667.917 -606.888)"/>
        <path id="prefix__Path_2717" d="M900.612 573.105a20.909 20.909 0 0 1-4.9 1.242 2.2 2.2 0 0 1-.373-.017 43 43 0 0 0-5.835.284c-.958.085-1.879.175-2.641.253l-1.917.2v-.74c.533-.367 1.15-.773 1.814-1.183 2.916-1.805 6.752-3.648 8.589-2.305 2.587-1.249 5.21-1.842 5.955.373a4 4 0 0 1-.692 1.893z" class="prefix__cls-5" data-name="Path 2717" transform="translate(-724.285 -472.671)"/>
        <path id="prefix__Path_2718" d="M907.724 497.88a10.338 10.338 0 0 1-3.429 6.882c-3.789 3.7-2.183 9.013-2.183 9.013s-4.518 1.775-6.468 1.823a2.187 2.187 0 0 1-.373-.017 69.88 69.88 0 0 0-8.485.537l-1.917.2V500.6l20.94-5.084 1.9 1.888a3.5 3.5 0 0 1 .015.476z" class="prefix__cls-13" data-name="Path 2718" transform="translate(-725.001 -413.753)"/>
        <g id="prefix__Group_1321" class="prefix__cls-15" data-name="Group 1321" transform="translate(159.878 81.772)">
            <path id="prefix__Path_2720" d="M885.255 587.878l-.345.037v.166s.782-.085 1.917-.2c1.917-.194 4.844-.467 6.78-.548a76.412 76.412 0 0 0-8.352.545z" data-name="Path 2720" transform="translate(-884.91 -567.279)"/>
            <path id="prefix__Path_2721" d="M942.744 497.44l-1.9-1.89-1.264.316 1.589 1.583a3.485 3.485 0 0 1 0 .474 10.343 10.343 0 0 1-3.429 6.883c-3.789 3.7-2.183 9.013-2.183 9.013a35.916 35.916 0 0 1-5.88 1.77 5.4 5.4 0 0 1 .611.033 2.182 2.182 0 0 0 .373.02c1.949-.048 6.468-1.823 6.468-1.823s-1.615-5.315 2.183-9.013a10.342 10.342 0 0 0 3.429-6.883 3.458 3.458 0 0 0 .003-.483z" data-name="Path 2721" transform="translate(-919.908 -495.55)"/>
        </g>
        <path id="prefix__Path_2722" d="M773.458 447.992s-6.33-4.392-6.8-.437 6.8 3.39 6.8 3.39z" class="prefix__cls-10" data-name="Path 2722" transform="translate(-627.083 -372.03)"/>
        <path id="prefix__Path_2723" d="M804.649 442.13s-3.425 2.266-5.32 2.126c0 0-5.178.694-5.78.347s-.969 5.02-.969 5.02l8.513-.6 5.457-.834s2.729-1.663 2.729-3.1-4.63-2.959-4.63-2.959z" class="prefix__cls-16" data-name="Path 2723" transform="translate(-649.153 -369.139)"/>
        <path id="prefix__Path_2724" d="M804.649 442.13s-3.425 2.266-5.32 2.126c0 0-5.178.694-5.78.347s-.969 5.02-.969 5.02l8.513-.6 5.457-.834s2.729-1.663 2.729-3.1-4.63-2.959-4.63-2.959z" class="prefix__cls-11" data-name="Path 2724" transform="translate(-649.153 -369.139)"/>
        <path id="prefix__Path_2725" d="M802.563 494.464s-7.7-.319-5.974 3.274 7.559-.768 7.559-.768z" class="prefix__cls-10" data-name="Path 2725" transform="translate(-651.307 -411.453)"/>
        <path id="prefix__Path_2726" d="M840.837 416.17s-6.241-4.669-5.361-10.355 5.361 4.353 5.361 4.353z" class="prefix__cls-13" data-name="Path 2726" transform="translate(-682.802 -338.509)"/>
        <path id="prefix__Path_2727" d="M795.933 313.162a7.9 7.9 0 0 1-2.22 5.481 7.419 7.419 0 0 1-1.139.971 7.789 7.789 0 0 1-3.709 1.395c-.271.026-.544.041-.821.041a7.7 7.7 0 0 1-2.6-.437 7.889 7.889 0 1 1 10.489-7.444z" class="prefix__cls-10" data-name="Path 2727" transform="translate(-638.946 -258.29)"/>
        <path id="prefix__Path_2728" d="M898.273 497.88c-.707.131-1.58.367-1.58.733 0 .618-9.862 3.947-9.862 3.947s.369.86-.615 2.34-9 9.984-9 9.984l.026.253.1.98.489 4.684s-3.082-1.109-4.069-.987a1.353 1.353 0 0 1-.984-.458 4.767 4.767 0 0 1 .655-1.576s.8-.629 2-1.46V500.6l20.94-5.084 1.9 1.888a3.513 3.513 0 0 1 0 .476z" class="prefix__cls-5" data-name="Path 2728" transform="translate(-715.479 -414.209)"/>
        <path id="prefix__Path_2729" d="M865.163 387.153s-2.467.244-2.467.862-9.862 3.947-9.862 3.947.369.86-.616 2.34-9 9.986-9 9.986l.618 5.916s-3.082-1.109-4.069-.987c-.437.055-.928-.352-1.332-.825a8.578 8.578 0 0 1-.888-1.268s1.111-4.687-.369-5.8 1.6-9.244 1.6-9.244 1.393-5.785.982-8.266a2.976 2.976 0 0 0-.118-.489.173.173 0 0 0-.017-.055c-.873-2.371-10.338-22.265-10.338-22.265a14.274 14.274 0 0 1 .118-1.687c.02-.155.046-.316.074-.48a8.143 8.143 0 0 1 .192-.873 5.467 5.467 0 0 1 .179-.544c.293-.751.74-1.329 1.408-1.342a4.137 4.137 0 0 1 2.475-1.041 10.77 10.77 0 0 1 5.54 1.041c5.791 2.462 7.149 2.589 7.149 2.589l2.91 3.82.6.784a75.5 75.5 0 0 1 5.939 9.015 16.049 16.049 0 0 0 3.988 4.994c3.331 2.476 5.304 9.872 5.304 9.872z" class="prefix__cls-16" data-name="Path 2729" transform="translate(-681.322 -302.107)"/>
        <path id="prefix__Path_2730" d="M894.65 437.05s8.229 2.034 11.418 7.164z" class="prefix__cls-5" data-name="Path 2730" transform="translate(-731.603 -364.985)"/>
        <path id="prefix__Path_2731" d="M906.3 478.34s1.556 10.449 1.124 11.235-1.124-11.235-1.124-11.235z" class="prefix__cls-5" data-name="Path 2731" transform="translate(-739.947 -398.888)"/>
        <path id="prefix__Path_2732" d="M878.3 493.451c-.6.784-3.027 6.841-3.027 6.841l.7 10.172.618 5.915s-3.08-1.109-4.067-.987c-.437.055-.93-.351-1.332-.825.64-3.464 2.008-10.713 2.255-10.853.325-.186 1.991-6.009 2.078-7.64s2.4-5.265 2.4-5.265.975 1.859.375 2.642z" class="prefix__cls-5" data-name="Path 2732" transform="translate(-712.081 -410.392)"/>
        <path id="prefix__Path_2733" d="M843.219 387.251c-.153.461-.389 3.143-.389 3.143a3.629 3.629 0 0 1-3.067 3.383 2.983 2.983 0 0 0-.118-.489c-.74-2.093-10.355-22.311-10.355-22.311a13.28 13.28 0 0 1 .384-3.043c2.093-.616 5.407.332 5.407.332.958-.127 4.084 6.088 4.084 6.088s2.082 4.759 2.312 5.407a11.473 11.473 0 0 1 .092 2.082c.092.371 1.065.69 1.2 1.2s.048 1.528.14 1.709a7.568 7.568 0 0 1 .31 2.499z" class="prefix__cls-5" data-name="Path 2733" transform="translate(-678.73 -309.89)"/>
        <path id="prefix__Path_2734" d="M835.245 385.539c-.153.463-.389 3.143-.389 3.143a3.491 3.491 0 0 1-2.462 3.211 5.16 5.16 0 0 1-1.48.295l-1.487 1.292-6.865 5.053S820 393.8 820.7 393.777s4.7-3.388 4.7-3.388c1.225-.655 2.451-2.838 3.021-3.96a3.442 3.442 0 0 1-.074-.406c-.247-2.093-5.424-10.109-5.424-10.109a15.138 15.138 0 0 1-2.781-6.719c-.022-.1-.037-.2-.057-.308a3.136 3.136 0 0 1-.039-.41c-.094-1.679 1.128-2.29 2.578-2.434a10.344 10.344 0 0 1 2.27.07 16.438 16.438 0 0 1 2.22.437c.62-.083 2.148 2.5 3.15 4.322.539.991.928 1.764.928 1.764s2.082 4.761 2.312 5.407a11.473 11.473 0 0 1 .092 2.082c.092.369 1.065.692 1.2 1.2s.048 1.528.14 1.709a7.589 7.589 0 0 1 .309 2.505z" class="prefix__cls-16" data-name="Path 2734" transform="translate(-671.34 -308.995)"/>
        <path id="prefix__Path_2735" d="M811.991 327.408a4.7 4.7 0 0 1-5.123.655 34.381 34.381 0 0 1-4.711-2.877c-1.022-.624-2.1-1.135-3.11-1.779-.148-.1-.293-.192-.437-.292-1.161-.821-2.168-1.875-3.37-2.619a5.238 5.238 0 0 0-2.707-.873 3.078 3.078 0 0 0-1.29.271 1.74 1.74 0 0 0-.218.107 5.567 5.567 0 0 0-1.091.819c-.341.306-.666.631-1.024.917-.022-.1-.037-.2-.057-.308a3.1 3.1 0 0 1-.039-.41c-.271.026-.544.042-.821.042a7.7 7.7 0 0 1-2.6-.437.177.177 0 0 0-.02-.1 6.216 6.216 0 0 0-2.078-4.073 14.467 14.467 0 0 0-2.886-1.091 7.889 7.889 0 1 1 14.865.853 10.77 10.77 0 0 1 5.54 1.041c5.791 2.462 7.149 2.589 7.149 2.589l2.91 3.82a3.266 3.266 0 0 0-.7 1.515c-.057 1.022.945 1.745 1.818 2.23z" class="prefix__cls-5" data-name="Path 2735" transform="translate(-640.675 -258.715)"/>
        <path id="prefix__Path_2736" d="M777.428 296.1a6.222 6.222 0 0 1 2.08 4.069 3.173 3.173 0 0 0 .476 1.38c.655.86 2 .618 2.866 0a16.839 16.839 0 0 1 2.517-1.991 4.337 4.337 0 0 1 4 .6c1.2.753 2.209 1.807 3.37 2.619 1.124.792 2.377 1.358 3.547 2.072a33.751 33.751 0 0 0 4.711 2.877c1.7.681 3.82.679 5.121-.655-.873-.485-1.875-1.2-1.807-2.24s1.277-1.814 1.2-2.879-1.334-1.482-2.233-2.006c-1.877-1.091-2.678-3.493-3.08-5.708-.312-1.733-.57-3.669-1.864-4.783-.836-.716-1.965-.95-2.807-1.659a8.632 8.632 0 0 1-1.746-2.635 10.479 10.479 0 0 0-3.385-3.957 5.429 5.429 0 0 0-4.892-.668c-.611.242-1.168.618-1.77.873-1.5.655-3.22.561-4.706 1.244-1.831.843-3.021 2.7-4.11 4.468-.921 1.513-2.748 4.18-2.231 6.145.506 1.994 3.385 1.887 4.743 2.834z" data-name="Path 2736" transform="translate(-634.733 -238.499)" style="fill:#4c3e42"/>
        <g id="prefix__Group_1322" class="prefix__cls-15" data-name="Group 1322" transform="translate(137.847 51.044)">
            <path id="prefix__Path_2737" d="M920.406 378.38a1.38 1.38 0 0 0-.042-.24 3.694 3.694 0 0 0-.784 1.639 1.488 1.488 0 0 0 .035.421 3.175 3.175 0 0 0 .791-1.82z" data-name="Path 2737" transform="translate(-887.486 -367.13)"/>
            <path id="prefix__Path_2738" d="M801.341 343.251a33.718 33.718 0 0 1-4.708-2.877c-1.172-.714-2.425-1.279-3.549-2.072-1.161-.821-2.168-1.875-3.37-2.619a4.369 4.369 0 0 0-4-.6 16.276 16.276 0 0 0-2.517 1.993c-.869.629-2.2.873-2.866 0a3.172 3.172 0 0 1-.476-1.38 6.22 6.22 0 0 0-2.078-4.069c-1.36-.95-4.239-.843-4.761-2.838a3.1 3.1 0 0 1-.068-1.091 4.362 4.362 0 0 0-.3 2.565c.524 2 3.4 1.9 4.761 2.838a6.227 6.227 0 0 1 2.08 4.071 3.2 3.2 0 0 0 .474 1.38c.655.86 2 .618 2.868-.011a16.155 16.155 0 0 1 2.517-1.991 4.344 4.344 0 0 1 4 .6c1.2.753 2.209 1.807 3.37 2.619 1.124.795 2.377 1.358 3.547 2.072a33.551 33.551 0 0 0 4.711 2.879c1.7.681 3.82.677 5.121-.655a6.273 6.273 0 0 1-.954-.631 5.44 5.44 0 0 1-3.802-.183z" data-name="Path 2738" transform="translate(-772.561 -327.7)"/>
        </g>
        <path id="prefix__Path_2739" d="M718.18 443.6l17.463-6.522a1.659 1.659 0 0 1 2.137.974 1.661 1.661 0 0 1-.976 2.137l-17.463 6.524-3.741-.375z" class="prefix__cls-13" data-name="Path 2739" transform="translate(-587.047 -365.113)"/>
        <path id="prefix__Path_2740" d="M737.234 438.449a1.663 1.663 0 0 1-.976 2.139L718.8 447.11l-2.811-.282-.4.437 3.741.375 17.463-6.524a1.661 1.661 0 0 0 .976-2.137 1.654 1.654 0 0 0-.679-.829 1.808 1.808 0 0 1 .153.3z" data-name="Path 2740" transform="translate(-587.031 -366.05)" style="fill:#fff;opacity:.1"/>
        <path id="prefix__Path_2741" d="M695.88 415.58l1.164 3.113-3.071-.308-.672-.068.919-.974z" data-name="Path 2741" transform="translate(-563.047 -337.541)" style="fill:#efc8c4"/>
        <path id="prefix__Path_2742" d="M716.532 475.42a.665.665 0 0 1 .179.2.282.282 0 0 1 0 .3.683.683 0 0 1-.17.12.557.557 0 0 0-.249.421l-.672-.068z" data-name="Path 2742" transform="translate(-585.144 -395.709)" style="fill:#727a9c"/>
        <path id="prefix__Path_2743" d="M646.329 290.629l-2.945-1.436a.356.356 0 0 1-.164-.476l.312-.642a.354.354 0 0 1 .476-.164l1.984.967 2.071-4.248a.358.358 0 0 1 .476-.166l.642.314a.354.354 0 0 1 .164.476l-2.541 5.21a.356.356 0 0 1-.475.165z" class="prefix__cls-21" data-name="Path 2743" transform="translate(-526.725 -240.87)"/>
        <path id="prefix__Path_2744" d="M675.8 374.783l-2.945-1.436a.356.356 0 0 1-.164-.476l.312-.642a.358.358 0 0 1 .478-.164l1.982.967 2.069-4.252a.358.358 0 0 1 .476-.166l.64.314a.356.356 0 0 1 .166.476l-2.541 5.21a.36.36 0 0 1-.478.164z" class="prefix__cls-21" data-name="Path 2744" transform="translate(-550.667 -309.266)"/>
        <path id="prefix__Path_2745" d="M662.565 333.289l-2.945-1.436a.358.358 0 0 1-.166-.476l.314-.642a.354.354 0 0 1 .476-.164l1.984.967 2.072-4.254a.356.356 0 0 1 .476-.164l.642.312a.36.36 0 0 1 .164.478l-2.543 5.215a.356.356 0 0 1-.476.164z" class="prefix__cls-21" data-name="Path 2745" transform="translate(-539.915 -275.54)"/>
        <path id="prefix__Path_2746" d="M688.6 412.8l-2.945-1.436a.356.356 0 0 1-.164-.476l.312-.642a.356.356 0 0 1 .476-.164l1.984.967 2.072-4.248a.36.36 0 0 1 .478-.166l.64.314a.354.354 0 0 1 .164.476l-2.539 5.21a.36.36 0 0 1-.478.165z" class="prefix__cls-21" data-name="Path 2746" transform="translate(-561.066 -340.168)"/>
        <path id="prefix__Path_2747" d="M182.714 693.36s1.3 1.7-.6 4.261-3.464 4.728-2.838 6.33c0 0 2.864-4.761 5.193-4.826s.807-2.901-1.755-5.765z" class="prefix__cls-21" data-name="Path 2747" transform="translate(-144.905 -576.438)"/>
        <path id="prefix__Path_2748" d="M183 693.36a2.09 2.09 0 0 1 .266.533c2.272 2.672 3.493 5.165 1.3 5.239-2.037.057-4.479 3.7-5.062 4.617a1.68 1.68 0 0 0 .068.218s2.864-4.761 5.193-4.826.795-2.917-1.765-5.781z" class="prefix__cls-5" data-name="Path 2748" transform="translate(-145.188 -576.439)"/>
        <path id="prefix__Path_2749" d="M205.509 701.9c0 .6-.068 1.091-.151 1.091s-.148-.485-.148-1.091.083-.316.166-.316.133-.284.133.316z" class="prefix__cls-22" data-name="Path 2749" transform="translate(-165.286 -582.638)"/>
        <path id="prefix__Path_2750" d="M206.7 705.044c-.524.286-.982.461-1.022.386s.354-.362.873-.655.316-.078.356 0 .321-.017-.207.269z" class="prefix__cls-22" data-name="Path 2750" transform="translate(-165.652 -585.077)"/>
        <path id="prefix__Path_2751" d="M153.689 693.36s-1.3 1.7.6 4.261 3.462 4.728 2.838 6.33c0 0-2.862-4.761-5.193-4.826s-.807-2.901 1.755-5.765z" class="prefix__cls-21" data-name="Path 2751" transform="translate(-122.739 -576.438)"/>
        <path id="prefix__Path_2752" d="M153.648 693.36a2.14 2.14 0 0 0-.264.533c-2.275 2.672-3.493 5.165-1.3 5.239 2.034.057 4.477 3.7 5.062 4.617a1.687 1.687 0 0 1-.07.218s-2.862-4.78-5.2-4.846-.79-2.897 1.772-5.761z" class="prefix__cls-5" data-name="Path 2752" transform="translate(-122.698 -576.439)"/>
        <path id="prefix__Path_2753" d="M153.05 701.9c0 .6.065 1.091.148 1.091s.151-.485.151-1.091-.083-.316-.166-.316-.133-.284-.133.316z" class="prefix__cls-22" data-name="Path 2753" transform="translate(-124.512 -582.638)"/>
        <path id="prefix__Path_2754" d="M148.116 705.044c.526.286.982.461 1.022.386s-.354-.362-.873-.655-.319-.078-.358 0-.315-.017.209.269z" class="prefix__cls-22" data-name="Path 2754" transform="translate(-120.407 -585.077)"/>
        <ellipse id="prefix__Ellipse_200" cx="13.575" cy="2.082" class="prefix__cls-1" data-name="Ellipse 200" rx="13.575" ry="2.082" transform="translate(20.807 135.602)"/>
        <path id="prefix__Path_2755" d="M161.749 728.535l-.065.53-.089.749-.039.312-.09.749-.041.312-.089.749-1.039 8.513c-.094.76-1.336 1.353-2.838 1.353h-5.394c-1.5 0-2.739-.594-2.838-1.353l-1.039-8.513-.092-.749-.037-.312-.094-.749-.037-.312-.092-.749-.065-.53c-.05-.437.62-.794 1.469-.794h11.043c.851-.001 1.517.359 1.466.794z" data-name="Path 2755" transform="translate(-120.383 -604.043)" style="fill:#65617d"/>
        <path id="prefix__Path_2756" d="M139.654 682.05l-.092.749H125.9l-.09-.749z" class="prefix__cls-24" data-name="Path 2756" transform="translate(-98.35 -557.028)"/>
        <path id="prefix__Path_2757" d="M139.986 686.91l-.092.749h-13.4l-.092-.749z" class="prefix__cls-24" data-name="Path 2757" transform="translate(-98.811 -560.827)"/>
        <path id="prefix__Path_2758" d="M140.316 691.77l-.092.749h-13.142l-.092-.749z" class="prefix__cls-24" data-name="Path 2758" transform="translate(-99.273 -564.626)"/>
    </g>
</svg>
