<svg xmlns="http://www.w3.org/2000/svg" width="27.029" height="31.198" viewBox="0 0 27.029 31.198">
    <defs>
        <style>
            .cls-1{fill:#8090b5}
        </style>
    </defs>
    <path id="Shape" d="M1.045 31.2H26a1.031 1.031 0 0 0 1.035-1.045v-2.1c-.173-3.5-2.08-4.091-2.157-4.113L18.2 21.97v-2.911a3.719 3.719 0 0 0 1.183-2.419H20.8a1.56 1.56 0 0 0 1.56-1.56v-3.12a1.56 1.56 0 0 0-1.04-1.464V7.28c0-4.15-3.353-7.28-7.8-7.28s-7.8 3.13-7.8 7.28v3.22a1.56 1.56 0 0 0-1.04 1.464v3.12a1.56 1.56 0 0 0 1.04 1.464v.616a2.08 2.08 0 0 0 2.08 2.08h1.04v2.726l-6.67 1.969c-.081.023-1.987.611-2.16 4.14v2.066A1.032 1.032 0 0 0 1.045 31.2zM6.764 8.372a6.6 6.6 0 0 1 6.76-5.252 6.628 6.628 0 0 1 6.76 5.252V10.4h-.643A4.567 4.567 0 0 0 18 7.465c-1.447-.868-5.976-.725-7.673-.616a2 2 0 0 0-1.315.561 6.887 6.887 0 0 0-1.566 2.99h-.682zm3.12 11.793c.851 1.1 1.251 2.194 2.819 2.194 2.357 0 2.78.216 4.006-1.567.138-.2.288-.413.454-.63v2.115c-.836 2.212-6.462 2.194-7.28 0zm7.394-1.658c-1.622 1.456-1.67 2.812-2.934 2.812-2.246 0-2.231.218-3.149-1.116-.2-.288-.432-.618-.722-.964h1.116a1.036 1.036 0 0 0 .9.52h2.08a1.04 1.04 0 0 0 1.04-1.04v-1.04a1.04 1.04 0 0 0-1.04-1.04h-2.08a1.04 1.04 0 0 0-1.04 1.04v.52H9.468a3.2 3.2 0 0 1-.775-2.688 7.524 7.524 0 0 0-.149-2.271 5.262 5.262 0 0 1-.078-2.633 5.817 5.817 0 0 1 1.285-2.462.979.979 0 0 1 .642-.26c1.691-.109 5.524-.237 7.077.473a4.728 4.728 0 0 1 1.251 3.465c-.12 1.255-.383 1.872-.383 2.86 0 1.616.321 2.581-1.059 3.822zm-4.794.212v-1.04h2.08v1.04zm8.84-3.64a.52.52 0 0 1-.52.52H19.4c-.08-2.229.165-1.664.355-3.676a4.415 4.415 0 0 0 .009-.484H20.8a.52.52 0 0 1 .52.52zm-1.392-9.888a7.463 7.463 0 0 0-6.408-3.111 7.463 7.463 0 0 0-6.408 3.111C9.052-.361 18-.354 19.932 5.191zM5.724 11.959a.52.52 0 0 1 .52-.52h1.047a9.68 9.68 0 0 0 .23 2 6.928 6.928 0 0 1 .127 2.161h-1.4a.52.52 0 0 1-.52-.52zm1.04 5.2v-.52h.9a3.562 3.562 0 0 0 .5 1.56H7.8a1.04 1.04 0 0 1-1.04-1.04zm-4.3 7.778l6.616-1.952c.412.725 1.54 1.973 4.446 1.973s4.034-1.248 4.446-1.976l6.609 1.95c.052.018 1.288.468 1.421 3.143v2.082H1.05V28.1c.133-2.7 1.366-3.151 1.412-3.167z" class="cls-1" transform="translate(-.01)"/>
</svg>
