<svg xmlns="http://www.w3.org/2000/svg" width="40.033" height="40" viewBox="0 0 40.033 40">
    <defs>
        <style>
            .prefix__cls-1{fill:#fa7c50}
        </style>
    </defs>
    <g id="prefix__Page-1" transform="translate(.002 -.005)">
        <g id="prefix___006---Confusion" data-name="006---Confusion" transform="translate(-.002 .005)">
            <path id="prefix__Shape" d="M1.981 24.931a4.818 4.818 0 0 0 .692.4c.288.147.771.394.805.567a1.158 1.158 0 0 1-.079.675c-.1.213-.2.4-.293.555-.244.431-.653 1.154-.037 1.657.144.133.393.326.619.5a1.679 1.679 0 0 0-.217.962.963.963 0 0 0 .4.656c.148.1.306.195.461.283.395.224.549.329.6.538a1.837 1.837 0 0 1-.067.8c-.039.178-.077.357-.1.533a3.968 3.968 0 0 0 .219 1.8 2.5 2.5 0 0 0 2.359 1.817 2.68 2.68 0 0 0 .547-.058 50.587 50.587 0 0 0 5.621-1.682c1.5.881 2.451 3.562 2.7 4.568a.667.667 0 0 0 .647.506l16.735-.047a.667.667 0 0 0 .635-.867 5.146 5.146 0 0 0-.675-1.267 6.226 6.226 0 0 1-.431-.721 12.558 12.558 0 0 1-.753-1.9 22.357 22.357 0 0 1-.789-3.945c-.019-.154-.035-.374-.049-.607.047 0 .092.014.14.014a2.667 2.667 0 1 0-1.494-.459c.013.437.042.909.079 1.213a23.769 23.769 0 0 0 .841 4.183 13.972 13.972 0 0 0 .827 2.087 7.4 7.4 0 0 0 .517.871l.045.067-15.122.042a10.621 10.621 0 0 0-2.347-4.258l.6-.21c.447-.156.783-.273.956-.329 2.856-.9 4.284-2.2 4.246-3.867a.667.667 0 1 0-1.333.031c.016.686-.546 1.687-3.318 2.564-.181.058-.529.179-.991.341-.5.173-1.125.393-1.82.629a51.881 51.881 0 0 1-5.734 1.733 1.179 1.179 0 0 1-1.368-.889 2.651 2.651 0 0 1-.157-1.189c.017-.14.049-.279.08-.418a2.918 2.918 0 0 0 .058-1.419 2.212 2.212 0 0 0-1.235-1.364l-.138-.079a2.5 2.5 0 0 1 .257-.412.667.667 0 0 0-.127-.949c-.16-.117-.537-.4-.813-.623l.1-.18c.1-.183.224-.4.341-.643a2.5 2.5 0 0 0 .178-1.492c-.16-.813-.939-1.212-1.507-1.5a3.863 3.863 0 0 1-.55-.319 2.89 2.89 0 0 1-.4-.323c0-.1.109-.347.617-.965A26.915 26.915 0 0 0 6 17.581a1.984 1.984 0 0 0 .257-.9 2.334 2.334 0 0 0-.974-1.667c-.267-.247-.523-.481-.553-.7a1.2 1.2 0 0 1 .1-.456c.109-.286.234-.566.36-.847a9.74 9.74 0 0 0 .652-1.758l.067-.284A16.668 16.668 0 0 1 6.459 9a11.434 11.434 0 0 1 2.392-3.905 11 11 0 0 1 5.976-2.84 43.337 43.337 0 0 1 6.256-.9 15.584 15.584 0 0 1 4.867.62A9.275 9.275 0 0 0 22.773 6.5a2.667 2.667 0 1 0 5.074 1.647 4 4 0 1 1 3.777 5.19 2.7 2.7 0 0 0-1.88.751A2.482 2.482 0 0 0 29 15.863v5.474a2.667 2.667 0 0 0 5.334 0v-3.055a9.328 9.328 0 1 0-6.912-17.237A17.365 17.365 0 0 0 21.013.022a44.5 44.5 0 0 0-6.449.925 12.126 12.126 0 0 0-6.683 3.23A12.774 12.774 0 0 0 5.207 8.54a18.084 18.084 0 0 0-.591 2.129l-.067.281a8.7 8.7 0 0 1-.57 1.519c-.133.3-.272.608-.391.923a2.226 2.226 0 0 0-.176 1.115A2.548 2.548 0 0 0 4.384 16c.326.3.54.509.543.693a1.1 1.1 0 0 1-.113.289A25.791 25.791 0 0 1 1.9 21.72a2.767 2.767 0 0 0-.883 1.961 2.037 2.037 0 0 0 .964 1.25zm29.687 1.739A1.333 1.333 0 1 1 30.335 28a1.333 1.333 0 0 1 1.333-1.33zm.914-25.285a8 8 0 0 1 .933 15.735.667.667 0 0 0-.515.65v3.567a1.333 1.333 0 0 1-2.667 0v-5.474a1.155 1.155 0 0 1 .345-.828 1.319 1.319 0 0 1 .966-.365h.022a5.272 5.272 0 0 0 5.285-4.594A5.337 5.337 0 0 0 26.573 7.75a1.327 1.327 0 0 1-2.334.375 1.353 1.353 0 0 1-.2-1.221 8.047 8.047 0 0 1 8.544-5.518z" class="prefix__cls-1" transform="translate(-.998 -.005)"/>
            <path id="prefix__Shape-2" d="M11.516 13.865l.067-.3a14.921 14.921 0 0 1 .447-1.646 8.826 8.826 0 0 1 1.838-3.014 7.013 7.013 0 0 1 3.087-1.7.67.67 0 1 0-.39-1.281 8.3 8.3 0 0 0-3.671 2.057 10.168 10.168 0 0 0-2.119 3.472 15.964 15.964 0 0 0-.5 1.815l-.067.29a.67.67 0 0 0 .5.8.658.658 0 0 0 .152.017.67.67 0 0 0 .656-.51z" class="prefix__cls-1" data-name="Shape" transform="translate(-4.069 -1.95)"/>
            <ellipse id="prefix__Oval" cx=".5" cy="1" class="prefix__cls-1" rx=".5" ry="1" transform="translate(6 13.126)"/>
        </g>
    </g>
</svg>
