<svg xmlns="http://www.w3.org/2000/svg" width="39.999" height="40" viewBox="0 0 39.999 40">
    <defs>
        <style>
            .prefix__cls-1{fill:#72709b}
        </style>
    </defs>
    <g id="prefix__Page-1" transform="translate(.002 .003)">
        <g id="prefix___010---Idea" data-name="010---Idea" transform="translate(-.002 -.003)">
            <path id="prefix__Shape" d="M1.981 25.925a4.753 4.753 0 0 0 .693.4c.288.147.771.394.8.567a1.158 1.158 0 0 1-.079.675c-.1.213-.2.4-.293.555-.244.431-.653 1.154-.037 1.657.144.133.393.326.619.5a1.679 1.679 0 0 0-.217.962.96.96 0 0 0 .4.655c.148.1.306.2.462.284.394.225.548.329.6.538a1.837 1.837 0 0 1-.067.8c-.039.178-.077.357-.1.533a3.967 3.967 0 0 0 .219 1.8 2.5 2.5 0 0 0 2.358 1.817 2.679 2.679 0 0 0 .547-.058 50.575 50.575 0 0 0 5.62-1.682c1.5.881 2.45 3.561 2.7 4.567a.667.667 0 0 0 .644.505l16.731-.047a.667.667 0 0 0 .635-.867 5.146 5.146 0 0 0-.675-1.267 6.225 6.225 0 0 1-.431-.721 12.6 12.6 0 0 1-.753-1.9 22.5 22.5 0 0 1-.783-3.9.667.667 0 1 0-1.322.163 23.777 23.777 0 0 0 .831 4.133 13.971 13.971 0 0 0 .827 2.087 7.4 7.4 0 0 0 .517.871l.045.067-15.117.043a10.62 10.62 0 0 0-2.346-4.257l.6-.21c.447-.156.783-.273.956-.329 2.856-.9 4.283-2.2 4.245-3.866a.649.649 0 0 0-.679-.651.667.667 0 0 0-.651.682c.016.686-.546 1.687-3.317 2.563-.181.058-.529.179-.991.341-.5.173-1.125.393-1.82.629A51.865 51.865 0 0 1 7.615 36.3a1.18 1.18 0 0 1-1.372-.889 2.651 2.651 0 0 1-.157-1.189c.017-.14.049-.279.08-.418a2.921 2.921 0 0 0 .058-1.419 2.215 2.215 0 0 0-1.234-1.363l-.139-.079a2.5 2.5 0 0 1 .257-.412.667.667 0 0 0-.127-.949c-.16-.117-.537-.4-.813-.623l.1-.18c.1-.183.224-.4.341-.643a2.5 2.5 0 0 0 .178-1.492c-.16-.813-.939-1.212-1.507-1.5a3.787 3.787 0 0 1-.548-.318 2.83 2.83 0 0 1-.4-.325c0-.1.108-.345.616-.964A26.816 26.816 0 0 0 6 18.577a1.969 1.969 0 0 0 .258-.9 2.333 2.333 0 0 0-.974-1.667c-.27-.247-.524-.481-.553-.7a1.211 1.211 0 0 1 .1-.458c.109-.286.234-.566.36-.847a9.739 9.739 0 0 0 .652-1.758l.067-.284A16.667 16.667 0 0 1 6.457 10a11.432 11.432 0 0 1 2.392-3.909 10.993 10.993 0 0 1 5.975-2.839 43.323 43.323 0 0 1 6.254-.9 14.215 14.215 0 0 1 3.138.178.667.667 0 0 0 .228-1.313 15.48 15.48 0 0 0-3.435-.2 44.486 44.486 0 0 0-6.448.925A12.122 12.122 0 0 0 7.88 5.175a12.773 12.773 0 0 0-2.674 4.361 18.083 18.083 0 0 0-.591 2.129l-.067.281a8.7 8.7 0 0 1-.57 1.519c-.133.3-.272.608-.391.923a2.233 2.233 0 0 0-.176 1.112 2.545 2.545 0 0 0 .972 1.489c.326.3.54.51.543.693a1.107 1.107 0 0 1-.114.29 25.719 25.719 0 0 1-2.92 4.744 2.758 2.758 0 0 0-.879 1.957 2.035 2.035 0 0 0 .968 1.252z" class="prefix__cls-1" transform="translate(-.998 -.997)"/>
            <path id="prefix__Shape-2" d="M11.51 14.831l.067-.3a14.856 14.856 0 0 1 .445-1.639 8.787 8.787 0 0 1 1.83-3 6.983 6.983 0 0 1 3.074-1.688.667.667 0 1 0-.388-1.276 8.259 8.259 0 0 0-3.655 2.048 10.125 10.125 0 0 0-2.11 3.457 15.9 15.9 0 0 0-.494 1.807l-.067.289a.667.667 0 0 0 .5.8.656.656 0 0 0 .151.017.667.667 0 0 0 .647-.515z" class="prefix__cls-1" data-name="Shape" transform="translate(-4.064 -2.962)"/>
            <circle id="prefix__Oval" cx="1" cy="1" r="1" class="prefix__cls-1" transform="translate(5.015 13.008)"/>
            <path id="prefix__Shape-3" d="M28 16.81a9.141 9.141 0 0 0 2.254 6.2 11.462 11.462 0 0 0 1.534 1.334 5.123 5.123 0 0 1 2.146 2.478 2 2 0 0 0-1.265 1.857v1.334A2 2 0 0 0 34 31.887v.123a2.668 2.668 0 0 0 5.335 0v-.123a2 2 0 0 0 1.334-1.878v-1.334a2 2 0 0 0-1.269-1.857 5.131 5.131 0 0 1 2.146-2.478 11.5 11.5 0 0 0 1.534-1.334 9.146 9.146 0 0 0 2.256-6.2 8.671 8.671 0 1 0-17.34 0zM34.668 18H34a.667.667 0 1 1 .667-.667zm2.668 8.67H36v-7.332h1.334zm-.667 6.669a1.334 1.334 0 0 1-1.334-1.334H38a1.334 1.334 0 0 1-1.331 1.338zm2.668-3.335a.667.667 0 0 1-.667.667h-4a.667.667 0 0 1-.67-.662v-1.334a.667.667 0 0 1 .667-.667h4a.667.667 0 0 1 .667.667zm4.669-13.178a7.8 7.8 0 0 1-1.906 5.286 10.423 10.423 0 0 1-1.359 1.172 9.337 9.337 0 0 0-2.067 1.973v-5.92h.667a2 2 0 1 0-2-2V18H36v-.667a2 2 0 1 0-2 2h.667v5.92a9.325 9.325 0 0 0-2.067-1.968 10.44 10.44 0 0 1-1.359-1.172 7.794 7.794 0 0 1-1.912-5.281 7.606 7.606 0 0 1 7.336-7.5 7.6 7.6 0 0 1 7.34 7.499zM38.67 18v-.667a.667.667 0 1 1 .667.667z" class="prefix__cls-1" data-name="Shape" transform="translate(-10.009 -3.329)"/>
            <path id="prefix__Shape-4" d="M56.667 21.334h2a.667.667 0 0 0 0-1.334h-2a.667.667 0 0 0 0 1.334z" class="prefix__cls-1" data-name="Shape" transform="translate(-19.336 -7.332)"/>
            <path id="prefix__Shape-5" d="M51.98 9.31a.667.667 0 0 0 .472-.2l1.414-1.41a.667.667 0 1 0-.943-.943l-1.415 1.414a.667.667 0 0 0 .472 1.139z" class="prefix__cls-1" data-name="Shape" transform="translate(-17.774 -2.847)"/>
            <path id="prefix__Shape-6" d="M40.667 4.335a.667.667 0 0 0 .667-.667v-2a.667.667 0 0 0-1.334 0v2a.667.667 0 0 0 .667.667z" class="prefix__cls-1" data-name="Shape" transform="translate(-14.001 -.998)"/>
            <path id="prefix__Shape-7" d="M29.115 9.115a.667.667 0 0 0 0-.944L27.7 6.756a.667.667 0 1 0-.943.943l1.415 1.415a.667.667 0 0 0 .944 0z" class="prefix__cls-1" data-name="Shape" transform="translate(-9.518 -2.847)"/>
            <path id="prefix__Shape-8" d="M21.667 20a.667.667 0 0 0 0 1.334h2a.667.667 0 0 0 0-1.334z" class="prefix__cls-1" data-name="Shape" transform="translate(-7.667 -7.332)"/>
        </g>
    </g>
</svg>
