<svg xmlns="http://www.w3.org/2000/svg" xmlns:xlink="http://www.w3.org/1999/xlink" width="102" height="72" viewBox="0 0 102 72">
  <defs>
    <clipPath id="clip-Artboard_3">
      <rect width="102" height="72"/>
    </clipPath>
  </defs>
  <g id="Artboard_3" data-name="Artboard – 3" clip-path="url(#clip-Artboard_3)">
    <rect width="102" height="72" fill-opacity="0"/>
    <g id="Group_1024" data-name="Group 1024" transform="translate(-3.861 -0.215)">
      <path id="Path_263" data-name="Path 263" d="M201.876-82.383,147.3-27.8,122.03-53.071a6.507,6.507,0,0,0-9.21,0h0a6.518,6.518,0,0,0,0,9.21l25.267,25.267,4.605,4.605a6.507,6.507,0,0,0,9.21,0l4.605-4.605,54.579-54.579a6.518,6.518,0,0,0,0-9.21h0A6.506,6.506,0,0,0,201.876-82.383Z" transform="translate(-107.13 84.293)" fill="#fa7b50"/>
    </g>
  </g>
</svg>
