<svg xmlns="http://www.w3.org/2000/svg" width="41.563" height="42.998" viewBox="0 0 41.563 42.998">
    <defs>
        <style>
            .prefix__cls-1{fill:#fa7c50}
        </style>
    </defs>
    <g id="prefix__ic_ststus" transform="translate(-.499 .015)">
        <g id="prefix__Group_1073" data-name="Group 1073" transform="translate(17.696 15.751)">
            <g id="prefix__Group_1072" data-name="Group 1072">
                <path id="prefix__Path_1792" d="M203.583 176a3.583 3.583 0 1 0 3.583 3.583 3.583 3.583 0 0 0-3.583-3.583zm0 5.733a2.15 2.15 0 1 1 2.15-2.15 2.15 2.15 0 0 1-2.15 2.15z" class="prefix__cls-1" data-name="Path 1792" transform="translate(-200 -176)"/>
            </g>
        </g>
        <g id="prefix__Group_1077" data-name="Group 1077" transform="translate(9.825 1.407)">
            <g id="prefix__Group_1076" data-name="Group 1076">
                <rect id="prefix__Rectangle_295" height="1.441" class="prefix__cls-1" data-name="Rectangle 295"/>
            </g>
        </g>
        <g id="prefix__Group_1093" data-name="Group 1093" transform="translate(40.083 15.815)">
            <g id="prefix__Group_1092" data-name="Group 1092">
                <rect id="prefix__Rectangle_302" height="1.441" class="prefix__cls-1" data-name="Rectangle 302"/>
            </g>
        </g>
        <g id="prefix__Group_1095" data-name="Group 1095" transform="translate(3.363 25.784)">
            <g id="prefix__Group_1094" data-name="Group 1094">
                <path id="prefix__Path_1795" d="M43.583 288h-2.866a.717.717 0 0 0-.717.717v2.867a.717.717 0 0 0 .717.717h2.867a.717.717 0 0 0 .717-.717v-2.867a.717.717 0 0 0-.718-.717zm-.717 2.867h-1.433v-1.433h1.433z" class="prefix__cls-1" data-name="Path 1795" transform="translate(-40 -288)"/>
            </g>
        </g>
        <g id="prefix__Group_1097" data-name="Group 1097" transform="translate(3.363 31.517)">
            <g id="prefix__Group_1096" data-name="Group 1096">
                <path id="prefix__Path_1796" d="M43.583 352h-2.866a.717.717 0 0 0-.717.717v2.867a.717.717 0 0 0 .717.717h2.867a.717.717 0 0 0 .717-.717v-2.867a.717.717 0 0 0-.718-.717zm-.717 2.867h-1.433v-1.433h1.433z" class="prefix__cls-1" data-name="Path 1796" transform="translate(-40 -352)"/>
            </g>
        </g>
        <g id="prefix__Group_1099" data-name="Group 1099" transform="translate(16.263 24.35)">
            <g id="prefix__Group_1098" data-name="Group 1098">
                <path id="prefix__Path_1797" d="M187.583 272h-2.867a.717.717 0 0 0-.717.717v2.867a.717.717 0 0 0 .717.717h2.867a.717.717 0 0 0 .717-.717v-2.867a.717.717 0 0 0-.717-.717zm-.717 2.867h-1.433v-1.433h1.433z" class="prefix__cls-1" data-name="Path 1797" transform="translate(-184 -272)"/>
            </g>
        </g>
        <g id="prefix__Group_1101" data-name="Group 1101" transform="translate(21.996 24.35)">
            <g id="prefix__Group_1100" data-name="Group 1100">
                <path id="prefix__Path_1798" d="M251.583 272h-2.867a.717.717 0 0 0-.717.717v2.867a.717.717 0 0 0 .717.717h2.867a.717.717 0 0 0 .717-.717v-2.867a.717.717 0 0 0-.717-.717zm-.717 2.867h-1.433v-1.433h1.433z" class="prefix__cls-1" data-name="Path 1798" transform="translate(-248 -272)"/>
            </g>
        </g>
        <g id="prefix__Group_1103" data-name="Group 1103" transform="translate(16.263 30.084)">
            <g id="prefix__Group_1102" data-name="Group 1102">
                <path id="prefix__Path_1799" d="M187.583 336h-2.867a.717.717 0 0 0-.717.717v2.867a.717.717 0 0 0 .717.717h2.867a.717.717 0 0 0 .717-.717v-2.867a.717.717 0 0 0-.717-.717zm-.717 2.867h-1.433v-1.433h1.433z" class="prefix__cls-1" data-name="Path 1799" transform="translate(-184 -336)"/>
            </g>
        </g>
        <g id="prefix__Group_1105" data-name="Group 1105" transform="translate(21.996 30.084)">
            <g id="prefix__Group_1104" data-name="Group 1104">
                <path id="prefix__Path_1800" d="M251.583 336h-2.867a.717.717 0 0 0-.717.717v2.867a.717.717 0 0 0 .717.717h2.867a.717.717 0 0 0 .717-.717v-2.867a.717.717 0 0 0-.717-.717zm-.717 2.867h-1.433v-1.433h1.433z" class="prefix__cls-1" data-name="Path 1800" transform="translate(-248 -336)"/>
            </g>
        </g>
        <g id="prefix__Group_1107" data-name="Group 1107" transform="translate(19.911 18.697)">
            <g id="prefix__Group_1106" data-name="Group 1106">
                <path id="prefix__Rectangle_303" d="M0 0H1.441V1.441H0z" class="prefix__cls-1" data-name="Rectangle 303"/>
            </g>
        </g>
        <g id="prefix__Group_1109" data-name="Group 1109" transform="translate(.499 -.015)">
            <g id="prefix__Group_1108" data-name="Group 1108">
                <path id="prefix__Path_1801" d="M49.578 23.606a.718.718 0 0 0-.039-.191.691.691 0 0 0-.024-.067.718.718 0 0 0-.137-.2l-4.3-4.3a.717.717 0 0 0-.509-.213h-7.882v-5.019a.705.705 0 0 0-.275-.551l.006-.009-6.9-5.518V4.3h4.3a.717.717 0 0 0 .717-.717V.717A.717.717 0 0 0 33.821 0H28.8a.717.717 0 0 0-.717.717v6.821l-6.9 5.518.006.009a.705.705 0 0 0-.275.551v5.016h-7.876a.717.717 0 0 0-.507.21l-4.3 4.3a.717.717 0 0 0-.137.2.689.689 0 0 0-.024.067.717.717 0 0 0-.039.19c0 .016-.009.029-.009.044v18.638a.717.717 0 0 0 .719.719H48.87a.717.717 0 0 0 .717-.717V23.649c0-.015-.008-.028-.009-.043zM29.521 1.433H33.1v1.434h-3.579zM13.038 20.362l2.57 2.57h-5.14zm3.583 21.2H9.455V38.7h7.166zm0-4.3H9.455v-12.9h7.166zm4.3 4.3h-2.866v-17.2h2.867zm0-18.632h-3.286l-2.867-2.867h6.153zM28.8 8.8l5.123 4.1H23.68zm-.717 32.764h-1.429v-4.3h1.433zm2.867 0h-1.429v-4.3h1.433zm4.3 0h-2.863v-5.016a.717.717 0 0 0-.717-.717h-5.732a.717.717 0 0 0-.717.717v5.016h-2.866V14.333h12.9zm11.89-18.632H42l2.57-2.57zm-7.586 18.633h-2.867v-17.2h2.867zm-2.867-18.633v-2.866h6.153l-2.867 2.867zm11.466 18.633h-7.166V38.7h7.166zm0-4.3h-7.166v-12.9h7.166z" class="prefix__cls-1" data-name="Path 1801" transform="translate(-8.024)"/>
            </g>
        </g>
        <g id="prefix__Group_1111" data-name="Group 1111" transform="translate(34.895 25.784)">
            <g id="prefix__Group_1110" data-name="Group 1110">
                <path id="prefix__Path_1802" d="M395.583 288h-2.867a.717.717 0 0 0-.717.717v2.867a.717.717 0 0 0 .717.717h2.867a.717.717 0 0 0 .717-.717v-2.867a.717.717 0 0 0-.717-.717zm-.717 2.867h-1.433v-1.433h1.433z" class="prefix__cls-1" data-name="Path 1802" transform="translate(-392 -288)"/>
            </g>
        </g>
        <g id="prefix__Group_1113" data-name="Group 1113" transform="translate(34.895 31.517)">
            <g id="prefix__Group_1112" data-name="Group 1112">
                <path id="prefix__Path_1803" d="M395.583 352h-2.867a.717.717 0 0 0-.717.717v2.867a.717.717 0 0 0 .717.717h2.867a.717.717 0 0 0 .717-.717v-2.867a.717.717 0 0 0-.717-.717zm-.717 2.867h-1.433v-1.433h1.433z" class="prefix__cls-1" data-name="Path 1803" transform="translate(-392 -352)"/>
            </g>
        </g>
    </g>
</svg>
