<svg xmlns="http://www.w3.org/2000/svg" width="31.752" height="47.106" viewBox="0 0 31.752 47.106">
    <g id="prefix__man" transform="translate(-83.447)">
        <g id="prefix__Group_1137" data-name="Group 1137" transform="translate(83.447)">
            <path id="prefix__Path_1832" d="M114.508 38.167a.69.69 0 0 0-.69.69v6.488a.381.381 0 0 1-.381.381h-3.709V32.137a.69.69 0 1 0-1.38 0v13.589h-7.469l2.166-2.383a1.237 1.237 0 0 0 .3-.992v-.021l-2.063-12.188.556-.837a1.565 1.565 0 0 0 .988.428 1.208 1.208 0 0 0 1.082-.669l2.176-4.361 4.957 1.92a4.781 4.781 0 0 1 2.783 4.346v4.667a.69.69 0 1 0 1.38 0V30.97a6.158 6.158 0 0 0-3.642-5.624l-.013-.005-8.25-3.195v-1.935a6.465 6.465 0 0 0 2.447-4.253 2.987 2.987 0 0 0 1.755-.716 2.93 2.93 0 0 0 .306-4.134V8.552a8.552 8.552 0 1 0-17.1 0v2.623a2.771 2.771 0 0 0-.711 1.847A2.924 2.924 0 0 0 91 15.242a2.985 2.985 0 0 0 1.754.715 6.4 6.4 0 0 0 2.587 4.355v1.833L87.1 25.34l-.013.005a6.158 6.158 0 0 0-3.642 5.624v14.376a1.763 1.763 0 0 0 1.761 1.761h6.574a.69.69 0 1 0 0-1.38H90.3V32.137a.69.69 0 0 0-1.38 0v13.589h-3.71a.381.381 0 0 1-.381-.381V30.97a4.781 4.781 0 0 1 2.782-4.346l4.953-1.92 2.176 4.361a1.208 1.208 0 0 0 1.082.669 1.564 1.564 0 0 0 .988-.428l.556.837L95.3 42.33v.021a1.237 1.237 0 0 0 .3.993l2.166 2.383H95a.69.69 0 1 0 0 1.38h18.434a1.763 1.763 0 0 0 1.761-1.761v-6.489a.69.69 0 0 0-.687-.69zM104.785 24.2l-2.029 4.066-2.44-1.733 2.506-3.093zm-4.079 4.3l-.526.792h-1.72l-.526-.792 1.386-.985zm-3.984-6.138v-1.285a7 7 0 0 0 2.609.495 6.478 6.478 0 0 0 2.581-.538v1.34l-2.593 3.2zm10.409-9.346a1.546 1.546 0 0 1-.537 1.173 1.607 1.607 0 0 1-.8.367v-3.08a1.561 1.561 0 0 1 1.338 1.546zM92.7 14.562a1.559 1.559 0 0 1-1.334-1.54 1.639 1.639 0 0 1 1.334-1.505zm.037-4.451a3.411 3.411 0 0 0-.659.149V8.552a7.172 7.172 0 1 1 14.344 0v1.66a3.068 3.068 0 0 0-.622-.12c0-.666.006-.537-2.172-2.879a1.228 1.228 0 0 0-1.567-.191 13.3 13.3 0 0 1-8.043 2.165 1.227 1.227 0 0 0-1.282.924zm1.343 4.995v-4.532a14.746 14.746 0 0 0 8.62-2.326c1 1.073 1.54 1.635 1.714 1.849v5.009a5.17 5.17 0 0 1-10.339 0zm1.8 13.164l-2.025-4.07 1.959-.759 2.506 3.094zm.792 14.209l2-11.8h1.295l2 11.8-2.647 2.909z" data-name="Path 1832" transform="translate(-83.447)" style="fill:#fa7c50"/>
        </g>
    </g>
</svg>
